<?xml version="1.0" encoding="utf-8"?>
<!-- Generator: Adobe Illustrator 24.0.3, SVG Export Plug-In . SVG Version: 6.00 Build 0)  -->
<svg version="1.1" id="Layer_1" xmlns="http://www.w3.org/2000/svg" xmlns:xlink="http://www.w3.org/1999/xlink" x="0px" y="0px"
	 viewBox="0 0 332.3 36.2" style="enable-background:new 0 0 332.3 36.2;" xml:space="preserve">
<style type="text/css">
	.st0{enable-background:new    ;}
	.st1{fill:#231F20;}
</style>
<g>
	<g class="st0">
		<path class="st1" d="M26.4,19.3V33v0.1h-2.8h-3V33V21.2v-1.1h-13v1.1V33v0.1H4.7h-3V33V19.3v-3.9V2.5V2.4h3h2.9v0.1V14v1h13v-1
			V2.5V2.4h3.1h2.8v0.1v12.9L26.4,19.3z"/>
		<path class="st1" d="M62.7,17.7c0,8.9-6.7,15.9-16,15.9c-9,0-15.8-7-15.8-15.8c0-8.9,7-15.8,16.3-15.8
			C56.2,2.1,62.7,8.9,62.7,17.7L62.7,17.7z M56.6,17.8c0-5.8-4.1-10.3-9.8-10.3s-10,4.5-10,10.4c0,5.7,4.1,10.4,10,10.4
			C52.7,28.2,56.6,23.7,56.6,17.8L56.6,17.8z"/>
		<path class="st1" d="M92.5,33.6h-0.7c-6.9-6.8-11-10.9-13.7-13.6c-1.9-1.9-3.3-3.2-5.5-5.7l0,0c0,1.5,0,2.8,0,5.8v13v0.1h-2.9
			h-2.6v-0.1V19.4V2.2h0.7c7.2,7.1,11.4,11.3,14,14c1.7,1.7,3.3,3.3,5.1,5.4H87c0-1.8,0-3.1,0-6.6V2.7V2.6h2.9h2.6v0.1v12.9
			L92.5,33.6z"/>
		<path class="st1" d="M128.7,17.8c0,8.9-6.7,15.9-16,15.9c-9,0-15.8-7-15.8-15.8c0-8.9,7-15.8,16.3-15.8
			C122.2,2.3,128.7,9,128.7,17.8L128.7,17.8z M122.7,17.9c0-5.8-4.1-10.3-9.8-10.3s-10,4.5-10,10.4c0,5.7,4.1,10.4,10,10.4
			C118.7,28.4,122.7,23.8,122.7,17.9L122.7,17.9z"/>
	</g>
	<g class="st0">
		<path class="st1" d="M133.1,15.7V2.9V2.7h3h2.9v0.2v12.8v3.9v8.5c0,0.2,0,0.2,0.2,0.2h6.5h1.7h1.1h0.2v5h-7.2h-8.4v-0.2V19.5V15.7
			z"/>
	</g>
	<g class="st0">
		<path class="st1" d="M151.4,15.7V2.8V2.7h2.9h3v0.1v12.9v3.8c0,2.9,0.3,4.8,1,6.2c1.1,1.8,3.3,2.8,5.5,2.8c2.3,0,4.2-0.9,5.4-2.5
			c1-1.5,1.3-3.5,1.3-6.6v-3.7V2.8V2.7h2.9h2.9v0.2v12.9v3.7c0,3.9-0.4,6.6-1.7,8.8c-1.7,3.1-5.5,5.7-10.7,5.7
			c-5.3,0-9.3-2.2-11.2-6c-1.1-2.1-1.4-4.5-1.4-8.4L151.4,15.7z"/>
		<path class="st1" d="M181.9,15.8V3V2.8h3h2.9V3v12.8v3.9v8.5c0,0.2,0,0.2,0.2,0.2h6.5h1.7h1.1h0.2v5h-7.2h-8.4v-0.2V19.6
			L181.9,15.8z"/>
		<path class="st1" d="M199.6,15.8V2.9V2.8h2.9h3v0.1v12.9v3.8c0,2.9,0.3,4.8,1,6.2c1.1,1.8,3.3,2.8,5.5,2.8c2.3,0,4.2-0.9,5.4-2.5
			c1-1.5,1.3-3.5,1.3-6.6v-3.7V2.9v0h2.9h2.9V3v12.9v3.7c0,3.9-0.4,6.6-1.7,8.8c-1.7,3.1-5.5,5.7-10.7,5.7c-5.3,0-9.3-2.2-11.2-6
			c-1.1-2.1-1.4-4.5-1.4-8.4L199.6,15.8z"/>
		<path class="st1" d="M252.8,19.9c-1.5,2.6-3.3,5.8-5,8.6v0.2h10.1h3.7h0.1v5h-17.8h-2.1h-3.2v-0.1c2.5-4.6,5.1-9.1,7.5-13.7
			l2.2-3.9c1.4-2.6,3-5.3,4.5-7.9V7.9H244h-3.7h-0.2V3h17.5h2.9h1.5v0.1c-2.3,4.3-4.6,8.6-6.9,12.9L252.8,19.9z"/>
		<path class="st1" d="M295.2,18.2c0,8.9-6.7,15.9-16,15.9c-9,0-15.8-7-15.8-15.8c0-8.9,7-15.8,16.3-15.8
			C288.7,2.6,295.2,9.4,295.2,18.2L295.2,18.2z M289.1,18.3c0-5.8-4.1-10.3-9.8-10.3c-5.7,0-10,4.5-10,10.4c0,5.7,4.1,10.4,10,10.4
			S289.1,24.2,289.1,18.3L289.1,18.3z"/>
		<path class="st1" d="M330.2,18.3c0,8.9-6.7,15.9-16,15.9c-9,0-15.8-7-15.8-15.8c0-8.9,7-15.8,16.3-15.8
			C323.7,2.7,330.2,9.5,330.2,18.3L330.2,18.3z M324.1,18.4c0-5.8-4.1-10.3-9.8-10.3c-5.7,0-10,4.5-10,10.4c0,5.7,4.1,10.4,10,10.4
			S324.1,24.3,324.1,18.4L324.1,18.4z"/>
	</g>
</g>
</svg>
