<?xml version="1.0" encoding="utf-8"?>
<!-- Generator: Adobe Illustrator 24.0.3, SVG Export Plug-In . SVG Version: 6.00 Build 0)  -->
<svg version="1.1" xmlns="http://www.w3.org/2000/svg" xmlns:xlink="http://www.w3.org/1999/xlink" x="0px" y="0px"
	 viewBox="0 0 252 126" style="enable-background:new 0 0 252 126;" xml:space="preserve">
<style type="text/css">
	.st0{display:none;}
	.st1{display:inline;fill:#231F20;}
	.st2{fill:#231F20;}
	.st3{fill:none;}
	.st4{fill:#FFFFFF;stroke:#FFFFFF;stroke-width:3.7374;stroke-miterlimit:10;}
	.st5{font-family:'ITCKabelStd-Medium';}
	.st6{font-size:29.8654px;}
	.st7{fill:none;stroke:#FFFFFF;stroke-width:1.1876;stroke-miterlimit:10;}
	.st8{fill:none;stroke:#231F20;stroke-width:1.1876;stroke-miterlimit:10;}
	.st9{fill:#231F20;stroke:#231F20;stroke-width:1.1876;stroke-miterlimit:10;}
	.st10{fill:#FFFFFF;}
	.st11{fill:#FCFDFF;stroke:#231F20;stroke-width:0.6221;stroke-miterlimit:10;}
</style>
<g id="Layer_2" class="st0">
	<rect x="0.1" y="-126.6" class="st1" width="252" height="252"/>
</g>
<g id="Layer_1">
	<g>
		<text transform="matrix(1 0 0 1 35.6048 118.67)" class="st2 st5 st6">Honolulu Zoo</text>
		<g>
			<path class="st7" d="M116.5,26c-8,1.4-18,0.7-17.7-8.9"/>
			<path class="st8" d="M145.3,74c0,0.1,2.3,5.9-20.2,0c-4-1.5-9.7-5.1-9.2-12c0.1-2,0.4-3.8,1-5.5c-3-0.8-4.3-4.7-4.3-6.3
				c0-4.4,9.9-2.9,14.9-1.8c12.4,2.7,12,7,12,8c2.4,1,10.1,6.6,10.7,7.6C150.9,65.2,147.6,74.2,145.3,74z"/>
			<path class="st2" d="M136.4,59.7c0,1.1-0.4,1.3-1.5,1.5c-0.3,0-2.8-0.6-2.9-1c-0.3-1.1,1.7-2.2,2.5-2.4c0.4-0.1,4.2-0.9,2.8,2.6
				c0,0.1-1.5-2.2-1.4-2.1C136.2,58.7,136.4,59.2,136.4,59.7z"/>
			<g>
				<path class="st2" d="M108.5,45.2c1.1-0.8,2.3-1.3,3.6-1.7s2.6-0.5,4-0.4c1.3,0.1,2.6,0.4,3.9,0.9c1.2,0.5,2.4,1.1,3.5,1.9
					c0.5,0.4,1,0.8,1.5,1.3c0.2,0.2,0.3,0.3,0.4,0.5c0.8,0.1,1.5,0.3,2.2,0.4c3,0.7,5.2,1.4,6.9,2.2c0.1-0.1,0.1-0.1,0.1-0.1
					c0.4-1.6-3.1-10.4-12.8-10.4c-6.4,0-11,2.4-14.1,6.1C107.9,45.7,108.2,45.4,108.5,45.2z"/>
				<path class="st2" d="M131.4,75.2c-1.8-0.4-3.9-0.9-6.2-1.5c-4-1.5-9.7-5.1-9.2-12c0.1-2,0.4-3.8,1-5.5c-3-0.8-4.3-4.7-4.3-6.3
					c0-3.4,5.9-3.3,10.9-2.5c-0.2-0.2-0.5-0.4-0.8-0.6c-1-0.7-2.1-1.3-3.2-1.7s-2.3-0.7-3.5-0.8c-1.2-0.1-2.4,0-3.6,0.3
					c-1.2,0.3-2.3,0.8-3.3,1.5c-1,0.7-1.9,1.5-2.7,2.5c-0.4,0.5-0.8,1-1.1,1.5c-0.2,0.2-0.3,0.5-0.5,0.8c-0.2,0.3-0.3,0.5-0.5,0.8
					c-0.2,0.3-0.3,0.6-0.4,0.8c-0.1,0.2-0.2,0.4-0.3,0.6c-0.3,0.9-0.6,1.9-0.8,2.9c-2.5,11.6,11.6,24.9,20.9,27.4
					c9.6,2.6,15.8,0.9,15.8,0.9C135.9,81.1,133.2,78.1,131.4,75.2z"/>
			</g>
			<path class="st8" d="M109.7,31.9c6.2-8.7,27.8,1.1,34.3-10.5c2.1-3.7,5-2.7,6.9-0.2c1.6,2,3.3,6.6,3.3,6.6
				c-5.5-4.4-12.5-7-20.1-7c-17.8,0-32.2,14.5-32.2,32.3c0,3.6,0.9,7,2,10.3c-1.2-3.3-4.7-22.5,13.7-26.7
				c11.8-2.7,18.8,4.8,21.5,8.6c0.4,0.6,1.3,0.4,1.5-0.3c0.3-1.1,0.1-3-0.5-4.6c-0.6-1.6-3.1-5.2-6.2-1.9c0,0-0.7-6.7-8-7.8
				c-11.9-1.7-22.4,11.4-23.5,21.7c-0.4,3.6,0.5,7.1,1.6,11"/>
			<path class="st2" d="M154.2,27.9c0,0-3.8-3.6-10-5.7C147.8,12.7,154.2,27.9,154.2,27.9z"/>
			<path class="st9" d="M104.1,63.4c-1.8-5.5-2.5-23.9,13.9-26.6c11.9-2,18.4,4.6,21.1,8.4c0.4,0.6,1.3,0.4,1.5-0.3
				c0.3-1.1,0.1-3-0.5-4.6c-0.6-1.6-3.1-5.2-6.2-1.9c0,0-0.7-6.7-8-7.8C114,28.9,103,41.6,102.7,52.4C102.7,56,103,59.6,104.1,63.4"
				/>
			<path class="st10" d="M138.6,41.2c-0.4,0.4-1.1,0.4-1.5,0s-0.5-1.1,0-1.5C138,39,139.2,40.7,138.6,41.2z"/>
			<path class="st10" d="M149.3,23.1c0,0-1.4-0.2-1.8-0.8s-0.3-1.2,0.2-1.5c0.5-0.3,1.2-0.2,1.5,0.3
				C149.7,21.8,149.3,23.1,149.3,23.1z"/>
			<path class="st11" d="M130,37.8c-1.4-0.5-1.2-1.9-0.7-2.4c1.9-1.9,4.9,1.9,6,4.3c0.2,0.5-0.3,0.9-0.7,0.6
				c-3.4-2.5-7.1-3.9-12.3-3.8c-1.6,0-2.7-1.6-2.2-3.1c0.6-1.6,2.6-2.6,4.6-1.6c2.2,1.1,6.1,5.7,3.3,5.2"/>
			<path class="st2" d="M120.4,23.5c-6.8,3.7-11.4,3.1-14.8,1.9C97,22.2,98.7,9.5,98.7,9.5c2.8,6.1,22.1,6.6,44.9,12.1
				c0,0-16.1-2.8-23,1.9"/>
			<path class="st7" d="M136.7,22.2c-13-1.9-23.3-1.3-28.8-2.9c-12.7-3.7-9.2-9.8-9.2-9.8c2.8,6.1,21.8,5.9,44.6,11.5"/>
			<path class="st7" d="M128.7,22.5c-8.7-0.4-31.5,6.2-30.8-10.4"/>
			<path class="st7" d="M117.1,64.1c0.2,1.8,4.8,18.6,22.9,20.4"/>
			<path class="st10" d="M135.7,85.5C135.7,85.5,135.7,85.5,135.7,85.5c-7.6,0-13.7-1.4-18.4-4.1c-4.2-2.4-7.1-5.9-8.6-10.2
				c-1.4-3.9-1.5-8.5-0.3-12.9c1.1-4,3.1-7.4,5.5-9.3l0,0l0.7,0.9c0,0-0.1,0.1-0.1,0.1c-4.4,3.5-7.4,12.9-4.7,20.8
				c1.4,4.1,4.2,7.4,8.1,9.7c4.5,2.6,10.5,4,17.8,4c0.3,0,0.5,0,0.8,0l4.2-0.1l0,0l0,1.1C140.4,85.4,136,85.5,135.7,85.5z"/>
			<path class="st7" d="M127.7,51.6c-0.8-3.4-12.8-14.4-21.9-3"/>
		</g>
	</g>
</g>
</svg>
