<?xml version="1.0" encoding="utf-8"?>
<!-- Generator: Adobe Illustrator 24.0.3, SVG Export Plug-In . SVG Version: 6.00 Build 0)  -->
<svg version="1.1" xmlns="http://www.w3.org/2000/svg" xmlns:xlink="http://www.w3.org/1999/xlink" x="0px" y="0px"
	 viewBox="0 0 252 126" style="enable-background:new 0 0 252 126;" xml:space="preserve">
<style type="text/css">
	.st0{display:none;}
	.st1{display:inline;fill:#231F20;}
	.st2{fill:#231F20;}
	.st3{font-family:'PenumbraSansStd-Semibold';}
	.st4{font-size:25.5247px;}
	.st5{fill:none;}
	.st6{fill:#FFFFFF;stroke:#FFFFFF;stroke-width:3.7374;stroke-miterlimit:10;}
	.st7{fill:none;stroke:#FFFFFF;stroke-width:1.1876;stroke-miterlimit:10;}
	.st8{fill:none;stroke:#231F20;stroke-width:1.1876;stroke-miterlimit:10;}
	.st9{fill:#231F20;stroke:#231F20;stroke-width:1.1876;stroke-miterlimit:10;}
	.st10{fill:#FFFFFF;}
	.st11{fill:#FCFDFF;stroke:#231F20;stroke-width:0.6221;stroke-miterlimit:10;}
</style>
<g id="Layer_2" class="st0">
</g>
<g id="Layer_1">
	<g>
		<g>
			<circle class="st2" cx="114.4" cy="56.5" r="2.1"/>
			<path class="st2" d="M105.3,77.5c1.8,0.2,4.7-0.2,8-1.5c1.7-2.3,2-5.6,1.9-6.7c-0.2-1.4,0.8-4.1,0.9-4.5c0.1-0.4-1-0.3-1-0.3
				c0.5-0.5,0.9-1.1,0.9-1.1c-1.8-4.8-8.2-3.5-8.2-3.5s0.2-1.1-0.4-0.9c-0.6,0.1-4.2-0.2-6.2-0.9s1.4-3.2-0.9-5.8
				c-1.1-1.3-2.7,0.2-4-0.7c-1.1-0.8-4.4-2.1-4.4-2.1s-7.1,17.3,12.2,27.9L105.3,77.5z M99.6,63.1c-1.1-0.1-2-1-2-2.2s1-2,2.2-2
				c1.1,0.1,2,1,2,2.2C101.7,62.3,100.7,63.1,99.6,63.1z"/>
			<path class="st2" d="M116,52.8c0,0,8.2-0.3,13.2,0.4c1.6,0.2,1.5,2.9,1.2,4.3c1.5-5.4,6.1-7.8,11.2-8.4
				c7.3-5.1,19.9-22,10.6-33.3c-11-13.4-27.7-1.6-31.1,3c-2.4,3.3,0.9,6.4,3,7.9c0.6,0.4,1.5,0.2,1.8-0.5c0.7-1.7,2.5-3.9,4.8-5.4
				c5.4-3.5,13.2-2.3,13.2,4.3c0,9.4-14.2,7-17,6.1c-2.2-0.7-20-5.3-30.3,11c0,0,6.5-1,4.7,6.3c0,0,8.1,0,10.9,0.4
				C113.9,49.2,115.2,50.9,116,52.8z M123.9,37.3c1.5,0,2.8,1.2,2.8,2.8c0,1.5-1.2,2.8-2.8,2.8c-1.5,0-2.8-1.2-2.8-2.8
				C121.1,38.5,122.4,37.3,123.9,37.3z"/>
			<path class="st2" d="M130.8,58.7c-3,13.7-16.8,19-23.4,19.6c0,0,0,0,0,0c3.5,1.1,11,2.5,18.2,2.1c8.1-0.5,14-4.1,15.4-11.5
				c1.3-7.5-1.7-14.7,9.5-20C144.4,49.3,132.8,49.5,130.8,58.7z M140.1,55.3c0,1.2-0.9,2.1-2.1,2.1s-2.1-0.9-2.1-2.1
				s0.9-2.1,2.1-2.1C139.2,53.2,140.1,54.1,140.1,55.3z"/>
		</g>
		<text transform="matrix(1 2.280000e-03 -2.280000e-03 1 18.2661 119.0949)" class="st2 st3 st4">Hono</text>
		<text transform="matrix(1 2.280000e-03 -2.280000e-03 1 103.6461 119.2895)" class="st2 st3 st4">l</text>
		<text transform="matrix(1 2.280000e-03 -2.280000e-03 1 115.8161 119.3173)" class="st2 st3 st4">ulu Zoo</text>
	</g>
</g>
</svg>
