<?xml version="1.0" encoding="utf-8"?>
<!-- Generator: Adobe Illustrator 24.0.3, SVG Export Plug-In . SVG Version: 6.00 Build 0)  -->
<svg version="1.1" xmlns="http://www.w3.org/2000/svg" xmlns:xlink="http://www.w3.org/1999/xlink" x="0px" y="0px"
	 viewBox="0 0 252 126" style="enable-background:new 0 0 252 126;" xml:space="preserve">
<style type="text/css">
	.st0{display:none;}
	.st1{display:inline;fill:#231F20;}
	.st2{fill:#231F20;}
	.st3{font-family:'GazetteLTStd-Italic';}
	.st4{font-size:28.1357px;}
	.st5{fill:none;}
	.st6{fill:#FFFFFF;stroke:#FFFFFF;stroke-width:3.7374;stroke-miterlimit:10;}
	.st7{fill:none;stroke:#FFFFFF;stroke-width:1.1876;stroke-miterlimit:10;}
	.st8{fill:none;stroke:#231F20;stroke-width:1.1876;stroke-miterlimit:10;}
	.st9{fill:#231F20;stroke:#231F20;stroke-width:1.1876;stroke-miterlimit:10;}
	.st10{fill:#FFFFFF;}
	.st11{fill:#FCFDFF;stroke:#231F20;stroke-width:0.6221;stroke-miterlimit:10;}
</style>
<g id="Layer_2" class="st0">
	<rect x="583.1" y="-126.6" class="st1" width="252" height="252"/>
</g>
<g id="Layer_1">
	<g>
		<g>
			<circle class="st2" cx="403.4" cy="56.5" r="2.1"/>
			<path class="st2" d="M394.3,77.5c1.8,0.2,4.7-0.2,8-1.5c1.7-2.3,2-5.6,1.9-6.7c-0.2-1.4,0.8-4.1,0.9-4.5c0.1-0.4-1-0.3-1-0.3
				c0.5-0.5,0.9-1.1,0.9-1.1c-1.8-4.8-8.2-3.5-8.2-3.5s0.2-1.1-0.4-0.9c-0.6,0.1-4.2-0.2-6.2-0.9s1.4-3.2-0.9-5.8
				c-1.1-1.3-2.7,0.2-4-0.7c-1.1-0.8-4.4-2.1-4.4-2.1s-7.1,17.3,12.2,27.9L394.3,77.5z M388.6,63.1c-1.1-0.1-2-1-2-2.2s1-2,2.2-2
				c1.1,0.1,2,1,2,2.2C390.7,62.3,389.7,63.1,388.6,63.1z"/>
			<path class="st2" d="M405,52.8c0,0,8.2-0.3,13.2,0.4c1.6,0.2,1.5,2.9,1.2,4.3c1.5-5.4,6.1-7.8,11.2-8.4
				c7.3-5.1,19.9-22,10.6-33.3c-11-13.4-27.7-1.6-31.1,3c-2.4,3.3,0.9,6.4,3,7.9c0.6,0.4,1.5,0.2,1.8-0.5c0.7-1.7,2.5-3.9,4.8-5.4
				c5.4-3.5,13.2-2.3,13.2,4.3c0,9.4-14.2,7-17,6.1c-2.2-0.7-20-5.3-30.3,11c0,0,6.5-1,4.7,6.3c0,0,8.1,0,10.9,0.4
				C402.9,49.2,404.2,50.9,405,52.8z M412.9,37.3c1.5,0,2.8,1.2,2.8,2.8c0,1.5-1.2,2.8-2.8,2.8c-1.5,0-2.8-1.2-2.8-2.8
				C410.1,38.5,411.4,37.3,412.9,37.3z"/>
			<path class="st2" d="M419.8,58.7c-3,13.7-16.8,19-23.4,19.6c0,0,0,0,0,0c3.5,1.1,11,2.5,18.2,2.1c8.1-0.5,14-4.1,15.4-11.5
				c1.3-7.5-1.7-14.7,9.5-20C433.4,49.3,421.8,49.5,419.8,58.7z M429.1,55.3c0,1.2-0.9,2.1-2.1,2.1s-2.1-0.9-2.1-2.1
				s0.9-2.1,2.1-2.1C428.2,53.2,429.1,54.1,429.1,55.3z"/>
		</g>
		
			<text transform="matrix(1 2.280000e-03 -2.280000e-03 1 307.2661 119.0949)" class="st2" style="font-family:'PenumbraSansStd-Semibold'; font-size:25.5247px;">Hono</text>
		
			<text transform="matrix(1 2.280000e-03 -2.280000e-03 1 392.6461 119.2895)" class="st2" style="font-family:'PenumbraSansStd-Semibold'; font-size:25.5247px;">l</text>
		
			<text transform="matrix(1 2.280000e-03 -2.280000e-03 1 404.8161 119.3173)" class="st2" style="font-family:'PenumbraSansStd-Semibold'; font-size:25.5247px;">ulu Zoo</text>
	</g>
	<g>
		<text transform="matrix(1 0 0 1 32.6711 120.1833)" class="st2 st3 st4">Honolulu Zoo</text>
		<g>
			<g>
				<g>
					<g>
						<line class="st5" x1="148.3" y1="46.2" x2="142.1" y2="45.2"/>
						<path class="st2" d="M148.3,46.4l-6.1-1.2l6.2,0.8c0.1,0,0.1,0.1,0.1,0.2C148.4,46.3,148.4,46.4,148.3,46.4L148.3,46.4z"/>
					</g>
					<g>
						<line class="st5" x1="146.6" y1="49.4" x2="141.5" y2="47.6"/>
						<path class="st2" d="M146.5,49.4l-5-1.9l5,1.7C146.6,49.3,146.6,49.3,146.5,49.4C146.6,49.4,146.6,49.5,146.5,49.4L146.5,49.4
							z"/>
					</g>
				</g>
				<g>
					<g>
						<line class="st5" x1="146.1" y1="52.6" x2="141" y2="49.7"/>
						<path class="st2" d="M146,52.7l-5-3l5.2,2.7c0.1,0,0.1,0.1,0.1,0.2C146.2,52.8,146.1,52.8,146,52.7
							C146,52.8,146,52.8,146,52.7z"/>
					</g>
					<g>
						<line class="st5" x1="143.4" y1="55" x2="140.1" y2="52.2"/>
						<path class="st2" d="M143.3,55l-3.3-2.8l3.4,2.7c0,0,0,0.1,0,0.1S143.4,55.1,143.3,55L143.3,55z"/>
					</g>
				</g>
				<g>
					<g>
						<line class="st5" x1="141.8" y1="57.8" x2="137.7" y2="53.1"/>
						<path class="st2" d="M141.7,57.9l-4-4.8l4.2,4.7c0.1,0.1,0.1,0.2,0,0.2S141.7,58,141.7,57.9L141.7,57.9z"/>
					</g>
					<g>
						<line class="st5" x1="138.5" y1="59.1" x2="135.2" y2="53.6"/>
						<path class="st2" d="M138.4,59.2l-3.2-5.6l3.3,5.5c0,0,0,0.1,0,0.1S138.4,59.2,138.4,59.2L138.4,59.2z"/>
					</g>
				</g>
				<g>
					<g>
						<line class="st5" x1="136" y1="61.3" x2="133.1" y2="53.8"/>
						<path class="st2" d="M135.9,61.4l-2.7-7.6l3,7.4c0,0.1,0,0.2-0.1,0.2C136,61.5,135.9,61.4,135.9,61.4L135.9,61.4z"/>
					</g>
					<g>
						<line class="st5" x1="132.4" y1="61.4" x2="131.1" y2="53.9"/>
						<path class="st2" d="M132.3,61.4l-1.3-7.5l1.4,7.4C132.5,61.4,132.5,61.4,132.3,61.4C132.4,61.5,132.3,61.4,132.3,61.4
							L132.3,61.4z"/>
					</g>
				</g>
				<g>
					<g>
						<line class="st5" x1="129.4" y1="62.6" x2="129.2" y2="53.9"/>
						<path class="st2" d="M129.2,62.6l0-8.7l0.3,8.6c0,0.1-0.1,0.2-0.1,0.2C129.3,62.7,129.2,62.7,129.2,62.6
							C129.2,62.6,129.2,62.6,129.2,62.6z"/>
					</g>
					<g>
						<line class="st5" x1="126" y1="61.4" x2="127.2" y2="53.9"/>
						<path class="st2" d="M125.9,61.4l1.4-7.5l-1.2,7.5C126.1,61.4,126,61.5,125.9,61.4C125.9,61.5,125.9,61.4,125.9,61.4
							L125.9,61.4z"/>
					</g>
				</g>
				<g>
					<g>
						<line class="st5" x1="122.7" y1="61.5" x2="125.4" y2="53.8"/>
						<path class="st2" d="M122.5,61.4l2.8-7.6l-2.5,7.7c0,0.1-0.1,0.1-0.2,0.1C122.6,61.6,122.5,61.5,122.5,61.4
							C122.5,61.4,122.5,61.4,122.5,61.4z"/>
					</g>
					<g>
						<line class="st5" x1="119.9" y1="59.2" x2="123.1" y2="53.6"/>
						<path class="st2" d="M119.8,59.2l3.3-5.6l-3.1,5.7c0,0-0.1,0.1-0.1,0S119.8,59.2,119.8,59.2L119.8,59.2z"/>
					</g>
				</g>
				<g>
					<g>
						<line class="st5" x1="116.8" y1="58.2" x2="120.8" y2="53.2"/>
						<path class="st2" d="M116.7,58.1l4.2-4.8l-3.9,5.1c-0.1,0.1-0.1,0.1-0.2,0C116.6,58.3,116.6,58.2,116.7,58.1L116.7,58.1z"/>
					</g>
					<g>
						<line class="st5" x1="114.9" y1="55.1" x2="118.1" y2="52.4"/>
						<path class="st2" d="M114.9,55.1l3.2-2.7l-3.1,2.8c0,0-0.1,0-0.1,0C114.9,55.1,114.9,55.1,114.9,55.1L114.9,55.1z"/>
					</g>
				</g>
				<g>
					<g>
						<line class="st5" x1="112.4" y1="53.1" x2="116.9" y2="50.4"/>
						<path class="st2" d="M112.3,52.9l4.6-2.6l-4.4,2.8c-0.1,0.1-0.2,0-0.2-0.1S112.2,53,112.3,52.9
							C112.3,52.9,112.3,52.9,112.3,52.9z"/>
					</g>
					<g>
						<line class="st5" x1="111.7" y1="49.6" x2="116.8" y2="47.7"/>
						<path class="st2" d="M111.7,49.5l5.1-1.8l-5.1,2c0,0-0.1,0-0.1,0C111.6,49.5,111.6,49.5,111.7,49.5L111.7,49.5z"/>
					</g>
				</g>
				<g>
					<g>
						<line class="st5" x1="110" y1="46.8" x2="115.9" y2="45.6"/>
						<path class="st2" d="M110,46.6l6-1l-5.9,1.3c-0.1,0-0.2,0-0.2-0.1S109.9,46.6,110,46.6C109.9,46.6,109.9,46.6,110,46.6z"/>
					</g>
					<g>
						<line class="st5" x1="110.5" y1="43.2" x2="114.9" y2="43.2"/>
						<path class="st2" d="M110.5,43.1l4.3,0.1l-4.3,0.1C110.5,43.3,110.5,43.3,110.5,43.1C110.5,43.2,110.5,43.1,110.5,43.1
							L110.5,43.1z"/>
					</g>
				</g>
				<g>
					<g>
						<line class="st5" x1="109.9" y1="40" x2="115.7" y2="40.9"/>
						<path class="st2" d="M109.9,39.9l5.7,1.1l-5.8-0.8c-0.1,0-0.1-0.1-0.1-0.2C109.7,39.9,109.8,39.8,109.9,39.9
							C109.9,39.9,109.9,39.9,109.9,39.9z"/>
					</g>
					<g>
						<line class="st5" x1="111.6" y1="36.9" x2="116.9" y2="38.7"/>
						<path class="st2" d="M111.7,36.8l5.2,1.9l-5.3-1.8C111.6,36.9,111.5,36.9,111.7,36.8C111.6,36.8,111.6,36.8,111.7,36.8
							L111.7,36.8z"/>
					</g>
				</g>
				<g>
					<g>
						<line class="st5" x1="112.1" y1="33.6" x2="118.3" y2="37.1"/>
						<path class="st2" d="M112.2,33.5l6.1,3.6l-6.2-3.3c-0.1,0-0.1-0.1-0.1-0.2C112,33.5,112.1,33.4,112.2,33.5L112.2,33.5z"/>
					</g>
					<g>
						<line class="st5" x1="114.8" y1="31.3" x2="119.9" y2="35.5"/>
						<path class="st2" d="M114.9,31.2l5.1,4.3l-5.2-4.2c0,0,0-0.1,0-0.1S114.8,31.2,114.9,31.2C114.9,31.2,114.9,31.2,114.9,31.2z"
							/>
					</g>
				</g>
				<g>
					<g>
						<line class="st5" x1="114.2" y1="25.9" x2="121.6" y2="34.4"/>
						<path class="st2" d="M114.4,25.8l7.2,8.6l-7.5-8.4c-0.1-0.1-0.1-0.2,0-0.2S114.3,25.7,114.4,25.8
							C114.4,25.8,114.4,25.8,114.4,25.8z"/>
					</g>
					<g>
						<line class="st5" x1="119.7" y1="27.1" x2="123.5" y2="33.6"/>
						<path class="st2" d="M119.8,27.1l3.7,6.5l-3.9-6.4c0,0,0-0.1,0-0.1C119.7,27,119.8,27,119.8,27.1L119.8,27.1z"/>
					</g>
				</g>
				<g>
					<g>
						<line class="st5" x1="122.2" y1="24.9" x2="125.3" y2="33.1"/>
						<path class="st2" d="M122.3,24.9l2.9,8.2L122,25c0-0.1,0-0.2,0.1-0.2C122.2,24.8,122.3,24.8,122.3,24.9L122.3,24.9z"/>
					</g>
					<g>
						<line class="st5" x1="125.8" y1="24.9" x2="126.7" y2="29.8"/>
						<path class="st2" d="M125.9,24.8l0.8,4.9l-1-4.9C125.7,24.8,125.7,24.8,125.9,24.8C125.8,24.8,125.8,24.8,125.9,24.8
							L125.9,24.8z"/>
					</g>
				</g>
				<g>
					<g>
						<line class="st5" x1="128.8" y1="23.7" x2="128.9" y2="29.2"/>
						<path class="st2" d="M129,23.7l-0.1,5.5l-0.2-5.5c0-0.1,0.1-0.2,0.1-0.2C128.9,23.5,129,23.6,129,23.7
							C129,23.7,129,23.7,129,23.7z"/>
					</g>
					<g>
						<line class="st5" x1="132.2" y1="24.8" x2="131.4" y2="29.9"/>
						<path class="st2" d="M132.3,24.8l-0.9,5l0.8-5.1C132.1,24.8,132.2,24.8,132.3,24.8C132.3,24.8,132.3,24.8,132.3,24.8
							C132.3,24.8,132.3,24.8,132.3,24.8z"/>
					</g>
				</g>
				<g>
					<g>
						<line class="st5" x1="135.5" y1="24.7" x2="132.6" y2="33.1"/>
						<path class="st2" d="M135.6,24.8l-3.1,8.3l2.8-8.4c0-0.1,0.1-0.1,0.2-0.1C135.6,24.6,135.7,24.7,135.6,24.8
							C135.6,24.8,135.6,24.8,135.6,24.8z"/>
					</g>
					<g>
						<line class="st5" x1="138.3" y1="27" x2="134.5" y2="33.6"/>
						<path class="st2" d="M138.4,27l-3.9,6.6l3.7-6.7c0,0,0.1-0.1,0.1,0C138.4,26.9,138.4,27,138.4,27L138.4,27z"/>
					</g>
				</g>
				<g>
					<g>
						<line class="st5" x1="141.4" y1="28" x2="136.3" y2="34.3"/>
						<path class="st2" d="M141.5,28.1l-5.2,6.2l5-6.4c0.1-0.1,0.1-0.1,0.2,0C141.6,28,141.6,28.1,141.5,28.1L141.5,28.1z"/>
					</g>
					<g>
						<line class="st5" x1="143.2" y1="31.1" x2="138" y2="35.6"/>
						<path class="st2" d="M143.3,31.2l-5.3,4.4l5.2-4.5c0,0,0.1,0,0.1,0C143.3,31.1,143.3,31.1,143.3,31.2L143.3,31.2z"/>
					</g>
				</g>
				<g>
					<g>
						<line class="st5" x1="145.8" y1="33.2" x2="139.5" y2="36.9"/>
						<path class="st2" d="M145.9,33.3l-6.4,3.6l6.2-3.9c0.1-0.1,0.2,0,0.2,0.1C146,33.1,146,33.2,145.9,33.3
							C145.9,33.3,145.9,33.3,145.9,33.3z"/>
					</g>
					<g>
						<line class="st5" x1="146.5" y1="36.7" x2="140.9" y2="38.7"/>
						<path class="st2" d="M146.5,36.7l-5.6,2l5.5-2.1C146.5,36.6,146.6,36.6,146.5,36.7C146.6,36.7,146.6,36.7,146.5,36.7
							L146.5,36.7z"/>
					</g>
				</g>
				<g>
					<g>
						<line class="st5" x1="148.2" y1="39.5" x2="142" y2="40.6"/>
						<path class="st2" d="M148.2,39.6l-6.2,1l6.1-1.3c0.1,0,0.2,0,0.2,0.1C148.4,39.5,148.3,39.6,148.2,39.6L148.2,39.6z"/>
					</g>
					<g>
						<line class="st5" x1="147.7" y1="43" x2="142.9" y2="43.1"/>
						<path class="st2" d="M147.7,43.1l-4.8,0l4.8-0.1C147.7,42.9,147.7,43,147.7,43.1C147.7,43.1,147.7,43.1,147.7,43.1L147.7,43.1
							z"/>
					</g>
				</g>
			</g>
			<g>
				<g>
					<line class="st5" x1="154.4" y1="40.6" x2="142.6" y2="41.8"/>
					<path class="st2" d="M154.4,40.8l-11.9,1l11.8-1.4c0.1,0,0.2,0.1,0.2,0.2C154.6,40.7,154.6,40.8,154.4,40.8L154.4,40.8z"/>
				</g>
				<g>
					<line class="st5" x1="153.3" y1="45.2" x2="142.6" y2="44.3"/>
					<path class="st2" d="M153.3,45.3l-10.7-1l10.7,0.8c0.1,0,0.1,0.1,0.1,0.1C153.4,45.2,153.3,45.3,153.3,45.3L153.3,45.3z"/>
				</g>
			</g>
			<g>
				<g>
					<line class="st5" x1="153.8" y1="49.5" x2="141.6" y2="46.3"/>
					<path class="st2" d="M153.7,49.7l-12.1-3.3l12.2,2.9c0.1,0,0.2,0.1,0.1,0.2S153.8,49.7,153.7,49.7
						C153.7,49.7,153.7,49.7,153.7,49.7z"/>
				</g>
				<g>
					<line class="st5" x1="151.1" y1="53.3" x2="141.2" y2="48.7"/>
					<path class="st2" d="M151.1,53.4l-9.9-4.7l10,4.5c0.1,0,0.1,0.1,0.1,0.1C151.2,53.4,151.1,53.5,151.1,53.4L151.1,53.4z"/>
				</g>
			</g>
			<g>
				<g>
					<line class="st5" x1="150.1" y1="57.5" x2="140.7" y2="51"/>
					<path class="st2" d="M150,57.7l-9.3-6.6l9.6,6.3c0.1,0.1,0.1,0.2,0.1,0.3C150.2,57.7,150.1,57.7,150,57.7
						C150,57.7,150,57.7,150,57.7z"/>
				</g>
				<g>
					<line class="st5" x1="146.3" y1="60.2" x2="138.8" y2="52.8"/>
					<path class="st2" d="M146.2,60.3l-7.4-7.5l7.6,7.4c0,0,0,0.1,0,0.2C146.3,60.4,146.3,60.4,146.2,60.3
						C146.2,60.3,146.2,60.3,146.2,60.3z"/>
				</g>
			</g>
			<g>
				<g>
					<line class="st5" x1="143.9" y1="63.8" x2="136.5" y2="53.4"/>
					<path class="st2" d="M143.7,63.9l-7.3-10.5l7.6,10.3c0.1,0.1,0.1,0.2,0,0.3C143.9,64,143.8,64,143.7,63.9L143.7,63.9z"/>
				</g>
				<g>
					<line class="st5" x1="139.4" y1="65.1" x2="134.1" y2="53.7"/>
					<path class="st2" d="M139.3,65.1l-5.2-11.4l5.4,11.3c0,0.1,0,0.1-0.1,0.1C139.4,65.2,139.3,65.2,139.3,65.1L139.3,65.1z"/>
				</g>
			</g>
			<g>
				<g>
					<line class="st5" x1="135.9" y1="67.6" x2="132.1" y2="53.8"/>
					<path class="st2" d="M135.7,67.7l-3.6-13.9l4,13.8c0,0.1,0,0.2-0.1,0.2S135.8,67.8,135.7,67.7L135.7,67.7z"/>
				</g>
				<g>
					<line class="st5" x1="131.3" y1="67.3" x2="130.1" y2="54"/>
					<path class="st2" d="M131.2,67.3L130.1,54l1.3,13.3c0,0.1,0,0.1-0.1,0.1S131.2,67.4,131.2,67.3L131.2,67.3z"/>
				</g>
			</g>
			<g>
				<g>
					<line class="st5" x1="127.1" y1="68.5" x2="128.3" y2="53.9"/>
					<path class="st2" d="M126.9,68.5l1.3-14.6l-0.9,14.6c0,0.1-0.1,0.2-0.2,0.2C127,68.7,126.9,68.6,126.9,68.5
						C126.9,68.5,126.9,68.5,126.9,68.5z"/>
				</g>
				<g>
					<line class="st5" x1="122.8" y1="66.6" x2="126.2" y2="53.9"/>
					<path class="st2" d="M122.7,66.6l3.5-12.7l-3.3,12.7c0,0.1-0.1,0.1-0.1,0.1C122.8,66.7,122.7,66.6,122.7,66.6L122.7,66.6z"/>
				</g>
			</g>
			<g>
				<g>
					<line class="st5" x1="118.6" y1="66.3" x2="124.3" y2="53.7"/>
					<path class="st2" d="M118.4,66.2l5.9-12.5l-5.5,12.6c-0.1,0.1-0.2,0.2-0.3,0.1C118.4,66.4,118.3,66.3,118.4,66.2L118.4,66.2z"
						/>
				</g>
				<g>
					<line class="st5" x1="115.2" y1="63" x2="121.9" y2="53.4"/>
					<path class="st2" d="M115.1,63l6.8-9.5l-6.6,9.6c0,0.1-0.1,0.1-0.1,0C115.1,63.1,115.1,63,115.1,63L115.1,63z"/>
				</g>
			</g>
			<g>
				<g>
					<line class="st5" x1="111.3" y1="61.3" x2="119.5" y2="52.9"/>
					<path class="st2" d="M111.1,61.2l8.3-8.2l-8,8.5c-0.1,0.1-0.2,0.1-0.3,0C111.1,61.4,111.1,61.2,111.1,61.2L111.1,61.2z"/>
				</g>
				<g>
					<line class="st5" x1="109.2" y1="57.1" x2="117.2" y2="51.4"/>
					<path class="st2" d="M109.2,57l8.1-5.6l-8,5.7c-0.1,0-0.1,0-0.1,0S109.1,57,109.2,57L109.2,57z"/>
				</g>
			</g>
			<g>
				<g>
					<line class="st5" x1="106.1" y1="54.1" x2="116.6" y2="49.1"/>
					<path class="st2" d="M106,53.9l10.6-4.8l-10.4,5.2c-0.1,0.1-0.2,0-0.3-0.1C105.9,54.1,105.9,54,106,53.9L106,53.9z"/>
				</g>
				<g>
					<line class="st5" x1="105.6" y1="49.4" x2="116.3" y2="46.6"/>
					<path class="st2" d="M105.6,49.3l10.6-2.8l-10.6,3c-0.1,0-0.1,0-0.1-0.1S105.6,49.4,105.6,49.3L105.6,49.3z"/>
				</g>
			</g>
			<g>
				<g>
					<line class="st5" x1="103.8" y1="45.6" x2="115.4" y2="44.5"/>
					<path class="st2" d="M103.7,45.4l11.6-0.9l-11.6,1.3c-0.1,0-0.2-0.1-0.2-0.2C103.5,45.5,103.6,45.4,103.7,45.4
						C103.7,45.4,103.7,45.4,103.7,45.4z"/>
				</g>
				<g>
					<line class="st5" x1="104.9" y1="41" x2="115.2" y2="41.9"/>
					<path class="st2" d="M104.9,40.9l10.3,1l-10.4-0.8c-0.1,0-0.1-0.1-0.1-0.1C104.8,41,104.9,40.9,104.9,40.9L104.9,40.9z"/>
				</g>
			</g>
			<g>
				<g>
					<line class="st5" x1="104.4" y1="36.8" x2="116.2" y2="39.8"/>
					<path class="st2" d="M104.5,36.6l11.7,3.2L104.4,37c-0.1,0-0.2-0.1-0.1-0.2C104.3,36.6,104.4,36.5,104.5,36.6L104.5,36.6z"/>
				</g>
				<g>
					<line class="st5" x1="107.1" y1="32.9" x2="117.6" y2="37.8"/>
					<path class="st2" d="M107.1,32.8l10.5,5L107,33c-0.1,0-0.1-0.1-0.1-0.1C107,32.8,107,32.8,107.1,32.8L107.1,32.8z"/>
				</g>
			</g>
			<g>
				<g>
					<line class="st5" x1="108.1" y1="28.7" x2="119.1" y2="36.2"/>
					<path class="st2" d="M108.2,28.6l10.9,7.7L108,28.9c-0.1-0.1-0.1-0.2-0.1-0.3S108.1,28.5,108.2,28.6L108.2,28.6z"/>
				</g>
				<g>
					<line class="st5" x1="111.9" y1="26" x2="120.8" y2="34.9"/>
					<path class="st2" d="M112,25.9l8.9,9l-9-8.8c0,0,0-0.1,0-0.2S111.9,25.9,112,25.9L112,25.9z"/>
				</g>
			</g>
			<g>
				<g>
					<line class="st5" x1="114.3" y1="22.4" x2="122.5" y2="34"/>
					<path class="st2" d="M114.4,22.3l8.1,11.7l-8.4-11.4c-0.1-0.1-0.1-0.2,0-0.3C114.2,22.2,114.4,22.2,114.4,22.3L114.4,22.3z"/>
				</g>
				<g>
					<line class="st5" x1="118.8" y1="21.1" x2="124.5" y2="33.3"/>
					<path class="st2" d="M118.9,21.1l5.6,12.2l-5.8-12.1c0-0.1,0-0.1,0.1-0.1C118.8,21,118.9,21,118.9,21.1
						C118.9,21.1,118.9,21.1,118.9,21.1z"/>
				</g>
			</g>
			<g>
				<g>
					<line class="st5" x1="122.3" y1="18.6" x2="125.7" y2="31.1"/>
					<path class="st2" d="M122.5,18.5l3.3,12.6l-3.7-12.5c0-0.1,0-0.2,0.1-0.3C122.3,18.4,122.4,18.4,122.5,18.5L122.5,18.5z"/>
				</g>
				<g>
					<line class="st5" x1="126.9" y1="18.9" x2="127.9" y2="29.3"/>
					<path class="st2" d="M127,18.9l0.8,10.4l-1-10.3c0-0.1,0-0.1,0.1-0.1C127,18.8,127,18.9,127,18.9L127,18.9z"/>
				</g>
			</g>
			<g>
				<line class="st5" x1="131.1" y1="17.7" x2="130.2" y2="29.3"/>
				<path class="st2" d="M131.3,17.8l-1.1,11.5l0.7-11.6c0-0.1,0.1-0.2,0.2-0.2C131.2,17.5,131.3,17.6,131.3,17.8
					C131.3,17.7,131.3,17.7,131.3,17.8z"/>
			</g>
			<g>
				<line class="st5" x1="135.3" y1="19.6" x2="132.2" y2="31.6"/>
				<path class="st2" d="M135.4,19.7l-3.3,11.9l3.1-12c0-0.1,0.1-0.1,0.1-0.1C135.4,19.6,135.5,19.6,135.4,19.7L135.4,19.7z"/>
			</g>
			<g>
				<g>
					<line class="st5" x1="139.6" y1="19.9" x2="133.5" y2="33.3"/>
					<path class="st2" d="M139.8,20l-6.3,13.3l5.9-13.5c0.1-0.1,0.2-0.2,0.3-0.1C139.8,19.8,139.9,19.9,139.8,20
						C139.8,20,139.8,20,139.8,20z"/>
				</g>
				<g>
					<line class="st5" x1="143" y1="23.2" x2="135.4" y2="34"/>
					<path class="st2" d="M143.1,23.3L135.4,34l7.5-10.9c0-0.1,0.1-0.1,0.1,0C143.1,23.1,143.1,23.2,143.1,23.3L143.1,23.3z"/>
				</g>
			</g>
			<g>
				<g>
					<line class="st5" x1="146.9" y1="24.9" x2="137.2" y2="34.9"/>
					<path class="st2" d="M147,25.1l-9.9,9.8l9.6-10.1c0.1-0.1,0.2-0.1,0.3,0C147.1,24.9,147.1,25,147,25.1
						C147.1,25.1,147,25.1,147,25.1z"/>
				</g>
				<g>
					<line class="st5" x1="149" y1="29.2" x2="138.8" y2="36.3"/>
					<path class="st2" d="M149,29.2l-10.2,7l10.1-7.2c0.1,0,0.1,0,0.1,0C149.1,29.1,149.1,29.2,149,29.2L149,29.2z"/>
				</g>
			</g>
			<g>
				<g>
					<line class="st5" x1="152.1" y1="32.1" x2="140.2" y2="37.8"/>
					<path class="st2" d="M152.1,32.3l-11.9,5.5l11.8-5.8c0.1-0.1,0.2,0,0.3,0.1C152.3,32.1,152.3,32.3,152.1,32.3
						C152.2,32.3,152.2,32.3,152.1,32.3z"/>
				</g>
				<g>
					<line class="st5" x1="152.6" y1="36.8" x2="141.6" y2="39.8"/>
					<path class="st2" d="M152.7,36.9l-11.1,2.9l11-3.1c0.1,0,0.1,0,0.1,0.1C152.7,36.8,152.7,36.9,152.7,36.9L152.7,36.9z"/>
				</g>
			</g>
			<path class="st2" d="M162.6,40.2c-0.8-7.6-5.9-26.7-5.9-26.7c-4.8-2.1-35.1-13-53.2,5.8c-8,8.3-10.6,14.3-13.1,26.7
				c-2.8,14-0.5,33.6-0.5,33.6c12.8-10.3,39.3,10.5,62.7-11.1C160.6,61,163.6,50.2,162.6,40.2z M128,72.5
				c-15.8,0-28.7-12.8-28.7-28.7s12.8-28.6,28.7-28.6s28.6,12.8,28.6,28.6S143.8,72.5,128,72.5z"/>
			<g>
				<g>
					<path class="st6" d="M130.1,34.7c0.2-0.2,0.3-0.5,0.3-0.8c0-0.3,0-1.5-0.1-2.4c-0.1-0.6-2.5-0.6-2.6,0c-0.1,0.9-0.1,2-0.1,2.3
						c0,0.3,0.1,0.6,0.3,0.8c-6.5,0-10.1,5.4-10.9,8.4c0,0,2.2,4.5,2.1,5.5c0,0-0.4,0.3-0.4,0.3l0.4,1.8c0,0,2.4,1.3,9.8,1.3h0.1
						c7.4,0,9.8-1.3,9.8-1.3l0.4-1.8c0,0-0.4-0.3-0.4-0.3c0,0,0,0,0,0c0-0.1,0-0.1,0-0.2v0c0,0,0,0,0,0c0,0,0-0.1,0-0.1l0,0
						c0.3-1.4,2.1-5.1,2.1-5.1C140.6,41.5,137.7,35,130.1,34.7z"/>
				</g>
				<g>
					<g>
						<g>
							<g>
								<g>
									<path d="M139.2,49l-0.4,1.8c0,0-2.4,1.3-9.8,1.3h-0.1c-7.4,0-9.8-1.3-9.8-1.3l-0.4-1.8c0,0,4.3,1.3,10.2,1.4
										c0,0,0.1,0,0.1,0C134.9,50.3,139.2,49,139.2,49z"/>
								</g>
							</g>
						</g>
						<g>
							<path class="st2" d="M141.5,42c0-0.3-0.3-0.6-0.6-0.6c-0.2,0-0.4,0.1-0.5,0.3c-0.1-0.2-0.2-0.4-0.3-0.6c0,0,0,0,0,0
								c0.3,0,0.5-0.2,0.5-0.5c0-0.3-0.2-0.5-0.5-0.5c-0.2,0-0.3,0.1-0.4,0.2c-0.1-0.2-0.2-0.3-0.3-0.4c0.2,0,0.4-0.2,0.4-0.4
								c0-0.2-0.2-0.4-0.4-0.4c-0.1,0-0.3,0.1-0.4,0.2c-0.1-0.1-0.2-0.3-0.3-0.4c0.2,0,0.3-0.2,0.3-0.3c0-0.2-0.2-0.3-0.4-0.3
								c-0.1,0-0.3,0.1-0.3,0.2c-0.1-0.1-0.2-0.2-0.3-0.3c0.1,0,0.2-0.2,0.2-0.3c0-0.2-0.2-0.3-0.4-0.3c-0.2,0-0.3,0.1-0.3,0.3
								c-0.1-0.1-0.3-0.2-0.4-0.3c0.1-0.1,0.2-0.2,0.2-0.3c0-0.2-0.1-0.3-0.3-0.3c-0.2,0-0.3,0.1-0.3,0.3c-0.1-0.1-0.2-0.2-0.4-0.3
								c0.1-0.1,0.2-0.2,0.2-0.3c0-0.2-0.1-0.3-0.3-0.3c-0.2,0-0.3,0.1-0.3,0.3c-0.1-0.1-0.3-0.2-0.4-0.2c0.1-0.1,0.1-0.2,0.1-0.3
								c0-0.2-0.1-0.3-0.3-0.3s-0.3,0.1-0.3,0.3v0c-0.1-0.1-0.3-0.1-0.4-0.2c0.1-0.1,0.1-0.1,0.1-0.2c0-0.2-0.1-0.3-0.3-0.3
								c-0.1,0-0.3,0.1-0.3,0.3v0c-0.1-0.1-0.3-0.1-0.4-0.2c0.1-0.1,0.1-0.1,0.1-0.2c0-0.2-0.1-0.3-0.3-0.3s-0.3,0.1-0.3,0.3
								c0,0,0,0,0,0.1c-0.1,0-0.3-0.1-0.4-0.1c0,0,0.1-0.1,0.1-0.2c0-0.1-0.1-0.2-0.2-0.2s-0.2,0.1-0.2,0.2c0,0,0,0,0,0.1
								c-0.1,0-0.2-0.1-0.3-0.1c0,0,0.1-0.1,0.1-0.1c0-0.1-0.1-0.2-0.2-0.2c-0.1,0-0.2,0.1-0.2,0.2c0,0,0,0.1,0,0.1
								c-0.1,0-0.2,0-0.4-0.1c0,0,0.1-0.1,0.1-0.1c0-0.1-0.1-0.2-0.2-0.2s-0.2,0.1-0.2,0.2c0,0,0,0.1,0,0.1c-0.1,0-0.2,0-0.4,0
								c0,0,0-0.1,0-0.1c0-0.1-0.1-0.2-0.2-0.2s-0.2,0.1-0.2,0.2c0,0,0,0.1,0,0.1c-0.1,0-0.3,0-0.5,0c0.2-0.2,0.3-0.5,0.3-0.8
								c0-0.6-0.3-1.1-0.8-1.3l-1.2,0c-0.5,0.2-0.8,0.7-0.8,1.3c0,0.3,0.1,0.6,0.3,0.8c-0.2,0-0.4,0-0.5,0c0,0,0-0.1,0-0.1
								c0-0.1-0.1-0.2-0.2-0.2s-0.2,0.1-0.2,0.2c0,0,0,0.1,0,0.1c-0.1,0-0.2,0-0.4,0c0,0,0-0.1,0-0.1c0-0.1-0.1-0.2-0.2-0.2
								c-0.1,0-0.2,0.1-0.2,0.2c0,0.1,0,0.1,0.1,0.1c-0.1,0-0.2,0-0.4,0.1c0,0,0-0.1,0-0.1c0-0.1-0.1-0.2-0.2-0.2
								c-0.1,0-0.2,0.1-0.2,0.2c0,0.1,0,0.1,0.1,0.1c-0.1,0-0.2,0-0.3,0.1c0,0,0,0,0-0.1c0-0.1-0.1-0.2-0.2-0.2s-0.2,0.1-0.2,0.2
								c0,0.1,0,0.1,0.1,0.2c-0.1,0-0.3,0.1-0.4,0.1c0,0,0,0,0-0.1c0-0.2-0.1-0.3-0.3-0.3s-0.3,0.1-0.3,0.3c0,0.1,0,0.1,0.1,0.2
								c-0.1,0.1-0.3,0.1-0.4,0.2c0,0,0,0,0,0c0-0.2-0.1-0.3-0.3-0.3c-0.2,0-0.3,0.1-0.3,0.3c0,0.1,0,0.2,0.1,0.2
								c-0.1,0.1-0.3,0.1-0.4,0.2v0c0-0.2-0.1-0.3-0.3-0.3s-0.3,0.1-0.3,0.3c0,0.1,0.1,0.2,0.1,0.3c-0.1,0.1-0.3,0.2-0.4,0.2
								c0-0.2-0.1-0.3-0.3-0.3c-0.2,0-0.3,0.2-0.3,0.3c0,0.1,0.1,0.2,0.2,0.3c-0.1,0.1-0.2,0.2-0.4,0.3c0-0.2-0.2-0.3-0.3-0.3
								c-0.2,0-0.3,0.2-0.3,0.3c0,0.1,0.1,0.3,0.2,0.3c-0.1,0.1-0.3,0.2-0.4,0.3c0-0.2-0.2-0.3-0.3-0.3c-0.2,0-0.4,0.2-0.4,0.3
								c0,0.2,0.1,0.3,0.2,0.3c-0.1,0.1-0.2,0.2-0.3,0.3c-0.1-0.1-0.2-0.2-0.3-0.2c-0.2,0-0.4,0.2-0.4,0.3c0,0.2,0.1,0.3,0.3,0.3
								c-0.1,0.1-0.2,0.3-0.3,0.4c-0.1-0.1-0.2-0.2-0.4-0.2c-0.2,0-0.4,0.2-0.4,0.4c0,0.2,0.1,0.4,0.4,0.4c-0.1,0.2-0.2,0.3-0.3,0.4
								c-0.1-0.1-0.2-0.2-0.4-0.2c-0.3,0-0.5,0.2-0.5,0.5c0,0.3,0.2,0.5,0.5,0.5c0,0,0,0,0,0c-0.1,0.2-0.2,0.4-0.3,0.6
								c-0.1-0.2-0.3-0.3-0.5-0.3c-0.3,0-0.6,0.3-0.6,0.6s0.3,0.6,0.6,0.6c0.1,0,0.1,0,0.2,0c-0.1,0.2-0.1,0.4-0.2,0.6
								c0,0,2.2,4.5,2.1,5.5c0,0,3.9,1.1,9.7,1.1h0.4c5.6-0.1,9.3-1.1,9.7-1.1c0,0,0,0,0,0c0-0.1,0-0.1,0-0.2v0c0,0,0,0,0,0
								c0,0,0-0.1,0-0.1c0,0,0,0,0,0c0.3-1.4,2.1-5.1,2.1-5.1c-0.1-0.2-0.1-0.4-0.2-0.6c0.1,0,0.1,0,0.2,0
								C141.2,42.6,141.5,42.4,141.5,42z M119.1,47.3c0,0,0.7-1.8-1.8-3.9c0,0,1.5-5.7,6.3-7.4c-0.1,0.1-4.2,3-4.7,7l0.8,1.1
								c-0.7,3,0.9,3.3,0.9,3.3C120.6,47.7,120.1,48.8,119.1,47.3z M128.4,48.2c-0.7,0.7-2.6,1.3-4.6-0.6c1.5-1-0.1-3.2-0.2-3.4
								l-0.1,0.1c-1.5,2.4-0.2,3.2,0.1,3.3c-1,1.3-1.7,1-2.9-0.3c0.9-0.9-0.6-2.8-0.9-3.2L121,43c0,0,1.4-7.5,6.6-7.8
								c-2.2,0.9-4.4,3.7-5.1,7.7l1,1.4c0,0,0-0.1,0.1-0.1c0,0,0,0,0,0l1.5-1.4c0,0,0.4-5.3,3.1-7.6l-1.2,7.7l1.6,1.1l0.4,1.9
								L128.4,48.2z M128.8,35L128.8,35L128.8,35L128.8,35z M128.9,35L128.9,35L128.9,35L128.9,35z M129.5,48.2l-0.4-2.3l0-2
								l1.6-1.1l-1-6.5l-0.2-1.2c1.2,1.1,2,2.7,2.5,4.2l0,0c0.6,1.8,0.7,3.4,0.7,3.4l1.5,1.4c-0.2,0.2-1.8,2.4-0.2,3.4
								C132,49.5,130.2,48.8,129.5,48.2z M134.1,47.6c0.4-0.2,1.6-0.9,0.1-3.3l0.7-0.9l0.3-0.5c-0.7-4.1-2.9-6.8-5.1-7.7
								c5.2,0.3,6.6,7.8,6.6,7.8l1.1,1.1c-0.2,0.2-0.8,1-1.1,1.8c-0.2,0.5-0.3,1.1,0.1,1.5C135.8,48.6,135.1,48.9,134.1,47.6z
								 M138.7,47.3c-0.1,0.2-0.3,0.4-0.4,0.5c-0.8,0.7-1.2-0.2-1.2-0.4c0.1,0,0.4-0.2,0.6-0.4c0.4-0.4,0.7-1.2,0.3-2.9l0.9-1.2
								c-0.4-4-4.6-6.9-4.7-7c4.8,1.7,6.3,7.4,6.3,7.4C138,45.5,138.7,47.3,138.7,47.3z"/>
						</g>
						<g>
							<path class="st2" d="M141.5,42c0-0.3-0.3-0.6-0.6-0.6c-0.2,0-0.4,0.1-0.5,0.3c-0.1-0.2-0.2-0.4-0.3-0.6c0,0,0,0,0,0
								c0.3,0,0.5-0.2,0.5-0.5c0-0.3-0.2-0.5-0.5-0.5c-0.2,0-0.3,0.1-0.4,0.2c-0.1-0.2-0.2-0.3-0.3-0.4c0.2,0,0.4-0.2,0.4-0.4
								c0-0.2-0.2-0.4-0.4-0.4c-0.1,0-0.3,0.1-0.4,0.2c-0.1-0.1-0.2-0.3-0.3-0.4c0.2,0,0.3-0.2,0.3-0.3c0-0.2-0.2-0.3-0.4-0.3
								c-0.1,0-0.3,0.1-0.3,0.2c-0.1-0.1-0.2-0.2-0.3-0.3c0.1,0,0.2-0.2,0.2-0.3c0-0.2-0.2-0.3-0.4-0.3c-0.2,0-0.3,0.1-0.3,0.3
								c-0.1-0.1-0.3-0.2-0.4-0.3c0.1-0.1,0.2-0.2,0.2-0.3c0-0.2-0.1-0.3-0.3-0.3c-0.2,0-0.3,0.1-0.3,0.3c-0.1-0.1-0.2-0.2-0.4-0.3
								c0.1-0.1,0.2-0.2,0.2-0.3c0-0.2-0.1-0.3-0.3-0.3c-0.2,0-0.3,0.1-0.3,0.3c-0.1-0.1-0.3-0.2-0.4-0.2c0.1-0.1,0.1-0.2,0.1-0.3
								c0-0.2-0.1-0.3-0.3-0.3s-0.3,0.1-0.3,0.3v0c-0.1-0.1-0.3-0.1-0.4-0.2c0.1-0.1,0.1-0.1,0.1-0.2c0-0.2-0.1-0.3-0.3-0.3
								c-0.1,0-0.3,0.1-0.3,0.3v0c-0.1-0.1-0.3-0.1-0.4-0.2c0.1-0.1,0.1-0.1,0.1-0.2c0-0.2-0.1-0.3-0.3-0.3s-0.3,0.1-0.3,0.3
								c0,0,0,0,0,0.1c-0.1,0-0.3-0.1-0.4-0.1c0,0,0.1-0.1,0.1-0.2c0-0.1-0.1-0.2-0.2-0.2s-0.2,0.1-0.2,0.2c0,0,0,0,0,0.1
								c-0.1,0-0.2-0.1-0.3-0.1c0,0,0.1-0.1,0.1-0.1c0-0.1-0.1-0.2-0.2-0.2c-0.1,0-0.2,0.1-0.2,0.2c0,0,0,0.1,0,0.1
								c-0.1,0-0.2,0-0.4-0.1c0,0,0.1-0.1,0.1-0.1c0-0.1-0.1-0.2-0.2-0.2s-0.2,0.1-0.2,0.2c0,0,0,0.1,0,0.1c-0.1,0-0.2,0-0.4,0
								c0,0,0-0.1,0-0.1c0-0.1-0.1-0.2-0.2-0.2s-0.2,0.1-0.2,0.2c0,0,0,0.1,0,0.1c-0.1,0-0.3,0-0.5,0c0.2-0.2,0.3-0.5,0.3-0.8
								c0-0.6-0.3-1.1-0.8-1.3l-1.2,0c-0.5,0.2-0.8,0.7-0.8,1.3c0,0.3,0.1,0.6,0.3,0.8c-0.2,0-0.4,0-0.5,0c0,0,0-0.1,0-0.1
								c0-0.1-0.1-0.2-0.2-0.2s-0.2,0.1-0.2,0.2c0,0,0,0.1,0,0.1c-0.1,0-0.2,0-0.4,0c0,0,0-0.1,0-0.1c0-0.1-0.1-0.2-0.2-0.2
								c-0.1,0-0.2,0.1-0.2,0.2c0,0.1,0,0.1,0.1,0.1c-0.1,0-0.2,0-0.4,0.1c0,0,0-0.1,0-0.1c0-0.1-0.1-0.2-0.2-0.2
								c-0.1,0-0.2,0.1-0.2,0.2c0,0.1,0,0.1,0.1,0.1c-0.1,0-0.2,0-0.3,0.1c0,0,0,0,0-0.1c0-0.1-0.1-0.2-0.2-0.2s-0.2,0.1-0.2,0.2
								c0,0.1,0,0.1,0.1,0.2c-0.1,0-0.3,0.1-0.4,0.1c0,0,0,0,0-0.1c0-0.2-0.1-0.3-0.3-0.3s-0.3,0.1-0.3,0.3c0,0.1,0,0.1,0.1,0.2
								c-0.1,0.1-0.3,0.1-0.4,0.2c0,0,0,0,0,0c0-0.2-0.1-0.3-0.3-0.3c-0.2,0-0.3,0.1-0.3,0.3c0,0.1,0,0.2,0.1,0.2
								c-0.1,0.1-0.3,0.1-0.4,0.2v0c0-0.2-0.1-0.3-0.3-0.3s-0.3,0.1-0.3,0.3c0,0.1,0.1,0.2,0.1,0.3c-0.1,0.1-0.3,0.2-0.4,0.2
								c0-0.2-0.1-0.3-0.3-0.3c-0.2,0-0.3,0.2-0.3,0.3c0,0.1,0.1,0.2,0.2,0.3c-0.1,0.1-0.2,0.2-0.4,0.3c0-0.2-0.2-0.3-0.3-0.3
								c-0.2,0-0.3,0.2-0.3,0.3c0,0.1,0.1,0.3,0.2,0.3c-0.1,0.1-0.3,0.2-0.4,0.3c0-0.2-0.2-0.3-0.3-0.3c-0.2,0-0.4,0.2-0.4,0.3
								c0,0.2,0.1,0.3,0.2,0.3c-0.1,0.1-0.2,0.2-0.3,0.3c-0.1-0.1-0.2-0.2-0.3-0.2c-0.2,0-0.4,0.2-0.4,0.3c0,0.2,0.1,0.3,0.3,0.3
								c-0.1,0.1-0.2,0.3-0.3,0.4c-0.1-0.1-0.2-0.2-0.4-0.2c-0.2,0-0.4,0.2-0.4,0.4c0,0.2,0.1,0.4,0.4,0.4c-0.1,0.2-0.2,0.3-0.3,0.4
								c-0.1-0.1-0.2-0.2-0.4-0.2c-0.3,0-0.5,0.2-0.5,0.5c0,0.3,0.2,0.5,0.5,0.5c0,0,0,0,0,0c-0.1,0.2-0.2,0.4-0.3,0.6
								c-0.1-0.2-0.3-0.3-0.5-0.3c-0.3,0-0.6,0.3-0.6,0.6s0.3,0.6,0.6,0.6c0.1,0,0.1,0,0.2,0c-0.1,0.2-0.1,0.4-0.2,0.6
								c0,0,2.2,4.5,2.1,5.5c0,0,3.9,1.1,9.7,1.1h0.4c5.6-0.1,9.3-1.1,9.7-1.1c0,0,0,0,0,0c0-0.1,0-0.1,0-0.2v0c0,0,0,0,0,0
								c0,0,0-0.1,0-0.1c0,0,0,0,0,0c0.3-1.4,2.1-5.1,2.1-5.1c-0.1-0.2-0.1-0.4-0.2-0.6c0.1,0,0.1,0,0.2,0
								C141.2,42.6,141.5,42.4,141.5,42z M119.1,47.3c0,0,0.7-1.8-1.8-3.9c0,0,1.5-5.7,6.3-7.4c-0.1,0.1-4.2,3-4.7,7l0.8,1.1
								c-0.7,3,0.9,3.3,0.9,3.3C120.6,47.7,120.1,48.8,119.1,47.3z M128.4,48.2c-0.7,0.7-2.6,1.3-4.6-0.6c1.5-1-0.1-3.2-0.2-3.4
								l-0.1,0.1c-1.5,2.4-0.2,3.2,0.1,3.3c-1,1.3-1.7,1-2.9-0.3c0.9-0.9-0.6-2.8-0.9-3.2L121,43c0,0,1.4-7.5,6.6-7.8
								c-2.2,0.9-4.4,3.7-5.1,7.7l1,1.4c0,0,0-0.1,0.1-0.1c0,0,0,0,0,0l1.5-1.4c0,0,0.4-5.3,3.1-7.6l-1.2,7.7l1.6,1.1l0.4,1.9
								L128.4,48.2z M128.8,35L128.8,35L128.8,35L128.8,35z M128.9,35L128.9,35L128.9,35L128.9,35z M129.5,48.2l-0.4-2.3l0-2
								l1.6-1.1l-1-6.5l-0.2-1.2c1.2,1.1,2,2.7,2.5,4.2l0,0c0.6,1.8,0.7,3.4,0.7,3.4l1.5,1.4c-0.2,0.2-1.8,2.4-0.2,3.4
								C132,49.5,130.2,48.8,129.5,48.2z M134.1,47.6c0.4-0.2,1.6-0.9,0.1-3.3l0.7-0.9l0.3-0.5c-0.7-4.1-2.9-6.8-5.1-7.7
								c5.2,0.3,6.6,7.8,6.6,7.8l1.1,1.1c-0.2,0.2-0.8,1-1.1,1.8c-0.2,0.5-0.3,1.1,0.1,1.5C135.8,48.6,135.1,48.9,134.1,47.6z
								 M138.7,47.3c-0.1,0.2-0.3,0.4-0.4,0.5c-0.8,0.7-1.2-0.2-1.2-0.4c0.1,0,0.4-0.2,0.6-0.4c0.4-0.4,0.7-1.2,0.3-2.9l0.9-1.2
								c-0.4-4-4.6-6.9-4.7-7c4.8,1.7,6.3,7.4,6.3,7.4C138,45.5,138.7,47.3,138.7,47.3z"/>
						</g>
					</g>
					<g>
						<polygon class="st2" points="130.3,48.3 127.5,48.3 128.7,46.2 127.5,44 130.3,44 129.1,46.2 						"/>
						<polygon class="st2" points="126.7,47.5 126.7,44.8 128.8,45.9 131.1,44.8 131.1,47.5 128.8,46.4 						"/>
					</g>
					<g>
						<polygon class="st2" points="129.7,32.7 128,32.7 128.8,31.4 128,30 129.7,30 129,31.4 						"/>
						<polygon class="st2" points="127.5,32.2 127.5,30.5 128.9,31.2 130.2,30.5 130.2,32.2 128.9,31.4 						"/>
					</g>
				</g>
			</g>
		</g>
	</g>
	<g>
		<text transform="matrix(1 0 0 1 618.6049 118.67)" class="st2" style="font-family:'ITCKabelStd-Medium'; font-size:29.8654px;">Honolulu Zoo</text>
		<g>
			<path class="st7" d="M699.5,26c-8,1.4-18,0.7-17.7-8.9"/>
			<path class="st8" d="M728.3,74c0,0.1,2.3,5.9-20.2,0c-4-1.5-9.7-5.1-9.2-12c0.1-2,0.4-3.8,1-5.5c-3-0.8-4.3-4.7-4.3-6.3
				c0-4.4,9.9-2.9,14.9-1.8c12.4,2.7,12,7,12,8c2.4,1,10.1,6.6,10.7,7.6C733.9,65.2,730.6,74.2,728.3,74z"/>
			<path class="st2" d="M719.4,59.7c0,1.1-0.4,1.3-1.5,1.5c-0.3,0-2.8-0.6-2.9-1c-0.3-1.1,1.7-2.2,2.5-2.4c0.4-0.1,4.2-0.9,2.8,2.6
				c0,0.1-1.5-2.2-1.4-2.1C719.2,58.7,719.4,59.2,719.4,59.7z"/>
			<g>
				<path class="st2" d="M691.5,45.2c1.1-0.8,2.3-1.3,3.6-1.7s2.6-0.5,4-0.4c1.3,0.1,2.6,0.4,3.9,0.9c1.2,0.5,2.4,1.1,3.5,1.9
					c0.5,0.4,1,0.8,1.5,1.3c0.2,0.2,0.3,0.3,0.4,0.5c0.8,0.1,1.5,0.3,2.2,0.4c3,0.7,5.2,1.4,6.9,2.2c0.1-0.1,0.1-0.1,0.1-0.1
					c0.4-1.6-3.1-10.4-12.8-10.4c-6.4,0-11,2.4-14.1,6.1C690.9,45.7,691.2,45.4,691.5,45.2z"/>
				<path class="st2" d="M714.4,75.2c-1.8-0.4-3.9-0.9-6.2-1.5c-4-1.5-9.7-5.1-9.2-12c0.1-2,0.4-3.8,1-5.5c-3-0.8-4.3-4.7-4.3-6.3
					c0-3.4,5.9-3.3,10.9-2.5c-0.2-0.2-0.5-0.4-0.8-0.6c-1-0.7-2.1-1.3-3.2-1.7s-2.3-0.7-3.5-0.8c-1.2-0.1-2.4,0-3.6,0.3
					c-1.2,0.3-2.3,0.8-3.3,1.5c-1,0.7-1.9,1.5-2.7,2.5c-0.4,0.5-0.8,1-1.1,1.5c-0.2,0.2-0.3,0.5-0.5,0.8c-0.2,0.3-0.3,0.5-0.5,0.8
					c-0.2,0.3-0.3,0.6-0.4,0.8c-0.1,0.2-0.2,0.4-0.3,0.6c-0.3,0.9-0.6,1.9-0.8,2.9c-2.5,11.6,11.6,24.9,20.9,27.4
					c9.6,2.6,15.8,0.9,15.8,0.9C718.9,81.1,716.2,78.1,714.4,75.2z"/>
			</g>
			<path class="st8" d="M692.7,31.9c6.2-8.7,27.8,1.1,34.3-10.5c2.1-3.7,5-2.7,6.9-0.2c1.6,2,3.3,6.6,3.3,6.6
				c-5.5-4.4-12.5-7-20.1-7c-17.8,0-32.2,14.5-32.2,32.3c0,3.6,0.9,7,2,10.3c-1.2-3.3-4.7-22.5,13.7-26.7
				c11.8-2.7,18.8,4.8,21.5,8.6c0.4,0.6,1.3,0.4,1.5-0.3c0.3-1.1,0.1-3-0.5-4.6c-0.6-1.6-3.1-5.2-6.2-1.9c0,0-0.7-6.7-8-7.8
				c-11.9-1.7-22.4,11.4-23.5,21.7c-0.4,3.6,0.5,7.1,1.6,11"/>
			<path class="st2" d="M737.2,27.9c0,0-3.8-3.6-10-5.7C730.8,12.7,737.2,27.9,737.2,27.9z"/>
			<path class="st9" d="M687.1,63.4c-1.8-5.5-2.5-23.9,13.9-26.6c11.9-2,18.4,4.6,21.1,8.4c0.4,0.6,1.3,0.4,1.5-0.3
				c0.3-1.1,0.1-3-0.5-4.6c-0.6-1.6-3.1-5.2-6.2-1.9c0,0-0.7-6.7-8-7.8C697,28.9,686,41.6,685.7,52.4C685.7,56,686,59.6,687.1,63.4"
				/>
			<path class="st10" d="M721.6,41.2c-0.4,0.4-1.1,0.4-1.5,0s-0.5-1.1,0-1.5C721,39,722.2,40.7,721.6,41.2z"/>
			<path class="st10" d="M732.3,23.1c0,0-1.4-0.2-1.8-0.8s-0.3-1.2,0.2-1.5c0.5-0.3,1.2-0.2,1.5,0.3
				C732.7,21.8,732.3,23.1,732.3,23.1z"/>
			<path class="st11" d="M713,37.8c-1.4-0.5-1.2-1.9-0.7-2.4c1.9-1.9,4.9,1.9,6,4.3c0.2,0.5-0.3,0.9-0.7,0.6
				c-3.4-2.5-7.1-3.9-12.3-3.8c-1.6,0-2.7-1.6-2.2-3.1c0.6-1.6,2.6-2.6,4.6-1.6c2.2,1.1,6.1,5.7,3.3,5.2"/>
			<path class="st2" d="M703.4,23.5c-6.8,3.7-11.4,3.1-14.8,1.9c-8.6-3.2-6.9-15.9-6.9-15.9c2.8,6.1,22.1,6.6,44.9,12.1
				c0,0-16.1-2.8-23,1.9"/>
			<path class="st7" d="M719.7,22.2c-13-1.9-23.3-1.3-28.8-2.9c-12.7-3.7-9.2-9.8-9.2-9.8c2.8,6.1,21.8,5.9,44.6,11.5"/>
			<path class="st7" d="M711.7,22.5c-8.7-0.4-31.5,6.2-30.8-10.4"/>
			<path class="st7" d="M700.1,64.1c0.2,1.8,4.8,18.6,22.9,20.4"/>
			<path class="st10" d="M718.7,85.5C718.7,85.5,718.7,85.5,718.7,85.5c-7.6,0-13.7-1.4-18.4-4.1c-4.2-2.4-7.1-5.9-8.6-10.2
				c-1.4-3.9-1.5-8.5-0.3-12.9c1.1-4,3.1-7.4,5.5-9.3l0,0l0.7,0.9c0,0-0.1,0.1-0.1,0.1c-4.4,3.5-7.4,12.9-4.7,20.8
				c1.4,4.1,4.2,7.4,8.1,9.7c4.5,2.6,10.5,4,17.8,4c0.3,0,0.5,0,0.8,0l4.2-0.1l0,0l0,1.1C723.4,85.4,719,85.5,718.7,85.5z"/>
			<path class="st7" d="M710.7,51.6c-0.8-3.4-12.8-14.4-21.9-3"/>
		</g>
	</g>
</g>
</svg>
