<?xml version="1.0" encoding="utf-8"?>
<!-- Generator: Adobe Illustrator 24.0.3, SVG Export Plug-In . SVG Version: 6.00 Build 0)  -->
<svg version="1.1" id="Layer_1" xmlns="http://www.w3.org/2000/svg" xmlns:xlink="http://www.w3.org/1999/xlink" x="0px" y="0px"
	 viewBox="0 0 648.1 648" style="enable-background:new 0 0 648.1 648;" xml:space="preserve">
<style type="text/css">
	.st0{fill:#2D2D2D;stroke:#FCBA1F;stroke-width:7.5115;stroke-miterlimit:10;}
	.st1{fill:none;}
	.st2{fill:#FDBB20;}
	.st3{font-family:'SpeedeeCondensed-Regular';}
	.st4{font-size:52.5804px;}
	.st5{letter-spacing:1;}
	.st6{fill:#DA1F26;}
	.st7{fill:#832F0A;}
	.st8{fill:#A5CF4F;}
	.st9{fill:#FADABA;}
	.st10{fill:#F39F52;}
	.st11{fill:none;stroke:#FDBB20;stroke-width:1.8779;stroke-miterlimit:10;}
</style>
<g id="burger_x5F_DON_x27_T_USE">
</g>
<g id="TYPE">
</g>
<g id="METAL_RED">
</g>
<g id="METAL">
</g>
<g id="FRIES_1_">
</g>
<g id="FRIES-box">
	<g>
		<path class="st0" d="M607.6,68.2v575.1H34.7V68.2h238.8c0-26.3,21.3-47.6,47.6-47.6s47.6,21.3,47.6,47.6H607.6z"/>
		<g>
			<rect x="332" y="184.1" class="st1" width="73.9" height="44.8"/>
			<text transform="matrix(1 0 0 1 335.7334 220.8427)" class="st2 st3 st4">T</text>
			<text transform="matrix(1 0 0 1 357.8334 220.8427)" class="st2 st3 st4">H</text>
			<text transform="matrix(1 0 0 1 382.0334 220.8427)" class="st2 st3 st4">E</text>
			<rect x="279.3" y="410.2" class="st1" width="75" height="41.7"/>
			<text transform="matrix(1 0 0 1 283.8291 447.0732)" class="st2 st3 st4">Y</text>
			<text transform="matrix(1 0 0 1 306.6291 447.0732)" class="st2 st3 st4 st5">E</text>
			<text transform="matrix(1 0 0 1 328.8291 447.0732)" class="st2 st3 st4">T</text>
			<g>
				<g>
					<path class="st6" d="M176.4,421.9c-10.3,10.5-21.4,16.8-33.3,16.8c-23.8,0-36.8-17.3-36.8-34.1c0-14.6,10.3-28.4,32.2-28.4
						c11.4,0,21.4,8.7,31.6,18.9c19.2-37,39.2-96.5,59.2-149.5c8.1-21.6,23.6-39.3,32.5-34.8c4.1,2.1,6.6,5.3,7.5,7.5
						c-5.4,9.5-22.4,60-36.5,97.3c3.8-1.6,9.7-1.1,16.8,1.4c23.8-21.1,40.6-62.5,40.6-95.2c0-20.8-6.8-38.1-22.7-45.2
						c-3-0.5-4.9-0.5-7.3-0.5c-50,0-84.4,75.7-84.4,127.9c0,14.9,5.2,25.3,11.4,33.9c-1.6,3.8-8.5,8.8-12.8,8.8
						c-14.1,0-32.6-12-32.6-42.3c0-55.7,47.2-140.5,111.5-140.5c47.6,0,65.4,24.3,65.4,57.6c0,33-30.3,83.3-57.3,100.9
						c10.5,7,17,19.2,17,36.5c0,43.5-33.5,79.8-69.8,79.8C196.9,438.7,186.1,431.4,176.4,421.9z M163.4,407.6
						c-9.2-11.1-17-21.4-23.5-23.3c-5.9,2.7-11.1,12.7-11.1,23c0,9.5,4.1,18.7,14.6,22.4C149.9,426.8,156.6,418.9,163.4,407.6z
						 M258,345.4c0-7-1.6-13.5-5.4-18.4c-12.2,5.4-21.1,4.3-24.6,0.8c-1.3,3.5-2.4,6.8-3.8,9.7c-11.6,28.4-24.1,54.3-38.1,73
						c7,6.2,14.6,11.6,23.3,14.3C230.7,416.8,258,374.6,258,345.4z"/>
					<path class="st6" d="M417,268.1c2.7-0.5,5.7,0.3,5.7,3.2c0,10.8-38.7,121.1-90.6,121.1c-21.1,0-38.4-12.4-38.4-31.1
						c0-27.3,15.4-72.2,36.5-96c7-8.1,17.4-24.3,29.3-20.4c13.9,4.5,28.1,13.4,28.1,33.1c0,22.7-27.6,77.6-60.8,77.6
						c-2.4,0-4.9-0.3-7.6-1.1c-0.3,3-0.5,5.7-0.5,8.1c0,8.7,3.2,14.3,11.6,17.6C355.1,374.9,396.8,317.8,417,268.1z M320.8,347
						c24.3-4.1,48.1-59.2,48.1-78.9c0-3-0.5-5.1-1.9-6.2C354.3,262.7,328.4,313.8,320.8,347z"/>
					<path class="st6" d="M402.7,392.4c-20.6,0-37.5-15.9-37.5-26.4c0-6.5,7.5-4.7,13.4-5.3c4.9,8.7,15.7,16.8,20.8,20
						c8.7-8.1,16.5-36.2,18.4-93.5c0.3-6.8-4.1-7.8-4.1-11.1c0-0.5,0.3-1.3,0.5-1.9c17.6-44.6,20.8-67.5,34.9-67.5
						c10,0,21.4,17.8,24.1,29.1c-16,7.3-43,19.2-43,35.1c0,11.1,8.9,39.5,8.7,64.9c0,8.9-2.1,10.2-4.2,17.5
						c15.4-20,31.8-46.4,43.7-74.5c1.9-0.3,2.2,0.3,2.2,1.6C480.6,294,444.6,392.4,402.7,392.4z"/>
					<path class="st6" d="M447.3,371.1c0-15.1,19.4-67.7,35.7-107.1c-5.4-0.3-10.1-0.4-14.3-0.7c0,0-7.5-6.7-7.5-7.5
						c0-2.7,1.1-5.4,4.9-5.6c4.3-0.3,16.1,5.3,20.7,5.3c6.5-15.4,13.8-35.1,16.8-41.1c15.1-0.5,19.9,6,19.9,12.2
						c0,4.3-5,12.5-9.4,21.7c6.5,0,8.6-0.3,14.5,0.2c0,0,5.3,1.5,4.4,10.5c-0.5,4.3-7.6,5.9-23.8,6.5c-9.2,22.7-19.7,50.3-32.7,86
						c-2.7,7.8-4.1,13.8-4.1,18.1c-0.3,4.9-1.1,5.7,1.1,7.8c10.8-5.7,18-24.1,25.3-37c2.2-0.3,8.4,1.6,8.5,10
						c0.1,11.6-21.1,42.2-37.3,42.2C459,392.4,447.3,383.2,447.3,371.1z"/>
				</g>
				<g>
					<path class="st2" d="M168.9,414.4c-10.3,10.5-21.4,16.8-33.3,16.8c-23.8,0-36.8-17.3-36.8-34.1c0-14.6,10.3-28.4,32.2-28.4
						c11.4,0,21.4,8.7,31.6,18.9c19.2-37,39.2-96.5,59.2-149.5c8.1-21.6,17.6-30.6,28.1-30.6c3.8,0,7.8,1.1,11.9,3.2
						c-5.4,9.5-22.4,60-36.5,97.3c3.8-1.6,9.7-1.1,16.8,1.4c23.8-21.1,40.6-62.5,40.6-95.2c0-20.8-6.8-38.1-22.7-45.2
						c-3-0.5-4.9-0.5-7.3-0.5c-50,0-84.4,75.7-84.4,127.9c0,14.9,3,27.8,9.2,36.5c-1.6,3.8-6.2,6.2-10.5,6.2
						c-14.1,0-25.4-13.5-25.4-43.8c0-55.7,40-139,104.4-139c47.6,0,65.4,24.3,65.4,57.6c0,33-30.3,83.3-57.3,100.9
						c10.5,7,17,19.2,17,36.5c0,43.5-33.5,79.8-69.8,79.8C189.4,431.2,178.6,423.9,168.9,414.4z M155.9,400.1
						c-9.2-11.1-17-21.4-23.5-23.3c-5.9,2.7-11.1,12.7-11.1,23c0,9.5,4.1,18.7,14.6,22.4C142.4,419.2,149.1,411.4,155.9,400.1z
						 M250.5,337.9c0-7-1.6-13.5-5.4-18.4c-12.2,5.4-21.1,4.3-24.6,0.8c-1.3,3.5-2.4,6.8-3.8,9.7c-11.6,28.4-24.1,54.3-38.1,73
						c7,6.2,14.6,11.6,23.3,14.3C223.2,409.2,250.5,367.1,250.5,337.9z"/>
					<path class="st2" d="M409.5,260.6c2.7-0.5,5.7,0.3,5.7,3.2c0,10.8-38.7,121.1-90.6,121.1c-21.1,0-38.4-12.4-38.4-31.1
						c0-27.3,15.4-72.2,36.5-96c7-8.1,15.9-13.8,28.4-13.8c13.8,0,28.9,6.8,28.9,26.5c0,22.7-27.6,77.6-60.8,77.6
						c-2.4,0-4.9-0.3-7.6-1.1c-0.3,3-0.5,5.7-0.5,8.1c0,8.7,3.2,14.3,11.6,17.6C347.6,367.4,389.3,310.2,409.5,260.6z M313.3,339.5
						c24.3-4.1,48.1-59.2,48.1-78.9c0-3-0.5-5.1-1.9-6.2C346.8,255.1,320.8,306.2,313.3,339.5z"/>
					<path class="st2" d="M395.2,384.9c-20.6,0-30.3-11.6-30.3-22.2c0-6.5,3.2-11.9,9.2-12.4c4.9,8.7,12.7,19.7,17.8,23
						c8.7-8.1,16.5-36.2,18.4-93.5c0.3-6.8-4.1-7.8-4.1-11.1c0-0.5,0.3-1.3,0.5-1.9c17.6-44.6,25.7-60.3,39.7-60.3
						c10,0,16.5,10.5,19.2,21.9c-16,7.3-43,19.2-43,35.1c0,11.1,8.9,39.5,8.7,64.9c0,8.9-1.1,17.6-3.2,24.9
						c15.4-20,30.8-53.8,42.7-81.9c1.9-0.3,2.2,0.3,2.2,1.6C473.1,286.5,437.1,384.9,395.2,384.9z"/>
					<path class="st2" d="M439.8,363.6c0-15.1,19.5-67.1,35.7-106.5c-5.4-0.3-10.3-0.8-14.3-1.3c-0.3-1.1-0.3-1.4-0.3-2.2
						c0-2.7,1.1-5.1,4.9-5.4c4.3-0.3,8.9-0.3,13.5-0.3c6.5-15.4,11.9-28.1,14.9-34.1c15.1-0.5,20.3,4.3,20.3,10.5
						c0,4.3-4.3,14.3-8.6,23.5c6.5,0,12.7,0.3,18.7,0.3c0.8,1.4,1.1,2.4,1.1,3.2c0,4.3-7.6,5.9-23.8,6.5
						c-9.2,22.7-19.7,50.3-32.7,86c-2.7,7.8-4.1,13.8-4.1,18.1c-0.3,4.9,1.1,7.8,3.2,10c10.8-5.7,20.6-19.2,27.9-32.2
						c2.2-0.3,3.8,0.3,3.8,3c0,11.6-21.1,42.2-37.3,42.2C451.5,384.9,439.8,375.7,439.8,363.6z"/>
				</g>
			</g>
			<g>
				<g>
					<path class="st7" d="M283,532.7c-0.1-1.2,0-3,1.1-5c0.2-0.4,0.5-0.7,0.9-0.8c2.9-1.1,16.8-5.6,37.7-5.6c21,0,35.2,4.7,38.3,5.8
						c0.4,0.2,0.8,0.5,0.9,0.9c0.3,1,0.6,2.8-0.5,4.7l0,0c-1.4,0.3-1.7,0.2-2.6,0.2c-4.6-0.2-2.6-1.2-4.7-1.7
						c-1.6-0.4-2.4,0.1-4.4,0.1c-2.9,0-2.4-1-2.1-2c0.3-1.1-0.5-2-2.9-0.9c-3.2,1.5-5.6,1.5-8.7,1.4c-2-0.1-3.7-1.5-8.1-0.9
						c-3.8,0.5-5.9,1.5-7.3,1.7c-0.3,0-0.7,0-1,0c-1.3-0.2-2.3-1.2-4.7-0.9c-2.6,0.3-3.8,0.7-6,1c-2.7,0.4-5.2-1.7-7.7-1.7
						c-1.6,0-3.2,0.7-4.9,1.7c-1.2,0.7-2.5,1.3-5.2,1.5c-1.5,0.1-2-0.3-3.9,0.1c-1.6,0.3-2.7,0.9-3.5,1.5
						C283.4,533.7,283,533.2,283,532.7z M282.9,553.2c3.4-0.2,4.7,1.2,6.2,1.5c1.7,0.3,2.1,0.2,3.7,0.2c1.7,0,4.8,0.7,13.5,1
						c8.8,0.3,12.7-1.5,21.3-2.5c5.3-0.6,9.9,1.1,11.5,1.7c0.4,0.2,0.8,0.2,1.2,0c1-0.4,2.9-1.2,4.2-1.5c1.9-0.4,3.4,0.6,4.4,0.8
						s1.6-0.6,2.7-0.7c2.2-0.2,2.9,1.2,4.7,1.2c1.9,0,2.3-0.6,3.1-0.8c0.8-0.2,1.7,0,2.5,0.3c0.5-0.2,0.8-0.7,0.8-1.3
						c0-2.2-0.7-3.9-1.3-4.8c-0.4-0.6-1-1.1-1.8-1.1c-21.4-1.4-66.5-0.5-74-0.3c-0.7,0-1.4,0.4-1.7,1c-1.2,2-1.2,3.8-1.1,4.8
						C282.9,553,282.9,553.2,282.9,553.2z"/>
					<path class="st2" d="M330,559.4c-11,0.8-12.9,16.1-16,11s-5.6-8.8-13.7-10.2c-3.8-0.6-5.5-2.1-5.4-2.5c0.1-0.9,2.2-1,5.1-0.5
						c13.7,2.1,19.4-1.1,26-1.7c4.3-0.4,8.3-0.2,11.4,0.6c0.2,0,0.2,0.3,0,0.3C332.8,556.9,332.4,559.2,330,559.4z"/>
					<path class="st8" d="M357.6,560.2L357.6,560.2L357.6,560.2z M280.9,560c-0.1,0.3,0.1,0.7,0.4,0.6c3.3-0.6,2.9,1.4,5.1,2
						c1.2,0.3,3.2-0.1,4.5-0.3c4.4-0.8,3.9,1.5,7.2,1.4c1.6,0,3-0.6,3.6-0.9c0.3-0.1,0.3-0.5,0-0.6c-2.3-0.8-9.1-0.9-9.3-4.9
						c0-0.3-0.3-0.5-0.6-0.5c-1.3,0.2-3.3,0.3-6.1-1.5c-2.6-1.6-5-0.2-5.7,0.3c-0.1,0.1-0.1,0.2,0.1,0.2c1.7,0,3.7,1.1,2.3,2.1
						C281.5,558.7,281.1,559.5,280.9,560z M346,555.4c-2.3-0.4-4.4,1.5-5.5,2c-1,0.5-2.4,0.4-3,0.4c-0.1,0-0.2,0.1-0.1,0.2
						c0.4,0.3,1.1,0.8,2.4,1c1.6,0.2,3.6-0.3,4.4-0.3c2.4-0.1,2.6,3.5,6.3,3.6c3,0.1,3.5-3.5,9-1.1c3.3,1.4,5.8-1.5,6.7-2.8
						c0.1-0.2,0-0.5-0.3-0.4c-3.6,0.9-3.5-1.9-6-1.9c-1.8-0.1-1.9,2.1-6.8-0.1c-1.4-0.6-1.7,0.4-3.6,0.5
						C348,556.5,348.3,555.8,346,555.4z M346,529.8c0.1-0.2-0.1-0.3-0.2-0.2c-2,1.1-7.1,2.1-9.8,1.9c-1.6-0.1-3.5-1.4-5.5-1.5
						c-3.5-0.1-6.2,1.2-9,2.3c-0.1,0.1-0.1,0.3,0.1,0.3c0.7,0,1.8,0,2.8,0.4c1.7,0.6,3.9,2.5,6.6,2.7s3.9-0.4,4.8-0.6
						c1.7-0.3,2.5,0.6,3.9,1.4c2.3,1.4,7.1,1.1,9.1,0.1c1.8-0.9,3.3-3.2,4.4-3.9c0.2-0.1,0-0.4-0.1-0.3c-2.3,0.4-4.8,0.5-6.4-0.2
						C345.2,531.5,345.7,530.5,346,529.8z M300.8,530.2c-1.9,0-3.7,2-4.9,2.5c-0.9,0.4-2.3,0.5-2.9,0.6c-0.1,0-0.1,0.1,0,0.2
						c1.5,1,3.4,2,5,1.7c5-0.9,6.8,1.8,8.8,2c3,0.2,4.2-1.1,6.4-0.3c1.5,0.5,2.4,0.2,3.6-0.8c1.9-1.6,2.6-0.9,4.5-1.7
						c0.2-0.1,0.2-0.5-0.1-0.5c-0.5-0.1-1.1-0.3-1.7-0.6c-1.2-0.8-2.2-1.8-4.4-1.8c-2.5,0-2.2,0.9-7.3,1
						C305.1,532.4,303.7,530,300.8,530.2z M289.4,538.8c0.7-0.8,1.9-2.2,4.3-2.7c0.2,0,0.3-0.3,0.1-0.4c-1-0.7-3.5-2.4-6.1-2.1
						c-4.1,0.6-3.8,4-7.1,3.7c-0.8,0-1.3-0.2-1.7-0.5c-0.2-0.1-0.4,0.1-0.4,0.3c0.4,1.2,1.3,3.6,3.7,3.4c1.7-0.1,2.1-0.9,3.3-1.1
						C286.7,539.2,287.7,540.5,289.4,538.8z M352.5,539.5c3.4,0.1,4.7-2.1,9.2-0.3c2.1,0.8,4.7,0,5.5-1.5c0.1-0.1-0.1-0.3-0.2-0.3
						c-1,0.5-3.8,1-3.3-1.2c0.2-0.8,0-1.7-1.8-1.5c-1.5,0.1-2.1,0.4-3.2,0.2c-1-0.2-1.6-1-3.8-1c-3,0-3.5,4-7.6,4
						c-0.2,0-0.2,0.2-0.1,0.3C348.1,538.7,349.9,539.5,352.5,539.5z"/>
					<g>
						<path class="st9" d="M303.2,537.2c0.1,0,0.1,0.1,0,0.2c-1.7,0.5-2.9,2.8-5.5,2.8c-3.2,0-4.1-1.5-6.1-1.8c-0.1,0-0.1-0.1,0-0.2
							c0.6-0.1,1.5-0.4,2.3-0.7c1.2-0.5,2.7-1.4,4.4-1.4C300.2,536.2,302.5,537,303.2,537.2z M336.1,536.2
							c-8.7,2.6-8.3-2.2-13.4-1.4c-0.8,0.1-1.9,1.3-3.8,1.4c-0.9,0-1.1,0.6-1.2,0.8c-0.3,0.8,1.5,0.4,4.3,1.9
							c1.4,0.8,2.1,2.1,3.4,2.2c1.8,0.1,3-1.6,4.2-1.7c1.4-0.1,1.9,0.1,3.3-0.1C335,538.9,337.9,535.7,336.1,536.2z M326.5,562.2
							c0.5,0.3,4-0.2,6.1,0.7s2.9,1.9,4.4,2c3,0.2,3.2-3.1,5.8-3.7c2.4-0.5,1.4-1.6-1.9-0.8c-3.4,0.9-3.4-1.7-6-1.5
							c-1.6,0.1-1.7,2-5.6,1.9C327.1,560.8,325.9,561.9,326.5,562.2z"/>
					</g>
					<path class="st10" d="M352.9,506.5c-8.1-5.2-17.9-9.1-30.1-9.1s-22,3.9-30.1,9.1c-9.4,6.1-12.8,15.7-9.6,19.4
						c0.2,0.2,0.5,0.3,0.7,0.2c8.7-3.4,22.7-6.9,39-6.7c16.3-0.2,30.3,3.3,39.1,6.8c0.2,0.1,0.4,0,0.5-0.1
						C365.8,522.4,362.5,512.5,352.9,506.5z M328.9,501.2c1.4,0.4,0,2.3-0.6,3.1c-0.1,0.1-0.4,0.1-0.4-0.1
						C327.7,503.2,327.4,500.8,328.9,501.2z M293.7,517.9c-0.2,0.1-0.4,0-0.3-0.2c0.2-1,0.7-3.3,2-2.4
						C296.5,516,294.6,517.3,293.7,517.9z M298.8,509.4c-1-0.1-3.4-0.6-2.5-1.9c0.8-1.3,2.2,0.7,2.7,1.5
						C299.1,509.2,299,509.5,298.8,509.4z M305.2,515.5c-1.5-0.2-0.3-2.3,0.2-3.1c0.1-0.2,0.3-0.1,0.4,0.1
						C306.2,513.5,306.8,515.8,305.2,515.5z M307.1,505.9c-1.5,0.1-0.7-2.2-0.3-3.1c0.1-0.2,0.3-0.2,0.4,0
						C307.7,503.7,308.7,505.9,307.1,505.9z M311.1,510.4c-0.1,0.2-0.4,0.1-0.4-0.1c-0.3-1-0.7-3.3,0.8-3
						C313,507.6,311.7,509.6,311.1,510.4z M317.3,516c-1-0.3-3.2-1.1-2.2-2.2c1-1.1,2.1,1,2.5,1.9C317.7,515.8,317.5,516,317.3,516z
						 M315.4,503.1c-0.2,0-0.3-0.3-0.1-0.4c0.7-0.7,2.5-2.3,3-0.8C318.8,503.2,316.5,503.2,315.4,503.1z M321.4,510.5
						c-0.2,0.1-0.4-0.1-0.3-0.3c0.4-1,1.4-3.1,2.5-1.9C324.6,509.4,322.4,510.2,321.4,510.5z M330.1,513.7c-0.4,0.9-1.5,3.1-2.5,1.9
						c-1-1.1,1.3-1.9,2.2-2.2C330,513.3,330.2,513.5,330.1,513.7z M335.8,511.1c-0.1,0.2-0.3,0.1-0.4,0c-0.3-1-0.9-3.3,0.6-3.1
						C337.5,508.2,336.3,510.2,335.8,511.1z M339.6,505c-0.9,1.2-2.1-0.8-2.6-1.7c-0.1-0.2,0.1-0.4,0.2-0.3
						C338.2,503.2,340.5,503.8,339.6,505z M342.6,515.7c-1.3,0.6-1.5-1.7-1.5-2.7c0-0.2,0.2-0.3,0.4-0.2
						C342.2,513.3,344,515,342.6,515.7z M346.7,509.1c-0.8-0.6-2.6-2.2-1.2-2.9c1.3-0.7,1.6,1.7,1.6,2.7
						C347.1,509.1,346.9,509.2,346.7,509.1z M353.6,514.8c-0.5,0.9-1.9,2.8-2.8,1.5c-0.8-1.3,1.5-1.7,2.5-1.8
						C353.6,514.5,353.7,514.7,353.6,514.8z M362.1,541.2c0.1,0.5,0.1,1.3-0.2,2.1c-0.3,0.8-0.7,1.5-1,1.9s-0.9,0.7-1.6,0.7
						c-35.3-1.5-68.2-0.4-73.8-0.1c-0.6,0-1.1-0.2-1.4-0.6c-0.3-0.4-0.6-0.8-0.8-1.4c-0.2-0.7-0.3-1.4-0.4-1.9
						c0.6-0.2,1.5-0.5,2.1-0.7c0.8-0.2,1.7,0.1,3-0.1s2.7-1.4,3.7-1.2s2.8,1.9,5.8,1.7s4.8-1.7,5.5-2.2s1.7-0.7,3.5-0.5
						s3.7-0.7,4.7-0.8s2,0.5,3.1,0.6c1,0.1,1.9-0.3,2.6-0.3c0.6,0,3.2,1.3,4.3,1.7s2.3,2.3,4.3,2.4c2,0,3.5-1.1,4.2-1.4
						c0.8-0.3,1.7,0,3.9-0.5c2.2-0.5,3.2-1.5,3.7-2.1c1.2-1.5,2.8,0.6,5.7,0.6c3.2,0,5,1.3,7.5,1.9c2.5,0.6,5.7,0,7.3-0.5
						S361,540.4,362.1,541.2z M313.2,572.8c-14.6-0.8-23.1-3.3-26.5-4.5c-1.1-0.4-2-1.3-2.4-2.4c-0.3-0.9-0.6-2-0.8-3.3
						c1,0.7,2.5,1.7,4.6,1.6c2.5-0.2,4-0.9,5.5-0.5c1.5,0.5,3.5,2,5.7,1.5c2.1-0.5,3.4-1,5-2.2c0.2-0.2,0.6-0.2,0.8,0
						c0.9,0.6,3.3,2.3,5.3,5.4C311.9,570.7,312.7,572,313.2,572.8z M361.7,562.8c-0.2,0.8-0.4,1.8-0.7,2.9c-0.3,1.1-1.2,2.1-2.3,2.5
						c-3.9,1.5-14.8,4.9-35.4,4.9c-2.2,0-4.2,0-6.2-0.1c0.3-0.3,0.7-0.7,1-1.2c1.5-2.2,4.1-7.5,6.2-8c2-0.5,6-0.1,8,0.8
						c2,0.9,3.7,2,5.8,1.7c3.2-0.4,3.5-3.7,5.8-3.8c0.9,0,1.4,0,3.2,0.9c1.7,0.7,4.2,0.9,6.1,0c2.4-1.2,2.2-1.6,3.6-1.6
						C358.2,561.9,359.2,562.9,361.7,562.8z"/>
				</g>
				<line class="st11" x1="543.5" y1="542.7" x2="394.7" y2="542.7"/>
				<line class="st11" x1="251" y1="542.7" x2="104.6" y2="542.7"/>
			</g>
		</g>
		<g>
			<g>
				<path class="st2" d="M329,39.8c-3.3,0-6.3,4.3-8.2,10.9c-1.9-6.7-4.9-10.9-8.2-10.9c-5.8,0-10.5,14.2-10.5,31.7h4.7
					c0-16.3,2.6-29.4,5.9-29.4c3.2,0,5.9,12.2,5.9,27.2h4.7c0-15,2.6-27.2,5.9-27.2c3.2,0,5.9,13.2,5.9,29.4h4.7
					C339.5,54,334.8,39.8,329,39.8z"/>
			</g>
		</g>
	</g>
</g>
</svg>
