<?xml version="1.0" encoding="utf-8"?>
<!-- Generator: Adobe Illustrator 24.0.3, SVG Export Plug-In . SVG Version: 6.00 Build 0)  -->
<svg version="1.1" xmlns="http://www.w3.org/2000/svg" xmlns:xlink="http://www.w3.org/1999/xlink" x="0px" y="0px"
	 viewBox="0 0 648.1 648" style="enable-background:new 0 0 648.1 648;" xml:space="preserve">
<style type="text/css">
	.st0{fill:#FFFFFF;}
	.st1{fill:#FDBB20;}
	.st2{fill:#2D2D2D;}
	.st3{fill:#832F0A;}
	.st4{fill:#A5CF4F;}
	.st5{fill:#FADABA;}
	.st6{fill:#F39F52;}
	.st7{fill:none;stroke:#FDBB20;stroke-width:0.25;stroke-miterlimit:10;}
	.st8{fill:#DA1F26;}
	.st9{fill:#283894;}
	.st10{fill:url(#);}
	.st11{fill:#FFFFFF;stroke:#FDBB20;stroke-width:2;stroke-miterlimit:10;}
	.st12{fill:#ED1C29;}
	.st13{fill:#FFFFFF;stroke:#FDBB20;stroke-width:10;stroke-miterlimit:10;}
	.st14{fill:#982026;}
	.st15{opacity:0.51;fill:#8CAA45;}
	.st16{opacity:0.5;}
	.st17{fill:#2D2D2D;stroke:#FCBA1F;stroke-width:7.5115;stroke-miterlimit:10;}
	.st18{fill:none;}
	.st19{font-family:'SpeedeeCondensed-Regular';}
	.st20{font-size:52.5804px;}
	.st21{letter-spacing:1;}
	.st22{letter-spacing:-1;}
	.st23{letter-spacing:2;}
	.st24{fill:none;stroke:#FDBB20;stroke-width:1.8779;stroke-miterlimit:10;}
</style>
<g id="burger_x5F_DON_x27_T_USE">
</g>
<g id="TYPE">
</g>
<g id="METAL_RED">
</g>
<g id="METAL">
</g>
<g id="FRIES_1_">
</g>
<g id="FRIES-box">
	<g>
		<path class="st17" d="M607.6,62.8v575.1H34.7V62.8h238.8c0-26.3,21.3-47.6,47.6-47.6s47.6,21.3,47.6,47.6H607.6z"/>
		<g>
			<rect x="332" y="178.6" class="st18" width="73.9" height="44.8"/>
			<text transform="matrix(1 0 0 1 335.7334 215.3927)"><tspan x="0" y="0" class="st1 st19 st20 st21">T</tspan><tspan x="22.1" y="0" class="st1 st19 st20 st22">H</tspan><tspan x="46.3" y="0" class="st1 st19 st20">E</tspan></text>
			<rect x="279.3" y="404.8" class="st18" width="75" height="41.7"/>
			<text transform="matrix(1 0 0 1 283.8291 441.6232)"><tspan x="0" y="0" class="st1 st19 st20 st21">Y</tspan><tspan x="22.8" y="0" class="st1 st19 st20 st23">E</tspan><tspan x="45" y="0" class="st1 st19 st20">T</tspan></text>
			<g>
				<g>
					<path class="st8" d="M176.4,416.4c-10.3,10.5-21.4,16.8-33.3,16.8c-23.8,0-36.8-17.3-36.8-34.1c0-14.6,10.3-28.4,32.2-28.4
						c11.4,0,21.4,8.7,31.6,18.9c19.2-37,39.2-96.5,59.2-149.5c8.1-21.6,23.6-39.3,32.5-34.8c4.1,2.1,6.6,5.3,7.5,7.5
						c-5.4,9.5-22.4,60-36.5,97.3c3.8-1.6,9.7-1.1,16.8,1.4c23.8-21.1,40.6-62.5,40.6-95.2c0-20.8-6.8-38.1-22.7-45.2
						c-3-0.5-4.9-0.5-7.3-0.5c-50,0-84.4,75.7-84.4,127.9c0,14.9,5.2,25.3,11.4,33.9c-1.6,3.8-8.5,8.8-12.8,8.8
						c-14.1,0-32.6-12-32.6-42.3c0-55.7,47.2-140.5,111.5-140.5c47.6,0,65.4,24.3,65.4,57.6c0,33-30.3,83.3-57.3,100.9
						c10.5,7,17,19.2,17,36.5c0,43.5-33.5,79.8-69.8,79.8C196.9,433.2,186.1,425.9,176.4,416.4z M163.4,402.1
						c-9.2-11.1-17-21.4-23.5-23.3c-5.9,2.7-11.1,12.7-11.1,23c0,9.5,4.1,18.7,14.6,22.4C149.9,421.3,156.6,413.4,163.4,402.1z
						 M258,339.9c0-7-1.6-13.5-5.4-18.4c-12.2,5.4-21.1,4.3-24.6,0.8c-1.3,3.5-2.4,6.8-3.8,9.7c-11.6,28.4-24.1,54.3-38.1,73
						c7,6.2,14.6,11.6,23.3,14.3C230.7,411.3,258,369.1,258,339.9z"/>
					<path class="st8" d="M417,262.6c2.7-0.5,5.7,0.3,5.7,3.2c0,10.8-38.7,121.1-90.6,121.1c-21.1,0-38.4-12.4-38.4-31.1
						c0-27.3,15.4-72.2,36.5-96c7-8.1,17.4-24.3,29.3-20.4c13.9,4.5,28.1,13.4,28.1,33.1c0,22.7-27.6,77.6-60.8,77.6
						c-2.4,0-4.9-0.3-7.6-1.1c-0.3,3-0.5,5.7-0.5,8.1c0,8.7,3.2,14.3,11.6,17.6C355.1,369.4,396.8,312.3,417,262.6z M320.8,341.5
						c24.3-4.1,48.1-59.2,48.1-78.9c0-3-0.5-5.1-1.9-6.2C354.3,257.2,328.4,308.3,320.8,341.5z"/>
					<path class="st8" d="M402.7,386.9c-20.6,0-37.5-15.9-37.5-26.4c0-6.5,7.5-4.7,13.4-5.3c4.9,8.7,15.7,16.8,20.8,20
						c8.7-8.1,16.5-36.2,18.4-93.5c0.3-6.8-4.1-7.8-4.1-11.1c0-0.5,0.3-1.3,0.5-1.9c17.6-44.6,20.8-67.5,34.9-67.5
						c10,0,21.4,17.8,24.1,29.1c-16,7.3-43,19.2-43,35.1c0,11.1,8.9,39.5,8.7,64.9c0,8.9-2.1,10.2-4.2,17.5
						c15.4-20,31.8-46.4,43.7-74.5c1.9-0.3,2.2,0.3,2.2,1.6C480.6,288.5,444.6,386.9,402.7,386.9z"/>
					<path class="st8" d="M447.3,365.6c0-15.1,19.4-67.7,35.7-107.1c-5.4-0.3-10.1-0.4-14.3-0.7c0,0-7.5-6.7-7.5-7.5
						c0-2.7,1.1-5.4,4.9-5.6c4.3-0.3,16.1,5.3,20.7,5.3c6.5-15.4,13.8-35.1,16.8-41.1c15.1-0.5,19.9,6,19.9,12.2
						c0,4.3-5,12.5-9.4,21.7c6.5,0,8.6-0.3,14.5,0.2c0,0,5.3,1.5,4.4,10.5c-0.5,4.3-7.6,5.9-23.8,6.5c-9.2,22.7-19.7,50.3-32.7,86
						c-2.7,7.8-4.1,13.8-4.1,18.1c-0.3,4.9-1.1,5.7,1.1,7.8c10.8-5.7,18-24.1,25.3-37c2.2-0.3,8.4,1.6,8.5,10
						c0.1,11.6-21.1,42.2-37.3,42.2C459,386.9,447.3,377.8,447.3,365.6z"/>
				</g>
				<g>
					<path class="st1" d="M168.9,408.9c-10.3,10.5-21.4,16.8-33.3,16.8c-23.8,0-36.8-17.3-36.8-34.1c0-14.6,10.3-28.4,32.2-28.4
						c11.4,0,21.4,8.7,31.6,18.9c19.2-37,39.2-96.5,59.2-149.5c8.1-21.6,17.6-30.6,28.1-30.6c3.8,0,7.8,1.1,11.9,3.2
						c-5.4,9.5-22.4,60-36.5,97.3c3.8-1.6,9.7-1.1,16.8,1.4c23.8-21.1,40.6-62.5,40.6-95.2c0-20.8-6.8-38.1-22.7-45.2
						c-3-0.5-4.9-0.5-7.3-0.5c-50,0-84.4,75.7-84.4,127.9c0,14.9,3,27.8,9.2,36.5c-1.6,3.8-6.2,6.2-10.5,6.2
						c-14.1,0-25.4-13.5-25.4-43.8c0-55.7,40-139,104.4-139c47.6,0,65.4,24.3,65.4,57.6c0,33-30.3,83.3-57.3,100.9
						c10.5,7,17,19.2,17,36.5c0,43.5-33.5,79.8-69.8,79.8C189.4,425.7,178.6,418.4,168.9,408.9z M155.9,394.6
						c-9.2-11.1-17-21.4-23.5-23.3c-5.9,2.7-11.1,12.7-11.1,23c0,9.5,4.1,18.7,14.6,22.4C142.4,413.8,149.1,405.9,155.9,394.6z
						 M250.5,332.4c0-7-1.6-13.5-5.4-18.4c-12.2,5.4-21.1,4.3-24.6,0.8c-1.3,3.5-2.4,6.8-3.8,9.7c-11.6,28.4-24.1,54.3-38.1,73
						c7,6.2,14.6,11.6,23.3,14.3C223.2,403.8,250.5,361.6,250.5,332.4z"/>
					<path class="st1" d="M409.5,255.1c2.7-0.5,5.7,0.3,5.7,3.2c0,10.8-38.7,121.1-90.6,121.1c-21.1,0-38.4-12.4-38.4-31.1
						c0-27.3,15.4-72.2,36.5-96c7-8.1,15.9-13.8,28.4-13.8c13.8,0,28.9,6.8,28.9,26.5c0,22.7-27.6,77.6-60.8,77.6
						c-2.4,0-4.9-0.3-7.6-1.1c-0.3,3-0.5,5.7-0.5,8.1c0,8.7,3.2,14.3,11.6,17.6C347.6,361.9,389.3,304.8,409.5,255.1z M313.3,334
						c24.3-4.1,48.1-59.2,48.1-78.9c0-3-0.5-5.1-1.9-6.2C346.8,249.7,320.8,300.8,313.3,334z"/>
					<path class="st1" d="M395.2,379.4c-20.6,0-30.3-11.6-30.3-22.2c0-6.5,3.2-11.9,9.2-12.4c4.9,8.7,12.7,19.7,17.8,23
						c8.7-8.1,16.5-36.2,18.4-93.5c0.3-6.8-4.1-7.8-4.1-11.1c0-0.5,0.3-1.3,0.5-1.9c17.6-44.6,25.7-60.3,39.7-60.3
						c10,0,16.5,10.5,19.2,21.9c-16,7.3-43,19.2-43,35.1c0,11.1,8.9,39.5,8.7,64.9c0,8.9-1.1,17.6-3.2,24.9
						c15.4-20,30.8-53.8,42.7-81.9c1.9-0.3,2.2,0.3,2.2,1.6C473.1,281,437.1,379.4,395.2,379.4z"/>
					<path class="st1" d="M439.8,358.1c0-15.1,19.5-67.1,35.7-106.5c-5.4-0.3-10.3-0.8-14.3-1.3c-0.3-1.1-0.3-1.4-0.3-2.2
						c0-2.7,1.1-5.1,4.9-5.4c4.3-0.3,8.9-0.3,13.5-0.3c6.5-15.4,11.9-28.1,14.9-34.1c15.1-0.5,20.3,4.3,20.3,10.5
						c0,4.3-4.3,14.3-8.6,23.5c6.5,0,12.7,0.3,18.7,0.3c0.8,1.4,1.1,2.4,1.1,3.2c0,4.3-7.6,5.9-23.8,6.5
						c-9.2,22.7-19.7,50.3-32.7,86c-2.7,7.8-4.1,13.8-4.1,18.1c-0.3,4.9,1.1,7.8,3.2,10c10.8-5.7,20.6-19.2,27.9-32.2
						c2.2-0.3,3.8,0.3,3.8,3c0,11.6-21.1,42.2-37.3,42.2C451.5,379.4,439.8,370.2,439.8,358.1z"/>
				</g>
			</g>
			<g>
				<g>
					<path class="st3" d="M283,527.2c-0.1-1.2,0-3,1.1-5c0.2-0.4,0.5-0.7,0.9-0.8c2.9-1.1,16.8-5.6,37.7-5.6c21,0,35.2,4.7,38.3,5.8
						c0.4,0.2,0.8,0.5,0.9,0.9c0.3,1,0.6,2.8-0.5,4.7c0,0,0,0,0,0c-1.4,0.3-1.7,0.2-2.6,0.2c-4.6-0.2-2.6-1.2-4.7-1.7
						c-1.6-0.4-2.4,0.1-4.4,0.1c-2.9,0-2.4-1-2.1-2c0.3-1.1-0.5-2-2.9-0.9c-3.2,1.5-5.6,1.5-8.7,1.4c-2-0.1-3.7-1.5-8.1-0.9
						c-3.8,0.5-5.9,1.5-7.3,1.7c-0.3,0-0.7,0-1,0c-1.3-0.2-2.3-1.2-4.7-0.9c-2.6,0.3-3.8,0.7-6,1c-2.7,0.4-5.2-1.7-7.7-1.7
						c-1.6,0-3.2,0.7-4.9,1.7c-1.2,0.7-2.5,1.3-5.2,1.5c-1.5,0.1-2-0.3-3.9,0.1c-1.6,0.3-2.7,0.9-3.5,1.5
						C283.4,528.2,283,527.8,283,527.2z M282.9,547.8c3.4-0.2,4.7,1.2,6.2,1.5c1.7,0.3,2.1,0.2,3.7,0.2c1.7,0,4.8,0.7,13.5,1
						c8.8,0.3,12.7-1.5,21.3-2.5c5.3-0.6,9.9,1.1,11.5,1.7c0.4,0.2,0.8,0.2,1.2,0c1-0.4,2.9-1.2,4.2-1.5c1.9-0.4,3.4,0.6,4.4,0.8
						c1,0.2,1.6-0.6,2.7-0.7c2.2-0.2,2.9,1.2,4.7,1.2c1.9,0,2.3-0.6,3.1-0.8c0.8-0.2,1.7,0,2.5,0.3c0.5-0.2,0.8-0.7,0.8-1.3
						c0-2.2-0.7-3.9-1.3-4.8c-0.4-0.6-1-1.1-1.8-1.1c-21.4-1.4-66.5-0.5-74-0.3c-0.7,0-1.4,0.4-1.7,1c-1.2,2-1.2,3.8-1.1,4.8
						C282.9,547.6,282.9,547.7,282.9,547.8z"/>
					<path class="st1" d="M330,553.9c-11,0.8-12.9,16.1-16,11s-5.6-8.8-13.7-10.2c-3.8-0.6-5.5-2.1-5.4-2.5c0.1-0.9,2.2-1,5.1-0.5
						c13.7,2.1,19.4-1.1,26-1.7c4.3-0.4,8.3-0.2,11.4,0.6c0.2,0,0.2,0.3,0,0.3C332.8,551.4,332.4,553.7,330,553.9z"/>
					<path class="st4" d="M357.6,554.7C357.6,554.7,357.6,554.7,357.6,554.7C357.6,554.7,357.6,554.7,357.6,554.7z M280.9,554.5
						c-0.1,0.3,0.1,0.7,0.4,0.6c3.3-0.6,2.9,1.4,5.1,2c1.2,0.3,3.2-0.1,4.5-0.3c4.4-0.8,3.9,1.5,7.2,1.4c1.6,0,3-0.6,3.6-0.9
						c0.3-0.1,0.3-0.5,0-0.6c-2.3-0.8-9.1-0.9-9.3-4.9c0-0.3-0.3-0.5-0.6-0.5c-1.3,0.2-3.3,0.3-6.1-1.5c-2.6-1.6-5-0.2-5.7,0.3
						c-0.1,0.1-0.1,0.2,0.1,0.2c1.7,0,3.7,1.1,2.3,2.1C281.5,553.2,281.1,554,280.9,554.5z M346,549.9c-2.3-0.4-4.4,1.5-5.5,2
						c-1,0.5-2.4,0.4-3,0.4c-0.1,0-0.2,0.1-0.1,0.2c0.4,0.3,1.1,0.8,2.4,1c1.6,0.2,3.6-0.3,4.4-0.3c2.4-0.1,2.6,3.5,6.3,3.6
						c3,0.1,3.5-3.5,9-1.1c3.3,1.4,5.8-1.5,6.7-2.8c0.1-0.2,0-0.5-0.3-0.4c-3.6,0.9-3.5-1.9-6-1.9c-1.8-0.1-1.9,2.1-6.8-0.1
						c-1.4-0.6-1.7,0.4-3.6,0.5C348,551.1,348.3,550.3,346,549.9z M346,524.3c0.1-0.2-0.1-0.3-0.2-0.2c-2,1.1-7.1,2.1-9.8,1.9
						c-1.6-0.1-3.5-1.4-5.5-1.5c-3.5-0.1-6.2,1.2-9,2.3c-0.1,0.1-0.1,0.3,0.1,0.3c0.7,0,1.8,0,2.8,0.4c1.7,0.6,3.9,2.5,6.6,2.7
						c2.7,0.2,3.9-0.4,4.8-0.6c1.7-0.3,2.5,0.6,3.9,1.4c2.3,1.4,7.1,1.1,9.1,0.1c1.8-0.9,3.3-3.2,4.4-3.9c0.2-0.1,0-0.4-0.1-0.3
						c-2.3,0.4-4.8,0.5-6.4-0.2C345.2,526,345.7,525,346,524.3z M300.8,524.7c-1.9,0-3.7,2-4.9,2.5c-0.9,0.4-2.3,0.5-2.9,0.6
						c-0.1,0-0.1,0.1,0,0.2c1.5,1,3.4,2,5,1.7c5-0.9,6.8,1.8,8.8,2c3,0.2,4.2-1.1,6.4-0.3c1.5,0.5,2.4,0.2,3.6-0.8
						c1.9-1.6,2.6-0.9,4.5-1.7c0.2-0.1,0.2-0.5-0.1-0.5c-0.5-0.1-1.1-0.3-1.7-0.6c-1.2-0.8-2.2-1.8-4.4-1.8c-2.5,0-2.2,0.9-7.3,1
						C305.1,526.9,303.7,524.6,300.8,524.7z M289.4,533.3c0.7-0.8,1.9-2.2,4.3-2.7c0.2,0,0.3-0.3,0.1-0.4c-1-0.7-3.5-2.4-6.1-2.1
						c-4.1,0.6-3.8,4-7.1,3.7c-0.8,0-1.3-0.2-1.7-0.5c-0.2-0.1-0.4,0.1-0.4,0.3c0.4,1.2,1.3,3.6,3.7,3.4c1.7-0.1,2.1-0.9,3.3-1.1
						C286.7,533.8,287.7,535.1,289.4,533.3z M352.5,534.1c3.4,0.1,4.7-2.1,9.2-0.3c2.1,0.8,4.7,0,5.5-1.5c0.1-0.1-0.1-0.3-0.2-0.3
						c-1,0.5-3.8,1-3.3-1.2c0.2-0.8,0-1.7-1.8-1.5c-1.5,0.1-2.1,0.4-3.2,0.2c-1-0.2-1.6-1-3.8-1c-3,0-3.5,4-7.6,4
						c-0.2,0-0.2,0.2-0.1,0.3C348.1,533.2,349.9,534,352.5,534.1z"/>
					<g>
						<path class="st5" d="M303.2,531.8c0.1,0,0.1,0.1,0,0.2c-1.7,0.5-2.9,2.8-5.5,2.8c-3.2,0-4.1-1.5-6.1-1.8c-0.1,0-0.1-0.1,0-0.2
							c0.6-0.1,1.5-0.4,2.3-0.7c1.2-0.5,2.7-1.4,4.4-1.4C300.2,530.7,302.5,531.5,303.2,531.8z M336.1,530.7
							c-8.7,2.6-8.3-2.2-13.4-1.4c-0.8,0.1-1.9,1.3-3.8,1.4c-0.9,0-1.1,0.6-1.2,0.8c-0.3,0.8,1.5,0.4,4.3,1.9
							c1.4,0.8,2.1,2.1,3.4,2.2c1.8,0.1,3-1.6,4.2-1.7c1.4-0.1,1.9,0.1,3.3-0.1C335,533.4,337.9,530.2,336.1,530.7z M326.5,556.7
							c0.5,0.3,4-0.2,6.1,0.7c2.1,0.9,2.9,1.9,4.4,2c3,0.2,3.2-3.1,5.8-3.7c2.4-0.5,1.4-1.6-1.9-0.8c-3.4,0.9-3.4-1.7-6-1.5
							c-1.6,0.1-1.7,2-5.6,1.9C327.1,555.3,325.9,556.4,326.5,556.7z"/>
					</g>
					<path class="st6" d="M352.9,501c-8.1-5.2-17.9-9.1-30.1-9.1s-22,3.9-30.1,9.1c-9.4,6.1-12.8,15.7-9.6,19.4
						c0.2,0.2,0.5,0.3,0.7,0.2c8.7-3.4,22.7-6.9,39-6.7c16.3-0.2,30.3,3.3,39.1,6.8c0.2,0.1,0.4,0,0.5-0.1
						C365.8,516.9,362.5,507.1,352.9,501z M328.9,495.7c1.4,0.4,0,2.3-0.6,3.1c-0.1,0.1-0.4,0.1-0.4-0.1
						C327.7,497.7,327.4,495.3,328.9,495.7z M293.7,512.4c-0.2,0.1-0.4,0-0.3-0.2c0.2-1,0.7-3.3,2-2.4
						C296.5,510.6,294.6,511.9,293.7,512.4z M298.8,503.9c-1-0.1-3.4-0.6-2.5-1.9c0.8-1.3,2.2,0.7,2.7,1.5
						C299.1,503.7,299,504,298.8,503.9z M305.2,510.1c-1.5-0.2-0.3-2.3,0.2-3.1c0.1-0.2,0.3-0.1,0.4,0.1
						C306.2,508,306.8,510.3,305.2,510.1z M307.1,500.4c-1.5,0.1-0.7-2.2-0.3-3.1c0.1-0.2,0.3-0.2,0.4,0
						C307.7,498.2,308.7,500.4,307.1,500.4z M311.1,504.9c-0.1,0.2-0.4,0.1-0.4-0.1c-0.3-1-0.7-3.3,0.8-3
						C313,502.1,311.7,504.1,311.1,504.9z M317.3,510.5c-1-0.3-3.2-1.1-2.2-2.2c1-1.1,2.1,1,2.5,1.9
						C317.7,510.4,317.5,510.6,317.3,510.5z M315.4,497.6c-0.2,0-0.3-0.3-0.1-0.4c0.7-0.7,2.5-2.3,3-0.8
						C318.8,497.8,316.5,497.7,315.4,497.6z M321.4,505c-0.2,0.1-0.4-0.1-0.3-0.3c0.4-1,1.4-3.1,2.5-1.9
						C324.6,503.9,322.4,504.7,321.4,505z M330.1,508.2c-0.4,0.9-1.5,3.1-2.5,1.9c-1-1.1,1.3-1.9,2.2-2.2
						C330,507.9,330.2,508.1,330.1,508.2z M335.8,505.6c-0.1,0.2-0.3,0.1-0.4,0c-0.3-1-0.9-3.3,0.6-3.1
						C337.5,502.7,336.3,504.7,335.8,505.6z M339.6,499.5c-0.9,1.2-2.1-0.8-2.6-1.7c-0.1-0.2,0.1-0.4,0.2-0.3
						C338.2,497.7,340.5,498.3,339.6,499.5z M342.6,510.2c-1.3,0.6-1.5-1.7-1.5-2.7c0-0.2,0.2-0.3,0.4-0.2
						C342.2,507.9,344,509.5,342.6,510.2z M346.7,503.6c-0.8-0.6-2.6-2.2-1.2-2.9c1.3-0.7,1.6,1.7,1.6,2.7
						C347.1,503.6,346.9,503.7,346.7,503.6z M353.6,509.4c-0.5,0.9-1.9,2.8-2.8,1.5c-0.8-1.3,1.5-1.7,2.5-1.8
						C353.6,509,353.7,509.2,353.6,509.4z M362.1,535.7c0.1,0.5,0.1,1.3-0.2,2.1c-0.3,0.8-0.7,1.5-1,1.9c-0.3,0.4-0.9,0.7-1.6,0.7
						c-35.3-1.5-68.2-0.4-73.8-0.1c-0.6,0-1.1-0.2-1.4-0.6c-0.3-0.4-0.6-0.8-0.8-1.4c-0.2-0.7-0.3-1.4-0.4-1.9
						c0.6-0.2,1.5-0.5,2.1-0.7c0.8-0.2,1.7,0.1,3-0.1s2.7-1.4,3.7-1.2c1,0.2,2.8,1.9,5.8,1.7s4.8-1.7,5.5-2.2
						c0.7-0.5,1.7-0.7,3.5-0.5s3.7-0.7,4.7-0.8c1-0.1,2,0.5,3.1,0.6c1,0.1,1.9-0.3,2.6-0.3c0.6,0,3.2,1.3,4.3,1.7s2.3,2.3,4.3,2.4
						c2,0,3.5-1.1,4.2-1.4c0.8-0.3,1.7,0,3.9-0.5c2.2-0.5,3.2-1.5,3.7-2.1c1.2-1.5,2.8,0.6,5.7,0.6c3.2,0,5,1.3,7.5,1.9
						c2.5,0.6,5.7,0,7.3-0.5S361,534.9,362.1,535.7z M313.2,567.3c-14.6-0.8-23.1-3.3-26.5-4.5c-1.1-0.4-2-1.3-2.4-2.4
						c-0.3-0.9-0.6-2-0.8-3.3c1,0.7,2.5,1.7,4.6,1.6c2.5-0.2,4-0.9,5.5-0.5c1.5,0.5,3.5,2,5.7,1.5c2.1-0.5,3.4-1,5-2.2
						c0.2-0.2,0.6-0.2,0.8,0c0.9,0.6,3.3,2.3,5.3,5.4C311.9,565.2,312.7,566.6,313.2,567.3z M361.7,557.3c-0.2,0.8-0.4,1.8-0.7,2.9
						c-0.3,1.1-1.2,2.1-2.3,2.5c-3.9,1.5-14.8,4.9-35.4,4.9c-2.2,0-4.2,0-6.2-0.1c0.3-0.3,0.7-0.7,1-1.2c1.5-2.2,4.1-7.5,6.2-8
						c2-0.5,6-0.1,8,0.8c2,0.9,3.7,2,5.8,1.7c3.2-0.4,3.5-3.7,5.8-3.8c0.9,0,1.4,0,3.2,0.9c1.7,0.7,4.2,0.9,6.1,0
						c2.4-1.2,2.2-1.6,3.6-1.6C358.2,556.4,359.2,557.4,361.7,557.3z"/>
				</g>
				<line class="st24" x1="543.5" y1="537.2" x2="394.7" y2="537.2"/>
				<line class="st24" x1="251" y1="537.2" x2="104.6" y2="537.2"/>
			</g>
		</g>
		<g>
			<g>
				<path class="st1" d="M329,34.3c-3.3,0-6.3,4.3-8.2,10.9c-1.9-6.7-4.9-10.9-8.2-10.9c-5.8,0-10.5,14.2-10.5,31.7h4.7
					c0-16.3,2.6-29.4,5.9-29.4c3.2,0,5.9,12.2,5.9,27.2h4.7c0-15,2.6-27.2,5.9-27.2c3.2,0,5.9,13.2,5.9,29.4h4.7
					C339.5,48.5,334.8,34.3,329,34.3z"/>
			</g>
		</g>
	</g>
</g>
</svg>
