<?xml version="1.0" encoding="utf-8"?>
<!-- Generator: Adobe Illustrator 24.0.3, SVG Export Plug-In . SVG Version: 6.00 Build 0)  -->
<svg version="1.1" id="Layer_1" xmlns="http://www.w3.org/2000/svg" xmlns:xlink="http://www.w3.org/1999/xlink" x="0px" y="0px"
	 viewBox="0 0 648 648" style="enable-background:new 0 0 648 648;" xml:space="preserve">
<style type="text/css">
	.st0{fill:#FFFFFF;}
	.st1{fill:#FDBB20;}
	.st2{fill:#ED1C29;}
</style>
<g id="burger_x5F_DON_x27_T_USE">
</g>
<g id="TYPE">
</g>
<g id="METAL_RED">
</g>
<g id="METAL">
</g>
<g id="FRIES_1_">
</g>
<g id="FRIES-box">
	<g>
		<g>
			<path class="st0" d="M523.5,641H120.3c-18.4,0-33.3-14.9-33.3-33.3v-551c0-18.4,14.9-33.3,33.3-33.3h403.1
				c18.4,0,33.3,14.9,33.3,33.3v551.1C556.8,626.1,541.9,641,523.5,641z"/>
			<path class="st1" d="M523.5,646H120.3C99.2,646,82,628.9,82,607.7v-551c0-21.1,17.2-38.3,38.3-38.3h403.1
				c21.1,0,38.3,17.2,38.3,38.3v551.1C561.8,628.9,544.6,646,523.5,646z M120.3,28.4C104.7,28.4,92,41.1,92,56.7v551.1
				c0,15.6,12.7,28.3,28.3,28.3h403.1c15.6,0,28.3-12.7,28.3-28.3V56.7c0-15.6-12.7-28.3-28.3-28.3
				C523.4,28.4,120.3,28.4,120.3,28.4z"/>
		</g>
		<g>
			<g>
				<path class="st1" d="M334.9,81.4v225.5h-26.1V92.1c0-0.2,0-0.4,0-0.6s0-0.3,0-0.5c0.6-5.4,5.1-9.6,10.6-9.6H334.9z"/>
				<path class="st2" d="M322,118.3c12.9-6.2,12.9-17.7,12.9-17.7V67.8c0-2-1.6-3.5-3.4-3.2c-12.8,1.8-22.7,13.7-22.7,28v36.8
					C308.9,129.4,312.5,122.9,322,118.3z"/>
			</g>
			<g>
				<path class="st1" d="M381,112.5c0.2,1.4,0.3,2.8,0.3,4.2v-1.9C381.2,114,381.1,113.3,381,112.5z"/>
				<path class="st1" d="M381.2,116.7V294h-26.1V92c0-2,1.6-3.5,3.4-3.2c11.5,1.6,20.7,11.4,22.4,23.9
					C381.1,113.9,381.2,115.3,381.2,116.7z"/>
			</g>
			<g>
				<path class="st1" d="M427.3,139.3c0.2,1.4,0.3,2.8,0.3,4.2v-1.9C427.6,140.8,427.5,140,427.3,139.3z"/>
				<path class="st1" d="M427.6,143.5v149.2h-26.1v-174c0-2,1.6-3.5,3.4-3.2c11.5,1.6,20.7,11.4,22.4,23.9
					C427.5,140.7,427.6,142,427.6,143.5z"/>
			</g>
			<g>
				<path class="st1" d="M473.6,166.6c0.2,1.4,0.3,2.8,0.3,4.2v-1.9C473.9,168.1,473.8,167.3,473.6,166.6z"/>
				<path class="st1" d="M473.9,170.8V260h-26.1V146c0-2,1.6-3.5,3.4-3.2c11.5,1.6,20.7,11.4,22.4,23.9
					C473.8,168,473.9,169.3,473.9,170.8z"/>
			</g>
			<g>
				<path class="st1" d="M262.8,112.5c-0.2,1.4-0.3,2.8-0.3,4.2v-1.9C262.5,114,262.6,113.3,262.8,112.5z"/>
				<path class="st1" d="M262.5,116.7V294h26.1V92c0-2-1.6-3.5-3.4-3.2c-11.5,1.6-20.7,11.4-22.4,23.9
					C262.6,113.9,262.5,115.3,262.5,116.7z"/>
			</g>
			<g>
				<path class="st1" d="M216.5,139.3c-0.2,1.4-0.3,2.8-0.3,4.2v-1.9C216.2,140.8,216.3,140,216.5,139.3z"/>
				<path class="st1" d="M216.2,143.5v149.2h26.1v-174c0-2-1.6-3.5-3.4-3.2c-11.5,1.6-20.7,11.4-22.4,23.9
					C216.3,140.7,216.2,142,216.2,143.5z"/>
			</g>
			<g>
				<path class="st1" d="M170.2,166.6c-0.2,1.4-0.3,2.8-0.3,4.2v-1.9C169.9,168.1,170,167.3,170.2,166.6z"/>
				<path class="st1" d="M169.9,170.8V260H196V146c0-2-1.6-3.5-3.4-3.2c-11.5,1.6-20.7,11.4-22.4,23.9
					C170,168,169.9,169.3,169.9,170.8z"/>
			</g>
		</g>
		<g>
			<path class="st2" d="M232.2,494.1c27.8-10.1,48.6-16.3,89.6-16.3s61.8,6.1,89.6,16.3l19.6-16.2c30.1-102.5,52.3-249.1,56.7-279.8
				h-40c-7.2,19.1-40.9,94-125.9,94s-118.7-74.9-125.9-94h-40c4.5,30.7,26.6,177.2,56.7,279.8L232.2,494.1z"/>
			<g>
				<path class="st1" d="M350.2,322.8c-11.5,0-21.8,15.4-28.5,39.4c-6.7-24-17-39.4-28.5-39.4c-20.3,0-36.7,51.1-36.7,114.2h16.3
					c0-58.5,9.1-106,20.4-106s20.4,43.8,20.4,97.8h16.3c0-54,9.1-97.8,20.4-97.8s20.4,47.5,20.4,106H387
					C386.9,373.9,370.5,322.8,350.2,322.8z"/>
			</g>
		</g>
		<g>
			<path d="M140.7,591.8v-25.1h-9.3v-3.1H154v3.1h-9.3v25.1H140.7z"/>
			<path d="M159.3,591.8v-28.1h4v12.4h14.2v-12.4h4v28.1h-4v-12.6h-14.2v12.6H159.3z"/>
			<path d="M188.7,591.8v-28.1h17.6v3.1h-13.6v9.5H205v2.9h-12.3v9.6h13.8v3.1L188.7,591.8L188.7,591.8z"/>
			<g>
				<path class="st2" d="M227.3,591.8v-53.6h21.4c4.5,0,8.2,0.6,11,1.8c2.8,1.2,4.9,2.9,6.2,5c1.3,2.1,2,4.4,2,7
					c0,2.2-0.6,4.3-1.8,6.3c-1.2,2-3.4,3.7-6.6,5c3.8,1.1,6.6,2.8,8.4,5.2c1.8,2.3,2.7,4.9,2.7,7.9c0,4.6-1.7,8.4-5.2,11.2
					s-8.5,4.3-15.2,4.3h-22.9V591.8z M246.7,547.5h-6v12.6h6c2,0,3.5-0.3,4.5-1c1-0.6,1.7-1.4,2.1-2.4c0.4-1,0.6-1.9,0.6-3
					C253.8,549.6,251.4,547.5,246.7,547.5z M247,568.6h-6.3v14h6.3c3.3,0,5.6-0.6,7-1.9c1.4-1.3,2-3,2-5.1c0-2-0.7-3.7-2-5
					C252.8,569.2,250.4,568.6,247,568.6z"/>
				<path class="st2" d="M250.3,592.3h-23.5v-54.4h21.8c4.6,0,8.3,0.6,11.2,1.9c2.9,1.3,5.1,3,6.4,5.1c1.4,2.1,2.1,4.6,2.1,7.2
					c0,2.3-0.6,4.4-1.8,6.5c-1.1,1.9-3,3.4-5.8,4.7c3.3,1.1,5.8,2.8,7.5,5c1.9,2.4,2.8,5.1,2.8,8.1c0,4.8-1.8,8.6-5.3,11.6
					C262.2,590.8,257,592.3,250.3,592.3z M227.7,591.4h22.6c6.5,0,11.5-1.4,14.9-4.2c3.3-2.8,5-6.4,5-10.9c0-2.8-0.9-5.4-2.6-7.6
					c-1.7-2.2-4.5-3.9-8.2-5l-1.2-0.4l1.2-0.5c3.1-1.2,5.3-2.8,6.4-4.8s1.7-4,1.7-6.1c0-2.5-0.6-4.7-1.9-6.7s-3.3-3.6-6-4.8
					c-2.8-1.2-6.4-1.8-10.9-1.8h-20.9v52.8H227.7z M247,583h-6.7v-14.9h6.7c3.5,0,6,0.7,7.4,2.1c1.4,1.4,2.1,3.2,2.1,5.3
					c0,2.2-0.7,4.1-2.2,5.4C252.9,582.3,250.4,583,247,583z M241.1,582.1h5.9c3.2,0,5.4-0.6,6.7-1.8s1.9-2.8,1.9-4.8
					c0-1.9-0.6-3.5-1.8-4.7s-3.5-1.8-6.8-1.8h-5.9L241.1,582.1L241.1,582.1z M246.7,560.5h-6.4v-13.4h6.4c5,0,7.5,2.2,7.5,6.7
					c0,1.1-0.2,2.1-0.6,3.1c-0.4,1-1.2,1.9-2.3,2.6C250.3,560.2,248.7,560.5,246.7,560.5z M241.1,559.7h5.6c1.9,0,3.3-0.3,4.2-0.9
					c0.9-0.6,1.6-1.3,1.9-2.2c0.4-0.9,0.5-1.9,0.5-2.8c0-3.9-2.2-5.8-6.7-5.8H241v11.7H241.1z"/>
			</g>
			<g>
				<path class="st2" d="M279.1,591.8v-53.6h36.3v10.5h-22.1v11.1h19.6v10h-19.6v11.5h22.4v10.5H279.1z"/>
				<path class="st2" d="M316.1,592.3h-37.5v-54.4h37.2v11.3h-22.1v10.3h19.6v10.9h-19.6v10.7h22.4V592.3z M279.5,591.4h35.8v-9.6
					h-22.4v-12.4h19.6v-9.1h-19.6v-12H315v-9.6h-35.5V591.4z"/>
			</g>
			<g>
				<path class="st2" d="M346.1,591.9c-6.8,0-12.1-1.5-16-4.5s-6.2-7.3-6.8-13h14c0.4,3.1,1.5,5.2,3.2,6.4s3.7,1.8,5.8,1.8
					c2.5,0,4.3-0.6,5.5-1.8s1.8-2.5,1.8-3.8c0-1.7-0.4-3.1-1.3-4.2c-0.9-1.2-2.4-2.1-4.7-2.6l-8.9-2.3c-4.6-1.2-8-3-10.3-5.5
					s-3.4-6-3.4-10.5c0-3.5,0.9-6.4,2.8-8.8c1.8-2.4,4.3-4.2,7.4-5.4s6.6-1.8,10.4-1.8c6.3,0,11.3,1.5,14.8,4.5s5.7,7.2,6.4,12.7
					H353c-0.3-2.5-1.1-4.4-2.5-5.8c-1.3-1.4-3.1-2.1-5.4-2.1c-2,0-3.5,0.5-4.6,1.6s-1.7,2.4-1.7,4.1c0,3.1,1.8,5.2,5.4,6.1l8.4,2.2
					c4,1,7.1,2.3,9.3,4c2.2,1.6,3.7,3.5,4.6,5.6s1.3,4.4,1.3,6.9c0,5.2-1.9,9.2-5.6,12.2C358.2,590.5,352.9,591.9,346.1,591.9z"/>
				<path class="st2" d="M346.1,592.4c-6.8,0-12.3-1.6-16.3-4.6c-4-3.1-6.4-7.5-7-13.3l-0.1-0.5h14.9l0.1,0.4c0.4,3,1.4,5,3,6.1
					s3.5,1.7,5.6,1.7c2.4,0,4.1-0.6,5.2-1.7c1.1-1.1,1.6-2.3,1.6-3.5c0-1.5-0.4-2.9-1.2-4c-0.8-1.1-2.3-1.9-4.4-2.5l-8.9-2.3
					c-4.6-1.2-8.2-3.1-10.5-5.6c-2.4-2.5-3.6-6.2-3.6-10.8c0-3.5,1-6.6,2.8-9c1.9-2.4,4.4-4.3,7.6-5.5c3.1-1.2,6.7-1.9,10.6-1.9
					c6.4,0,11.5,1.5,15.1,4.6c3.6,3,5.8,7.4,6.6,13l0.1,0.5h-14.6v-0.4c-0.3-2.3-1.1-4.2-2.4-5.6c-1.2-1.3-3-2-5.1-2
					c-1.8,0-3.3,0.5-4.3,1.5s-1.5,2.2-1.5,3.8c0,3,1.6,4.8,5,5.7l8.4,2.2c4,1,7.2,2.4,9.4,4c2.2,1.7,3.8,3.6,4.7,5.7
					c0.9,2.1,1.3,4.5,1.3,7c0,5.3-2,9.5-5.8,12.5C358.4,590.8,353,592.4,346.1,592.4z M323.7,574.8c0.7,5.3,2.9,9.4,6.6,12.2
					c3.8,2.9,9.1,4.4,15.8,4.4c6.7,0,11.9-1.4,15.6-4.3c3.6-2.8,5.5-6.8,5.5-11.8c0-2.4-0.4-4.7-1.2-6.7c-0.8-2-2.3-3.8-4.4-5.4
					c-2.1-1.6-5.2-2.9-9.1-3.9l-8.4-2.2c-3.8-1-5.7-3.1-5.7-6.5c0-1.8,0.6-3.2,1.8-4.4c1.2-1.1,2.9-1.7,4.9-1.7
					c2.4,0,4.3,0.8,5.8,2.3c1.3,1.4,2.2,3.3,2.5,5.7h12.9c-0.8-5.1-2.9-9.1-6.2-12c-3.5-2.9-8.3-4.4-14.6-4.4
					c-3.8,0-7.2,0.6-10.2,1.8s-5.4,3-7.2,5.3c-1.8,2.3-2.7,5.1-2.7,8.5c0,4.4,1.1,7.8,3.3,10.2c2.2,2.4,5.6,4.2,10.1,5.4l8.9,2.3
					c2.3,0.6,4,1.5,4.9,2.8c0.9,1.2,1.4,2.8,1.4,4.5c0,1.4-0.6,2.8-1.9,4.1s-3.2,2-5.8,2c-2.3,0-4.3-0.6-6.1-1.9
					c-1.7-1.2-2.8-3.4-3.3-6.4h-13.2V574.8z"/>
			</g>
			<g>
				<path class="st2" d="M390.9,591.8v-43.1h-15.7v-10.5h45.6v10.5h-15.7v43.1H390.9z"/>
				<path class="st2" d="M405.5,592.3h-15.1v-43.1h-15.7v-11.3h46.4v11.3h-15.7v43.1H405.5z M391.3,591.4h13.4v-43.1h15.7v-9.6
					h-44.7v9.6h15.7v43.1H391.3z"/>
			</g>
			<path d="M435.1,563.7l7.6,14l7.7-14h4l-9.8,16.8v11.3h-4v-11.3l-9.8-16.8H435.1z"/>
			<path d="M458.8,591.8v-28.1h17.6v3.1h-13.6v9.5h12.3v2.9h-12.3v9.6h13.8v3.1L458.8,591.8L458.8,591.8z"/>
			<path d="M490.5,591.8v-25.1h-9.3v-3.1h22.6v3.1h-9.3v25.1H490.5z"/>
		</g>
	</g>
</g>
</svg>
