<?xml version="1.0" encoding="utf-8"?>
<!-- Generator: Adobe Illustrator 24.0.3, SVG Export Plug-In . SVG Version: 6.00 Build 0)  -->
<svg version="1.1" id="Layer_1" xmlns="http://www.w3.org/2000/svg" xmlns:xlink="http://www.w3.org/1999/xlink" x="0px" y="0px"
	 viewBox="0 0 1802.3 762.4" style="enable-background:new 0 0 1802.3 762.4;" xml:space="preserve">
<style type="text/css">
	.st0{fill:none;}
	.st1{fill:#FDBB20;}
	.st2{fill:#FFFFFF;}
	.st3{fill:#2D2D2D;}
	.st4{fill:#FCBA1F;}
	.st5{enable-background:new    ;}
	.st6{fill:#DA1F26;}
	.st7{fill:#832F0A;}
	.st8{fill:#A5CF4F;}
	.st9{fill:#FADABA;}
	.st10{fill:#F39F52;}
	.st11{fill:#ED1C29;}
	.st12{fill:#972026;}
	.st13{opacity:0.51;fill:#8CAA45;enable-background:new    ;}
	.st14{fill:url(#SVGID_1_);}
	.st15{opacity:0.5;}
</style>
<pattern  x="64.2" y="698.7" width="208" height="208" patternUnits="userSpaceOnUse" id="SVGID_2_" viewBox="0 -208 208 208" style="overflow:visible;">
	<g>
		<rect y="-208" class="st0" width="208" height="208"/>
		<g>
			<rect y="-208" class="st0" width="208" height="208"/>
			<g>
				<rect y="-208" class="st0" width="208" height="208"/>
				<rect y="-208" class="st1" width="208" height="208"/>
				<path class="st2" d="M25.5-205.9c0.3-0.3,0.8-0.2,0.9,0.2c0.5,2.4,1.2,7.9-2.3,7C20.9-199.6,24-204,25.5-205.9z"/>
				<path class="st2" d="M30.9-155.2c0.4,0.2,0.3,0.8-0.1,1c-2.2,0.9-7.4,2.6-7.1-1C23.9-158.7,28.8-156.3,30.9-155.2z"/>
				<path class="st2" d="M7.5-170.4c0.4-0.2,0.8,0.2,0.7,0.6c-0.5,2.4-2.1,7.7-4.9,5.4C0.7-166.7,5.4-169.4,7.5-170.4z"/>
				<path class="st2" d="M6-188.5c0.1,0.4-0.4,0.8-0.8,0.6c-2.1-1.1-6.7-4.1-3.8-6.2C4.2-196.2,5.6-190.9,6-188.5z"/>
				<path class="st2" d="M14.8-102.1c0.4,0,0.7,0.5,0.4,0.9c-1.5,1.8-5.3,5.8-6.8,2.5C7.1-102,12.5-102.2,14.8-102.1z"/>
				<path class="st2" d="M4.1-132.1c0-0.4,0.5-0.7,0.8-0.5c2,1.4,6.3,4.8,3.1,6.5C5-124.4,4.3-129.7,4.1-132.1z"/>
				<path class="st2" d="M18.9-76.2c0.4,0,0.7,0.5,0.4,0.9c-1.5,1.8-5.3,5.8-6.8,2.5C11.2-76,16.6-76.2,18.9-76.2z"/>
				<path class="st2" d="M45-66.2c0.4-0.3,0.9,0,0.8,0.5c-0.2,2.4-0.9,7.9-4,6.1C38.9-61.3,43.1-64.8,45-66.2z"/>
				<path class="st2" d="M45.8-118.6c0.4-0.2,0.8,0.2,0.7,0.6c-0.5,2.4-2.1,7.7-4.9,5.4C39-114.8,43.7-117.5,45.8-118.6z"/>
				<path class="st2" d="M69.1-107.1c0.1,0.4-0.3,0.8-0.7,0.7c-2.2-0.8-7.2-3.1-4.7-5.6C66.2-114.5,68.3-109.4,69.1-107.1z"/>
				<path class="st2" d="M57.4-182.6c0.4-0.3,0.9,0,0.8,0.5c-0.2,2.4-0.9,7.9-4,6.1C51.2-177.7,55.4-181.2,57.4-182.6z"/>
				<path class="st2" d="M51-198.3c0.3,0.3,0,0.9-0.4,0.9c-2.4,0-7.8-0.4-6.3-3.7C45.8-204.2,49.5-200.2,51-198.3z"/>
				<path class="st2" d="M56.7-154.9c0.1,0.4-0.3,0.8-0.7,0.7c-2.2-0.8-7.2-3.1-4.7-5.6S55.9-157.2,56.7-154.9z"/>
				<path class="st2" d="M36.4-132.3c0.1,0.4-0.3,0.8-0.7,0.7c-2.2-0.8-7.2-3.1-4.7-5.6C33.5-139.7,35.6-134.6,36.4-132.3z"/>
				<path class="st2" d="M31.7-42.2c0.4-0.2,0.8,0.2,0.7,0.6c-0.5,2.4-2.1,7.7-4.9,5.4C24.9-38.4,29.6-41.1,31.7-42.2z"/>
				<path class="st2" d="M35.6-13c0.4,0.2,0.3,0.8-0.1,1c-2.3,0.7-7.5,2.1-7-1.5C28.9-17,33.6-14.3,35.6-13z"/>
				<path class="st2" d="M70.3-1.8C70.4-1.4,70-1,69.6-1.1c-2.2-0.8-7.2-3.1-4.7-5.6C67.4-9.1,69.5-4.1,70.3-1.8z"/>
				<path class="st2" d="M45.2-87.7c0.1,0.4-0.3,0.8-0.7,0.7c-2.2-0.8-7.2-3.1-4.7-5.6S44.4-90,45.2-87.7z"/>
				<path class="st2" d="M62.4-31.5c0.1,0.4-0.3,0.8-0.7,0.7c-2.2-0.8-7.2-3.1-4.7-5.6S61.6-33.8,62.4-31.5z"/>
				<path class="st2" d="M65.6-144.8c0.1-0.4,0.7-0.6,0.9-0.2c1.4,1.9,4.5,6.5,1,7.3C64.2-137.1,65.1-142.5,65.6-144.8z"/>
				<path class="st2" d="M11.5-48.6c0.4,0,0.7,0.5,0.4,0.9c-1.4,1.9-5,6.2-6.6,2.9C3.8-47.9,9.2-48.5,11.5-48.6z"/>
				<path class="st2" d="M14.5-17.5c-0.1,0.4-0.7,0.6-0.9,0.2c-1.4-1.9-4.4-6.6-1-7.3S15.1-19.8,14.5-17.5z"/>
				<path class="st2" d="M109.3-108.4c-0.4,0-0.7-0.5-0.4-0.9c1.5-1.8,5.3-5.8,6.8-2.5C117-108.6,111.6-108.4,109.3-108.4z"/>
				<path class="st2" d="M97.7-93.8c0.1,0.4-0.4,0.8-0.8,0.5c-2.1-1.2-6.7-4.2-3.7-6.2C96.1-101.4,97.3-96.1,97.7-93.8z"/>
				<path class="st2" d="M133.7-95.8c-0.4,0.1-0.8-0.4-0.6-0.8c1-2.2,3.7-7,5.9-4.1C141.2-97.9,136-96.3,133.7-95.8z"/>
				<path class="st2" d="M127.9-129.4c-0.4,0-0.7-0.5-0.4-0.9c1.5-1.8,5.3-5.8,6.8-2.5C135.7-129.6,130.3-129.4,127.9-129.4z"/>
				<path class="st2" d="M88.3-40.2c-0.3,0.3-0.8,0.2-0.9-0.2c-0.5-2.4-1.2-7.9,2.3-7C92.9-46.5,89.8-42,88.3-40.2z"/>
				<path class="st2" d="M70.9-80.2c-0.4,0.1-0.8-0.4-0.5-0.8c1.2-2,4.3-6.6,6.3-3.5C78.6-81.6,73.2-80.5,70.9-80.2z"/>
				<path class="st2" d="M112.3-75.6c-0.4,0.2-0.8-0.2-0.7-0.6c0.5-2.4,2.1-7.7,4.9-5.4C119.1-79.4,114.4-76.7,112.3-75.6z"/>
				<path class="st2" d="M88.1-69.1c-0.1-0.4,0.3-0.8,0.7-0.6c2.2,1,7.2,3.5,4.4,5.8C90.6-61.7,88.7-66.8,88.1-69.1z"/>
				<path class="st2" d="M72.5-54.5c0.2,0.4-0.1,0.9-0.5,0.8c-2.4-0.2-7.9-1.1-6-4.2C67.8-60.8,71.2-56.5,72.5-54.5z"/>
				<path class="st2" d="M145.3-67.7c0.2,0.4-0.1,0.9-0.5,0.8c-2.3-0.4-7.7-1.6-5.6-4.6C141.1-74.4,144.1-69.8,145.3-67.7z"/>
				<path class="st2" d="M156.4-122.3c0.2,0.4-0.1,0.9-0.5,0.8c-2.3-0.4-7.7-1.6-5.6-4.6C152.2-129,155.2-124.4,156.4-122.3z"/>
				<path class="st2" d="M200.5-156.7c0.2,0.4-0.1,0.9-0.5,0.8c-2.3-0.4-7.7-1.6-5.6-4.6C196.3-163.4,199.3-158.8,200.5-156.7z"/>
				<path class="st2" d="M109.4-57.1c-0.1-0.4,0.3-0.8,0.7-0.7c2.2,0.8,7.2,3.1,4.7,5.6C112.3-49.8,110.2-54.9,109.4-57.1z"/>
				<path class="st2" d="M189.5-133.5c-0.3-0.3-0.1-0.9,0.3-0.9c2.4-0.3,7.8-0.5,6.6,2.9C195.3-128.2,191.2-131.8,189.5-133.5z"/>
				<path class="st2" d="M198.6-110.8c-0.3-0.3-0.1-0.9,0.3-0.9c2.4-0.3,7.8-0.5,6.6,2.9C204.4-105.5,200.3-109.2,198.6-110.8z"/>
				<path class="st2" d="M166.3-105.6c-0.4-0.1-0.5-0.7-0.1-1c2-1.3,6.7-4.1,7.2-0.5C173.8-103.6,168.6-104.9,166.3-105.6z"/>
				<path class="st2" d="M189.5-78c-0.1,0.4-0.7,0.6-0.9,0.2c-1.4-1.9-4.5-6.5-1-7.3C190.9-85.8,190-80.4,189.5-78z"/>
				<path class="st2" d="M156.3-89.6c0.2-0.4,0.7-0.4,0.9,0c1.1,2.2,3.2,7.3-0.4,7.3C153.5-82.2,155.4-87.4,156.3-89.6z"/>
				<path class="st2" d="M100.9-7.3c-0.4,0.3-0.9,0-0.8-0.5c0.2-2.4,0.9-7.9,4-6.1C107-12.2,102.8-8.7,100.9-7.3z"/>
				<path class="st2" d="M101.3-141c-0.2,0.4-0.8,0.4-1,0c-1-2.2-2.9-7.4,0.8-7.2C104.6-148,102.4-143.1,101.3-141z"/>
				<path class="st2" d="M128.5-150.2c0.1,0.4-0.4,0.8-0.8,0.6c-2.1-1.1-6.9-3.8-4-6C126.5-157.7,128-152.5,128.5-150.2z"/>
				<path class="st2" d="M85.8-120c-0.4,0-0.7-0.5-0.4-0.9c1.5-1.8,5.3-5.8,6.8-2.5C93.5-120.2,88.1-119.9,85.8-120z"/>
				<path class="st2" d="M93.8-169.9c-0.4,0-0.7-0.5-0.4-0.9c1.5-1.8,5.3-5.8,6.8-2.5C101.6-170,96.2-169.8,93.8-169.9z"/>
				<path class="st2" d="M76.5-164.2c-0.1-0.4,0.4-0.7,0.8-0.5c2.1,1.2,6.6,4.3,3.6,6.3C78-156.6,76.9-161.9,76.5-164.2z"/>
				<path class="st2" d="M183.1-28.5c-0.4,0.2-0.8-0.2-0.7-0.6c0.5-2.4,2.1-7.7,4.9-5.4C189.9-32.3,185.2-29.6,183.1-28.5z"/>
				<path class="st2" d="M167.8-51.9c0.2,0.4-0.1,0.9-0.5,0.8c-2.3-0.4-7.7-1.6-5.6-4.6C163.6-58.6,166.6-54,167.8-51.9z"/>
				<path class="st2" d="M204.6-6.5c0.2,0.4-0.1,0.9-0.5,0.8c-2.3-0.4-7.7-1.6-5.6-4.6C200.4-13.1,203.4-8.5,204.6-6.5z"/>
				<path class="st2" d="M75.4-19.6c-0.4-0.3-0.3-0.8,0.1-0.9c2.3-0.7,7.6-1.9,7.1,1.7C82.1-15.5,77.4-18.3,75.4-19.6z"/>
				<path class="st2" d="M133.2-7.6c-0.1-0.4,0.3-0.8,0.7-0.7c2.2,0.8,7.2,3.1,4.7,5.6C136-0.2,133.9-5.3,133.2-7.6z"/>
				<path class="st2" d="M192.9-56.3c-0.3-0.3-0.1-0.9,0.3-0.9c2.4-0.3,7.8-0.5,6.6,2.9C198.7-51,194.6-54.6,192.9-56.3z"/>
				<path class="st2" d="M138.5-42.8c-0.3-0.3-0.1-0.9,0.3-0.9c2.4-0.3,7.8-0.5,6.6,2.9C144.3-37.5,140.2-41.1,138.5-42.8z"/>
				<path class="st2" d="M120.1-25.2c-0.1,0.4-0.7,0.6-0.9,0.2c-1.4-1.9-4.5-6.5-1-7.3C121.5-33,120.6-27.6,120.1-25.2z"/>
				<path class="st2" d="M79.4-190.3c-0.4,0.2-0.8-0.2-0.7-0.6c0.5-2.4,2.1-7.7,4.9-5.4C86.2-194.1,81.5-191.4,79.4-190.3z"/>
				<path class="st2" d="M163.8-14.7c-0.1,0.4-0.7,0.6-0.9,0.2c-1.4-1.9-4.5-6.5-1-7.3C165.2-22.5,164.3-17,163.8-14.7z"/>
				<path class="st2" d="M168.9-139.7c-0.4,0-0.7-0.5-0.4-0.9c1.5-1.8,5.3-5.8,6.8-2.5C176.7-139.9,171.3-139.7,168.9-139.7z"/>
				<path class="st2" d="M127-174.7c-0.4-0.3-0.3-0.8,0.1-1c2.3-0.7,7.6-2,7,1.6C133.6-170.5,129-173.3,127-174.7z"/>
				<path class="st2" d="M113.3-194.4c-0.4,0-0.7-0.5-0.4-0.9c1.4-1.9,5-6.2,6.6-2.9C121.1-195.1,115.7-194.5,113.3-194.4z"/>
				<path class="st2" d="M27.8-175.1c-0.4,0-0.7-0.5-0.4-0.9c1.4-1.9,5-6.2,6.6-2.9C35.5-175.8,30.2-175.2,27.8-175.1z"/>
				<path class="st2" d="M157.5-157.8c0,0.4-0.5,0.7-0.9,0.4c-1.8-1.6-5.6-5.6-2.3-7C157.6-165.7,157.6-160.2,157.5-157.8z"/>
				<path class="st2" d="M149.5-194.9c0.1-0.4,0.7-0.6,0.9-0.2c1.4,1.9,4.4,6.6,1,7.3C148.1-187.1,149-192.6,149.5-194.9z"/>
				<path class="st2" d="M174.9-175.6c-0.3,0.3-0.8,0.1-0.9-0.3c-0.2-2.4-0.3-8,3-6.7C180.2-181.4,176.6-177.3,174.9-175.6z"/>
				<path class="st2" d="M195.5-195.5c0,0.4-0.5,0.7-0.9,0.4c-1.8-1.6-5.6-5.6-2.3-7C195.5-203.4,195.6-197.9,195.5-195.5z"/>
			</g>
		</g>
	</g>
</pattern>
<g>
	<g>
		<path class="st3" d="M1202.3,115v575.1H629.4V115h238.8c0-26.3,21.3-47.6,47.6-47.6s47.6,21.3,47.6,47.6H1202.3z"/>
		<path class="st4" d="M1206,693.9H625.6V111.2h238.9c1.9-26.6,24.2-47.6,51.2-47.6s49.3,21,51.2,47.6h239L1206,693.9L1206,693.9z
			 M633.1,686.3h565.4V118.8H959.6V115c0-24.2-19.7-43.8-43.8-43.8c-24.2,0-43.8,19.7-43.8,43.8v3.8H633.1V686.3z"/>
	</g>
	<rect x="926.7" y="230.9" class="st0" width="73.9" height="44.8"/>
	<g class="st5">
		<path class="st1" d="M938.8,267.6v-31.9h-7.3v-3.3h18.8v3.3H943v31.9H938.8z"/>
	</g>
	<g class="st5">
		<path class="st1" d="M955.8,267.6v-35.2h4.2v15.9h10.3v-15.9h4.2v35.2h-4.2v-16H960v16H955.8z"/>
	</g>
	<g class="st5">
		<path class="st1" d="M980,267.6v-35.2h14.5v3.3h-10.3v12.5h9.3v3.2h-9.3v12.9h10.5v3.3H980z"/>
	</g>
	<rect x="874" y="457" class="st0" width="75" height="41.7"/>
	<g class="st5">
		<path class="st1" d="M887.3,493.9v-14.2l-7.9-21.1h4.4l5.8,16.9l5.8-16.9h4l-7.9,21.1v14.1h-4.2V493.9z"/>
	</g>
	<g class="st5">
		<path class="st1" d="M904.6,493.9v-35.2h14.5v3.3h-10.3v12.5h9.3v3.2h-9.3v12.9h10.5v3.3L904.6,493.9L904.6,493.9z"/>
	</g>
	<g class="st5">
		<path class="st1" d="M931.9,493.9V462h-7.3v-3.3h18.8v3.3h-7.3v31.9H931.9z"/>
	</g>
	<g>
		<g>
			<path class="st6" d="M771.1,468.7c-10.3,10.5-21.4,16.8-33.3,16.8c-23.8,0-36.8-17.3-36.8-34.1c0-14.6,10.3-28.4,32.2-28.4
				c11.4,0,21.4,8.7,31.6,18.9c19.2-37,39.2-96.5,59.2-149.5c8.1-21.6,23.6-39.3,32.5-34.8c4.1,2.1,6.6,5.3,7.5,7.5
				c-5.4,9.5-22.4,60-36.5,97.3c3.8-1.6,9.7-1.1,16.8,1.4c23.8-21.1,40.6-62.5,40.6-95.2c0-20.8-6.8-38.1-22.7-45.2
				c-3-0.5-4.9-0.5-7.3-0.5c-50,0-84.4,75.7-84.4,127.9c0,14.9,5.2,25.3,11.4,33.9c-1.6,3.8-8.5,8.8-12.8,8.8
				c-14.1,0-32.6-12-32.6-42.3c0-55.7,47.2-140.5,111.5-140.5c47.6,0,65.4,24.3,65.4,57.6c0,33-30.3,83.3-57.3,100.9
				c10.5,7,17,19.2,17,36.5c0,43.5-33.5,79.8-69.8,79.8C791.6,485.5,780.8,478.2,771.1,468.7z M758.1,454.4
				c-9.2-11.1-17-21.4-23.5-23.3c-5.9,2.7-11.1,12.7-11.1,23c0,9.5,4.1,18.7,14.6,22.4C744.6,473.6,751.3,465.7,758.1,454.4z
				 M852.7,392.2c0-7-1.6-13.5-5.4-18.4c-12.2,5.4-21.1,4.3-24.6,0.8c-1.3,3.5-2.4,6.8-3.8,9.7c-11.6,28.4-24.1,54.3-38.1,73
				c7,6.2,14.6,11.6,23.3,14.3C825.4,463.6,852.7,421.4,852.7,392.2z"/>
			<path class="st6" d="M1011.7,314.9c2.7-0.5,5.7,0.3,5.7,3.2c0,10.8-38.7,121.1-90.6,121.1c-21.1,0-38.4-12.4-38.4-31.1
				c0-27.3,15.4-72.2,36.5-96c7-8.1,17.4-24.3,29.3-20.4c13.9,4.5,28.1,13.4,28.1,33.1c0,22.7-27.6,77.6-60.8,77.6
				c-2.4,0-4.9-0.3-7.6-1.1c-0.3,3-0.5,5.7-0.5,8.1c0,8.7,3.2,14.3,11.6,17.6C949.8,421.7,991.5,364.6,1011.7,314.9z M915.5,393.8
				c24.3-4.1,48.1-59.2,48.1-78.9c0-3-0.5-5.1-1.9-6.2C949,309.5,923.1,360.6,915.5,393.8z"/>
			<path class="st6" d="M997.4,439.2c-20.6,0-37.5-15.9-37.5-26.4c0-6.5,7.5-4.7,13.4-5.3c4.9,8.7,15.7,16.8,20.8,20
				c8.7-8.1,16.5-36.2,18.4-93.5c0.3-6.8-4.1-7.8-4.1-11.1c0-0.5,0.3-1.3,0.5-1.9c17.6-44.6,20.8-67.5,34.9-67.5
				c10,0,21.4,17.8,24.1,29.1c-16,7.3-43,19.2-43,35.1c0,11.1,8.9,39.5,8.7,64.9c0,8.9-2.1,10.2-4.2,17.5
				c15.4-20,31.8-46.4,43.7-74.5c1.9-0.3,2.2,0.3,2.2,1.6C1075.3,340.8,1039.3,439.2,997.4,439.2z"/>
			<path class="st6" d="M1042,417.9c0-15.1,19.4-67.7,35.7-107.1c-5.4-0.3-10.1-0.4-14.3-0.7c0,0-7.5-6.7-7.5-7.5
				c0-2.7,1.1-5.4,4.9-5.6c4.3-0.3,16.1,5.3,20.7,5.3c6.5-15.4,13.8-35.1,16.8-41.1c15.1-0.5,19.9,6,19.9,12.2
				c0,4.3-5,12.5-9.4,21.7c6.5,0,8.6-0.3,14.5,0.2c0,0,5.3,1.5,4.4,10.5c-0.5,4.3-7.6,5.9-23.8,6.5c-9.2,22.7-19.7,50.3-32.7,86
				c-2.7,7.8-4.1,13.8-4.1,18.1c-0.3,4.9-1.1,5.7,1.1,7.8c10.8-5.7,18-24.1,25.3-37c2.2-0.3,8.4,1.6,8.5,10
				c0.1,11.6-21.1,42.2-37.3,42.2C1053.7,439.2,1042,430,1042,417.9z"/>
		</g>
		<g>
			<path class="st1" d="M763.6,461.2c-10.3,10.5-21.4,16.8-33.3,16.8c-23.8,0-36.8-17.3-36.8-34.1c0-14.6,10.3-28.4,32.2-28.4
				c11.4,0,21.4,8.7,31.6,18.9c19.2-37,39.2-96.5,59.2-149.5c8.1-21.6,17.6-30.6,28.1-30.6c3.8,0,7.8,1.1,11.9,3.2
				c-5.4,9.5-22.4,60-36.5,97.3c3.8-1.6,9.7-1.1,16.8,1.4c23.8-21.1,40.6-62.5,40.6-95.2c0-20.8-6.8-38.1-22.7-45.2
				c-3-0.5-4.9-0.5-7.3-0.5c-50,0-84.4,75.7-84.4,127.9c0,14.9,3,27.8,9.2,36.5c-1.6,3.8-6.2,6.2-10.5,6.2
				c-14.1,0-25.4-13.5-25.4-43.8c0-55.7,40-139,104.4-139c47.6,0,65.4,24.3,65.4,57.6c0,33-30.3,83.3-57.3,100.9
				c10.5,7,17,19.2,17,36.5c0,43.5-33.5,79.8-69.8,79.8C784.1,478,773.3,470.7,763.6,461.2z M750.6,446.9
				c-9.2-11.1-17-21.4-23.5-23.3c-5.9,2.7-11.1,12.7-11.1,23c0,9.5,4.1,18.7,14.6,22.4C737.1,466,743.8,458.2,750.6,446.9z
				 M845.2,384.7c0-7-1.6-13.5-5.4-18.4c-12.2,5.4-21.1,4.3-24.6,0.8c-1.3,3.5-2.4,6.8-3.8,9.7c-11.6,28.4-24.1,54.3-38.1,73
				c7,6.2,14.6,11.6,23.3,14.3C817.9,456,845.2,413.9,845.2,384.7z"/>
			<path class="st1" d="M1004.2,307.4c2.7-0.5,5.7,0.3,5.7,3.2c0,10.8-38.7,121.1-90.6,121.1c-21.1,0-38.4-12.4-38.4-31.1
				c0-27.3,15.4-72.2,36.5-96c7-8.1,15.9-13.8,28.4-13.8c13.8,0,28.9,6.8,28.9,26.5c0,22.7-27.6,77.6-60.8,77.6
				c-2.4,0-4.9-0.3-7.6-1.1c-0.3,3-0.5,5.7-0.5,8.1c0,8.7,3.2,14.3,11.6,17.6C942.3,414.2,984,357,1004.2,307.4z M908,386.3
				c24.3-4.1,48.1-59.2,48.1-78.9c0-3-0.5-5.1-1.9-6.2C941.5,301.9,915.5,353,908,386.3z"/>
			<path class="st1" d="M989.9,431.7c-20.6,0-30.3-11.6-30.3-22.2c0-6.5,3.2-11.9,9.2-12.4c4.9,8.7,12.7,19.7,17.8,23
				c8.7-8.1,16.5-36.2,18.4-93.5c0.3-6.8-4.1-7.8-4.1-11.1c0-0.5,0.3-1.3,0.5-1.9c17.6-44.6,25.7-60.3,39.7-60.3
				c10,0,16.5,10.5,19.2,21.9c-16,7.3-43,19.2-43,35.1c0,11.1,8.9,39.5,8.7,64.9c0,8.9-1.1,17.6-3.2,24.9
				c15.4-20,30.8-53.8,42.7-81.9c1.9-0.3,2.2,0.3,2.2,1.6C1067.8,333.3,1031.8,431.7,989.9,431.7z"/>
			<path class="st1" d="M1034.5,410.4c0-15.1,19.5-67.1,35.7-106.5c-5.4-0.3-10.3-0.8-14.3-1.3c-0.3-1.1-0.3-1.4-0.3-2.2
				c0-2.7,1.1-5.1,4.9-5.4c4.3-0.3,8.9-0.3,13.5-0.3c6.5-15.4,11.9-28.1,14.9-34.1c15.1-0.5,20.3,4.3,20.3,10.5
				c0,4.3-4.3,14.3-8.6,23.5c6.5,0,12.7,0.3,18.7,0.3c0.8,1.4,1.1,2.4,1.1,3.2c0,4.3-7.6,5.9-23.8,6.5c-9.2,22.7-19.7,50.3-32.7,86
				c-2.7,7.8-4.1,13.8-4.1,18.1c-0.3,4.9,1.1,7.8,3.2,10c10.8-5.7,20.6-19.2,27.9-32.2c2.2-0.3,3.8,0.3,3.8,3
				c0,11.6-21.1,42.2-37.3,42.2C1046.2,431.7,1034.5,422.5,1034.5,410.4z"/>
		</g>
	</g>
	<g>
		<g>
			<path class="st7" d="M877.7,579.5c-0.1-1.2,0-3,1.1-5c0.2-0.4,0.5-0.7,0.9-0.8c2.9-1.1,16.8-5.6,37.7-5.6c21,0,35.2,4.7,38.3,5.8
				c0.4,0.2,0.8,0.5,0.9,0.9c0.3,1,0.6,2.8-0.5,4.7l0,0c-1.4,0.3-1.7,0.2-2.6,0.2c-4.6-0.2-2.6-1.2-4.7-1.7
				c-1.6-0.4-2.4,0.1-4.4,0.1c-2.9,0-2.4-1-2.1-2c0.3-1.1-0.5-2-2.9-0.9c-3.2,1.5-5.6,1.5-8.7,1.4c-2-0.1-3.7-1.5-8.1-0.9
				c-3.8,0.5-5.9,1.5-7.3,1.7c-0.3,0-0.7,0-1,0c-1.3-0.2-2.3-1.2-4.7-0.9c-2.6,0.3-3.8,0.7-6,1c-2.7,0.4-5.2-1.7-7.7-1.7
				c-1.6,0-3.2,0.7-4.9,1.7c-1.2,0.7-2.5,1.3-5.2,1.5c-1.5,0.1-2-0.3-3.9,0.1c-1.6,0.3-2.7,0.9-3.5,1.5
				C878.1,580.5,877.7,580,877.7,579.5z M877.6,600c3.4-0.2,4.7,1.2,6.2,1.5c1.7,0.3,2.1,0.2,3.7,0.2c1.7,0,4.8,0.7,13.5,1
				c8.8,0.3,12.7-1.5,21.3-2.5c5.3-0.6,9.9,1.1,11.5,1.7c0.4,0.2,0.8,0.2,1.2,0c1-0.4,2.9-1.2,4.2-1.5c1.9-0.4,3.4,0.6,4.4,0.8
				s1.6-0.6,2.7-0.7c2.2-0.2,2.9,1.2,4.7,1.2c1.9,0,2.3-0.6,3.1-0.8s1.7,0,2.5,0.3c0.5-0.2,0.8-0.7,0.8-1.3c0-2.2-0.7-3.9-1.3-4.8
				c-0.4-0.6-1-1.1-1.8-1.1c-21.4-1.4-66.5-0.5-74-0.3c-0.7,0-1.4,0.4-1.7,1c-1.2,2-1.2,3.8-1.1,4.8
				C877.6,599.8,877.6,600,877.6,600z"/>
			<path class="st1" d="M924.7,606.2c-11,0.8-12.9,16.1-16,11s-5.6-8.8-13.7-10.2c-3.8-0.6-5.5-2.1-5.4-2.5c0.1-0.9,2.2-1,5.1-0.5
				c13.7,2.1,19.4-1.1,26-1.7c4.3-0.4,8.3-0.2,11.4,0.6c0.2,0,0.2,0.3,0,0.3C927.5,603.7,927.1,606,924.7,606.2z"/>
			<path class="st8" d="M952.3,607L952.3,607L952.3,607z M875.6,606.8c-0.1,0.3,0.1,0.7,0.4,0.6c3.3-0.6,2.9,1.4,5.1,2
				c1.2,0.3,3.2-0.1,4.5-0.3c4.4-0.8,3.9,1.5,7.2,1.4c1.6,0,3-0.6,3.6-0.9c0.3-0.1,0.3-0.5,0-0.6c-2.3-0.8-9.1-0.9-9.3-4.9
				c0-0.3-0.3-0.5-0.6-0.5c-1.3,0.2-3.3,0.3-6.1-1.5c-2.6-1.6-5-0.2-5.7,0.3c-0.1,0.1-0.1,0.2,0.1,0.2c1.7,0,3.7,1.1,2.3,2.1
				C876.2,605.5,875.8,606.3,875.6,606.8z M940.7,602.2c-2.3-0.4-4.4,1.5-5.5,2c-1,0.5-2.4,0.4-3,0.4c-0.1,0-0.2,0.1-0.1,0.2
				c0.4,0.3,1.1,0.8,2.4,1c1.6,0.2,3.6-0.3,4.4-0.3c2.4-0.1,2.6,3.5,6.3,3.6c3,0.1,3.5-3.5,9-1.1c3.3,1.4,5.8-1.5,6.7-2.8
				c0.1-0.2,0-0.5-0.3-0.4c-3.6,0.9-3.5-1.9-6-1.9c-1.8-0.1-1.9,2.1-6.8-0.1c-1.4-0.6-1.7,0.4-3.6,0.5
				C942.7,603.3,943,602.6,940.7,602.2z M940.7,576.6c0.1-0.2-0.1-0.3-0.2-0.2c-2,1.1-7.1,2.1-9.8,1.9c-1.6-0.1-3.5-1.4-5.5-1.5
				c-3.5-0.1-6.2,1.2-9,2.3c-0.1,0.1-0.1,0.3,0.1,0.3c0.7,0,1.8,0,2.8,0.4c1.7,0.6,3.9,2.5,6.6,2.7s3.9-0.4,4.8-0.6
				c1.7-0.3,2.5,0.6,3.9,1.4c2.3,1.4,7.1,1.1,9.1,0.1c1.8-0.9,3.3-3.2,4.4-3.9c0.2-0.1,0-0.4-0.1-0.3c-2.3,0.4-4.8,0.5-6.4-0.2
				C939.9,578.3,940.4,577.3,940.7,576.6z M895.5,577c-1.9,0-3.7,2-4.9,2.5c-0.9,0.4-2.3,0.5-2.9,0.6c-0.1,0-0.1,0.1,0,0.2
				c1.5,1,3.4,2,5,1.7c5-0.9,6.8,1.8,8.8,2c3,0.2,4.2-1.1,6.4-0.3c1.5,0.5,2.4,0.2,3.6-0.8c1.9-1.6,2.6-0.9,4.5-1.7
				c0.2-0.1,0.2-0.5-0.1-0.5c-0.5-0.1-1.1-0.3-1.7-0.6c-1.2-0.8-2.2-1.8-4.4-1.8c-2.5,0-2.2,0.9-7.3,1
				C899.8,579.2,898.4,576.8,895.5,577z M884.1,585.6c0.7-0.8,1.9-2.2,4.3-2.7c0.2,0,0.3-0.3,0.1-0.4c-1-0.7-3.5-2.4-6.1-2.1
				c-4.1,0.6-3.8,4-7.1,3.7c-0.8,0-1.3-0.2-1.7-0.5c-0.2-0.1-0.4,0.1-0.4,0.3c0.4,1.2,1.3,3.6,3.7,3.4c1.7-0.1,2.1-0.9,3.3-1.1
				C881.4,586,882.4,587.3,884.1,585.6z M947.2,586.3c3.4,0.1,4.7-2.1,9.2-0.3c2.1,0.8,4.7,0,5.5-1.5c0.1-0.1-0.1-0.3-0.2-0.3
				c-1,0.5-3.8,1-3.3-1.2c0.2-0.8,0-1.7-1.8-1.5c-1.5,0.1-2.1,0.4-3.2,0.2c-1-0.2-1.6-1-3.8-1c-3,0-3.5,4-7.6,4
				c-0.2,0-0.2,0.2-0.1,0.3C942.8,585.5,944.6,586.3,947.2,586.3z"/>
			<g>
				<path class="st9" d="M897.9,584c0.1,0,0.1,0.1,0,0.2c-1.7,0.5-2.9,2.8-5.5,2.8c-3.2,0-4.1-1.5-6.1-1.8c-0.1,0-0.1-0.1,0-0.2
					c0.6-0.1,1.5-0.4,2.3-0.7c1.2-0.5,2.7-1.4,4.4-1.4C894.9,583,897.2,583.8,897.9,584z M930.8,583c-8.7,2.6-8.3-2.2-13.4-1.4
					c-0.8,0.1-1.9,1.3-3.8,1.4c-0.9,0-1.1,0.6-1.2,0.8c-0.3,0.8,1.5,0.4,4.3,1.9c1.4,0.8,2.1,2.1,3.4,2.2c1.8,0.1,3-1.6,4.2-1.7
					c1.4-0.1,1.9,0.1,3.3-0.1C929.7,585.7,932.6,582.5,930.8,583z M921.2,609c0.5,0.3,4-0.2,6.1,0.7s2.9,1.9,4.4,2
					c3,0.2,3.2-3.1,5.8-3.7c2.4-0.5,1.4-1.6-1.9-0.8c-3.4,0.9-3.4-1.7-6-1.5c-1.6,0.1-1.7,2-5.6,1.9
					C921.8,607.6,920.6,608.7,921.2,609z"/>
			</g>
			<path class="st10" d="M947.6,553.3c-8.1-5.2-17.9-9.1-30.1-9.1s-22,3.9-30.1,9.1c-9.4,6.1-12.8,15.7-9.6,19.4
				c0.2,0.2,0.5,0.3,0.7,0.2c8.7-3.4,22.7-6.9,39-6.7c16.3-0.2,30.3,3.3,39.1,6.8c0.2,0.1,0.4,0,0.5-0.1
				C960.5,569.2,957.2,559.3,947.6,553.3z M923.6,548c1.4,0.4,0,2.3-0.6,3.1c-0.1,0.1-0.4,0.1-0.4-0.1
				C922.4,550,922.1,547.6,923.6,548z M888.4,564.7c-0.2,0.1-0.4,0-0.3-0.2c0.2-1,0.7-3.3,2-2.4
				C891.2,562.8,889.3,564.1,888.4,564.7z M893.5,556.2c-1-0.1-3.4-0.6-2.5-1.9c0.8-1.3,2.2,0.7,2.7,1.5
				C893.8,556,893.7,556.3,893.5,556.2z M899.9,562.3c-1.5-0.2-0.3-2.3,0.2-3.1c0.1-0.2,0.3-0.1,0.4,0.1
				C900.9,560.3,901.5,562.6,899.9,562.3z M901.8,552.7c-1.5,0.1-0.7-2.2-0.3-3.1c0.1-0.2,0.3-0.2,0.4,0
				C902.4,550.5,903.4,552.7,901.8,552.7z M905.8,557.2c-0.1,0.2-0.4,0.1-0.4-0.1c-0.3-1-0.7-3.3,0.8-3
				C907.7,554.4,906.4,556.4,905.8,557.2z M912,562.8c-1-0.3-3.2-1.1-2.2-2.2c1-1.1,2.1,1,2.5,1.9
				C912.4,562.6,912.2,562.8,912,562.8z M910.1,549.9c-0.2,0-0.3-0.3-0.1-0.4c0.7-0.7,2.5-2.3,3-0.8
				C913.5,550,911.2,550,910.1,549.9z M916.1,557.3c-0.2,0.1-0.4-0.1-0.3-0.3c0.4-1,1.4-3.1,2.5-1.9
				C919.3,556.2,917.1,557,916.1,557.3z M924.8,560.5c-0.4,0.9-1.5,3.1-2.5,1.9c-1-1.1,1.3-1.9,2.2-2.2
				C924.7,560.1,924.9,560.3,924.8,560.5z M930.5,557.9c-0.1,0.2-0.3,0.1-0.4,0c-0.3-1-0.9-3.3,0.6-3.1
				C932.2,555,931,557,930.5,557.9z M934.3,551.8c-0.9,1.2-2.1-0.8-2.6-1.7c-0.1-0.2,0.1-0.4,0.2-0.3
				C932.9,550,935.2,550.6,934.3,551.8z M937.3,562.5c-1.3,0.6-1.5-1.7-1.5-2.7c0-0.2,0.2-0.3,0.4-0.2
				C936.9,560.1,938.7,561.8,937.3,562.5z M941.4,555.9c-0.8-0.6-2.6-2.2-1.2-2.9c1.3-0.7,1.6,1.7,1.6,2.7
				C941.8,555.9,941.6,556,941.4,555.9z M948.3,561.6c-0.5,0.9-1.9,2.8-2.8,1.5c-0.8-1.3,1.5-1.7,2.5-1.8
				C948.3,561.3,948.4,561.5,948.3,561.6z M956.8,588c0.1,0.5,0.1,1.3-0.2,2.1s-0.7,1.5-1,1.9s-0.9,0.7-1.6,0.7
				c-35.3-1.5-68.2-0.4-73.8-0.1c-0.6,0-1.1-0.2-1.4-0.6c-0.3-0.4-0.6-0.8-0.8-1.4c-0.2-0.7-0.3-1.4-0.4-1.9
				c0.6-0.2,1.5-0.5,2.1-0.7c0.8-0.2,1.7,0.1,3-0.1s2.7-1.4,3.7-1.2s2.8,1.9,5.8,1.7s4.8-1.7,5.5-2.2s1.7-0.7,3.5-0.5
				s3.7-0.7,4.7-0.8s2,0.5,3.1,0.6c1,0.1,1.9-0.3,2.6-0.3c0.6,0,3.2,1.3,4.3,1.7s2.3,2.3,4.3,2.4c2,0,3.5-1.1,4.2-1.4
				c0.8-0.3,1.7,0,3.9-0.5s3.2-1.5,3.7-2.1c1.2-1.5,2.8,0.6,5.7,0.6c3.2,0,5,1.3,7.5,1.9c2.5,0.6,5.7,0,7.3-0.5
				S955.7,587.2,956.8,588z M907.9,619.6c-14.6-0.8-23.1-3.3-26.5-4.5c-1.1-0.4-2-1.3-2.4-2.4c-0.3-0.9-0.6-2-0.8-3.3
				c1,0.7,2.5,1.7,4.6,1.6c2.5-0.2,4-0.9,5.5-0.5c1.5,0.5,3.5,2,5.7,1.5c2.1-0.5,3.4-1,5-2.2c0.2-0.2,0.6-0.2,0.8,0
				c0.9,0.6,3.3,2.3,5.3,5.4C906.6,617.5,907.4,618.8,907.9,619.6z M956.4,609.6c-0.2,0.8-0.4,1.8-0.7,2.9c-0.3,1.1-1.2,2.1-2.3,2.5
				c-3.9,1.5-14.8,4.9-35.4,4.9c-2.2,0-4.2,0-6.2-0.1c0.3-0.3,0.7-0.7,1-1.2c1.5-2.2,4.1-7.5,6.2-8c2-0.5,6-0.1,8,0.8
				c2,0.9,3.7,2,5.8,1.7c3.2-0.4,3.5-3.7,5.8-3.8c0.9,0,1.4,0,3.2,0.9c1.7,0.7,4.2,0.9,6.1,0c2.4-1.2,2.2-1.6,3.6-1.6
				C952.9,608.7,953.9,609.7,956.4,609.6z"/>
		</g>
		<rect x="989.4" y="588.6" class="st1" width="148.8" height="1.9"/>
		<rect x="699.3" y="588.6" class="st1" width="146.4" height="1.9"/>
	</g>
	<g>
		<g>
			<path class="st1" d="M923.7,86.6c-3.3,0-6.3,4.3-8.2,10.9c-1.9-6.7-4.9-10.9-8.2-10.9c-5.8,0-10.5,14.2-10.5,31.7h4.7
				c0-16.3,2.6-29.4,5.9-29.4c3.2,0,5.9,12.2,5.9,27.2h4.7c0-15,2.6-27.2,5.9-27.2c3.2,0,5.9,13.2,5.9,29.4h4.7
				C934.2,100.8,929.5,86.6,923.7,86.6z"/>
		</g>
	</g>
</g>
<g id="FRIES-box">
	<g>
		<g>
			<path class="st2" d="M507.5,688.9H104.3C85.9,688.9,71,674,71,655.6v-551c0-18.4,14.9-33.3,33.3-33.3h403.1
				c18.4,0,33.3,14.9,33.3,33.3v551.1C540.8,674,525.9,688.9,507.5,688.9z"/>
			<path class="st1" d="M507.5,693.9H104.3c-21.1,0-38.3-17.1-38.3-38.3v-551c0-21.1,17.2-38.3,38.3-38.3h403.1
				c21.1,0,38.3,17.2,38.3,38.3v551.1C545.8,676.8,528.6,693.9,507.5,693.9z M104.3,76.3C88.7,76.3,76,89,76,104.6v551.1
				c0,15.6,12.7,28.3,28.3,28.3h403.1c15.6,0,28.3-12.7,28.3-28.3V104.6c0-15.6-12.7-28.3-28.3-28.3
				C507.4,76.3,104.3,76.3,104.3,76.3z"/>
		</g>
		<g>
			<g>
				<path class="st1" d="M318.9,129.3v225.5h-26.1V140c0-0.2,0-0.4,0-0.6s0-0.3,0-0.5c0.6-5.4,5.1-9.6,10.6-9.6
					C303.4,129.3,318.9,129.3,318.9,129.3z"/>
				<path class="st11" d="M306,166.2c12.9-6.2,12.9-17.7,12.9-17.7v-32.8c0-2-1.6-3.5-3.4-3.2c-12.8,1.8-22.7,13.7-22.7,28v36.8
					C292.9,177.3,296.5,170.8,306,166.2z"/>
			</g>
			<g>
				<path class="st1" d="M365,160.4c0.2,1.4,0.3,2.8,0.3,4.2v-1.9C365.2,161.9,365.1,161.2,365,160.4z"/>
				<path class="st1" d="M365.2,164.6v177.3h-26.1v-202c0-2,1.6-3.5,3.4-3.2c11.5,1.6,20.7,11.4,22.4,23.9
					C365.1,161.8,365.2,163.2,365.2,164.6z"/>
			</g>
			<g>
				<path class="st1" d="M411.3,187.2c0.2,1.4,0.3,2.8,0.3,4.2v-1.9C411.6,188.7,411.5,187.9,411.3,187.2z"/>
				<path class="st1" d="M411.6,191.4v149.2h-26.1v-174c0-2,1.6-3.5,3.4-3.2c11.5,1.6,20.7,11.4,22.4,23.9
					C411.5,188.6,411.6,189.9,411.6,191.4z"/>
			</g>
			<g>
				<path class="st1" d="M457.6,214.5c0.2,1.4,0.3,2.8,0.3,4.2v-1.9C457.9,216,457.8,215.2,457.6,214.5z"/>
				<path class="st1" d="M457.9,218.7v89.2h-26.1v-114c0-2,1.6-3.5,3.4-3.2c11.5,1.6,20.7,11.4,22.4,23.9
					C457.8,215.9,457.9,217.2,457.9,218.7z"/>
			</g>
			<g>
				<path class="st1" d="M246.8,160.4c-0.2,1.4-0.3,2.8-0.3,4.2v-1.9C246.5,161.9,246.6,161.2,246.8,160.4z"/>
				<path class="st1" d="M246.5,164.6v177.3h26.1v-202c0-2-1.6-3.5-3.4-3.2c-11.5,1.6-20.7,11.4-22.4,23.9
					C246.6,161.8,246.5,163.2,246.5,164.6z"/>
			</g>
			<g>
				<path class="st1" d="M200.5,187.2c-0.2,1.4-0.3,2.8-0.3,4.2v-1.9C200.2,188.7,200.3,187.9,200.5,187.2z"/>
				<path class="st1" d="M200.2,191.4v149.2h26.1v-174c0-2-1.6-3.5-3.4-3.2c-11.5,1.6-20.7,11.4-22.4,23.9
					C200.3,188.6,200.2,189.9,200.2,191.4z"/>
			</g>
			<g>
				<path class="st1" d="M154.2,214.5c-0.2,1.4-0.3,2.8-0.3,4.2v-1.9C153.9,216,154,215.2,154.2,214.5z"/>
				<path class="st1" d="M153.9,218.7v89.2H180v-114c0-2-1.6-3.5-3.4-3.2c-11.5,1.6-20.7,11.4-22.4,23.9
					C154,215.9,153.9,217.2,153.9,218.7z"/>
			</g>
		</g>
		<g>
			<path class="st11" d="M216.2,542c27.8-10.1,48.6-16.3,89.6-16.3s61.8,6.1,89.6,16.3l19.6-16.2c30.1-102.5,52.3-249.1,56.7-279.8
				h-40c-7.2,19.1-40.9,94-125.9,94s-118.7-74.9-125.9-94h-40c4.5,30.7,26.6,177.2,56.7,279.8L216.2,542z"/>
			<g>
				<path class="st1" d="M334.2,370.7c-11.5,0-21.8,15.4-28.5,39.4c-6.7-24-17-39.4-28.5-39.4c-20.3,0-36.7,51.1-36.7,114.2h16.3
					c0-58.5,9.1-106,20.4-106s20.4,43.8,20.4,97.8h16.3c0-54,9.1-97.8,20.4-97.8s20.4,47.5,20.4,106H371
					C370.9,421.8,354.5,370.7,334.2,370.7z"/>
			</g>
		</g>
		<g>
			<path d="M124.7,639.7v-25.1h-9.3v-3.1H138v3.1h-9.3v25.1H124.7z"/>
			<path d="M143.3,639.7v-28.1h4V624h14.2v-12.4h4v28.1h-4v-12.6h-14.2v12.6H143.3z"/>
			<path d="M172.7,639.7v-28.1h17.6v3.1h-13.6v9.5H189v2.9h-12.3v9.6h13.8v3.1L172.7,639.7L172.7,639.7z"/>
			<g>
				<path class="st11" d="M211.3,639.7v-53.6h21.4c4.5,0,8.2,0.6,11,1.8s4.9,2.9,6.2,5s2,4.4,2,7c0,2.2-0.6,4.3-1.8,6.3
					s-3.4,3.7-6.6,5c3.8,1.1,6.6,2.8,8.4,5.2c1.8,2.3,2.7,4.9,2.7,7.9c0,4.6-1.7,8.4-5.2,11.2s-8.5,4.3-15.2,4.3h-22.9L211.3,639.7
					L211.3,639.7z M230.7,595.4h-6V608h6c2,0,3.5-0.3,4.5-1c1-0.6,1.7-1.4,2.1-2.4c0.4-1,0.6-1.9,0.6-3
					C237.8,597.5,235.4,595.4,230.7,595.4z M231,616.5h-6.3v14h6.3c3.3,0,5.6-0.6,7-1.9c1.4-1.3,2-3,2-5.1c0-2-0.7-3.7-2-5
					C236.8,617.1,234.4,616.5,231,616.5z"/>
				<path class="st11" d="M234.3,640.2h-23.5v-54.4h21.8c4.6,0,8.3,0.6,11.2,1.9c2.9,1.3,5.1,3,6.4,5.1c1.4,2.1,2.1,4.6,2.1,7.2
					c0,2.3-0.6,4.4-1.8,6.5c-1.1,1.9-3,3.4-5.8,4.7c3.3,1.1,5.8,2.8,7.5,5c1.9,2.4,2.8,5.1,2.8,8.1c0,4.8-1.8,8.6-5.3,11.6
					C246.2,638.7,241,640.2,234.3,640.2z M211.7,639.3h22.6c6.5,0,11.5-1.4,14.9-4.2c3.3-2.8,5-6.4,5-10.9c0-2.8-0.9-5.4-2.6-7.6
					c-1.7-2.2-4.5-3.9-8.2-5l-1.2-0.4l1.2-0.5c3.1-1.2,5.3-2.8,6.4-4.8s1.7-4,1.7-6.1c0-2.5-0.6-4.7-1.9-6.7s-3.3-3.6-6-4.8
					c-2.8-1.2-6.4-1.8-10.9-1.8h-20.9v52.8H211.7z M231,630.9h-6.7V616h6.7c3.5,0,6,0.7,7.4,2.1c1.4,1.4,2.1,3.2,2.1,5.3
					c0,2.2-0.7,4.1-2.2,5.4C236.9,630.2,234.4,630.9,231,630.9z M225.1,630h5.9c3.2,0,5.4-0.6,6.7-1.8s1.9-2.8,1.9-4.8
					c0-1.9-0.6-3.5-1.8-4.7s-3.5-1.8-6.8-1.8h-5.9L225.1,630L225.1,630z M230.7,608.4h-6.4V595h6.4c5,0,7.5,2.2,7.5,6.7
					c0,1.1-0.2,2.1-0.6,3.1c-0.4,1-1.2,1.9-2.3,2.6C234.3,608.1,232.7,608.4,230.7,608.4z M225.1,607.6h5.6c1.9,0,3.3-0.3,4.2-0.9
					c0.9-0.6,1.6-1.3,1.9-2.2c0.4-0.9,0.5-1.9,0.5-2.8c0-3.9-2.2-5.8-6.7-5.8H225v11.7H225.1z"/>
			</g>
			<g>
				<path class="st11" d="M263.1,639.7v-53.6h36.3v10.5h-22.1v11.1h19.6v10h-19.6v11.5h22.4v10.5H263.1z"/>
				<path class="st11" d="M300.1,640.2h-37.5v-54.4h37.2v11.3h-22.1v10.3h19.6v10.9h-19.6V629h22.4V640.2L300.1,640.2z M263.5,639.3
					h35.8v-9.6h-22.4v-12.4h19.6v-9.1h-19.6v-12H299v-9.6h-35.5V639.3L263.5,639.3z"/>
			</g>
			<g>
				<path class="st11" d="M330.1,639.8c-6.8,0-12.1-1.5-16-4.5s-6.2-7.3-6.8-13h14c0.4,3.1,1.5,5.2,3.2,6.4s3.7,1.8,5.8,1.8
					c2.5,0,4.3-0.6,5.5-1.8s1.8-2.5,1.8-3.8c0-1.7-0.4-3.1-1.3-4.2c-0.9-1.2-2.4-2.1-4.7-2.6l-8.9-2.3c-4.6-1.2-8-3-10.3-5.5
					c-2.3-2.5-3.4-6-3.4-10.5c0-3.5,0.9-6.4,2.8-8.8c1.8-2.4,4.3-4.2,7.4-5.4c3.1-1.2,6.6-1.8,10.4-1.8c6.3,0,11.3,1.5,14.8,4.5
					s5.7,7.2,6.4,12.7H337c-0.3-2.5-1.1-4.4-2.5-5.8c-1.3-1.4-3.1-2.1-5.4-2.1c-2,0-3.5,0.5-4.6,1.6s-1.7,2.4-1.7,4.1
					c0,3.1,1.8,5.2,5.4,6.1l8.4,2.2c4,1,7.1,2.3,9.3,4c2.2,1.6,3.7,3.5,4.6,5.6s1.3,4.4,1.3,6.9c0,5.2-1.9,9.2-5.6,12.2
					C342.2,638.4,336.9,639.8,330.1,639.8z"/>
				<path class="st11" d="M330.1,640.3c-6.8,0-12.3-1.6-16.3-4.6c-4-3.1-6.4-7.5-7-13.3l-0.1-0.5h14.9l0.1,0.4c0.4,3,1.4,5,3,6.1
					s3.5,1.7,5.6,1.7c2.4,0,4.1-0.6,5.2-1.7c1.1-1.1,1.6-2.3,1.6-3.5c0-1.5-0.4-2.9-1.2-4c-0.8-1.1-2.3-1.9-4.4-2.5l-8.9-2.3
					c-4.6-1.2-8.2-3.1-10.5-5.6c-2.4-2.5-3.6-6.2-3.6-10.8c0-3.5,1-6.6,2.8-9c1.9-2.4,4.4-4.3,7.6-5.5c3.1-1.2,6.7-1.9,10.6-1.9
					c6.4,0,11.5,1.5,15.1,4.6c3.6,3,5.8,7.4,6.6,13l0.1,0.5h-14.6V601c-0.3-2.3-1.1-4.2-2.4-5.6c-1.2-1.3-3-2-5.1-2
					c-1.8,0-3.3,0.5-4.3,1.5s-1.5,2.2-1.5,3.8c0,3,1.6,4.8,5,5.7l8.4,2.2c4,1,7.2,2.4,9.4,4c2.2,1.7,3.8,3.6,4.7,5.7
					c0.9,2.1,1.3,4.5,1.3,7c0,5.3-2,9.5-5.8,12.5C342.4,638.7,337,640.3,330.1,640.3z M307.7,622.7c0.7,5.3,2.9,9.4,6.6,12.2
					c3.8,2.9,9.1,4.4,15.8,4.4c6.7,0,11.9-1.4,15.6-4.3c3.6-2.8,5.5-6.8,5.5-11.8c0-2.4-0.4-4.7-1.2-6.7c-0.8-2-2.3-3.8-4.4-5.4
					c-2.1-1.6-5.2-2.9-9.1-3.9l-8.4-2.2c-3.8-1-5.7-3.1-5.7-6.5c0-1.8,0.6-3.2,1.8-4.4c1.2-1.1,2.9-1.7,4.9-1.7
					c2.4,0,4.3,0.8,5.8,2.3c1.3,1.4,2.2,3.3,2.5,5.7h12.9c-0.8-5.1-2.9-9.1-6.2-12c-3.5-2.9-8.3-4.4-14.6-4.4
					c-3.8,0-7.2,0.6-10.2,1.8c-3,1.2-5.4,3-7.2,5.3c-1.8,2.3-2.7,5.1-2.7,8.5c0,4.4,1.1,7.8,3.3,10.2c2.2,2.4,5.6,4.2,10.1,5.4
					l8.9,2.3c2.3,0.6,4,1.5,4.9,2.8c0.9,1.2,1.4,2.8,1.4,4.5c0,1.4-0.6,2.8-1.9,4.1s-3.2,2-5.8,2c-2.3,0-4.3-0.6-6.1-1.9
					c-1.7-1.2-2.8-3.4-3.3-6.4h-13.2L307.7,622.7L307.7,622.7z"/>
			</g>
			<g>
				<path class="st11" d="M374.9,639.7v-43.1h-15.7v-10.5h45.6v10.5h-15.7v43.1H374.9z"/>
				<path class="st11" d="M389.5,640.2h-15.1v-43.1h-15.7v-11.3h46.4v11.3h-15.7v43.1H389.5z M375.3,639.3h13.4v-43.1h15.7v-9.6
					h-44.7v9.6h15.7v43.1H375.3z"/>
			</g>
			<path d="M418.1,611.6l7.6,14l7.7-14h4l-9.8,16.8v11.3h-4v-11.3l-9.8-16.8H418.1z"/>
			<path d="M441.8,639.7v-28.1h17.6v3.1h-13.6v9.5h12.3v2.9h-12.3v9.6h13.8v3.1L441.8,639.7L441.8,639.7z"/>
			<path d="M473.5,639.7v-25.1h-9.3v-3.1h22.6v3.1h-9.3v25.1H473.5z"/>
		</g>
	</g>
</g>
<g>
	<g>
		<path class="st2" d="M1700.9,689.2h-378c-17.9,0-32.3-14.5-32.3-32.3v-553c0-17.9,14.5-32.3,32.3-32.3h378
			c17.9,0,32.3,14.5,32.3,32.3v553C1733.3,674.7,1718.8,689.2,1700.9,689.2z"/>
		<path class="st1" d="M1700.9,693.9h-378c-20.4,0-36.9-16.6-36.9-36.9V104c0-20.4,16.6-36.9,36.9-36.9h378
			c20.4,0,36.9,16.6,36.9,36.9v553c0.1,9.8-3.7,19-10.7,26C1720.2,690,1710.8,693.9,1700.9,693.9z M1322.9,76.3
			c-15.3,0-27.7,12.4-27.7,27.7v553c0,15.3,12.4,27.7,27.7,27.7h378c7.4,0,14.4-2.9,19.7-8.2c5.2-5.2,8-12.1,8-19.5V104
			c0-15.3-12.4-27.7-27.7-27.7L1322.9,76.3L1322.9,76.3z"/>
	</g>
	<g>
		<g>
			<polygon class="st12" points="1654.2,173.6 1372.3,173.4 1414.7,108.4 1609.1,108.4 			"/>
			<polygon class="st6" points="1368.3,173.6 1484.7,510.4 1511.9,501 1546.3,489.2 1511.9,389.7 1437.3,173.6 1414.7,108.4 			"/>
			<polygon class="st6" points="1655.5,173.6 1539.1,510.4 1511.9,501 1477.5,489.2 1511.9,389.7 1586.6,173.6 1609.1,108.4 			"/>
			<g>
				<path class="st1" d="M1521.2,122.3c-3.8,0-7.1,5-9.3,12.9c-2.2-7.9-5.6-12.9-9.3-12.9c-6.6,0-12,16.7-12,37.4h5.3
					c0-19.2,3-34.7,6.7-34.7s6.7,14.3,6.7,32h5.3c0-17.7,3-32,6.7-32s6.7,15.5,6.7,34.7h5.3C1533.3,139,1527.9,122.3,1521.2,122.3z"
					/>
			</g>
		</g>
		<g>
			<path class="st8" d="M1534.4,399.5L1534.4,399.5c6,6,14.1,9.3,22.5,9.3l0,0c17.6,0,31.8,14.2,31.8,31.8l0,0
				c0,8.4,3.4,16.5,9.3,22.5l0,0c12.4,12.4,12.4,32.6,0,45l0,0c-6,6-9.3,14.1-9.3,22.5l0,0c0,17.6-14.2,31.8-31.8,31.8l0,0
				c-8.4,0-16.5,3.4-22.5,9.3l0,0c-12.4,12.4-32.6,12.4-45,0l0,0c-6-6-14.1-9.3-22.5-9.3l0,0c-17.6,0-31.8-14.2-31.8-31.8l0,0
				c0-8.4-3.4-16.5-9.3-22.5l0,0c-12.4-12.4-12.4-32.6,0-45l0,0c6-6,9.3-14.1,9.3-22.5l0,0c0-17.6,14.2-31.8,31.8-31.8l0,0
				c8.4,0,16.5-3.4,22.5-9.3l0,0C1501.8,387.1,1522,387.1,1534.4,399.5z"/>
			<path class="st13" d="M1534.4,399.5L1534.4,399.5c6,6,14.1,9.3,22.5,9.3l0,0c17.6,0,31.8,14.2,31.8,31.8l0,0
				c0,8.4,3.4,16.5,9.3,22.5l0,0c12.4,12.4,12.4,32.6,0,45l0,0c-6,6-9.3,14.1-9.3,22.5l0,0c0,17.6-14.2,31.8-31.8,31.8l0,0
				c-8.4,0-16.5,3.4-22.5,9.3l0,0c-12.4,12.4-32.6,12.4-45,0l0,0c-6-6-14.1-9.3-22.5-9.3l0,0c-17.6,0-31.8-14.2-31.8-31.8l0,0
				c0-2.4-0.6-9.3-2.9-13.3c76.3,93.8,147.7-44.8,147.7-44.8C1592.3,460,1522,387.1,1534.4,399.5z"/>
		</g>
		<g>
			<g>
				
					<pattern  id="SVGID_1_" xlink:href="#SVGID_2_" patternTransform="matrix(0.6396 0.4963 -0.4963 0.6396 -14315.1055 6447.2183)">
				</pattern>
				<circle class="st14" cx="1511.9" cy="485.5" r="76.7"/>
			</g>
			<g class="st15">
				<g>
					<path class="st1" d="M1586.1,504.8c-10.7,41-52.5,65.6-93.5,55c-16.2-4.2-29.8-13.3-39.7-25.2c4.9,2.5,10.2,4.5,15.7,6
						c41,10.7,82.9-14,93.5-54.9c6.5-24.9,0-50-15.4-68.4C1578.1,433.2,1595.3,469.3,1586.1,504.8z"/>
				</g>
			</g>
		</g>
	</g>
	<g>
		<path class="st1" d="M1373.7,620.6V641h-3.6v-20.4h-5.5v-3.4h14.5v3.4H1373.7z"/>
		<path class="st1" d="M1386.6,626.5h10.2v-9.3h3.6v23.7h-3.6v-11.1h-10.2v11.1h-3.6v-23.7h3.6V626.5z"/>
		<path class="st1" d="M1417.3,620.6h-9.5v5.7h9.2v3.4h-9.2v7.9h9.5v3.4h-13.1v-23.7h13.1V620.6z"/>
		<path class="st1" d="M1436.4,604.7h18.4c4.4,0,7.7,1,9.9,3.1c2.3,2.1,3.4,5.1,3.4,9.1c0,2.4-0.4,4.4-1.3,5.9
			c-0.9,1.6-2.2,2.9-3.9,4c1.8,0.3,3.3,0.8,4.5,1.5s2.2,1.5,3,2.5s1.3,2.1,1.7,3.4c0.3,1.3,0.5,2.6,0.5,4c0,2.2-0.4,4.2-1.2,5.9
			c-0.8,1.7-1.9,3.2-3.3,4.3c-1.4,1.2-3.1,2.1-5.1,2.6s-4.3,0.9-6.8,0.9h-19.8L1436.4,604.7L1436.4,604.7z M1448.8,623.3h2.3
			c3.9,0,5.8-1.5,5.8-4.6s-1.9-4.6-5.8-4.6h-2.3V623.3z M1448.8,642.6h2.7c3.1,0,5.3-0.4,6.7-1.2c1.3-0.8,2-2.1,2-3.8
			c0-1.8-0.7-3-2-3.8s-3.6-1.2-6.7-1.2h-2.7V642.6z"/>
		<path class="st1" d="M1507,615.2h-14.7v7.9h13.8v10.4h-13.8v8.2h14.7v10.4h-27v-47.5h27V615.2z"/>
		<path class="st1" d="M1543.2,616.9c-1.3-1.1-2.7-1.9-4-2.4s-2.6-0.8-3.9-0.8c-1.6,0-2.9,0.4-3.9,1.1s-1.5,1.7-1.5,3
			c0,0.8,0.3,1.5,0.8,2.1c0.5,0.5,1.2,1,2,1.4s1.7,0.7,2.8,1c1,0.3,2,0.6,3.1,0.9c4,1.3,7,3.1,8.8,5.4c1.9,2.2,2.8,5.2,2.8,8.8
			c0,2.4-0.4,4.6-1.2,6.6c-0.8,2-2,3.7-3.6,5.1c-1.6,1.4-3.5,2.5-5.8,3.3s-4.9,1.2-7.8,1.2c-6,0-11.6-1.8-16.7-5.3l5.3-9.9
			c1.8,1.6,3.7,2.9,5.5,3.7s3.6,1.2,5.3,1.2c2,0,3.5-0.5,4.5-1.4s1.5-2,1.5-3.1c0-0.7-0.1-1.3-0.4-1.9c-0.3-0.5-0.7-1-1.3-1.4
			s-1.4-0.8-2.3-1.2s-2.1-0.8-3.4-1.3c-1.6-0.5-3.2-1.1-4.7-1.7c-1.5-0.6-2.9-1.4-4.1-2.4s-2.2-2.3-2.9-3.8
			c-0.7-1.5-1.1-3.5-1.1-5.8s0.4-4.5,1.2-6.4c0.8-1.9,1.9-3.5,3.3-4.9s3.1-2.4,5.2-3.2c2-0.8,4.3-1.1,6.8-1.1c2.3,0,4.8,0.3,7.4,1
			s5,1.6,7.4,2.9L1543.2,616.9z"/>
		<path class="st1" d="M1579.2,615.2v37h-12.3v-37h-10.1v-10.4h32.6v10.4H1579.2z"/>
		<path class="st1" d="M1611.3,630.7l-7.7-13.5h4.1l5.4,9.5l5.4-9.5h4.1l-7.8,13.5v10.2h-3.6L1611.3,630.7L1611.3,630.7z"/>
		<path class="st1" d="M1639.1,620.6h-9.5v5.7h9.2v3.4h-9.2v7.9h9.5v3.4H1626v-23.7h13.1V620.6z"/>
		<path class="st1" d="M1651.6,620.6V641h-3.6v-20.4h-5.5v-3.4h14.5v3.4H1651.6z"/>
	</g>
</g>
</svg>
