<?xml version="1.0" encoding="utf-8"?>
<!-- Generator: Adobe Illustrator 24.0.3, SVG Export Plug-In . SVG Version: 6.00 Build 0)  -->
<svg version="1.1" id="Layer_1" xmlns="http://www.w3.org/2000/svg" xmlns:xlink="http://www.w3.org/1999/xlink" x="0px" y="0px"
	 viewBox="0 0 1674 635" style="enable-background:new 0 0 1674 635;" xml:space="preserve">
<style type="text/css">
	.st0{fill:none;}
	.st1{fill:#FDBB20;}
	.st2{fill:#FFFFFF;}
	.st3{fill:#2D2D2D;}
	.st4{fill:#FCBA1F;}
	.st5{enable-background:new    ;}
	.st6{fill:#DA1F26;}
	.st7{fill:#832F0A;}
	.st8{fill:#A5CF4F;}
	.st9{fill:#FADABA;}
	.st10{fill:#F39F52;}
	.st11{fill:#ED1C29;}
	.st12{fill:#972026;}
	.st13{opacity:0.51;fill:#8CAA45;enable-background:new    ;}
	.st14{fill:url(#SVGID_2_);}
	.st15{opacity:0.5;}
</style>
<pattern  y="-941" width="208" height="208" patternUnits="userSpaceOnUse" id="SVGID_1_" viewBox="0 -208 208 208" style="overflow:visible;">
	<g>
		<rect y="-208" class="st0" width="208" height="208"/>
		<g>
			<rect y="-208" class="st0" width="208" height="208"/>
			<rect y="-208" class="st1" width="208" height="208"/>
			<path class="st2" d="M25.5-2.1c0.3,0.3,0.8,0.2,0.9-0.2c0.5-2.4,1.2-7.9-2.3-7C20.9-8.4,24-4,25.5-2.1z"/>
			<path class="st2" d="M30.9-52.8c0.4-0.2,0.3-0.8-0.1-1c-2.2-0.9-7.4-2.6-7.1,1C23.9-49.3,28.8-51.7,30.9-52.8z"/>
			<path class="st2" d="M7.5-37.6c0.4,0.2,0.8-0.2,0.7-0.6c-0.5-2.4-2.1-7.7-4.9-5.4C0.7-41.3,5.4-38.6,7.5-37.6z"/>
			<path class="st2" d="M6-19.5c0.1-0.4-0.4-0.8-0.8-0.6C3.1-19-1.5-16,1.4-13.9C4.2-11.8,5.6-17.1,6-19.5z"/>
			<path class="st2" d="M14.8-105.9c0.4,0,0.7-0.5,0.4-0.9c-1.5-1.8-5.3-5.8-6.8-2.5C7.1-106,12.5-105.8,14.8-105.9z"/>
			<path class="st2" d="M4.1-75.9c0,0.4,0.5,0.7,0.8,0.5c2-1.4,6.3-4.8,3.1-6.5C5-83.6,4.3-78.3,4.1-75.9z"/>
			<path class="st2" d="M18.9-131.8c0.4,0,0.7-0.5,0.4-0.9c-1.5-1.8-5.3-5.8-6.8-2.5C11.2-132,16.6-131.8,18.9-131.8z"/>
			<path class="st2" d="M45-141.8c0.4,0.3,0.9,0,0.8-0.5c-0.2-2.4-0.9-7.9-4-6.1C38.9-146.7,43.1-143.2,45-141.8z"/>
			<path class="st2" d="M45.8-89.4c0.4,0.2,0.8-0.2,0.7-0.6c-0.5-2.4-2.1-7.7-4.9-5.4C39-93.2,43.7-90.5,45.8-89.4z"/>
			<path class="st2" d="M69.1-100.9c0.1-0.4-0.3-0.8-0.7-0.7c-2.2,0.8-7.2,3.1-4.7,5.6C66.2-93.5,68.3-98.6,69.1-100.9z"/>
			<path class="st2" d="M57.4-25.4c0.4,0.3,0.9,0,0.8-0.5c-0.2-2.4-0.9-7.9-4-6.1C51.2-30.3,55.4-26.8,57.4-25.4z"/>
			<path class="st2" d="M51-9.7c0.3-0.3,0-0.9-0.4-0.9c-2.4,0-7.8,0.4-6.3,3.7C45.8-3.8,49.5-7.8,51-9.7z"/>
			<path class="st2" d="M56.7-53.1c0.1-0.4-0.3-0.8-0.7-0.7c-2.2,0.8-7.2,3.1-4.7,5.6S55.9-50.8,56.7-53.1z"/>
			<path class="st2" d="M36.4-75.7c0.1-0.4-0.3-0.8-0.7-0.7c-2.2,0.8-7.2,3.1-4.7,5.6C33.5-68.3,35.6-73.4,36.4-75.7z"/>
			<path class="st2" d="M31.7-165.8c0.4,0.2,0.8-0.2,0.7-0.6c-0.5-2.4-2.1-7.7-4.9-5.4C24.9-169.6,29.6-166.9,31.7-165.8z"/>
			<path class="st2" d="M35.6-195c0.4-0.2,0.3-0.8-0.1-1c-2.3-0.7-7.5-2.1-7,1.5C28.9-191,33.6-193.7,35.6-195z"/>
			<path class="st2" d="M70.3-206.2c0.1-0.4-0.3-0.8-0.7-0.7c-2.2,0.8-7.2,3.1-4.7,5.6C67.4-198.9,69.5-203.9,70.3-206.2z"/>
			<path class="st2" d="M45.2-120.3c0.1-0.4-0.3-0.8-0.7-0.7c-2.2,0.8-7.2,3.1-4.7,5.6S44.4-118,45.2-120.3z"/>
			<path class="st2" d="M62.4-176.5c0.1-0.4-0.3-0.8-0.7-0.7c-2.2,0.8-7.2,3.1-4.7,5.6S61.6-174.2,62.4-176.5z"/>
			<path class="st2" d="M65.6-63.2c0.1,0.4,0.7,0.6,0.9,0.2c1.4-1.9,4.5-6.5,1-7.3C64.2-70.9,65.1-65.5,65.6-63.2z"/>
			<path class="st2" d="M11.5-159.4c0.4,0,0.7-0.5,0.4-0.9c-1.4-1.9-5-6.2-6.6-2.9C3.8-160.1,9.2-159.5,11.5-159.4z"/>
			<path class="st2" d="M14.5-190.5c-0.1-0.4-0.7-0.6-0.9-0.2c-1.4,1.9-4.4,6.6-1,7.3C16-182.7,15.1-188.2,14.5-190.5z"/>
			<path class="st2" d="M109.3-99.6c-0.4,0-0.7,0.5-0.4,0.9c1.5,1.8,5.3,5.8,6.8,2.5C117-99.4,111.6-99.6,109.3-99.6z"/>
			<path class="st2" d="M97.7-114.2c0.1-0.4-0.4-0.8-0.8-0.5c-2.1,1.2-6.7,4.2-3.7,6.2C96.1-106.6,97.3-111.9,97.7-114.2z"/>
			<path class="st2" d="M133.7-112.2c-0.4-0.1-0.8,0.4-0.6,0.8c1,2.2,3.7,7,5.9,4.1C141.2-110.1,136-111.7,133.7-112.2z"/>
			<path class="st2" d="M127.9-78.6c-0.4,0-0.7,0.5-0.4,0.9c1.5,1.8,5.3,5.8,6.8,2.5C135.7-78.4,130.3-78.6,127.9-78.6z"/>
			<path class="st2" d="M88.3-167.8c-0.3-0.3-0.8-0.2-0.9,0.2c-0.5,2.4-1.2,7.9,2.3,7C92.9-161.5,89.8-166,88.3-167.8z"/>
			<path class="st2" d="M70.9-127.8c-0.4-0.1-0.8,0.4-0.5,0.8c1.2,2,4.3,6.6,6.3,3.5C78.6-126.4,73.2-127.5,70.9-127.8z"/>
			<path class="st2" d="M112.3-132.4c-0.4-0.2-0.8,0.2-0.7,0.6c0.5,2.4,2.1,7.7,4.9,5.4C119.1-128.6,114.4-131.3,112.3-132.4z"/>
			<path class="st2" d="M88.1-138.9c-0.1,0.4,0.3,0.8,0.7,0.6c2.2-1,7.2-3.5,4.4-5.8C90.6-146.3,88.7-141.2,88.1-138.9z"/>
			<path class="st2" d="M72.5-153.5c0.2-0.4-0.1-0.9-0.5-0.8c-2.4,0.2-7.9,1.1-6,4.2C67.8-147.2,71.2-151.5,72.5-153.5z"/>
			<path class="st2" d="M145.3-140.3c0.2-0.4-0.1-0.9-0.5-0.8c-2.3,0.4-7.7,1.6-5.6,4.6C141.1-133.6,144.1-138.2,145.3-140.3z"/>
			<path class="st2" d="M156.4-85.7c0.2-0.4-0.1-0.9-0.5-0.8c-2.3,0.4-7.7,1.6-5.6,4.6C152.2-79,155.2-83.6,156.4-85.7z"/>
			<path class="st2" d="M200.5-51.3c0.2-0.4-0.1-0.9-0.5-0.8c-2.3,0.4-7.7,1.6-5.6,4.6C196.3-44.6,199.3-49.2,200.5-51.3z"/>
			<path class="st2" d="M109.4-150.9c-0.1,0.4,0.3,0.8,0.7,0.7c2.2-0.8,7.2-3.1,4.7-5.6C112.3-158.2,110.2-153.1,109.4-150.9z"/>
			<path class="st2" d="M189.5-74.5c-0.3,0.3-0.1,0.9,0.3,0.9c2.4,0.3,7.8,0.5,6.6-2.9C195.3-79.8,191.2-76.2,189.5-74.5z"/>
			<path class="st2" d="M198.6-97.2c-0.3,0.3-0.1,0.9,0.3,0.9c2.4,0.3,7.8,0.5,6.6-2.9C204.4-102.5,200.3-98.8,198.6-97.2z"/>
			<path class="st2" d="M166.3-102.4c-0.4,0.1-0.5,0.7-0.1,1c2,1.3,6.7,4.1,7.2,0.5C173.8-104.4,168.6-103.1,166.3-102.4z"/>
			<path class="st2" d="M189.5-130c-0.1-0.4-0.7-0.6-0.9-0.2c-1.4,1.9-4.5,6.5-1,7.3C190.9-122.2,190-127.6,189.5-130z"/>
			<path class="st2" d="M156.3-118.4c0.2,0.4,0.7,0.4,0.9,0c1.1-2.2,3.2-7.3-0.4-7.3C153.5-125.8,155.4-120.6,156.3-118.4z"/>
			<path class="st2" d="M100.9-200.7c-0.4-0.3-0.9,0-0.8,0.5c0.2,2.4,0.9,7.9,4,6.1C107-195.8,102.8-199.3,100.9-200.7z"/>
			<path class="st2" d="M101.3-67c-0.2-0.4-0.8-0.4-1,0c-1,2.2-2.9,7.4,0.8,7.2C104.6-60,102.4-64.9,101.3-67z"/>
			<path class="st2" d="M128.5-57.8c0.1-0.4-0.4-0.8-0.8-0.6c-2.1,1.1-6.9,3.8-4,6C126.5-50.3,128-55.5,128.5-57.8z"/>
			<path class="st2" d="M85.8-88c-0.4,0-0.7,0.5-0.4,0.9c1.5,1.8,5.3,5.8,6.8,2.5C93.5-87.8,88.1-88.1,85.8-88z"/>
			<path class="st2" d="M93.8-38.1c-0.4,0-0.7,0.5-0.4,0.9c1.5,1.8,5.3,5.8,6.8,2.5C101.6-38,96.2-38.2,93.8-38.1z"/>
			<path class="st2" d="M76.5-43.8c-0.1,0.4,0.4,0.7,0.8,0.5c2.1-1.2,6.6-4.3,3.6-6.3C78-51.4,76.9-46.1,76.5-43.8z"/>
			<path class="st2" d="M183.1-179.5c-0.4-0.2-0.8,0.2-0.7,0.6c0.5,2.4,2.1,7.7,4.9,5.4C189.9-175.7,185.2-178.4,183.1-179.5z"/>
			<path class="st2" d="M167.8-156.1c0.2-0.4-0.1-0.9-0.5-0.8c-2.3,0.4-7.7,1.6-5.6,4.6C163.6-149.4,166.6-154,167.8-156.1z"/>
			<path class="st2" d="M204.6-201.5c0.2-0.4-0.1-0.9-0.5-0.8c-2.3,0.4-7.7,1.6-5.6,4.6C200.4-194.9,203.4-199.5,204.6-201.5z"/>
			<path class="st2" d="M75.4-188.4c-0.4,0.3-0.3,0.8,0.1,0.9c2.3,0.7,7.6,1.9,7.1-1.7C82.1-192.5,77.4-189.7,75.4-188.4z"/>
			<path class="st2" d="M133.2-200.4c-0.1,0.4,0.3,0.8,0.7,0.7c2.2-0.8,7.2-3.1,4.7-5.6C136-207.8,133.9-202.7,133.2-200.4z"/>
			<path class="st2" d="M192.9-151.7c-0.3,0.3-0.1,0.9,0.3,0.9c2.4,0.3,7.8,0.5,6.6-2.9C198.7-157,194.6-153.4,192.9-151.7z"/>
			<path class="st2" d="M138.5-165.2c-0.3,0.3-0.1,0.9,0.3,0.9c2.4,0.3,7.8,0.5,6.6-2.9C144.3-170.5,140.2-166.9,138.5-165.2z"/>
			<path class="st2" d="M120.1-182.8c-0.1-0.4-0.7-0.6-0.9-0.2c-1.4,1.9-4.5,6.5-1,7.3C121.5-175,120.6-180.4,120.1-182.8z"/>
			<path class="st2" d="M79.4-17.7c-0.4-0.2-0.8,0.2-0.7,0.6c0.5,2.4,2.1,7.7,4.9,5.4C86.2-13.9,81.5-16.6,79.4-17.7z"/>
			<path class="st2" d="M163.8-193.3c-0.1-0.4-0.7-0.6-0.9-0.2c-1.4,1.9-4.5,6.5-1,7.3C165.2-185.5,164.3-191,163.8-193.3z"/>
			<path class="st2" d="M168.9-68.3c-0.4,0-0.7,0.5-0.4,0.9c1.5,1.8,5.3,5.8,6.8,2.5C176.7-68.1,171.3-68.3,168.9-68.3z"/>
			<path class="st2" d="M127-33.3c-0.4,0.3-0.3,0.8,0.1,1c2.3,0.7,7.6,2,7-1.6C133.6-37.5,129-34.7,127-33.3z"/>
			<path class="st2" d="M113.3-13.6c-0.4,0-0.7,0.5-0.4,0.9c1.4,1.9,5,6.2,6.6,2.9C121.1-12.9,115.7-13.5,113.3-13.6z"/>
			<path class="st2" d="M27.8-32.9c-0.4,0-0.7,0.5-0.4,0.9c1.4,1.9,5,6.2,6.6,2.9C35.5-32.2,30.2-32.8,27.8-32.9z"/>
			<path class="st2" d="M157.5-50.2c0-0.4-0.5-0.7-0.9-0.4c-1.8,1.6-5.6,5.6-2.3,7C157.6-42.3,157.6-47.8,157.5-50.2z"/>
			<path class="st2" d="M149.5-13.1c0.1,0.4,0.7,0.6,0.9,0.2c1.4-1.9,4.4-6.6,1-7.3C148.1-20.9,149-15.4,149.5-13.1z"/>
			<path class="st2" d="M174.9-32.4c-0.3-0.3-0.8-0.1-0.9,0.3c-0.2,2.4-0.3,8,3,6.7C180.2-26.6,176.6-30.7,174.9-32.4z"/>
			<path class="st2" d="M195.5-12.5c0-0.4-0.5-0.7-0.9-0.4c-1.8,1.6-5.6,5.6-2.3,7C195.5-4.6,195.6-10.1,195.5-12.5z"/>
		</g>
	</g>
</pattern>
<g>
	<g>
		<path class="st3" d="M1138.1,51.3v575.1H565.2V51.3H804c0-26.3,21.3-47.6,47.6-47.6c26.3,0,47.6,21.3,47.6,47.6H1138.1z"/>
		<path class="st4" d="M1141.8,630.2H561.4V47.5h238.9c1.9-26.6,24.2-47.6,51.2-47.6s49.3,21,51.2,47.6h239V630.2z M568.9,622.6
			h565.4V55.1H895.4v-3.8c0-24.2-19.7-43.8-43.8-43.8c-24.2,0-43.8,19.7-43.8,43.8v3.8H568.9V622.6z"/>
	</g>
	<rect x="862.5" y="167.2" class="st0" width="73.9" height="44.8"/>
	<g class="st5">
		<path class="st1" d="M874.6,203.9V172h-7.3v-3.3h18.8v3.3h-7.3v31.9H874.6z"/>
	</g>
	<g class="st5">
		<path class="st1" d="M891.6,203.9v-35.2h4.2v15.9h10.3v-15.9h4.2v35.2h-4.2v-16h-10.3v16H891.6z"/>
	</g>
	<g class="st5">
		<path class="st1" d="M915.8,203.9v-35.2h14.5v3.3H920v12.5h9.3v3.2H920v12.9h10.5v3.3H915.8z"/>
	</g>
	<rect x="809.8" y="393.3" class="st0" width="75" height="41.7"/>
	<g class="st5">
		<path class="st1" d="M823.1,430.2V416l-7.9-21.1h4.4l5.8,16.9l5.8-16.9h4l-7.9,21.1v14.1H823.1z"/>
	</g>
	<g class="st5">
		<path class="st1" d="M840.4,430.2v-35.2h14.5v3.3h-10.3v12.5h9.3v3.2h-9.3v12.9h10.5v3.3H840.4z"/>
	</g>
	<g class="st5">
		<path class="st1" d="M867.7,430.2v-31.9h-7.3v-3.3h18.8v3.3h-7.3v31.9H867.7z"/>
	</g>
	<g>
		<g>
			<path class="st6" d="M706.9,405c-10.3,10.5-21.4,16.8-33.3,16.8c-23.8,0-36.8-17.3-36.8-34.1c0-14.6,10.3-28.4,32.2-28.4
				c11.4,0,21.4,8.7,31.6,18.9c19.2-37,39.2-96.5,59.2-149.5c8.1-21.6,23.6-39.3,32.5-34.8c4.1,2.1,6.6,5.3,7.5,7.5
				c-5.4,9.5-22.4,60-36.5,97.3c3.8-1.6,9.7-1.1,16.8,1.4c23.8-21.1,40.6-62.5,40.6-95.2c0-20.8-6.8-38.1-22.7-45.2
				c-3-0.5-4.9-0.5-7.3-0.5c-50,0-84.4,75.7-84.4,127.9c0,14.9,5.2,25.3,11.4,33.9c-1.6,3.8-8.5,8.8-12.8,8.8
				c-14.1,0-32.6-12-32.6-42.3c0-55.7,47.2-140.5,111.5-140.5c47.6,0,65.4,24.3,65.4,57.6c0,33-30.3,83.3-57.3,100.9
				c10.5,7,17,19.2,17,36.5c0,43.5-33.5,79.8-69.8,79.8C727.4,421.8,716.6,414.5,706.9,405z M693.9,390.7
				c-9.2-11.1-17-21.4-23.5-23.3c-5.9,2.7-11.1,12.7-11.1,23c0,9.5,4.1,18.7,14.6,22.4C680.4,409.9,687.1,402,693.9,390.7z
				 M788.5,328.5c0-7-1.6-13.5-5.4-18.4c-12.2,5.4-21.1,4.3-24.6,0.8c-1.3,3.5-2.4,6.8-3.8,9.7c-11.6,28.4-24.1,54.3-38.1,73
				c7,6.2,14.6,11.6,23.3,14.3C761.2,399.9,788.5,357.7,788.5,328.5z"/>
			<path class="st6" d="M947.5,251.2c2.7-0.5,5.7,0.3,5.7,3.2c0,10.8-38.7,121.1-90.6,121.1c-21.1,0-38.4-12.4-38.4-31.1
				c0-27.3,15.4-72.2,36.5-96c7-8.1,17.4-24.3,29.3-20.4c13.9,4.5,28.1,13.4,28.1,33.1c0,22.7-27.6,77.6-60.8,77.6
				c-2.4,0-4.9-0.3-7.6-1.1c-0.3,3-0.5,5.7-0.5,8.1c0,8.7,3.2,14.3,11.6,17.6C885.6,358,927.3,300.9,947.5,251.2z M851.3,330.1
				c24.3-4.1,48.1-59.2,48.1-78.9c0-3-0.5-5.1-1.9-6.2C884.8,245.8,858.9,296.9,851.3,330.1z"/>
			<path class="st6" d="M933.2,375.5c-20.6,0-37.5-15.9-37.5-26.4c0-6.5,7.5-4.7,13.4-5.3c4.9,8.7,15.7,16.8,20.8,20
				c8.7-8.1,16.5-36.2,18.4-93.5c0.3-6.8-4.1-7.8-4.1-11.1c0-0.5,0.3-1.3,0.5-1.9c17.6-44.6,20.8-67.5,34.9-67.5
				c10,0,21.4,17.8,24.1,29.1c-16,7.3-43,19.2-43,35.1c0,11.1,8.9,39.5,8.7,64.9c0,8.9-2.1,10.2-4.2,17.5
				c15.4-20,31.8-46.4,43.7-74.5c1.9-0.3,2.2,0.3,2.2,1.6C1011.1,277.1,975.1,375.5,933.2,375.5z"/>
			<path class="st6" d="M977.8,354.2c0-15.1,19.4-67.7,35.7-107.1c-5.4-0.3-10.1-0.4-14.3-0.7c0,0-7.5-6.7-7.5-7.5
				c0-2.7,1.1-5.4,4.9-5.6c4.3-0.3,16.1,5.3,20.7,5.3c6.5-15.4,13.8-35.1,16.8-41.1c15.1-0.5,19.9,6,19.9,12.2
				c0,4.3-5,12.5-9.4,21.7c6.5,0,8.6-0.3,14.5,0.2c0,0,5.3,1.5,4.4,10.5c-0.5,4.3-7.6,5.9-23.8,6.5c-9.2,22.7-19.7,50.3-32.7,86
				c-2.7,7.8-4.1,13.8-4.1,18.1c-0.3,4.9-1.1,5.7,1.1,7.8c10.8-5.7,18-24.1,25.3-37c2.2-0.3,8.4,1.6,8.5,10
				c0.1,11.6-21.1,42.2-37.3,42.2C989.5,375.5,977.8,366.3,977.8,354.2z"/>
		</g>
		<g>
			<path class="st1" d="M699.4,397.5c-10.3,10.5-21.4,16.8-33.3,16.8c-23.8,0-36.8-17.3-36.8-34.1c0-14.6,10.3-28.4,32.2-28.4
				c11.4,0,21.4,8.7,31.6,18.9c19.2-37,39.2-96.5,59.2-149.5c8.1-21.6,17.6-30.6,28.1-30.6c3.8,0,7.8,1.1,11.9,3.2
				c-5.4,9.5-22.4,60-36.5,97.3c3.8-1.6,9.7-1.1,16.8,1.4c23.8-21.1,40.6-62.5,40.6-95.2c0-20.8-6.8-38.1-22.7-45.2
				c-3-0.5-4.9-0.5-7.3-0.5c-50,0-84.4,75.7-84.4,127.9c0,14.9,3,27.8,9.2,36.5c-1.6,3.8-6.2,6.2-10.5,6.2
				c-14.1,0-25.4-13.5-25.4-43.8c0-55.7,40-139,104.4-139c47.6,0,65.4,24.3,65.4,57.6c0,33-30.3,83.3-57.3,100.9
				c10.5,7,17,19.2,17,36.5c0,43.5-33.5,79.8-69.8,79.8C719.9,414.3,709.1,407,699.4,397.5z M686.4,383.2
				c-9.2-11.1-17-21.4-23.5-23.3c-5.9,2.7-11.1,12.7-11.1,23c0,9.5,4.1,18.7,14.6,22.4C672.9,402.3,679.6,394.5,686.4,383.2z
				 M781,321c0-7-1.6-13.5-5.4-18.4c-12.2,5.4-21.1,4.3-24.6,0.8c-1.3,3.5-2.4,6.8-3.8,9.7c-11.6,28.4-24.1,54.3-38.1,73
				c7,6.2,14.6,11.6,23.3,14.3C753.7,392.3,781,350.2,781,321z"/>
			<path class="st1" d="M940,243.7c2.7-0.5,5.7,0.3,5.7,3.2c0,10.8-38.7,121.1-90.6,121.1c-21.1,0-38.4-12.4-38.4-31.1
				c0-27.3,15.4-72.2,36.5-96c7-8.1,15.9-13.8,28.4-13.8c13.8,0,28.9,6.8,28.9,26.5c0,22.7-27.6,77.6-60.8,77.6
				c-2.4,0-4.9-0.3-7.6-1.1c-0.3,3-0.5,5.7-0.5,8.1c0,8.7,3.2,14.3,11.6,17.6C878.1,350.5,919.8,293.3,940,243.7z M843.8,322.6
				c24.3-4.1,48.1-59.2,48.1-78.9c0-3-0.5-5.1-1.9-6.2C877.3,238.2,851.3,289.3,843.8,322.6z"/>
			<path class="st1" d="M925.7,368c-20.6,0-30.3-11.6-30.3-22.2c0-6.5,3.2-11.9,9.2-12.4c4.9,8.7,12.7,19.7,17.8,23
				c8.7-8.1,16.5-36.2,18.4-93.5c0.3-6.8-4.1-7.8-4.1-11.1c0-0.5,0.3-1.3,0.5-1.9c17.6-44.6,25.7-60.3,39.7-60.3
				c10,0,16.5,10.5,19.2,21.9c-16,7.3-43,19.2-43,35.1c0,11.1,8.9,39.5,8.7,64.9c0,8.9-1.1,17.6-3.2,24.9
				c15.4-20,30.8-53.8,42.7-81.9c1.9-0.3,2.2,0.3,2.2,1.6C1003.6,269.6,967.6,368,925.7,368z"/>
			<path class="st1" d="M970.3,346.7c0-15.1,19.5-67.1,35.7-106.5c-5.4-0.3-10.3-0.8-14.3-1.3c-0.3-1.1-0.3-1.4-0.3-2.2
				c0-2.7,1.1-5.1,4.9-5.4c4.3-0.3,8.9-0.3,13.5-0.3c6.5-15.4,11.9-28.1,14.9-34.1c15.1-0.5,20.3,4.3,20.3,10.5
				c0,4.3-4.3,14.3-8.6,23.5c6.5,0,12.7,0.3,18.7,0.3c0.8,1.4,1.1,2.4,1.1,3.2c0,4.3-7.6,5.9-23.8,6.5c-9.2,22.7-19.7,50.3-32.7,86
				c-2.7,7.8-4.1,13.8-4.1,18.1c-0.3,4.9,1.1,7.8,3.2,10c10.8-5.7,20.6-19.2,27.9-32.2c2.2-0.3,3.8,0.3,3.8,3
				c0,11.6-21.1,42.2-37.3,42.2C982,368,970.3,358.8,970.3,346.7z"/>
		</g>
	</g>
	<g>
		<g>
			<path class="st7" d="M813.5,515.8c-0.1-1.2,0-3,1.1-5c0.2-0.4,0.5-0.7,0.9-0.8c2.9-1.1,16.8-5.6,37.7-5.6c21,0,35.2,4.7,38.3,5.8
				c0.4,0.2,0.8,0.5,0.9,0.9c0.3,1,0.6,2.8-0.5,4.7l0,0c-1.4,0.3-1.7,0.2-2.6,0.2c-4.6-0.2-2.6-1.2-4.7-1.7
				c-1.6-0.4-2.4,0.1-4.4,0.1c-2.9,0-2.4-1-2.1-2c0.3-1.1-0.5-2-2.9-0.9c-3.2,1.5-5.6,1.5-8.7,1.4c-2-0.1-3.7-1.5-8.1-0.9
				c-3.8,0.5-5.9,1.5-7.3,1.7c-0.3,0-0.7,0-1,0c-1.3-0.2-2.3-1.2-4.7-0.9c-2.6,0.3-3.8,0.7-6,1c-2.7,0.4-5.2-1.7-7.7-1.7
				c-1.6,0-3.2,0.7-4.9,1.7c-1.2,0.7-2.5,1.3-5.2,1.5c-1.5,0.1-2-0.3-3.9,0.1c-1.6,0.3-2.7,0.9-3.5,1.5
				C813.9,516.8,813.5,516.3,813.5,515.8z M813.4,536.3c3.4-0.2,4.7,1.2,6.2,1.5c1.7,0.3,2.1,0.2,3.7,0.2c1.7,0,4.8,0.7,13.5,1
				c8.8,0.3,12.7-1.5,21.3-2.5c5.3-0.6,9.9,1.1,11.5,1.7c0.4,0.2,0.8,0.2,1.2,0c1-0.4,2.9-1.2,4.2-1.5c1.9-0.4,3.4,0.6,4.4,0.8
				s1.6-0.6,2.7-0.7c2.2-0.2,2.9,1.2,4.7,1.2c1.9,0,2.3-0.6,3.1-0.8s1.7,0,2.5,0.3c0.5-0.2,0.8-0.7,0.8-1.3c0-2.2-0.7-3.9-1.3-4.8
				c-0.4-0.6-1-1.1-1.8-1.1c-21.4-1.4-66.5-0.5-74-0.3c-0.7,0-1.4,0.4-1.7,1c-1.2,2-1.2,3.8-1.1,4.8
				C813.4,536.1,813.4,536.3,813.4,536.3z"/>
			<path class="st1" d="M860.5,542.5c-11,0.8-12.9,16.1-16,11c-3.1-5.1-5.6-8.8-13.7-10.2c-3.8-0.6-5.5-2.1-5.4-2.5
				c0.1-0.9,2.2-1,5.1-0.5c13.7,2.1,19.4-1.1,26-1.7c4.3-0.4,8.3-0.2,11.4,0.6c0.2,0,0.2,0.3,0,0.3
				C863.3,540,862.9,542.3,860.5,542.5z"/>
			<path class="st8" d="M888.1,543.3L888.1,543.3L888.1,543.3z M811.4,543.1c-0.1,0.3,0.1,0.7,0.4,0.6c3.3-0.6,2.9,1.4,5.1,2
				c1.2,0.3,3.2-0.1,4.5-0.3c4.4-0.8,3.9,1.5,7.2,1.4c1.6,0,3-0.6,3.6-0.9c0.3-0.1,0.3-0.5,0-0.6c-2.3-0.8-9.1-0.9-9.3-4.9
				c0-0.3-0.3-0.5-0.6-0.5c-1.3,0.2-3.3,0.3-6.1-1.5c-2.6-1.6-5-0.2-5.7,0.3c-0.1,0.1-0.1,0.2,0.1,0.2c1.7,0,3.7,1.1,2.3,2.1
				C812,541.8,811.6,542.6,811.4,543.1z M876.5,538.5c-2.3-0.4-4.4,1.5-5.5,2c-1,0.5-2.4,0.4-3,0.4c-0.1,0-0.2,0.1-0.1,0.2
				c0.4,0.3,1.1,0.8,2.4,1c1.6,0.2,3.6-0.3,4.4-0.3c2.4-0.1,2.6,3.5,6.3,3.6c3,0.1,3.5-3.5,9-1.1c3.3,1.4,5.8-1.5,6.7-2.8
				c0.1-0.2,0-0.5-0.3-0.4c-3.6,0.9-3.5-1.9-6-1.9c-1.8-0.1-1.9,2.1-6.8-0.1c-1.4-0.6-1.7,0.4-3.6,0.5
				C878.5,539.6,878.8,538.9,876.5,538.5z M876.5,512.9c0.1-0.2-0.1-0.3-0.2-0.2c-2,1.1-7.1,2.1-9.8,1.9c-1.6-0.1-3.5-1.4-5.5-1.5
				c-3.5-0.1-6.2,1.2-9,2.3c-0.1,0.1-0.1,0.3,0.1,0.3c0.7,0,1.8,0,2.8,0.4c1.7,0.6,3.9,2.5,6.6,2.7s3.9-0.4,4.8-0.6
				c1.7-0.3,2.5,0.6,3.9,1.4c2.3,1.4,7.1,1.1,9.1,0.1c1.8-0.9,3.3-3.2,4.4-3.9c0.2-0.1,0-0.4-0.1-0.3c-2.3,0.4-4.8,0.5-6.4-0.2
				C875.7,514.6,876.2,513.6,876.5,512.9z M831.3,513.3c-1.9,0-3.7,2-4.9,2.5c-0.9,0.4-2.3,0.5-2.9,0.6c-0.1,0-0.1,0.1,0,0.2
				c1.5,1,3.4,2,5,1.7c5-0.9,6.8,1.8,8.8,2c3,0.2,4.2-1.1,6.4-0.3c1.5,0.5,2.4,0.2,3.6-0.8c1.9-1.6,2.6-0.9,4.5-1.7
				c0.2-0.1,0.2-0.5-0.1-0.5c-0.5-0.1-1.1-0.3-1.7-0.6c-1.2-0.8-2.2-1.8-4.4-1.8c-2.5,0-2.2,0.9-7.3,1
				C835.6,515.5,834.2,513.1,831.3,513.3z M819.9,521.9c0.7-0.8,1.9-2.2,4.3-2.7c0.2,0,0.3-0.3,0.1-0.4c-1-0.7-3.5-2.4-6.1-2.1
				c-4.1,0.6-3.8,4-7.1,3.7c-0.8,0-1.3-0.2-1.7-0.5c-0.2-0.1-0.4,0.1-0.4,0.3c0.4,1.2,1.3,3.6,3.7,3.4c1.7-0.1,2.1-0.9,3.3-1.1
				C817.2,522.3,818.2,523.6,819.9,521.9z M883,522.6c3.4,0.1,4.7-2.1,9.2-0.3c2.1,0.8,4.7,0,5.5-1.5c0.1-0.1-0.1-0.3-0.2-0.3
				c-1,0.5-3.8,1-3.3-1.2c0.2-0.8,0-1.7-1.8-1.5c-1.5,0.1-2.1,0.4-3.2,0.2c-1-0.2-1.6-1-3.8-1c-3,0-3.5,4-7.6,4
				c-0.2,0-0.2,0.2-0.1,0.3C878.6,521.8,880.4,522.6,883,522.6z"/>
			<g>
				<path class="st9" d="M833.7,520.3c0.1,0,0.1,0.1,0,0.2c-1.7,0.5-2.9,2.8-5.5,2.8c-3.2,0-4.1-1.5-6.1-1.8c-0.1,0-0.1-0.1,0-0.2
					c0.6-0.1,1.5-0.4,2.3-0.7c1.2-0.5,2.7-1.4,4.4-1.4C830.7,519.3,833,520.1,833.7,520.3z M866.6,519.3c-8.7,2.6-8.3-2.2-13.4-1.4
					c-0.8,0.1-1.9,1.3-3.8,1.4c-0.9,0-1.1,0.6-1.2,0.8c-0.3,0.8,1.5,0.4,4.3,1.9c1.4,0.8,2.1,2.1,3.4,2.2c1.8,0.1,3-1.6,4.2-1.7
					c1.4-0.1,1.9,0.1,3.3-0.1C865.5,522,868.4,518.8,866.6,519.3z M857,545.3c0.5,0.3,4-0.2,6.1,0.7c2.1,0.9,2.9,1.9,4.4,2
					c3,0.2,3.2-3.1,5.8-3.7c2.4-0.5,1.4-1.6-1.9-0.8c-3.4,0.9-3.4-1.7-6-1.5c-1.6,0.1-1.7,2-5.6,1.9
					C857.6,543.9,856.4,545,857,545.3z"/>
			</g>
			<path class="st10" d="M883.4,489.6c-8.1-5.2-17.9-9.1-30.1-9.1s-22,3.9-30.1,9.1c-9.4,6.1-12.8,15.7-9.6,19.4
				c0.2,0.2,0.5,0.3,0.7,0.2c8.7-3.4,22.7-6.9,39-6.7c16.3-0.2,30.3,3.3,39.1,6.8c0.2,0.1,0.4,0,0.5-0.1
				C896.3,505.5,893,495.6,883.4,489.6z M859.4,484.3c1.4,0.4,0,2.3-0.6,3.1c-0.1,0.1-0.4,0.1-0.4-0.1
				C858.2,486.3,857.9,483.9,859.4,484.3z M824.2,501c-0.2,0.1-0.4,0-0.3-0.2c0.2-1,0.7-3.3,2-2.4C827,499.1,825.1,500.4,824.2,501z
				 M829.3,492.5c-1-0.1-3.4-0.6-2.5-1.9c0.8-1.3,2.2,0.7,2.7,1.5C829.6,492.3,829.5,492.6,829.3,492.5z M835.7,498.6
				c-1.5-0.2-0.3-2.3,0.2-3.1c0.1-0.2,0.3-0.1,0.4,0.1C836.7,496.6,837.3,498.9,835.7,498.6z M837.6,489c-1.5,0.1-0.7-2.2-0.3-3.1
				c0.1-0.2,0.3-0.2,0.4,0C838.2,486.8,839.2,489,837.6,489z M841.6,493.5c-0.1,0.2-0.4,0.1-0.4-0.1c-0.3-1-0.7-3.3,0.8-3
				C843.5,490.7,842.2,492.7,841.6,493.5z M847.8,499.1c-1-0.3-3.2-1.1-2.2-2.2c1-1.1,2.1,1,2.5,1.9
				C848.2,498.9,848,499.1,847.8,499.1z M845.9,486.2c-0.2,0-0.3-0.3-0.1-0.4c0.7-0.7,2.5-2.3,3-0.8
				C849.3,486.3,847,486.3,845.9,486.2z M851.9,493.6c-0.2,0.1-0.4-0.1-0.3-0.3c0.4-1,1.4-3.1,2.5-1.9
				C855.1,492.5,852.9,493.3,851.9,493.6z M860.6,496.8c-0.4,0.9-1.5,3.1-2.5,1.9c-1-1.1,1.3-1.9,2.2-2.2
				C860.5,496.4,860.7,496.6,860.6,496.8z M866.3,494.2c-0.1,0.2-0.3,0.1-0.4,0c-0.3-1-0.9-3.3,0.6-3.1
				C868,491.3,866.8,493.3,866.3,494.2z M870.1,488.1c-0.9,1.2-2.1-0.8-2.6-1.7c-0.1-0.2,0.1-0.4,0.2-0.3
				C868.7,486.3,871,486.9,870.1,488.1z M873.1,498.8c-1.3,0.6-1.5-1.7-1.5-2.7c0-0.2,0.2-0.3,0.4-0.2
				C872.7,496.4,874.5,498.1,873.1,498.8z M877.2,492.2c-0.8-0.6-2.6-2.2-1.2-2.9c1.3-0.7,1.6,1.7,1.6,2.7
				C877.6,492.2,877.4,492.3,877.2,492.2z M884.1,497.9c-0.5,0.9-1.9,2.8-2.8,1.5c-0.8-1.3,1.5-1.7,2.5-1.8
				C884.1,497.6,884.2,497.8,884.1,497.9z M892.6,524.3c0.1,0.5,0.1,1.3-0.2,2.1c-0.3,0.8-0.7,1.5-1,1.9s-0.9,0.7-1.6,0.7
				c-35.3-1.5-68.2-0.4-73.8-0.1c-0.6,0-1.1-0.2-1.4-0.6c-0.3-0.4-0.6-0.8-0.8-1.4c-0.2-0.7-0.3-1.4-0.4-1.9
				c0.6-0.2,1.5-0.5,2.1-0.7c0.8-0.2,1.7,0.1,3-0.1s2.7-1.4,3.7-1.2s2.8,1.9,5.8,1.7s4.8-1.7,5.5-2.2s1.7-0.7,3.5-0.5
				s3.7-0.7,4.7-0.8s2,0.5,3.1,0.6c1,0.1,1.9-0.3,2.6-0.3c0.6,0,3.2,1.3,4.3,1.7s2.3,2.3,4.3,2.4c2,0,3.5-1.1,4.2-1.4
				c0.8-0.3,1.7,0,3.9-0.5s3.2-1.5,3.7-2.1c1.2-1.5,2.8,0.6,5.7,0.6c3.2,0,5,1.3,7.5,1.9c2.5,0.6,5.7,0,7.3-0.5
				S891.5,523.5,892.6,524.3z M843.7,555.9c-14.6-0.8-23.1-3.3-26.5-4.5c-1.1-0.4-2-1.3-2.4-2.4c-0.3-0.9-0.6-2-0.8-3.3
				c1,0.7,2.5,1.7,4.6,1.6c2.5-0.2,4-0.9,5.5-0.5c1.5,0.5,3.5,2,5.7,1.5c2.1-0.5,3.4-1,5-2.2c0.2-0.2,0.6-0.2,0.8,0
				c0.9,0.6,3.3,2.3,5.3,5.4C842.4,553.8,843.2,555.1,843.7,555.9z M892.2,545.9c-0.2,0.8-0.4,1.8-0.7,2.9c-0.3,1.1-1.2,2.1-2.3,2.5
				c-3.9,1.5-14.8,4.9-35.4,4.9c-2.2,0-4.2,0-6.2-0.1c0.3-0.3,0.7-0.7,1-1.2c1.5-2.2,4.1-7.5,6.2-8c2-0.5,6-0.1,8,0.8
				c2,0.9,3.7,2,5.8,1.7c3.2-0.4,3.5-3.7,5.8-3.8c0.9,0,1.4,0,3.2,0.9c1.7,0.7,4.2,0.9,6.1,0c2.4-1.2,2.2-1.6,3.6-1.6
				C888.7,545,889.7,546,892.2,545.9z"/>
		</g>
		<rect x="925.2" y="524.9" class="st1" width="148.8" height="1.9"/>
		<rect x="635.1" y="524.9" class="st1" width="146.4" height="1.9"/>
	</g>
	<g>
		<g>
			<path class="st1" d="M859.5,22.9c-3.3,0-6.3,4.3-8.2,10.9c-1.9-6.7-4.9-10.9-8.2-10.9c-5.8,0-10.5,14.2-10.5,31.7h4.7
				c0-16.3,2.6-29.4,5.9-29.4c3.2,0,5.9,12.2,5.9,27.2h4.7c0-15,2.6-27.2,5.9-27.2c3.2,0,5.9,13.2,5.9,29.4h4.7
				C870,37.1,865.3,22.9,859.5,22.9z"/>
		</g>
	</g>
</g>
<g id="FRIES-box">
	<g>
		<g>
			<path class="st2" d="M443.3,625.2H40.1c-18.4,0-33.3-14.9-33.3-33.3v-551c0-18.4,14.9-33.3,33.3-33.3h403.1
				c18.4,0,33.3,14.9,33.3,33.3V592C476.6,610.3,461.7,625.2,443.3,625.2z"/>
			<path class="st1" d="M443.3,630.2H40.1c-21.1,0-38.3-17.1-38.3-38.3v-551C1.8,19.8,19,2.6,40.1,2.6h403.1
				c21.1,0,38.3,17.2,38.3,38.3V592C481.6,613.1,464.4,630.2,443.3,630.2z M40.1,12.6c-15.6,0-28.3,12.7-28.3,28.3V592
				c0,15.6,12.7,28.3,28.3,28.3h403.1c15.6,0,28.3-12.7,28.3-28.3V40.9c0-15.6-12.7-28.3-28.3-28.3C443.2,12.6,40.1,12.6,40.1,12.6z
				"/>
		</g>
		<g>
			<g>
				<path class="st1" d="M254.7,65.6v225.5h-26.1V76.3c0-0.2,0-0.4,0-0.6s0-0.3,0-0.5c0.6-5.4,5.1-9.6,10.6-9.6H254.7z"/>
				<path class="st11" d="M241.8,102.5c12.9-6.2,12.9-17.7,12.9-17.7V52c0-2-1.6-3.5-3.4-3.2c-12.8,1.8-22.7,13.7-22.7,28v36.8
					C228.7,113.6,232.3,107.1,241.8,102.5z"/>
			</g>
			<g>
				<path class="st1" d="M300.8,96.7c0.2,1.4,0.3,2.8,0.3,4.2V99C301,98.2,300.9,97.5,300.8,96.7z"/>
				<path class="st1" d="M301,100.9v177.3h-26.1v-202c0-2,1.6-3.5,3.4-3.2c11.5,1.6,20.7,11.4,22.4,23.9
					C300.9,98.1,301,99.5,301,100.9z"/>
			</g>
			<g>
				<path class="st1" d="M347.1,123.5c0.2,1.4,0.3,2.8,0.3,4.2v-1.9C347.4,125,347.3,124.2,347.1,123.5z"/>
				<path class="st1" d="M347.4,127.7v149.2h-26.1v-174c0-2,1.6-3.5,3.4-3.2c11.5,1.6,20.7,11.4,22.4,23.9
					C347.3,124.9,347.4,126.2,347.4,127.7z"/>
			</g>
			<g>
				<path class="st1" d="M393.4,150.8c0.2,1.4,0.3,2.8,0.3,4.2v-1.9C393.7,152.3,393.6,151.5,393.4,150.8z"/>
				<path class="st1" d="M393.7,155v89.2h-26.1v-114c0-2,1.6-3.5,3.4-3.2c11.5,1.6,20.7,11.4,22.4,23.9
					C393.6,152.2,393.7,153.5,393.7,155z"/>
			</g>
			<g>
				<path class="st1" d="M182.6,96.7c-0.2,1.4-0.3,2.8-0.3,4.2V99C182.3,98.2,182.4,97.5,182.6,96.7z"/>
				<path class="st1" d="M182.3,100.9v177.3h26.1v-202c0-2-1.6-3.5-3.4-3.2c-11.5,1.6-20.7,11.4-22.4,23.9
					C182.4,98.1,182.3,99.5,182.3,100.9z"/>
			</g>
			<g>
				<path class="st1" d="M136.3,123.5c-0.2,1.4-0.3,2.8-0.3,4.2v-1.9C136,125,136.1,124.2,136.3,123.5z"/>
				<path class="st1" d="M136,127.7v149.2h26.1v-174c0-2-1.6-3.5-3.4-3.2c-11.5,1.6-20.7,11.4-22.4,23.9
					C136.1,124.9,136,126.2,136,127.7z"/>
			</g>
			<g>
				<path class="st1" d="M90,150.8c-0.2,1.4-0.3,2.8-0.3,4.2v-1.9C89.7,152.3,89.8,151.5,90,150.8z"/>
				<path class="st1" d="M89.7,155v89.2h26.1v-114c0-2-1.6-3.5-3.4-3.2c-11.5,1.6-20.7,11.4-22.4,23.9
					C89.8,152.2,89.7,153.5,89.7,155z"/>
			</g>
		</g>
		<g>
			<path class="st11" d="M152,478.3c27.8-10.1,48.6-16.3,89.6-16.3s61.8,6.1,89.6,16.3l19.6-16.2c30.1-102.5,52.3-249.1,56.7-279.8
				h-40c-7.2,19.1-40.9,94-125.9,94s-118.7-74.9-125.9-94h-40c4.5,30.7,26.6,177.2,56.7,279.8L152,478.3z"/>
			<g>
				<path class="st1" d="M270,307c-11.5,0-21.8,15.4-28.5,39.4c-6.7-24-17-39.4-28.5-39.4c-20.3,0-36.7,51.1-36.7,114.2h16.3
					c0-58.5,9.1-106,20.4-106s20.4,43.8,20.4,97.8h16.3c0-54,9.1-97.8,20.4-97.8s20.4,47.5,20.4,106h16.3
					C306.7,358.1,290.3,307,270,307z"/>
			</g>
		</g>
		<g>
			<path d="M60.5,576v-25.1h-9.3v-3.1h22.6v3.1h-9.3V576H60.5z"/>
			<path d="M79.1,576v-28.1h4v12.4h14.2v-12.4h4V576h-4v-12.6H83.1V576H79.1z"/>
			<path d="M108.5,576v-28.1h17.6v3.1h-13.6v9.5h12.3v2.9h-12.3v9.6h13.8v3.1L108.5,576L108.5,576z"/>
			<g>
				<path class="st11" d="M147.1,576v-53.6h21.4c4.5,0,8.2,0.6,11,1.8c2.8,1.2,4.9,2.9,6.2,5c1.3,2.1,2,4.4,2,7
					c0,2.2-0.6,4.3-1.8,6.3c-1.2,2-3.4,3.7-6.6,5c3.8,1.1,6.6,2.8,8.4,5.2c1.8,2.3,2.7,4.9,2.7,7.9c0,4.6-1.7,8.4-5.2,11.2
					s-8.5,4.3-15.2,4.3h-22.9L147.1,576L147.1,576z M166.5,531.7h-6v12.6h6c2,0,3.5-0.3,4.5-1c1-0.6,1.7-1.4,2.1-2.4
					c0.4-1,0.6-1.9,0.6-3C173.6,533.8,171.2,531.7,166.5,531.7z M166.8,552.8h-6.3v14h6.3c3.3,0,5.6-0.6,7-1.9c1.4-1.3,2-3,2-5.1
					c0-2-0.7-3.7-2-5C172.6,553.4,170.2,552.8,166.8,552.8z"/>
				<path class="st11" d="M170.1,576.5h-23.5v-54.4h21.8c4.6,0,8.3,0.6,11.2,1.9c2.9,1.3,5.1,3,6.4,5.1c1.4,2.1,2.1,4.6,2.1,7.2
					c0,2.3-0.6,4.4-1.8,6.5c-1.1,1.9-3,3.4-5.8,4.7c3.3,1.1,5.8,2.8,7.5,5c1.9,2.4,2.8,5.1,2.8,8.1c0,4.8-1.8,8.6-5.3,11.6
					C182,575,176.8,576.5,170.1,576.5z M147.5,575.6h22.6c6.5,0,11.5-1.4,14.9-4.2c3.3-2.8,5-6.4,5-10.9c0-2.8-0.9-5.4-2.6-7.6
					c-1.7-2.2-4.5-3.9-8.2-5l-1.2-0.4l1.2-0.5c3.1-1.2,5.3-2.8,6.4-4.8s1.7-4,1.7-6.1c0-2.5-0.6-4.7-1.9-6.7s-3.3-3.6-6-4.8
					c-2.8-1.2-6.4-1.8-10.9-1.8h-20.9v52.8H147.5z M166.8,567.2h-6.7v-14.9h6.7c3.5,0,6,0.7,7.4,2.1c1.4,1.4,2.1,3.2,2.1,5.3
					c0,2.2-0.7,4.1-2.2,5.4C172.7,566.5,170.2,567.2,166.8,567.2z M160.9,566.3h5.9c3.2,0,5.4-0.6,6.7-1.8s1.9-2.8,1.9-4.8
					c0-1.9-0.6-3.5-1.8-4.7s-3.5-1.8-6.8-1.8h-5.9L160.9,566.3L160.9,566.3z M166.5,544.7h-6.4v-13.4h6.4c5,0,7.5,2.2,7.5,6.7
					c0,1.1-0.2,2.1-0.6,3.1c-0.4,1-1.2,1.9-2.3,2.6C170.1,544.4,168.5,544.7,166.5,544.7z M160.9,543.9h5.6c1.9,0,3.3-0.3,4.2-0.9
					c0.9-0.6,1.6-1.3,1.9-2.2c0.4-0.9,0.5-1.9,0.5-2.8c0-3.9-2.2-5.8-6.7-5.8h-5.6v11.7H160.9z"/>
			</g>
			<g>
				<path class="st11" d="M198.9,576v-53.6h36.3v10.5h-22.1V544h19.6v10h-19.6v11.5h22.4V576H198.9z"/>
				<path class="st11" d="M235.9,576.5h-37.5v-54.4h37.2v11.3h-22.1v10.3h19.6v10.9h-19.6v10.7h22.4V576.5z M199.3,575.6h35.8V566
					h-22.4v-12.4h19.6v-9.1h-19.6v-12h22.1v-9.6h-35.5V575.6z"/>
			</g>
			<g>
				<path class="st11" d="M265.9,576.1c-6.8,0-12.1-1.5-16-4.5s-6.2-7.3-6.8-13h14c0.4,3.1,1.5,5.2,3.2,6.4s3.7,1.8,5.8,1.8
					c2.5,0,4.3-0.6,5.5-1.8s1.8-2.5,1.8-3.8c0-1.7-0.4-3.1-1.3-4.2c-0.9-1.2-2.4-2.1-4.7-2.6l-8.9-2.3c-4.6-1.2-8-3-10.3-5.5
					s-3.4-6-3.4-10.5c0-3.5,0.9-6.4,2.8-8.8c1.8-2.4,4.3-4.2,7.4-5.4c3.1-1.2,6.6-1.8,10.4-1.8c6.3,0,11.3,1.5,14.8,4.5
					s5.7,7.2,6.4,12.7h-13.8c-0.3-2.5-1.1-4.4-2.5-5.8c-1.3-1.4-3.1-2.1-5.4-2.1c-2,0-3.5,0.5-4.6,1.6s-1.7,2.4-1.7,4.1
					c0,3.1,1.8,5.2,5.4,6.1l8.4,2.2c4,1,7.1,2.3,9.3,4c2.2,1.6,3.7,3.5,4.6,5.6s1.3,4.4,1.3,6.9c0,5.2-1.9,9.2-5.6,12.2
					C278,574.7,272.7,576.1,265.9,576.1z"/>
				<path class="st11" d="M265.9,576.6c-6.8,0-12.3-1.6-16.3-4.6c-4-3.1-6.4-7.5-7-13.3l-0.1-0.5h14.9l0.1,0.4c0.4,3,1.4,5,3,6.1
					s3.5,1.7,5.6,1.7c2.4,0,4.1-0.6,5.2-1.7c1.1-1.1,1.6-2.3,1.6-3.5c0-1.5-0.4-2.9-1.2-4c-0.8-1.1-2.3-1.9-4.4-2.5l-8.9-2.3
					c-4.6-1.2-8.2-3.1-10.5-5.6c-2.4-2.5-3.6-6.2-3.6-10.8c0-3.5,1-6.6,2.8-9c1.9-2.4,4.4-4.3,7.6-5.5c3.1-1.2,6.7-1.9,10.6-1.9
					c6.4,0,11.5,1.5,15.1,4.6c3.6,3,5.8,7.4,6.6,13l0.1,0.5h-14.6v-0.4c-0.3-2.3-1.1-4.2-2.4-5.6c-1.2-1.3-3-2-5.1-2
					c-1.8,0-3.3,0.5-4.3,1.5s-1.5,2.2-1.5,3.8c0,3,1.6,4.8,5,5.7l8.4,2.2c4,1,7.2,2.4,9.4,4c2.2,1.7,3.8,3.6,4.7,5.7
					c0.9,2.1,1.3,4.5,1.3,7c0,5.3-2,9.5-5.8,12.5C278.2,575,272.8,576.6,265.9,576.6z M243.5,559c0.7,5.3,2.9,9.4,6.6,12.2
					c3.8,2.9,9.1,4.4,15.8,4.4c6.7,0,11.9-1.4,15.6-4.3c3.6-2.8,5.5-6.8,5.5-11.8c0-2.4-0.4-4.7-1.2-6.7c-0.8-2-2.3-3.8-4.4-5.4
					c-2.1-1.6-5.2-2.9-9.1-3.9l-8.4-2.2c-3.8-1-5.7-3.1-5.7-6.5c0-1.8,0.6-3.2,1.8-4.4c1.2-1.1,2.9-1.7,4.9-1.7
					c2.4,0,4.3,0.8,5.8,2.3c1.3,1.4,2.2,3.3,2.5,5.7h12.9c-0.8-5.1-2.9-9.1-6.2-12c-3.5-2.9-8.3-4.4-14.6-4.4
					c-3.8,0-7.2,0.6-10.2,1.8c-3,1.2-5.4,3-7.2,5.3c-1.8,2.3-2.7,5.1-2.7,8.5c0,4.4,1.1,7.8,3.3,10.2c2.2,2.4,5.6,4.2,10.1,5.4
					l8.9,2.3c2.3,0.6,4,1.5,4.9,2.8c0.9,1.2,1.4,2.8,1.4,4.5c0,1.4-0.6,2.8-1.9,4.1s-3.2,2-5.8,2c-2.3,0-4.3-0.6-6.1-1.9
					c-1.7-1.2-2.8-3.4-3.3-6.4h-13.2L243.5,559L243.5,559z"/>
			</g>
			<g>
				<path class="st11" d="M310.7,576v-43.1H295v-10.5h45.6v10.5h-15.7V576H310.7z"/>
				<path class="st11" d="M325.3,576.5h-15.1v-43.1h-15.7v-11.3h46.4v11.3h-15.7v43.1H325.3z M311.1,575.6h13.4v-43.1h15.7v-9.6
					h-44.7v9.6h15.7v43.1H311.1z"/>
			</g>
			<path d="M353.9,547.9l7.6,14l7.7-14h4l-9.8,16.8V576h-4v-11.3l-9.8-16.8H353.9z"/>
			<path d="M377.6,576v-28.1h17.6v3.1h-13.6v9.5h12.3v2.9h-12.3v9.6h13.8v3.1L377.6,576L377.6,576z"/>
			<path d="M409.3,576v-25.1H400v-3.1h22.6v3.1h-9.3V576H409.3z"/>
		</g>
	</g>
</g>
<g>
	<g>
		<path class="st2" d="M1636.7,625.5h-378c-17.9,0-32.3-14.5-32.3-32.3v-553c0-17.9,14.5-32.3,32.3-32.3h378
			c17.9,0,32.3,14.5,32.3,32.3v553C1669.1,611,1654.6,625.5,1636.7,625.5z"/>
		<path class="st1" d="M1636.7,630.2h-378c-20.4,0-36.9-16.6-36.9-36.9v-553c0-20.4,16.6-36.9,36.9-36.9h378
			c20.4,0,36.9,16.6,36.9,36.9v553c0.1,9.8-3.7,19-10.7,26C1656,626.3,1646.6,630.2,1636.7,630.2z M1258.7,12.6
			c-15.3,0-27.7,12.4-27.7,27.7v553c0,15.3,12.4,27.7,27.7,27.7h378c7.4,0,14.4-2.9,19.7-8.2c5.2-5.2,8-12.1,8-19.5v-553
			c0-15.3-12.4-27.7-27.7-27.7H1258.7z"/>
	</g>
	<g>
		<g>
			<polygon class="st12" points="1590,109.9 1308.1,109.7 1350.5,44.7 1544.9,44.7 			"/>
			<polygon class="st6" points="1304.1,109.9 1420.5,446.7 1447.7,437.3 1482.1,425.5 1447.7,326 1373.1,109.9 1350.5,44.7 			"/>
			<polygon class="st6" points="1591.3,109.9 1474.9,446.7 1447.7,437.3 1413.3,425.5 1447.7,326 1522.4,109.9 1544.9,44.7 			"/>
			<g>
				<path class="st1" d="M1457,58.6c-3.8,0-7.1,5-9.3,12.9c-2.2-7.9-5.6-12.9-9.3-12.9c-6.6,0-12,16.7-12,37.4h5.3
					c0-19.2,3-34.7,6.7-34.7c3.7,0,6.7,14.3,6.7,32h5.3c0-17.7,3-32,6.7-32c3.7,0,6.7,15.5,6.7,34.7h5.3
					C1469.1,75.3,1463.7,58.6,1457,58.6z"/>
			</g>
		</g>
		<g>
			<path class="st8" d="M1470.2,335.8L1470.2,335.8c6,6,14.1,9.3,22.5,9.3l0,0c17.6,0,31.8,14.2,31.8,31.8l0,0
				c0,8.4,3.4,16.5,9.3,22.5l0,0c12.4,12.4,12.4,32.6,0,45l0,0c-6,6-9.3,14.1-9.3,22.5l0,0c0,17.6-14.2,31.8-31.8,31.8l0,0
				c-8.4,0-16.5,3.4-22.5,9.3l0,0c-12.4,12.4-32.6,12.4-45,0l0,0c-6-6-14.1-9.3-22.5-9.3l0,0c-17.6,0-31.8-14.2-31.8-31.8l0,0
				c0-8.4-3.4-16.5-9.3-22.5l0,0c-12.4-12.4-12.4-32.6,0-45l0,0c6-6,9.3-14.1,9.3-22.5l0,0c0-17.6,14.2-31.8,31.8-31.8l0,0
				c8.4,0,16.5-3.4,22.5-9.3l0,0C1437.6,323.4,1457.8,323.4,1470.2,335.8z"/>
			<path class="st13" d="M1470.2,335.8L1470.2,335.8c6,6,14.1,9.3,22.5,9.3l0,0c17.6,0,31.8,14.2,31.8,31.8l0,0
				c0,8.4,3.4,16.5,9.3,22.5l0,0c12.4,12.4,12.4,32.6,0,45l0,0c-6,6-9.3,14.1-9.3,22.5l0,0c0,17.6-14.2,31.8-31.8,31.8l0,0
				c-8.4,0-16.5,3.4-22.5,9.3l0,0c-12.4,12.4-32.6,12.4-45,0l0,0c-6-6-14.1-9.3-22.5-9.3l0,0c-17.6,0-31.8-14.2-31.8-31.8l0,0
				c0-2.4-0.6-9.3-2.9-13.3c76.3,93.8,147.7-44.8,147.7-44.8C1528.1,396.3,1457.8,323.4,1470.2,335.8z"/>
		</g>
		<g>
			<g>
				
					<pattern  id="SVGID_2_" xlink:href="#SVGID_1_" patternTransform="matrix(0.6396 0.4963 0.4963 -0.6396 -7257.8691 -4346.5454)">
				</pattern>
				<circle class="st14" cx="1447.7" cy="421.8" r="76.7"/>
			</g>
			<g class="st15">
				<g>
					<path class="st1" d="M1521.9,441.1c-10.7,41-52.5,65.6-93.5,55c-16.2-4.2-29.8-13.3-39.7-25.2c4.9,2.5,10.2,4.5,15.7,6
						c41,10.7,82.9-14,93.5-54.9c6.5-24.9,0-50-15.4-68.4C1513.9,369.5,1531.1,405.6,1521.9,441.1z"/>
				</g>
			</g>
		</g>
	</g>
	<g>
		<path class="st1" d="M1309.5,556.9v20.4h-3.6v-20.4h-5.5v-3.4h14.5v3.4H1309.5z"/>
		<path class="st1" d="M1322.4,562.8h10.2v-9.3h3.6v23.7h-3.6v-11.1h-10.2v11.1h-3.6v-23.7h3.6V562.8z"/>
		<path class="st1" d="M1353.1,556.9h-9.5v5.7h9.2v3.4h-9.2v7.9h9.5v3.4H1340v-23.7h13.1V556.9z"/>
		<path class="st1" d="M1372.2,541h18.4c4.4,0,7.7,1,9.9,3.1c2.3,2.1,3.4,5.1,3.4,9.1c0,2.4-0.4,4.4-1.3,5.9c-0.9,1.6-2.2,2.9-3.9,4
			c1.8,0.3,3.3,0.8,4.5,1.5c1.2,0.7,2.2,1.5,3,2.5c0.8,1,1.3,2.1,1.7,3.4c0.3,1.3,0.5,2.6,0.5,4c0,2.2-0.4,4.2-1.2,5.9
			c-0.8,1.7-1.9,3.2-3.3,4.3c-1.4,1.2-3.1,2.1-5.1,2.6s-4.3,0.9-6.8,0.9h-19.8V541L1372.2,541z M1384.6,559.6h2.3
			c3.9,0,5.8-1.5,5.8-4.6s-1.9-4.6-5.8-4.6h-2.3V559.6z M1384.6,578.9h2.7c3.1,0,5.3-0.4,6.7-1.2c1.3-0.8,2-2.1,2-3.8
			c0-1.8-0.7-3-2-3.8c-1.3-0.8-3.6-1.2-6.7-1.2h-2.7V578.9z"/>
		<path class="st1" d="M1442.8,551.5h-14.7v7.9h13.8v10.4h-13.8v8.2h14.7v10.4h-27v-47.5h27V551.5z"/>
		<path class="st1" d="M1479,553.2c-1.3-1.1-2.7-1.9-4-2.4c-1.3-0.5-2.6-0.8-3.9-0.8c-1.6,0-2.9,0.4-3.9,1.1s-1.5,1.7-1.5,3
			c0,0.8,0.3,1.5,0.8,2.1c0.5,0.5,1.2,1,2,1.4c0.8,0.4,1.7,0.7,2.8,1c1,0.3,2,0.6,3.1,0.9c4,1.3,7,3.1,8.8,5.4
			c1.9,2.2,2.8,5.2,2.8,8.8c0,2.4-0.4,4.6-1.2,6.6c-0.8,2-2,3.7-3.6,5.1c-1.6,1.4-3.5,2.5-5.8,3.3c-2.3,0.8-4.9,1.2-7.8,1.2
			c-6,0-11.6-1.8-16.7-5.3l5.3-9.9c1.8,1.6,3.7,2.9,5.5,3.7c1.8,0.8,3.6,1.2,5.3,1.2c2,0,3.5-0.5,4.5-1.4s1.5-2,1.5-3.1
			c0-0.7-0.1-1.3-0.4-1.9c-0.3-0.5-0.7-1-1.3-1.4s-1.4-0.8-2.3-1.2s-2.1-0.8-3.4-1.3c-1.6-0.5-3.2-1.1-4.7-1.7
			c-1.5-0.6-2.9-1.4-4.1-2.4c-1.2-1-2.2-2.3-2.9-3.8c-0.7-1.5-1.1-3.5-1.1-5.8s0.4-4.5,1.2-6.4c0.8-1.9,1.9-3.5,3.3-4.9
			c1.4-1.4,3.1-2.4,5.2-3.2c2-0.8,4.3-1.1,6.8-1.1c2.3,0,4.8,0.3,7.4,1s5,1.6,7.4,2.9L1479,553.2z"/>
		<path class="st1" d="M1515,551.5v37h-12.3v-37h-10.1v-10.4h32.6v10.4H1515z"/>
		<path class="st1" d="M1547.1,567l-7.7-13.5h4.1l5.4,9.5l5.4-9.5h4.1l-7.8,13.5v10.2h-3.6L1547.1,567L1547.1,567z"/>
		<path class="st1" d="M1574.9,556.9h-9.5v5.7h9.2v3.4h-9.2v7.9h9.5v3.4h-13.1v-23.7h13.1V556.9z"/>
		<path class="st1" d="M1587.4,556.9v20.4h-3.6v-20.4h-5.5v-3.4h14.5v3.4H1587.4z"/>
	</g>
</g>
</svg>
