<?xml version="1.0" encoding="utf-8"?>
<!-- Generator: Adobe Illustrator 24.0.3, SVG Export Plug-In . SVG Version: 6.00 Build 0)  -->
<svg version="1.1" id="Layer_1" xmlns="http://www.w3.org/2000/svg" xmlns:xlink="http://www.w3.org/1999/xlink" x="0px" y="0px"
	 viewBox="0 0 648 648" style="enable-background:new 0 0 648 648;" xml:space="preserve">
<style type="text/css">
	.st0{fill:none;}
	.st1{fill:#FDBB20;}
	.st2{fill:#FFFFFF;}
	.st3{fill:#FFFFFF;stroke:#FDBB20;stroke-width:9.2621;stroke-miterlimit:10;}
	.st4{fill:#972026;}
	.st5{fill:#DA1F26;}
	.st6{fill:#A5CF4F;}
	.st7{opacity:0.51;fill:#8CAA45;}
	.st8{fill:url(#SVGID_1_);}
	.st9{opacity:0.5;}
</style>
<pattern  y="648" width="208" height="208" patternUnits="userSpaceOnUse" id="Sesame_x5F_1235_x5F_CMYK" viewBox="0 -208 208 208" style="overflow:visible;">
	<g>
		<rect x="0" y="-208" class="st0" width="208" height="208"/>
		<rect x="0" y="-208" class="st1" width="208" height="208"/>
		<path class="st2" d="M25.5-205.9c0.3-0.3,0.8-0.2,0.9,0.2c0.5,2.4,1.2,7.9-2.3,7C20.9-199.6,24-204,25.5-205.9z"/>
		<path class="st2" d="M30.9-155.2c0.4,0.2,0.3,0.8-0.1,1c-2.2,0.9-7.4,2.6-7.1-1C23.9-158.7,28.8-156.3,30.9-155.2z"/>
		<path class="st2" d="M7.5-170.4c0.4-0.2,0.8,0.2,0.7,0.6c-0.5,2.4-2.1,7.7-4.9,5.4C0.7-166.7,5.4-169.4,7.5-170.4z"/>
		<path class="st2" d="M6-188.5c0.1,0.4-0.4,0.8-0.8,0.6c-2.1-1.1-6.7-4.1-3.8-6.2C4.2-196.2,5.6-190.9,6-188.5z"/>
		<path class="st2" d="M14.8-102.1c0.4,0,0.7,0.5,0.4,0.9c-1.5,1.8-5.3,5.8-6.8,2.5C7.1-102,12.5-102.2,14.8-102.1z"/>
		<path class="st2" d="M4.1-132.1c0-0.4,0.5-0.7,0.8-0.5c2,1.4,6.3,4.8,3.1,6.5C5-124.4,4.3-129.7,4.1-132.1z"/>
		<path class="st2" d="M18.9-76.2c0.4,0,0.7,0.5,0.4,0.9c-1.5,1.8-5.3,5.8-6.8,2.5C11.2-76,16.6-76.2,18.9-76.2z"/>
		<path class="st2" d="M45-66.2c0.4-0.3,0.9,0,0.8,0.5c-0.2,2.4-0.9,7.9-4,6.1C38.9-61.3,43.1-64.8,45-66.2z"/>
		<path class="st2" d="M45.8-118.6c0.4-0.2,0.8,0.2,0.7,0.6c-0.5,2.4-2.1,7.7-4.9,5.4C39-114.8,43.7-117.5,45.8-118.6z"/>
		<path class="st2" d="M69.1-107.1c0.1,0.4-0.3,0.8-0.7,0.7c-2.2-0.8-7.2-3.1-4.7-5.6C66.2-114.5,68.3-109.4,69.1-107.1z"/>
		<path class="st2" d="M57.4-182.6c0.4-0.3,0.9,0,0.8,0.5c-0.2,2.4-0.9,7.9-4,6.1C51.2-177.7,55.4-181.2,57.4-182.6z"/>
		<path class="st2" d="M51-198.3c0.3,0.3,0,0.9-0.4,0.9c-2.4,0-7.8-0.4-6.3-3.7C45.8-204.2,49.5-200.2,51-198.3z"/>
		<path class="st2" d="M56.7-154.9c0.1,0.4-0.3,0.8-0.7,0.7c-2.2-0.8-7.2-3.1-4.7-5.6C53.8-162.3,55.9-157.2,56.7-154.9z"/>
		<path class="st2" d="M36.4-132.3c0.1,0.4-0.3,0.8-0.7,0.7c-2.2-0.8-7.2-3.1-4.7-5.6C33.5-139.7,35.6-134.6,36.4-132.3z"/>
		<path class="st2" d="M31.7-42.2c0.4-0.2,0.8,0.2,0.7,0.6c-0.5,2.4-2.1,7.7-4.9,5.4C24.9-38.4,29.6-41.1,31.7-42.2z"/>
		<path class="st2" d="M35.6-13c0.4,0.2,0.3,0.8-0.1,1c-2.3,0.7-7.5,2.1-7-1.5C28.9-17,33.6-14.3,35.6-13z"/>
		<path class="st2" d="M70.3-1.8C70.4-1.4,70-1,69.6-1.1c-2.2-0.8-7.2-3.1-4.7-5.6C67.4-9.1,69.5-4.1,70.3-1.8z"/>
		<path class="st2" d="M45.2-87.7c0.1,0.4-0.3,0.8-0.7,0.7c-2.2-0.8-7.2-3.1-4.7-5.6C42.3-95.1,44.4-90,45.2-87.7z"/>
		<path class="st2" d="M62.4-31.5c0.1,0.4-0.3,0.8-0.7,0.7c-2.2-0.8-7.2-3.1-4.7-5.6C59.5-38.9,61.6-33.8,62.4-31.5z"/>
		<path class="st2" d="M65.6-144.8c0.1-0.4,0.7-0.6,0.9-0.2c1.4,1.9,4.5,6.5,1,7.3C64.2-137.1,65.1-142.5,65.6-144.8z"/>
		<path class="st2" d="M11.5-48.6c0.4,0,0.7,0.5,0.4,0.9c-1.4,1.9-5,6.2-6.6,2.9C3.8-47.9,9.2-48.5,11.5-48.6z"/>
		<path class="st2" d="M14.5-17.5c-0.1,0.4-0.7,0.6-0.9,0.2c-1.4-1.9-4.4-6.6-1-7.3C16-25.3,15.1-19.8,14.5-17.5z"/>
		<path class="st2" d="M109.3-108.4c-0.4,0-0.7-0.5-0.4-0.9c1.5-1.8,5.3-5.8,6.8-2.5C117-108.6,111.6-108.4,109.3-108.4z"/>
		<path class="st2" d="M97.7-93.8c0.1,0.4-0.4,0.8-0.8,0.5c-2.1-1.2-6.7-4.2-3.7-6.2C96.1-101.4,97.3-96.1,97.7-93.8z"/>
		<path class="st2" d="M133.7-95.8c-0.4,0.1-0.8-0.4-0.6-0.8c1-2.2,3.7-7,5.9-4.1C141.2-97.9,136-96.3,133.7-95.8z"/>
		<path class="st2" d="M127.9-129.4c-0.4,0-0.7-0.5-0.4-0.9c1.5-1.8,5.3-5.8,6.8-2.5C135.7-129.6,130.3-129.4,127.9-129.4z"/>
		<path class="st2" d="M88.3-40.2c-0.3,0.3-0.8,0.2-0.9-0.2c-0.5-2.4-1.2-7.9,2.3-7C92.9-46.5,89.8-42,88.3-40.2z"/>
		<path class="st2" d="M70.9-80.2c-0.4,0.1-0.8-0.4-0.5-0.8c1.2-2,4.3-6.6,6.3-3.5C78.6-81.6,73.2-80.5,70.9-80.2z"/>
		<path class="st2" d="M112.3-75.6c-0.4,0.2-0.8-0.2-0.7-0.6c0.5-2.4,2.1-7.7,4.9-5.4C119.1-79.4,114.4-76.7,112.3-75.6z"/>
		<path class="st2" d="M88.1-69.1c-0.1-0.4,0.3-0.8,0.7-0.6c2.2,1,7.2,3.5,4.4,5.8C90.6-61.7,88.7-66.8,88.1-69.1z"/>
		<path class="st2" d="M72.5-54.5c0.2,0.4-0.1,0.9-0.5,0.8c-2.4-0.2-7.9-1.1-6-4.2C67.8-60.8,71.2-56.5,72.5-54.5z"/>
		<path class="st2" d="M145.3-67.7c0.2,0.4-0.1,0.9-0.5,0.8c-2.3-0.4-7.7-1.6-5.6-4.6C141.1-74.4,144.1-69.8,145.3-67.7z"/>
		<path class="st2" d="M156.4-122.3c0.2,0.4-0.1,0.9-0.5,0.8c-2.3-0.4-7.7-1.6-5.6-4.6C152.2-129,155.2-124.4,156.4-122.3z"/>
		<path class="st2" d="M200.5-156.7c0.2,0.4-0.1,0.9-0.5,0.8c-2.3-0.4-7.7-1.6-5.6-4.6C196.3-163.4,199.3-158.8,200.5-156.7z"/>
		<path class="st2" d="M109.4-57.1c-0.1-0.4,0.3-0.8,0.7-0.7c2.2,0.8,7.2,3.1,4.7,5.6C112.3-49.8,110.2-54.9,109.4-57.1z"/>
		<path class="st2" d="M189.5-133.5c-0.3-0.3-0.1-0.9,0.3-0.9c2.4-0.3,7.8-0.5,6.6,2.9C195.3-128.2,191.2-131.8,189.5-133.5z"/>
		<path class="st2" d="M198.6-110.8c-0.3-0.3-0.1-0.9,0.3-0.9c2.4-0.3,7.8-0.5,6.6,2.9C204.4-105.5,200.3-109.2,198.6-110.8z"/>
		<path class="st2" d="M166.3-105.6c-0.4-0.1-0.5-0.7-0.1-1c2-1.3,6.7-4.1,7.2-0.5C173.8-103.6,168.6-104.9,166.3-105.6z"/>
		<path class="st2" d="M189.5-78c-0.1,0.4-0.7,0.6-0.9,0.2c-1.4-1.9-4.5-6.5-1-7.3C190.9-85.8,190-80.4,189.5-78z"/>
		<path class="st2" d="M156.3-89.6c0.2-0.4,0.7-0.4,0.9,0c1.1,2.2,3.2,7.3-0.4,7.3C153.5-82.2,155.4-87.4,156.3-89.6z"/>
		<path class="st2" d="M100.9-7.3c-0.4,0.3-0.9,0-0.8-0.5c0.2-2.4,0.9-7.9,4-6.1C107-12.2,102.8-8.7,100.9-7.3z"/>
		<path class="st2" d="M101.3-141c-0.2,0.4-0.8,0.4-1,0c-1-2.2-2.9-7.4,0.8-7.2C104.6-148,102.4-143.1,101.3-141z"/>
		<path class="st2" d="M128.5-150.2c0.1,0.4-0.4,0.8-0.8,0.6c-2.1-1.1-6.9-3.8-4-6C126.5-157.7,128-152.5,128.5-150.2z"/>
		<path class="st2" d="M85.8-120c-0.4,0-0.7-0.5-0.4-0.9c1.5-1.8,5.3-5.8,6.8-2.5C93.5-120.2,88.1-119.9,85.8-120z"/>
		<path class="st2" d="M93.8-169.9c-0.4,0-0.7-0.5-0.4-0.9c1.5-1.8,5.3-5.8,6.8-2.5C101.6-170,96.2-169.8,93.8-169.9z"/>
		<path class="st2" d="M76.5-164.2c-0.1-0.4,0.4-0.7,0.8-0.5c2.1,1.2,6.6,4.3,3.6,6.3C78-156.6,76.9-161.9,76.5-164.2z"/>
		<path class="st2" d="M183.1-28.5c-0.4,0.2-0.8-0.2-0.7-0.6c0.5-2.4,2.1-7.7,4.9-5.4C189.9-32.3,185.2-29.6,183.1-28.5z"/>
		<path class="st2" d="M167.8-51.9c0.2,0.4-0.1,0.9-0.5,0.8c-2.3-0.4-7.7-1.6-5.6-4.6C163.6-58.6,166.6-54,167.8-51.9z"/>
		<path class="st2" d="M204.6-6.5c0.2,0.4-0.1,0.9-0.5,0.8c-2.3-0.4-7.7-1.6-5.6-4.6C200.4-13.1,203.4-8.5,204.6-6.5z"/>
		<path class="st2" d="M75.4-19.6c-0.4-0.3-0.3-0.8,0.1-0.9c2.3-0.7,7.6-1.9,7.1,1.7C82.1-15.5,77.4-18.3,75.4-19.6z"/>
		<path class="st2" d="M133.2-7.6c-0.1-0.4,0.3-0.8,0.7-0.7c2.2,0.8,7.2,3.1,4.7,5.6C136-0.2,133.9-5.3,133.2-7.6z"/>
		<path class="st2" d="M192.9-56.3c-0.3-0.3-0.1-0.9,0.3-0.9c2.4-0.3,7.8-0.5,6.6,2.9C198.7-51,194.6-54.6,192.9-56.3z"/>
		<path class="st2" d="M138.5-42.8c-0.3-0.3-0.1-0.9,0.3-0.9c2.4-0.3,7.8-0.5,6.6,2.9C144.3-37.5,140.2-41.1,138.5-42.8z"/>
		<path class="st2" d="M120.1-25.2c-0.1,0.4-0.7,0.6-0.9,0.2c-1.4-1.9-4.5-6.5-1-7.3C121.5-33,120.6-27.6,120.1-25.2z"/>
		<path class="st2" d="M79.4-190.3c-0.4,0.2-0.8-0.2-0.7-0.6c0.5-2.4,2.1-7.7,4.9-5.4C86.2-194.1,81.5-191.4,79.4-190.3z"/>
		<path class="st2" d="M163.8-14.7c-0.1,0.4-0.7,0.6-0.9,0.2c-1.4-1.9-4.5-6.5-1-7.3C165.2-22.5,164.3-17,163.8-14.7z"/>
		<path class="st2" d="M168.9-139.7c-0.4,0-0.7-0.5-0.4-0.9c1.5-1.8,5.3-5.8,6.8-2.5C176.7-139.9,171.3-139.7,168.9-139.7z"/>
		<path class="st2" d="M127-174.7c-0.4-0.3-0.3-0.8,0.1-1c2.3-0.7,7.6-2,7,1.6C133.6-170.5,129-173.3,127-174.7z"/>
		<path class="st2" d="M113.3-194.4c-0.4,0-0.7-0.5-0.4-0.9c1.4-1.9,5-6.2,6.6-2.9C121.1-195.1,115.7-194.5,113.3-194.4z"/>
		<path class="st2" d="M27.8-175.1c-0.4,0-0.7-0.5-0.4-0.9c1.4-1.9,5-6.2,6.6-2.9C35.5-175.8,30.2-175.2,27.8-175.1z"/>
		<path class="st2" d="M157.5-157.8c0,0.4-0.5,0.7-0.9,0.4c-1.8-1.6-5.6-5.6-2.3-7C157.6-165.7,157.6-160.2,157.5-157.8z"/>
		<path class="st2" d="M149.5-194.9c0.1-0.4,0.7-0.6,0.9-0.2c1.4,1.9,4.4,6.6,1,7.3C148.1-187.1,149-192.6,149.5-194.9z"/>
		<path class="st2" d="M174.9-175.6c-0.3,0.3-0.8,0.1-0.9-0.3c-0.2-2.4-0.3-8,3-6.7C180.2-181.4,176.6-177.3,174.9-175.6z"/>
		<path class="st2" d="M195.5-195.5c0,0.4-0.5,0.7-0.9,0.4c-1.8-1.6-5.6-5.6-2.3-7C195.5-203.4,195.6-197.9,195.5-195.5z"/>
	</g>
</pattern>
<g id="burger_x5F_DON_x27_T_USE">
</g>
<g id="TYPE">
</g>
<g id="METAL_RED">
</g>
<g id="METAL">
</g>
<g id="FRIES_1_">
</g>
<path class="st3" d="M513,637.7H135c-17.9,0-32.3-14.5-32.3-32.3v-553c0-17.9,14.5-32.3,32.3-32.3H513c17.9,0,32.3,14.5,32.3,32.3
	v553C545.4,623.2,530.9,637.7,513,637.7z"/>
<g>
	<g>
		<polygon class="st4" points="466.3,122.1 184.4,121.9 226.8,56.9 421.2,56.9 		"/>
		<polygon class="st5" points="180.4,122.1 296.8,458.9 324,449.5 358.4,437.7 324,338.2 249.4,122.1 226.8,56.9 		"/>
		<polygon class="st5" points="467.6,122.1 351.2,458.9 324,449.5 289.6,437.7 324,338.2 398.7,122.1 421.2,56.9 		"/>
		<g>
			<path class="st1" d="M333.3,70.8c-3.8,0-7.1,5-9.3,12.9c-2.2-7.9-5.6-12.9-9.3-12.9c-6.6,0-12,16.7-12,37.4h5.3
				c0-19.2,3-34.7,6.7-34.7c3.7,0,6.7,14.3,6.7,32h5.3c0-17.7,3-32,6.7-32c3.7,0,6.7,15.5,6.7,34.7h5.3
				C345.4,87.5,340,70.8,333.3,70.8z"/>
		</g>
	</g>
	<g>
		<path class="st6" d="M346.5,348L346.5,348c6,6,14.1,9.3,22.5,9.3h0c17.6,0,31.8,14.2,31.8,31.8v0c0,8.4,3.4,16.5,9.3,22.5l0,0
			c12.4,12.4,12.4,32.6,0,45l0,0c-6,6-9.3,14.1-9.3,22.5v0c0,17.6-14.2,31.8-31.8,31.8h0c-8.4,0-16.5,3.4-22.5,9.3h0
			c-12.4,12.4-32.6,12.4-45,0h0c-6-6-14.1-9.3-22.5-9.3h0c-17.6,0-31.8-14.2-31.8-31.8v0c0-8.4-3.4-16.5-9.3-22.5l0,0
			c-12.4-12.4-12.4-32.6,0-45l0,0c6-6,9.3-14.1,9.3-22.5v0c0-17.6,14.2-31.8,31.8-31.8h0c8.4,0,16.5-3.4,22.5-9.3l0,0
			C313.9,335.6,334.1,335.6,346.5,348z"/>
		<path class="st7" d="M346.5,348L346.5,348c6,6,14.1,9.3,22.5,9.3h0c17.6,0,31.8,14.2,31.8,31.8v0c0,8.4,3.4,16.5,9.3,22.5l0,0
			c12.4,12.4,12.4,32.6,0,45l0,0c-6,6-9.3,14.1-9.3,22.5v0c0,17.6-14.2,31.8-31.8,31.8h0c-8.4,0-16.5,3.4-22.5,9.3h0
			c-12.4,12.4-32.6,12.4-45,0h0c-6-6-14.1-9.3-22.5-9.3h0c-17.6,0-31.8-14.2-31.8-31.8v0c0-2.4-0.6-9.3-2.9-13.3
			c76.3,93.8,147.7-44.8,147.7-44.8C404.4,408.5,334.1,335.6,346.5,348z"/>
	</g>
	<g>
		<g>
			
				<pattern  id="SVGID_1_" xlink:href="#Sesame_x5F_1235_x5F_CMYK" patternTransform="matrix(0.6396 0.4963 -0.4963 0.6396 -7648.4199 680.727)">
			</pattern>
			<circle class="st8" cx="324" cy="434" r="76.7"/>
		</g>
		<g class="st9">
			<g>
				<path class="st1" d="M398.2,453.3c-10.7,41-52.5,65.6-93.5,55c-16.2-4.2-29.8-13.3-39.7-25.2c4.9,2.5,10.2,4.5,15.7,6
					c41,10.7,82.9-14,93.5-54.9c6.5-24.9,0-50-15.4-68.4C390.2,381.7,407.4,417.8,398.2,453.3z"/>
			</g>
		</g>
	</g>
</g>
<g>
	<path class="st1" d="M185.8,569.1v20.4h-3.6v-20.4h-5.5v-3.4h14.5v3.4H185.8z"/>
	<path class="st1" d="M198.7,575h10.2v-9.3h3.6v23.7h-3.6v-11.1h-10.2v11.1h-3.6v-23.7h3.6V575z"/>
	<path class="st1" d="M229.4,569.1h-9.5v5.7h9.2v3.4h-9.2v7.9h9.5v3.4h-13.1v-23.7h13.1V569.1z"/>
	<path class="st1" d="M248.5,553.2h18.4c4.4,0,7.7,1,9.9,3.1c2.3,2.1,3.4,5.1,3.4,9.1c0,2.4-0.4,4.4-1.3,5.9c-0.9,1.6-2.2,2.9-3.9,4
		c1.8,0.3,3.3,0.8,4.5,1.5c1.2,0.7,2.2,1.5,3,2.5c0.8,1,1.3,2.1,1.7,3.4c0.3,1.3,0.5,2.6,0.5,4c0,2.2-0.4,4.2-1.2,5.9
		c-0.8,1.7-1.9,3.2-3.3,4.3c-1.4,1.2-3.1,2.1-5.1,2.6s-4.3,0.9-6.8,0.9h-19.8V553.2z M260.9,571.8h2.3c3.9,0,5.8-1.5,5.8-4.6
		c0-3.1-1.9-4.6-5.8-4.6h-2.3V571.8z M260.9,591.1h2.7c3.1,0,5.3-0.4,6.7-1.2c1.3-0.8,2-2.1,2-3.8c0-1.8-0.7-3-2-3.8
		c-1.3-0.8-3.6-1.2-6.7-1.2h-2.7V591.1z"/>
	<path class="st1" d="M319.1,563.7h-14.7v7.9h13.8V582h-13.8v8.2h14.7v10.4h-27v-47.5h27V563.7z"/>
	<path class="st1" d="M355.3,565.4c-1.3-1.1-2.7-1.9-4-2.4c-1.3-0.5-2.6-0.8-3.9-0.8c-1.6,0-2.9,0.4-3.9,1.1s-1.5,1.7-1.5,3
		c0,0.8,0.3,1.5,0.8,2.1c0.5,0.5,1.2,1,2,1.4c0.8,0.4,1.7,0.7,2.8,1c1,0.3,2,0.6,3.1,0.9c4,1.3,7,3.1,8.8,5.4
		c1.9,2.2,2.8,5.2,2.8,8.8c0,2.4-0.4,4.6-1.2,6.6c-0.8,2-2,3.7-3.6,5.1c-1.6,1.4-3.5,2.5-5.8,3.3c-2.3,0.8-4.9,1.2-7.8,1.2
		c-6,0-11.6-1.8-16.7-5.3l5.3-9.9c1.8,1.6,3.7,2.9,5.5,3.7c1.8,0.8,3.6,1.2,5.3,1.2c2,0,3.5-0.5,4.5-1.4c1-0.9,1.5-2,1.5-3.1
		c0-0.7-0.1-1.3-0.4-1.9c-0.3-0.5-0.7-1-1.3-1.4c-0.6-0.4-1.4-0.8-2.3-1.2c-0.9-0.4-2.1-0.8-3.4-1.3c-1.6-0.5-3.2-1.1-4.7-1.7
		c-1.5-0.6-2.9-1.4-4.1-2.4c-1.2-1-2.2-2.3-2.9-3.8c-0.7-1.5-1.1-3.5-1.1-5.8c0-2.3,0.4-4.5,1.2-6.4c0.8-1.9,1.9-3.5,3.3-4.9
		c1.4-1.4,3.1-2.4,5.2-3.2c2-0.8,4.3-1.1,6.8-1.1c2.3,0,4.8,0.3,7.4,1s5,1.6,7.4,2.9L355.3,565.4z"/>
	<path class="st1" d="M391.3,563.7v37H379v-37h-10.1v-10.4h32.6v10.4H391.3z"/>
	<path class="st1" d="M423.4,579.2l-7.7-13.5h4.1l5.4,9.5l5.4-9.5h4.1l-7.8,13.5v10.2h-3.6V579.2z"/>
	<path class="st1" d="M451.2,569.1h-9.5v5.7h9.2v3.4h-9.2v7.9h9.5v3.4h-13.1v-23.7h13.1V569.1z"/>
	<path class="st1" d="M463.7,569.1v20.4h-3.6v-20.4h-5.5v-3.4h14.5v3.4H463.7z"/>
</g>
</svg>
