<?xml version="1.0" encoding="utf-8"?>
<!-- Generator: Adobe Illustrator 24.0.3, SVG Export Plug-In . SVG Version: 6.00 Build 0)  -->
<svg version="1.1" id="Layer_1" xmlns="http://www.w3.org/2000/svg" xmlns:xlink="http://www.w3.org/1999/xlink" x="0px" y="0px"
	 viewBox="0 0 400 800" style="enable-background:new 0 0 400 800;" xml:space="preserve">
<style type="text/css">
	.st0{fill:#FFCD00;}
	.st1{fill:#D12A2C;}
	.st2{fill:#1F4FAD;}
	.st3{fill:#29ABE2;}
	.st4{fill:#F49600;}
	.st5{fill:#367ACC;}
	.st6{fill:#B14FC5;}
	.st7{fill:#28A300;}
	.st8{fill:#00AA6D;}
	.st9{fill:#6A0080;}
	.st10{fill:#F78B6D;}
	.st11{fill:#04AFA6;}
	.st12{fill:#8DC6E8;}
	.st13{fill:#0082CA;}
	.st14{fill:#612166;}
	.st15{fill:#70D44B;}
	.st16{fill:#E86258;}
	.st17{fill:#4B775A;}
	.st18{fill:#75D3C1;}
	.st19{fill:#7B7BAD;}
	.st20{fill:#AF7C58;}
	.st21{fill:#3953A3;}
	.st22{fill:#71A850;}
	.st23{fill:#FF6C37;}
	.st24{fill:#B21B31;}
	.st25{fill:#00AE42;}
	.st26{fill:#6BC6C4;}
	.st27{fill:#FF9015;}
	.st28{fill:#0E7772;}
	.st29{fill:#099BDB;}
	.st30{fill:#A2C900;}
	.st31{fill:#994D30;}
	.st32{fill:#67BF95;}
	.st33{fill:#413AA0;}
	.st34{fill:#8E1630;}
	.st35{fill:#FF8300;}
	.st36{fill:#CB7E30;}
	.st37{fill:#E2D5BB;}
	.st38{fill:#2C3334;}
	.st39{fill:#512D1E;}
	.st40{fill:#7A8E93;}
	.st41{fill:#5F6838;}
</style>
<path class="st36" d="M362,80.2l-31,11.2H100v30c-5.3,0-9.7-15.6-10.4-35.9H43c-1.4,0-2.6-0.6-3.5-1.6c-0.9-1-1.5-2.3-1.5-3.8
	c0-3,2.2-5.4,5-5.4h46.6c0.7-20.2,5.1-35.9,10.4-35.9v30h231L362,80.2z"/>
<path class="st37" d="M362,209l-31,11.2H100v30c-5.3,0-9.7-15.6-10.4-35.9H43c-1.4,0-2.6-0.6-3.5-1.6c-0.9-1-1.5-2.3-1.5-3.8
	c0-3,2.2-5.4,5-5.4h46.6c0.7-20.2,5.1-35.9,10.4-35.9v30h231L362,209z"/>
<path class="st38" d="M362,337.9l-31,11.2H100v30c-5.3,0-9.7-15.6-10.4-35.9H43c-1.4,0-2.6-0.6-3.5-1.6c-0.9-1-1.5-2.3-1.5-3.8
	c0-3,2.2-5.4,5-5.4h46.6c0.7-20.2,5.1-35.9,10.4-35.9v30h231L362,337.9z"/>
<path class="st39" d="M362,466.8L331,478H100v30c-5.3,0-9.7-15.6-10.4-35.9H43c-1.4,0-2.6-0.6-3.5-1.6c-0.9-1-1.5-2.3-1.5-3.8
	c0-3,2.2-5.4,5-5.4h46.6c0.7-20.2,5.1-35.9,10.4-35.9v30h231L362,466.8z"/>
<path class="st40" d="M362,595.7l-31,11.2H100v30c-5.3,0-9.7-15.6-10.4-35.9H43c-1.4,0-2.6-0.6-3.5-1.6c-0.9-1-1.5-2.3-1.5-3.8
	c0-3,2.2-5.4,5-5.4h46.6c0.7-20.2,5.1-35.9,10.4-35.9v30h231L362,595.7z"/>
<path class="st41" d="M362,724.5l-31,11.2H100v30c-5.3,0-9.7-15.6-10.4-35.9H43c-1.4,0-2.6-0.6-3.5-1.6c-0.9-1-1.5-2.3-1.5-3.8
	c0-3,2.2-5.4,5-5.4h46.6c0.7-20.2,5.1-35.9,10.4-35.9v30h231L362,724.5z"/>
</svg>
