<?xml version="1.0" encoding="utf-8"?>
<!-- Generator: Adobe Illustrator 24.0.3, SVG Export Plug-In . SVG Version: 6.00 Build 0)  -->
<svg version="1.1" id="Layer_1" xmlns="http://www.w3.org/2000/svg" xmlns:xlink="http://www.w3.org/1999/xlink" x="0px" y="0px"
	 viewBox="0 0 700 700" style="enable-background:new 0 0 700 700;" xml:space="preserve">
<style type="text/css">
	.st0{fill:#FFFFFF;stroke:#000000;stroke-width:1.7209;stroke-miterlimit:10;}
	.st1{fill:none;stroke:#000000;stroke-width:2.3859;stroke-miterlimit:10;}
	.st2{fill:#FFFFFF;stroke:#000000;stroke-width:2.3859;stroke-miterlimit:10;}
	.st3{stroke:#FFFFFF;stroke-width:2.0645;stroke-miterlimit:10;}
	.st4{fill:#FFFFFF;}
	.st5{fill:none;}
	.st6{enable-background:new    ;}
	.st7{font-family:'Athelas-Bold';}
	.st8{font-size:90.923px;}
	.st9{letter-spacing:1;}
	.st10{letter-spacing:3;}
</style>
<g>
	<polygon points="257.3,390.4 252.5,385 277.6,358.9 286.1,368.4 	"/>
	<path d="M245.8,386.4l-0.3,8.6c0,1.1,0.8,1.9,1.8,2l8.5,0.3c0.8,0,1.5-0.4,1.8-1.2l7.2-17.3l-17.8,5.9
		C246.3,385,245.8,385.6,245.8,386.4z"/>
	<g>
		<g>
			<g>
				<path class="st0" d="M473.9,248.6L473.9,248.6c0,0.1-0.1,0.4-0.2,0.9c-6.2,2.6-11.4,9.1-13.3,17.5c-1.1,5.1-0.9,10,0.4,14.2
					c-6.1,0.6-12.6,4.3-17.3,10.5c-3.6,4.9-5.5,10.4-5.5,15.5c-0.2,0.1-0.3,0.2-0.5,0.4c-4.8-2.2-11-2.8-17.3-1.2
					c-7.8,2-13.8,6.8-16.5,12.5c-0.4,0-0.8,0-1.2,0.1c-2.5-5.6-8.1-10.5-15.5-12.9c-8.2-2.6-16.4-1.5-21.8,2.5
					c-1.1-7.1-7.3-14-16.3-17.1l0.3-1c0,0,0,0,0.1,0c0.1-0.1,0.3-0.2,0.7-0.3c0.2-0.1,0.6-0.3,0.9-0.5c0.1-0.1,0.3-0.1,0.4-0.2
					c7.3-3.6,31.8-15.8,49.9-23.9C421.2,261,454.1,256.2,473.9,248.6z"/>
				<path d="M476.8,246.5c0.8-0.6,0-1.9-0.9-1.4c-37.1,17-79.1,9.3-82.1,15.6c-4.8,10.3-44.6,29.8-44.6,29.8
					c13.8-0.2,38.9-11,51-19.5c4.6-3.3,10-5.4,15.6-6.1C431.5,263,461.2,258.7,476.8,246.5z"/>
			</g>
			<path class="st1" d="M460.8,281.2c0,0-41.5-11.3-68.9-11.9c0,0,48.7,24,45.6,38.2"/>
			<path class="st1" d="M402.5,318.9c0,0,1.9-42.1-13.8-49.6"/>
		</g>
		<g>
			<g>
				<path class="st0" d="M242.4,248.6L242.4,248.6c0,0.1,0.1,0.4,0.2,0.9c6.2,2.6,11.4,9.1,13.3,17.5c1.1,5.1,0.9,10-0.4,14.2
					c6.1,0.6,12.6,4.3,17.3,10.5c3.6,4.9,5.5,10.4,5.5,15.5c0.2,0.1,0.3,0.2,0.5,0.4c4.8-2.2,11-2.8,17.3-1.2
					c7.8,2,13.8,6.8,16.5,12.5c0.4,0,0.8,0,1.2,0.1c2.5-5.6,8.1-10.5,15.5-12.9c8.2-2.6,16.4-1.5,21.8,2.5c1.1-7.1,7.3-14,16.3-17.1
					l-0.3-1c0,0,0,0-0.1,0c-0.1-0.1-0.3-0.2-0.7-0.3c-0.2-0.1-0.6-0.3-0.9-0.5c-0.1-0.1-0.3-0.1-0.4-0.2
					c-7.3-3.6-31.8-15.8-49.9-23.9C295,261,262.1,256.2,242.4,248.6z"/>
				<path d="M239.4,246.5c-0.8-0.6,0-1.9,0.9-1.4c37.1,17,79.1,9.3,82.1,15.6c4.8,10.3,44.6,29.8,44.6,29.8
					c-13.8-0.2-38.9-11-51-19.5c-4.6-3.3-10-5.4-15.6-6.1C284.7,263,255,258.7,239.4,246.5z"/>
			</g>
			<path class="st1" d="M255.4,281.2c0,0,41.5-11.3,68.9-11.9c0,0-48.7,24-45.6,38.2"/>
			<path class="st1" d="M313.8,318.9c0,0-1.9-42.1,13.8-49.6"/>
		</g>
		<path d="M268.6,349.3c-2-2.3-2.2-5.6-0.6-8c0.5-0.7,1.5-0.8,2.1-0.1l14.5,20.7l18.2,15.9c0.6,0.6,0.4,1.7-0.3,2.1
			c-2.6,1.3-5.8,0.8-7.9-1.5L268.6,349.3z"/>
		<g>
			<polygon class="st2" points="283.8,361.8 287.6,365.7 434.7,230.1 446.9,198.2 415.2,210.5 279.9,358 			"/>
			<line class="st1" x1="283.7" y1="362" x2="446.9" y2="198.2"/>
		</g>
		<g>
			<polygon class="st2" points="427.8,361.6 431.7,357.8 296,210.7 264.2,198.5 276.5,230.2 424,365.5 			"/>
			<line class="st1" x1="427.9" y1="361.7" x2="264.2" y2="198.5"/>
		</g>
		<g>
			<polygon points="453.9,390.4 458.7,385 433.6,358.9 425.1,368.4 			"/>
		</g>
		<g>
			<polygon class="st2" points="356.8,360.8 362.2,360.8 370.6,160.9 356.8,129.8 343,160.9 351.3,360.8 			"/>
			<line class="st1" x1="356.8" y1="361" x2="356.8" y2="129.8"/>
		</g>
		<g>
			<path d="M337.2,368.4c-3.6,0-6.5-2.9-6.5-6.5v-13c0-1.9,1.9-2.4,2.4-0.7l2.1,7.1c0.8,2.8,3.4,4.7,6.3,4.7H372
				c2.9,0,5.4-1.9,6.3-4.7l2.1-7.1c0.5-1.8,2.4-1.2,2.4,0.7v13c0,3.6-2.9,6.5-6.5,6.5H337.2z"/>
			<polygon points="360.4,404.2 353.1,404.2 350.4,368.1 363.1,368.1 			"/>
			<circle cx="356.8" cy="411.7" r="9.2"/>
		</g>
		<path d="M349,316.3c-10.2,0-25.3-9.5-25.3-23.5c0-18.2,13-27.8,23.3-30.9c0,0,1.4,16.3,2,24.3c7.2,0,16.7-4.6,17.8-12.8
			c2.7-20.4-4.3-45.7-27.1-50l6.1-30c13.8,3.8,27.7,17.5,37.5,36c9.2,17.5,10.1,41.6,7,53.6C385.5,301.6,372.9,316.3,349,316.3z"/>
		<path class="st3" d="M339.5,210.1c-0.6-4.8-7.1-2.4-16.1-10.5c-10.2-9.2-19.5-12.7-11.7-20.6c3.5-3.6,4,1.2,6.9,2.7
			c6,3,4.6,3.7,11.1,4.7c0,0,4.3-17.1,19.5,1.2c0,0,16-2.1,25.3,12s16.8,8.4,16.8,8.4s-6.9,9-23.5-4.5c-5.6-4.6-8.7-2.5-8.7-2.5
			s3.6,9-1.4,15.6c-2.7,3.6-6.7,7-18,6.7c-32.1-1-36.9-5.3-36.9-10.9c0,0,13.1,4,17.4,2.3C324.4,213,332.8,206.9,339.5,210.1z"/>
		<path class="st4" d="M342.9,193.4c0,0-0.8-5.5-3.9-7.3s-4.4,2.3-6.5,1.8c3.4,0.1,5.2,5.1,9.6,3.8"/>
		<path d="M445.1,346l-30.4,35.8c-1.7,2-4.1,2.7-5.4,1.6l0,0c-1.3-1.1-1-3.6,0.7-5.6l12-11.1c3.6-3.4,6.9-7.2,9.6-11.4l8.7-13.3
			c1.7-2,4.1-2.7,5.4-1.6l0,0C447,341.5,446.8,344,445.1,346z"/>
	</g>
	<path d="M450,383.8c-0.5-1.4,1-2.9,2.4-2.4l7.2,2.4l8.5,2.9c1.2,0.4,1.4,1.9,0.5,2.9l-5.1,5.2l-5.1,5.2c-0.9,1-2.5,0.7-2.9-0.4
		l-3-8.4L450,383.8z"/>
</g>
<rect x="110.9" y="458.5" class="st5" width="494.5" height="99"/>
<text transform="matrix(1 0 0 1 108.2639 522.1506)" class="st6"><tspan x="0" y="0" class="st7 st8">C</tspan><tspan x="60.5" y="0" class="st7 st8">ONQ</tspan><tspan x="262.7" y="0" class="st7 st8 st9">U</tspan><tspan x="333" y="0" class="st7 st8 st10">E</tspan><tspan x="391.9" y="0" class="st7 st8">S</tspan><tspan x="441.4" y="0" class="st7 st8">T</tspan></text>
</svg>
