<?xml version="1.0" encoding="utf-8"?>
<!-- Generator: Adobe Illustrator 24.0.3, SVG Export Plug-In . SVG Version: 6.00 Build 0)  -->
<svg version="1.1" id="Layer_1" xmlns="http://www.w3.org/2000/svg" xmlns:xlink="http://www.w3.org/1999/xlink" x="0px" y="0px"
	 viewBox="0 0 700 700" style="enable-background:new 0 0 700 700;" xml:space="preserve">
<style type="text/css">
	.st0{fill:#FFFFFF;}
	.st1{stroke:#FFFFFF;stroke-width:2.2753;stroke-miterlimit:10;}
	.st2{fill:#FFFFFF;stroke:#000000;stroke-width:2.2753;stroke-miterlimit:10;}
	.st3{fill:#FFFFFF;stroke:#000000;stroke-width:2.7303;stroke-miterlimit:10;}
	.st4{fill:#FFFFFF;stroke:#798E93;stroke-width:2.9103;stroke-miterlimit:10;}
	.st5{fill:#502C1E;}
	.st6{fill:#C97D31;}
	.st7{fill:#5F6638;stroke:#FFFFFF;stroke-width:2.1828;stroke-miterlimit:10;}
	.st8{fill:#FFFFFF;stroke:#000000;stroke-width:2.0457;stroke-miterlimit:10;}
	.st9{fill:#FFFFFF;stroke:#4BB749;stroke-width:2.0457;stroke-miterlimit:10;}
	.st10{fill:none;stroke:#FFFFFF;stroke-width:0.9205;stroke-linecap:round;stroke-miterlimit:10;}
	.st11{fill:#C97D31;stroke:#FFFFFF;stroke-width:1.4552;stroke-miterlimit:10;}
	.st12{fill:none;stroke:#FFFFFF;stroke-width:0.9615;stroke-linecap:round;stroke-miterlimit:10;}
	.st13{fill:#FFFFFF;stroke:#000000;stroke-width:1.7209;stroke-miterlimit:10;}
	.st14{fill:none;stroke:#000000;stroke-width:2.3859;stroke-miterlimit:10;}
	.st15{fill:#FFFFFF;stroke:#000000;stroke-width:2.3859;stroke-miterlimit:10;}
	.st16{stroke:#FFFFFF;stroke-width:2.0645;stroke-miterlimit:10;}
	.st17{fill:#FFFFFF;stroke:#000000;stroke-width:2.0645;stroke-miterlimit:10;}
	.st18{fill:#FFFFFF;stroke:#000000;stroke-width:0.8605;stroke-miterlimit:10;}
</style>
<g>
	<g>
		<path class="st0" d="M518.6,522.7c3.6-1.7,7.1-1.2,10.6-0.5c1.3,0.3,2.6,0.6,3.9,0.9c6.4,1.5,12.8,1.5,19-0.9
			c12.9-5.1,12.8-20.1,6.2-26.8c-3.9-3.9-8.4-6.6-13.4-8.8c-4.9-2.2-10-4-14.2-7.5c-4.9-4.1-3.7-11.3,2.3-13.4c2-0.7,4.5-1,6.6-0.7
			c8.5,1.4,14.1,6.5,17.3,14.3c0.6,1.3,1.1,1.8,2.2,1.4c0-5.6,0-11,0-16.3c-3-0.4-5.8-0.5-8.6-1.1c-6.3-1.4-12.7-2.4-19.2-1.5
			c-12.5,1.7-16,10.1-13.9,20.1c1,4.5,4.5,7.4,8.3,9.7c3.5,2.1,7.2,3.7,10.8,5.4c4.5,2.1,9.1,4.1,13,7.5c3.9,3.4,4.3,12.4-3,14.5
			c-3.5,1-7.1,1.5-10.6,0.6c-9-2.1-14.9-8.1-18.6-16.4c-0.6-1.3-1.2-1.8-2.4-1.3C516.3,508.8,517.4,515.6,518.6,522.7z M571.2,463
			c-0.3,6.2-0.6,12.4-0.9,18.6c0.7,0,1.4,0,2.3,0c1-4.5,2.2-9,6.2-11.9c4-3,8.7-2.8,13.4-2.9c0,0.6,0,1,0,1.4c0,14.4,0,28.8,0,43.1
			c0,1.3-0.2,2.5-0.3,3.8c-0.3,2.5-1.7,4.1-4.1,4.7c-1.7,0.4-3.5,0.7-5.4,1c0,0.5,0,1.1,0,1.6c10.7,0,21.2,0,31.9,0c0-0.5,0-1,0-1.7
			c-0.6-0.1-1.2-0.1-1.8-0.2c-6.4-0.7-7.9-2.2-8-8.6c-0.1-14.7,0-29.5,0-44.2c0-0.3,0.1-0.6,0.2-1.1c2.5,0.2,5,0.3,7.4,0.7
			c3.8,0.6,7,2.4,8.9,5.9c1.2,2.2,2,4.6,2.7,7.1c0.4,1.4,1,1.7,2.3,1.3c-0.3-6.3-0.6-12.5-0.9-18.5C607,463,589.1,463,571.2,463z
			 M358.9,490.6c-0.7-12.2-6.5-21-17.8-25.9c-8-3.4-16.4-3.9-24.9-2.6c-6.8,1.1-13.1,3.6-18.1,8.4c-7.8,7.5-9.8,16.9-8.5,27.3
			c1.2,9.9,6.3,17.3,15.2,22c6,3.2,12.5,4.3,19.2,4.4c1.7-0.1,3.4-0.1,5.1-0.3c7.9-0.8,15.1-3.2,21-8.8
			C357.1,508.4,359.4,500,358.9,490.6z M340.6,512.4c-7.3,11.1-25.4,11.2-32.9,0c-4.4-6.6-5.5-13.9-5.3-21.6
			c0.2-5.1,1.1-10.1,3.5-14.7c3.8-7.6,10-11.5,18.5-11.4c8.6,0.1,14.6,4.3,18.3,12c2.4,5.1,3.1,10.5,3.2,16.1
			C345.7,499.7,344.5,506.4,340.6,512.4z M205.5,487.4c-1.4-10.6-7.2-18.1-16.9-22.5c-5.4-2.4-11-3.4-16.9-3.5
			c-6.9-0.1-13.6,1-19.8,4.2c-12.1,6.2-16.8,17.9-15.6,30.7c1.2,12.4,7.8,20.8,19.4,25.2c4.9,1.9,10,2.6,15.3,2.6
			c1.6-0.1,3.3-0.1,4.9-0.2c8-0.8,15.4-3.2,21.3-8.9C205,507.3,206.9,497.8,205.5,487.4z M189.4,509.2c-3.8,7.7-10,11.7-18.7,11.5
			c-8.4-0.1-14.5-4.1-17.9-11.6c-4.9-11-4.9-22.2,0.2-33.1c3.6-7.6,10-11.3,18.4-11.2c8.5,0.1,14.5,4.3,18.2,11.9
			c2.5,5.1,3.2,10.6,3.3,16.2C192.7,498.5,191.9,504,189.4,509.2z M258.5,463v1.9c0.8,0.2,1.5,0.3,2.2,0.5c5.5,1.2,7.6,3.2,8.3,8.8
			c0.7,5.7,1,11.4,1.2,17.2c0.2,5,0,10,0,15.2c-0.3-0.2-0.4-0.3-0.5-0.4c-11.7-14.2-23.3-28.4-35-42.5c-0.4-0.5-1.4-0.8-2.1-0.8
			c-3.2,0-6.5,0.3-9.8,0.3c-3.6,0.1-7.1,0-10.8,0c-0.5,1.2,0.2,1.9,1.7,2.2c3.4,0.8,6.6,1.9,9.4,4.2c1.1,0.8,1.6,1.8,1.5,3.2
			c-0.2,6.6-0.2,13.2-0.3,19.8c-0.1,6.5-0.2,12.9-0.4,19.4c-0.2,4-2.1,6.2-6,7.2c-2,0.5-4,0.9-6.1,1.3v1.9h27.9v-2
			c-1.2-0.2-2.3-0.4-3.3-0.7c-6.2-1.4-7.9-3.4-8.2-9.8c0-0.4,0-0.7,0-1.1c0-10.9-0.1-21.9-0.1-32.8c0-0.4,0.1-0.8,0.2-1.5
			c0.4,0.3,0.6,0.5,0.7,0.6c13.5,15.1,26.8,30.5,38.3,47.3c0.3,0.5,0.8,1,1.3,1c1.5,0.1,3.1,0,4.8,0v-2.3c0-13.5,0-26.9,0-40.4
			c0-2.9,0.2-5.8,0.6-8.7c0.5-4.1,2.4-5.9,6.4-6.8c1-0.2,2.1-0.3,3.2-0.5V463H258.5z M505,502.1c-2.7,3.2-5,6.6-7.9,9.3
			c-8.5,7.8-18.8,8.9-29.7,7c-1.5-0.3-1.8-1-1.8-2.3c0.1-7.7,0-15.4,0-23c0-0.6,0.1-1.3,0.1-2c1.8,0,3.5-0.1,5.1,0
			c7.9,0.5,11,3.1,13.6,10.7c0.2,0.6,1,1,1.5,1.4c0.2-0.2,0.3-0.3,0.5-0.5v-25.6c-1.2-0.5-1.7,0.1-2.1,1.2c-0.6,1.6-1.2,3.2-2.2,4.5
			c-4.1,5.7-10.1,5.8-16.4,5.4v-21.5c4.9,0,9.7-0.3,14.5,0.1c7.8,0.5,12.9,4.7,15.7,12c0.2,0.5,0.4,1,0.6,1.5
			c0.7-0.1,1.2-0.2,1.4-0.3v-16.6h-53.9c0,0-0.1,0.5-0.1,0.9c0,0.3,0.1,0.7,0.1,1.2c0.7,0.1,1.5,0.1,2.2,0.2
			c4.5,0.5,6.4,2.4,6.9,6.9c0.1,1.3,0.2,2.5,0.2,3.8c0,11.2,0,22.4,0,33.5c0,1.6-0.1,3.1-0.3,4.7c-0.3,2.7-1.8,4.6-4.5,5.2
			c-1.5,0.3-2.9,0.6-4.5,0.8v2c0.4,0,0.7,0.1,1,0.1c6.7-0.1,13.3-0.3,19.9-0.3c10.4,0,20.9,0.2,31.3,0.4c1.4,0,2.3-0.1,2.8-1.8
			c0.6-2.3,1.5-4.6,2.4-6.8c1.5-3.7,3.2-7.3,4.8-11C505.8,502.6,505.3,502.3,505,502.1z M123.3,503.7c-0.9,1.2-1.8,2.4-2.7,3.5
			c-5.9,7.4-13.4,11.1-22.9,10.2c-7.7-0.7-13.9-4-17.4-11c-5.3-10.6-5-21.5,0.6-31.8c5-9.4,16.2-11.8,25.1-5.9
			c4.8,3.1,7.9,7.5,9.9,12.8c0.6,1.7,1.1,3.6,1.6,5.4h1.8c-0.3-7.4-0.5-14.7-0.8-22c-6-1-11.9-2.3-18-3c-9.5-1.1-18.4,0.8-26.1,6.9
			c-11.3,8.9-13.3,24.7-8.8,36.5c4.6,12,14,17.8,26.6,18.9c13.8,1.2,26.8-5.9,33.3-18.4C124.9,505,124.1,504.3,123.3,503.7z
			 M412.4,463v1.8c0.4,0.1,0.8,0.3,1.1,0.3c6.3,0.1,8.7,3.4,8.9,8.9c0.3,9.9,0.5,19.8,0.3,29.7c-0.2,6.6-3.6,11.5-9.9,13.8
			c-6.2,2.2-12.5,2.2-18.5-0.9c-4.1-2.1-6.6-5.7-6.6-10.3c-0.2-11.2-0.1-22.4,0-33.5c0.1-5.4,1.8-7,7.2-7.6c0.2,0,0.5-0.1,0.7,0
			c1.7,0.2,2.2-0.6,1.8-2.1h-31.7c-0.3,1.3-0.1,2,1.5,2.1c6.3,0.5,8.5,2.8,8.6,9.2c0.1,9.7,0.1,19.5,0,29.2
			c-0.1,7.9,3.6,13.5,10.5,17c8.2,4.2,17,4.6,25.7,2.2c7-2,11.7-6.7,13.6-13.8c0.8-2.7,1.1-5.6,1.2-8.4c0.2-8.6,0-17.3,0.1-25.9
			c0-1.5,0-2.9,0.2-4.3c0.4-2.9,1.7-4.3,4.6-4.9c1.2-0.2,2.4-0.4,3.7-0.6V463H412.4z M361.6,526.5c-0.2,0.1-0.3,0.1-0.3,0.2
			c-0.3,0.3-0.6,0.6-0.9,0.9c-3.6,4.1-8,6.6-13.4,6.6c-3.3,0-6.8-0.3-10-1.2c-6.4-1.8-12.7-4.2-19-6.4c-3.9-1.4-8-2-12.1-1.6
			c-4.4,0.3-8.6,1.1-12.3,3.8c0.3,0.6,0.6,1.2,0.9,1.9c6.8-3.4,13.3-2.6,19.7,0.9c2.5,1.4,4.8,3,7.3,4.3c4.2,2.2,8.3,4.8,12.8,6.3
			c12.3,4.2,23.3-2.7,28.9-14.3C362.7,527.4,362.2,527,361.6,526.5z"/>
		<path d="M358.9,490.6c-0.7-12.2-6.5-21-17.8-25.9c-8-3.4-16.4-3.9-24.9-2.6c-6.8,1.1-13.1,3.6-18.1,8.4
			c-7.8,7.5-9.8,16.9-8.5,27.3c1.2,9.9,6.3,17.3,15.2,22c6,3.2,12.5,4.3,19.2,4.4c1.7-0.1,3.4-0.1,5.1-0.3c7.9-0.8,15.1-3.2,21-8.8
			C357.1,508.4,359.4,500,358.9,490.6z M340.6,512.4c-7.3,11.1-25.4,11.2-32.9,0c-4.4-6.6-5.5-13.9-5.3-21.6
			c0.2-5.1,1.1-10.1,3.5-14.7c3.8-7.6,10-11.5,18.5-11.4c8.6,0.1,14.6,4.3,18.3,12c2.4,5.1,3.1,10.5,3.2,16.1
			C345.7,499.7,344.5,506.4,340.6,512.4z"/>
		<path d="M205.5,487.4c-1.4-10.6-7.2-18.1-16.9-22.5c-5.4-2.4-11-3.4-16.9-3.5c-6.9-0.1-13.6,1-19.8,4.2
			c-12.1,6.2-16.8,17.9-15.6,30.7c1.2,12.4,7.8,20.8,19.4,25.2c4.9,1.9,10,2.6,15.3,2.6c1.6-0.1,3.3-0.1,4.9-0.2
			c8-0.8,15.4-3.2,21.3-8.9C205,507.3,206.9,497.8,205.5,487.4z M189.4,509.2c-3.8,7.7-10,11.7-18.7,11.5
			c-8.4-0.1-14.5-4.1-17.9-11.6c-4.9-11-4.9-22.2,0.2-33.1c3.6-7.6,10-11.3,18.4-11.2c8.5,0.1,14.5,4.3,18.2,11.9
			c2.5,5.1,3.2,10.6,3.3,16.2C192.7,498.5,191.9,504,189.4,509.2z"/>
		<path d="M270.2,506.5c0-5.2,0.2-10.2,0-15.2c-0.2-5.7-0.5-11.5-1.2-17.2c-0.6-5.6-2.8-7.6-8.3-8.8c-0.7-0.2-1.4-0.3-2.2-0.5
			c0-0.7,0-1.3,0-1.9c8.3,0,16.7,0,25.2,0c0,0.5,0,1.2,0,1.9c-1.1,0.2-2.2,0.3-3.2,0.5c-4,0.8-5.9,2.7-6.4,6.7
			c-0.4,2.9-0.5,5.8-0.6,8.7c-0.1,13.5,0,27,0,40.4c0,0.7,0,1.4,0,2.3c-1.7,0-3.3,0.1-4.8,0c-0.5,0-1-0.6-1.3-1
			c-11.4-16.8-24.7-32.2-38.3-47.3c-0.2-0.2-0.3-0.3-0.7-0.7c-0.1,0.6-0.2,1-0.2,1.5c0,10.9,0.1,21.9,0.1,32.8c0,0.4,0,0.7,0,1.1
			c0.3,6.4,1.9,8.4,8.2,9.8c1.1,0.2,2.1,0.4,3.3,0.7c0,0.7,0,1.3,0,2c-9.3,0-18.5,0-27.9,0c0-0.7,0-1.3,0-2c2.1-0.4,4.1-0.8,6.1-1.3
			c3.9-1,5.8-3.1,6-7.2c0.3-6.5,0.3-12.9,0.4-19.4c0.1-6.6,0.1-13.2,0.3-19.7c0-1.4-0.5-2.4-1.6-3.2c-2.8-2.2-6-3.4-9.4-4.2
			c-1.6-0.4-2.2-1-1.7-2.2c3.7,0,7.2,0.1,10.8,0c3.3-0.1,6.5-0.3,9.8-0.3c0.7,0,1.7,0.3,2.1,0.8c11.7,14.1,23.4,28.3,35,42.5
			C269.8,506.3,269.9,506.3,270.2,506.5z"/>
		<path d="M486,503.1c-0.5-0.5-1.3-0.8-1.5-1.4c-2.6-7.6-5.7-10.2-13.6-10.7c-1.6-0.1-3.2,0-5.1,0c-0.1,0.7-0.1,1.4-0.1,2
			c0,7.7,0,15.4,0,23c0,1.4,0.3,2.1,1.8,2.3c10.9,1.9,21.2,0.9,29.7-7c2.9-2.7,5.2-6.1,7.9-9.3c0.3,0.2,0.8,0.6,1.4,1
			c-1.6,3.7-3.3,7.3-4.8,11c-0.9,2.2-1.8,4.5-2.4,6.8c-0.4,1.7-1.4,1.8-2.8,1.7c-10.4-0.2-20.9-0.3-31.3-0.4
			c-6.6,0-13.3,0.2-19.9,0.3c-0.3,0-0.6-0.1-1-0.1c0-0.7,0-1.3,0-2c1.5-0.3,3-0.5,4.5-0.8c2.7-0.6,4.2-2.5,4.5-5.2
			c0.2-1.6,0.3-3.1,0.3-4.7c0-11.2,0-22.4,0-33.5c0-1.3-0.1-2.5-0.2-3.8c-0.5-4.5-2.4-6.4-6.9-6.9c-0.7-0.1-1.4-0.1-2.2-0.2
			c-0.1-0.5-0.1-0.9-0.1-1.2c0-0.4,0.1-0.8,0.1-0.9c9,0,18,0,26.9,0c8.9,0,17.8,0,27.1,0c0,5.1,0,10.7,0,16.6
			c-0.2,0-0.8,0.1-1.4,0.3c-0.2-0.6-0.5-1-0.6-1.5c-2.7-7.3-7.9-11.5-15.7-12c-4.8-0.3-9.6-0.1-14.5-0.1c0,7.1,0,14.2,0,21.5
			c6.3,0.4,12.3,0.3,16.4-5.4c1-1.3,1.6-3,2.2-4.5c0.4-1.1,0.8-1.7,2.1-1.2c0,8.5,0,17.1,0,25.6C486.3,502.7,486.2,502.9,486,503.1z
			"/>
		<path d="M518.6,522.7c-1.2-7.1-2.4-13.9-3.5-20.7c1.2-0.5,1.8,0,2.4,1.3c3.6,8.3,9.5,14.2,18.6,16.4c3.5,0.8,7.1,0.4,10.6-0.6
			c7.2-2.2,6.9-11.2,3-14.5c-3.9-3.3-8.4-5.3-13-7.5c-3.7-1.7-7.4-3.4-10.8-5.4c-3.8-2.3-7.3-5.1-8.3-9.7
			c-2.2-10,1.3-18.3,13.9-20.1c6.5-0.9,12.9,0.1,19.2,1.5c2.7,0.6,5.6,0.7,8.6,1.1c0,5.3,0,10.7,0,16.3c-1.1,0.4-1.6-0.1-2.2-1.4
			c-3.2-7.8-8.8-12.9-17.3-14.3c-2.1-0.3-4.5,0-6.6,0.7c-6,2.1-7.1,9.3-2.3,13.4c4.2,3.5,9.3,5.3,14.2,7.5c4.9,2.2,9.5,4.9,13.4,8.8
			c6.6,6.7,6.8,21.7-6.2,26.8c-6.3,2.5-12.6,2.4-19,0.9c-1.3-0.3-2.6-0.6-3.9-0.9C525.8,521.4,522.2,521,518.6,522.7z"/>
		<path d="M119.3,486.8c-0.6,0-1.2,0-1.8,0c-0.5-1.8-1-3.6-1.6-5.4c-2-5.3-5.2-9.7-9.9-12.8c-9-5.9-20.1-3.5-25.1,5.9
			c-5.5,10.3-5.9,21.2-0.6,31.8c3.5,7,9.8,10.3,17.4,11c9.5,0.9,17.1-2.8,22.9-10.2c0.9-1.1,1.8-2.3,2.7-3.5c0.8,0.7,1.6,1.4,2.3,2
			c-6.5,12.5-19.5,19.5-33.3,18.4c-12.6-1.1-21.9-6.9-26.6-18.9c-4.5-11.8-2.6-27.5,8.8-36.5c7.7-6.1,16.6-8,26.1-6.9
			c6,0.7,12,2,18,3C118.8,472.1,119.1,479.3,119.3,486.8z"/>
		<path d="M435.1,463c0,0.6,0,1.2,0,1.9c-1.3,0.2-2.5,0.3-3.7,0.6c-2.8,0.6-4.2,2-4.6,4.9c-0.2,1.4-0.2,2.9-0.2,4.3
			c0,8.6,0.1,17.3-0.1,25.9c0,2.8-0.4,5.7-1.2,8.4c-2,7-6.6,11.8-13.6,13.7c-8.8,2.4-17.5,2-25.7-2.2c-6.9-3.5-10.6-9.1-10.5-17
			c0.1-9.7,0.1-19.5,0-29.2c0-6.4-2.2-8.8-8.6-9.2c-1.6-0.1-1.8-0.8-1.5-2.1c10.6,0,21.1,0,31.7,0c0.4,1.5-0.1,2.3-1.8,2.1
			c-0.2,0-0.5,0-0.7,0c-5.4,0.6-7.1,2.2-7.2,7.6c-0.1,11.2-0.2,22.4,0,33.5c0.1,4.6,2.5,8.2,6.6,10.3c6,3.1,12.3,3.2,18.4,0.9
			c6.3-2.3,9.8-7.2,9.9-13.8c0.2-9.9,0.1-19.8-0.3-29.7c-0.2-5.5-2.6-8.9-8.9-8.9c-0.3,0-0.7-0.2-1.1-0.3c0-0.6,0-1.2,0-1.8
			C419.9,463,427.4,463,435.1,463z"/>
		<path d="M571.2,463c18,0,35.8,0,53.8,0c0.3,6,0.6,12.3,0.9,18.5c-1.3,0.5-1.9,0.2-2.3-1.3c-0.7-2.4-1.5-4.9-2.7-7.1
			c-1.9-3.5-5.1-5.3-8.9-5.9c-2.4-0.4-4.9-0.4-7.4-0.7c-0.1,0.5-0.2,0.8-0.2,1.1c0,14.7-0.1,29.5,0,44.2c0,6.4,1.6,7.9,8,8.6
			c0.6,0.1,1.2,0.1,1.8,0.2c0,0.6,0,1.1,0,1.7c-10.6,0-21.2,0-31.9,0c0-0.5,0-1,0-1.6c1.8-0.3,3.6-0.6,5.4-1
			c2.4-0.6,3.8-2.2,4.1-4.7c0.1-1.3,0.3-2.5,0.3-3.8c0-14.4,0-28.8,0-43.1c0-0.4,0-0.8,0-1.4c-4.8,0.1-9.5-0.1-13.4,2.9
			c-4,2.9-5.1,7.4-6.2,11.9c-0.8,0-1.5,0-2.3,0C570.6,475.3,570.9,469.1,571.2,463z"/>
		<path d="M361.6,526.5c0.5,0.4,1,0.9,1.5,1.3c-5.6,11.6-16.6,18.5-28.9,14.3c-4.5-1.5-8.6-4.1-12.8-6.3c-2.5-1.3-4.9-2.9-7.3-4.3
			c-6.3-3.5-12.9-4.3-19.7-0.9c-0.3-0.7-0.6-1.2-0.9-1.9c3.7-2.7,8-3.5,12.3-3.8c4.2-0.3,8.2,0.3,12.1,1.6c6.3,2.2,12.6,4.5,19,6.4
			c3.2,0.9,6.7,1.2,10,1.2c5.4,0,9.8-2.6,13.4-6.6c0.3-0.3,0.6-0.6,0.9-0.9C361.4,526.7,361.4,526.6,361.6,526.5z"/>
	</g>
	<g>
		<g>
			<g>
				<path d="M371.7,175.4l-0.8,0.9l1.9,1.8l0.8-0.9L371.7,175.4z"/>
				<path d="M317.6,175.4L317.6,175.4l0.8,0.9h0L317.6,175.4z M339.4,209.8l-2-2.2v0"/>
				<path d="M471.2,340.7l-5.3-3.9l-0.3-0.2L430,310.4l-5.6-6.2c0.1-0.5,0.3-1.1,0.4-1.6c0.1-0.4,0.2-0.8,0.3-1.3l6.7,7.4l25,18.3
					l-30.8-32.7c0-0.7,0.1-1.4,0.1-2.2c0-0.5,0-0.9,0-1.4l32.7,34.8l-16.9-26.5l-16.1-16.4c-0.1-0.9-0.2-1.9-0.3-2.8
					c0-0.3-0.1-0.6-0.1-0.9l18.4,18.7l0.1,0.1l23.6,37.1l0.2,0.3L471.2,340.7z"/>
				<path d="M264.5,304.7l-5.2,5.8l-0.1,0.1l-35.4,26h0l-0.3,0.3l-5.3,3.9l3.5-5.5l0.2-0.3l23.8-37.3l17.6-17.9c0,0.3-0.1,0.7-0.1,1
					c-0.1,0.9-0.2,1.9-0.3,2.8l-15.5,15.7l-16.8,26.4l32.1-34.2c0,0.5,0,0.9,0.1,1.4c0,0.7,0.1,1.4,0.2,2.1l-30.3,32.2l25-18.4
					l6.2-6.9c0.1,0.5,0.2,0.9,0.3,1.3C264.2,303.7,264.3,304.2,264.5,304.7z"/>
				<polygon points="221.6,335.1 221.8,334.9 221.6,335.2 				"/>
				<polygon points="223.7,336.6 223.5,336.9 223.4,336.8 				"/>
				<polygon points="373.6,177.1 372.8,178 370.9,176.3 371.7,175.4 				"/>
			</g>
			<g>
				<path d="M317.6,175.4l-1.9,1.8l0.8,0.9l1.9-1.8L317.6,175.4z"/>
				<path d="M397.5,260.4c0,0.1,0.1,0.1,0.1,0.2c-0.1-0.1-0.2-0.2-0.3-0.2v-0.1l-0.9-0.5c0,0-0.1-0.1-0.2-0.1l-0.6-0.4h0
					c-1.2-0.7-2.7-1.3-4.3-1.7l-43.1-45.9l-1.6-1.7l-1.9-2l-1.8-1.9l-1.9-2l-1.6-1.7L316.5,178l1.9-1.8l22.8,24.2l1.6,1.7l1.9,2
					L397.5,260.4z"/>
				<polygon points="318.4,176.3 316.5,178 315.7,177.1 317.6,175.4 				"/>
				<polygon points="465.6,336.6 465.9,336.8 465.9,336.9 				"/>
				<polygon points="467.7,335.1 467.7,335.2 467.5,334.9 				"/>
			</g>
		</g>
		<g>
			<g>
				<path d="M344.7,212.1l-1.9-2.1l-1.7-1.9l-1.9-2.1l-1.6-1.8l-22.4-24.8l1.4-1.3l-0.8-0.9l1.9-1.8h0l0.8,0.9l1.3-1.3l23.2,23.6
					l1.7,1.7l1.9,1.9l1.8,1.8l1.9,1.9l1.7,1.7l37.4,38c-0.1-0.3-0.2-0.5-0.2-0.8c-0.4-1.5-0.9-2.9-1.4-4.3l-34.2-34.7l23.3-25.8
					l0.8-0.9l-8-7.5l-24.8,25.3l-24-24.4l-0.8-0.8l-8,7.5l0.8,0.9l23.3,25.8l-35.1,35.7c-0.5,1.3-1.5,4.7-1.6,5l38.2-38.9l0,0
					l1.9,2.2h0l-47.6,50.6c0,0.1-0.1,0.1-0.1,0.2c0.1-0.1,0.2-0.2,0.3-0.2v-0.1l0.9-0.5c0,0,0.1-0.1,0.2-0.1l0.6-0.4h0
					c1.2-0.7,2.7-1.3,4.3-1.7l43.1-45.9l1.9,2.2h0l-38.4,42.7c0.3,0,0.7-0.1,1.1-0.1l0.4,0c0.7-0.1,1.3-0.1,1.9-0.2l36.6-40.7
					l36.6,40.7c0.6,0.1,1.2,0.1,1.9,0.2l0.4,0c0.4,0,0.7,0,1.1,0.1l-38.4-42.7L344.7,212.1z M369.6,175l1.4,1.3l0.8-0.9l1.9,1.8
					l-0.8,0.9l1.4,1.3l-22.4,24.9l-1.8-1.9l22.8-24.3l-1.9-1.8l-22.8,24.2l-1.8-1.9L369.6,175z"/>
				<polygon points="318.4,176.3 318.4,176.3 316.5,178 315.7,177.1 317.6,175.4 317.6,175.4 				"/>
			</g>
		</g>
		<path d="M401.9,156.1c-2,2.1-4.9,2.7-7.5,1.8c-4.1,7.4-10.1,14.3-17.3,20.9l4.3,4.1c3.7,3.6,3.8,9.4,0.3,13.1l-0.8,0.9
			c-1,1.1-2.4,0.3-1.7-0.9c0.2-0.8,0.3-1.6,0.2-2.5c-0.1-2.3-1.1-4.6-2.9-6.3L361.6,173c-2.4-2.2-5.7-3.1-8.8-2.3
			c-0.2,0.1-0.4,0.2-0.6,0.2c-0.8,0-1.2-1-0.4-1.9l0.8-0.9c3.5-3.7,9.4-3.8,13.1-0.3l4.3,4.1c6.7-7.9,13.4-14.6,20.1-18.3
			c-1-2.5-0.5-5.5,1.5-7.5c2.7-2.9,7.3-2.9,10.1-0.2C404.6,148.7,404.7,153.2,401.9,156.1z"/>
		<path d="M287.4,156.1c2,2.1,4.9,2.7,7.5,1.8c4.1,7.4,10.1,14.3,17.3,20.9l-4.3,4.1c-3.7,3.6-3.8,9.4-0.3,13.1l0.8,0.9
			c1,1.1,2.4,0.3,1.7-0.9c-0.2-0.8-0.3-1.6-0.2-2.5c0.1-2.3,1.1-4.6,2.9-6.3l14.9-14.3c2.4-2.2,5.7-3.1,8.8-2.3
			c0.2,0.1,0.4,0.2,0.6,0.2c0.8,0,1.2-1,0.4-1.9l-0.8-0.9c-3.5-3.7-9.4-3.8-13.1-0.3l-4.3,4.1c-6.7-7.9-13.4-14.6-20.1-18.3
			c1-2.5,0.5-5.5-1.5-7.5c-2.7-2.9-7.3-2.9-10.1-0.2C284.7,148.7,284.6,153.2,287.4,156.1z"/>
		<path d="M311.5,376c-0.1-3.8,0.1-7.6,0.6-11.4c1.2,1.4,2.9,2.1,4.8,2.1h0.1c2.1,0,4.1-0.7,6.1-1.6c1.6-0.7,3.2-1.5,4.4-2.1
			l2.6-1.4c0.2-0.1,0.3-0.4,0.2-0.7c-0.1-0.2-0.4-0.3-0.7-0.2l-2.6,1.4c-1.2,0.6-2.7,1.4-4.3,2.1c-1.8,0.8-3.8,1.5-5.7,1.5H317
			c-1.9,0-3.4-0.8-4.5-2.3c1.1-3.4,2.7-6.6,4.5-9.6c0.7,0.6,1.6,1,2.6,1.2c0.8,0.2,1.6,0.2,2.4,0.2c1.3,0,2.7-0.2,4-0.4
			c0.9-0.2,1.9-0.4,2.9-0.6l4.7-1.1c0.3-0.1,0.4-0.3,0.4-0.6c-0.1-0.3-0.3-0.4-0.6-0.4l-4.7,1.1c-1,0.2-1.9,0.4-2.8,0.6
			c-2,0.3-4,0.6-5.9,0.2c-0.9-0.2-1.6-0.5-2.3-1.1c1.7-2.6,3.6-5,5.7-7h0c0.4-0.4,0.8-0.8,1.3-1.1c0.2-0.2,0.4-0.4,0.6-0.5
			c0.3,0.1,0.6,0.3,0.9,0.4c0.8,0.3,1.6,0.4,2.4,0.6c0,0,0,0,0,0c0.8,0.1,1.5,0.2,2.3,0.3l7.6,0.6c0,0,0,0,0,0
			c0.3,0,0.5-0.2,0.5-0.5c0-0.3-0.2-0.5-0.5-0.5l-7.6-0.6c-0.1,0-0.2,0-0.3,0c0,0,0,0,0,0c-0.8-0.1-1.7-0.2-2.5-0.4
			c-0.8-0.2-1.5-0.3-2.2-0.6c0,0,0.1-0.1,0.1-0.1h0c3.2-2.4,6.7-3.9,10.2-4.2c0,0,0,0,0,0h0c0.7-0.1,1.4-0.1,2.2-0.1h0.1
			c0.6,0,1,0,1.5-0.2c0.2,0.1,0.3,0.1,0.5,0.2c0.7,0.3,1.4,0.5,2,0.7h0c0,0,0,0,0,0c0.3,0.1,0.6,0.2,0.8,0.3
			c0.3,0.1,0.6,0.2,0.8,0.3c0,0,0,0,0,0c0.9,0.3,1.5,0.4,1.5,0.4c0,0,0.1,0,0.1,0c0.2,0,0.4-0.1,0.5-0.4c0.1-0.3-0.1-0.5-0.3-0.6
			c0,0,0,0,0,0c-0.1,0-0.8-0.2-1.7-0.5c0,0,0,0,0,0c-0.2-0.1-0.4-0.1-0.6-0.2c-0.7-0.2-1.4-0.5-2.2-0.7c-0.1,0-0.2-0.1-0.3-0.1
			c0.6-0.5,1-1.2,1.3-2.1c0.2-0.5,0.3-1.1,0.3-1.7c0.1-1,0.1-2,0.2-3l0-1.4c0-0.4,0.1-0.9,0.1-1.3c0.2,0.2,0.3,0.5,0.5,0.7
			c0.2,0.3,0.4,0.5,0.7,0.7c0.5,0.5,1,0.9,1.5,1.4c0.3,0.2,0.6,0.5,0.9,0.7c0.3,0.2,0.6,0.4,0.9,0.6c0,0,0,0,0.1,0
			c1.4,0.9,3.1,1.8,4.9,2.7c0.2,0.1,0.3,0.1,0.4,0.2c0.4,0.2,0.8,0.4,1.1,0.5c0.5,0.2,0.8,0.3,0.8,0.3c0.1,0,0.1,0,0.2,0
			c0.2,0,0.4-0.1,0.5-0.3c0.1-0.3,0-0.5-0.3-0.6c0,0-0.1,0-0.2-0.1c-0.2-0.1-0.6-0.2-1-0.5c-0.3-0.1-0.6-0.3-1-0.5
			c-1.7-0.8-3.2-1.7-4.6-2.6c-0.1,0-0.1-0.1-0.2-0.1c-0.3-0.2-0.5-0.3-0.8-0.5c-0.3-0.2-0.6-0.5-0.9-0.7c-0.5-0.4-1.1-0.9-1.5-1.4
			c-0.2-0.3-0.5-0.5-0.7-0.8c-0.4-0.5-0.7-1-0.9-1.5v0c0.3-1.3,1-2.4,2.2-2.9c0.3-0.1,0.6-0.2,1-0.3c0.3-0.1,0.6-0.1,0.9-0.1h0
			c0,0,0.1,0,0.1,0c0.6,0,1.3,0,1.9,0c0.4,0,0.8,0,1.2,0.1c0.1,0,0.2,0,0.2,0c0.7,0,1.5,0.1,2.2,0.2c0.2,0,0.5,0.1,0.7,0.1
			c0.1,0.2,0.2,0.4,0.3,0.5v0c0.7,1.3,1.7,2.4,2.6,3.2h0c0.2,0.2,0.4,0.4,0.6,0.6c0.2,0.2,0.3,0.3,0.5,0.4c1.7,1.4,3.4,2.5,4.8,3.3
			h0c1.2,0.7,2.1,1.1,2.1,1.1c0.1,0,0.2,0,0.2,0c0.1,0,0.2,0,0.2-0.1c0.1,0,0.2-0.1,0.2-0.2c0.1-0.3,0-0.6-0.2-0.7
			c0,0-0.6-0.3-1.5-0.8c0,0,0,0,0,0c-1.3-0.7-3.3-2-5.2-3.5c-1.6-1.3-2.7-2.6-3.4-3.8c0.2,0,0.5,0.1,0.7,0.1
			c9.7,1.9,18.4,7.5,24.9,15.1c-0.7,0.2-1.3,0.3-1.9,0.5c-2.7,0.7-5.2,1.3-7.5,1.9c-0.4,0.1-0.8,0.2-1.1,0.3h0
			c-0.4,0.1-0.8,0.2-1.1,0.3c-11.7,3.2-17.6,5.8-21.9,11.9c-2.2,3.1-4.9,8.7-2.4,20.9c0.5,2.7-0.2,5.8-2.2,8.8
			c-2.7,4-7.1,7.1-11.3,7.9c-2,0.4-3.9,0.6-5.6,0.6c-3.4,0-6.4-0.7-8.7-2c3.3-0.2,5.8-2.9,7.3-4.4c1.5-1.6,2.7-3.2,3.6-4.2
			c0.9-1.2,1.5-1.9,1.5-1.9c0.2-0.2,0.1-0.5-0.1-0.7c-0.2-0.2-0.5-0.1-0.7,0.1c0,0-0.5,0.8-1.4,1.9c-0.8,1-2,2.6-3.5,4.2
			c-2.3,2.4-5,4.8-8.2,4c0,0,0,0,0,0c-1.4-1.2-2.4-2.8-2.8-4.6c-0.5-2.5-0.8-5.1-1-7.7c1.1,0.9,2.4,1.3,3.9,1.3c0.5,0,1,0,1.5-0.2
			c2.2-0.4,4.2-1.7,5.7-2.8c3.3-2.4,6.1-5,6.1-5c0.2-0.2,0.2-0.5,0-0.7c-0.2-0.2-0.5-0.2-0.7,0c0,0-2.8,2.5-6,4.9
			c-1.5,1-3.4,2.2-5.3,2.6C314.7,378,313,377.5,311.5,376z"/>
		<path d="M380.5,404.9c-5.9,6.1-13.3,10.5-21.4,12.7c1.9-1.4,3.8-3,5.5-4.7c7.3-7.3,11.7-15.5,14-23.8c0.1-0.1,0.2-0.3,0.1-0.4
			c0,0,0,0,0,0c1.3-4.7,1.8-9.4,1.8-14.1c0-0.4,0-0.8,0-1.3c-0.1-5.1-0.9-10.1-2.1-14.8c0-0.2,0-0.3-0.1-0.5
			c-0.8-2.8-1.7-5.6-2.8-8.1c-0.8-1.9-1.8-3.8-2.7-5.6c2.1-0.5,4.4-1.1,6.8-1.7c1-0.2,2-0.5,3-0.7
			C395.9,359.2,399,385.8,380.5,404.9z"/>
		<path d="M378.3,358.5c0-0.2-0.1-0.3-0.1-0.5C378.3,358.1,378.3,358.3,378.3,358.5z"/>
		<path d="M378.5,389c0-0.1,0.1-0.3,0.1-0.4C378.7,388.7,378.6,388.9,378.5,389z"/>
		<g>
			<path d="M362.9,368.4c-0.2,0.2-0.1,0.5,0.1,0.7c0,0,0.7,0.6,1.9,1.5l0.8,0.6c1,0.8,2.2,1.8,3.6,2.8c1.6,1.2,3.5,2.4,5.5,2.8
				c0.4,0.1,0.8,0.1,1.1,0.1c0.8,0,1.5-0.2,2.1-0.5c-0.1,2.2-0.2,4.1-0.2,4.1l-0.1,1.1c-0.3,2.6-0.9,5.2-1.6,7.8
				c-1.3,0.5-2.5,0.4-3.7-0.3c-1.6-0.8-2.9-2.4-4.2-4c-1.1-1.4-2-2.8-2.8-4l-0.4-0.6c-0.8-1.2-1.3-2-1.3-2c-0.2-0.2-0.5-0.3-0.7-0.2
				c-0.2,0.1-0.3,0.4-0.2,0.6c0,0,0.5,0.8,1.4,2.1l0.3,0.5c0.7,1.2,1.7,2.6,2.8,4.1c1.3,1.7,2.7,3.4,4.5,4.3
				c0.9,0.4,1.7,0.6,2.6,0.6c0.4,0,0.9-0.1,1.3-0.2l-0.3,0.8c-0.9,2.7-2.1,5.4-3.5,8.1l-0.5,1c-0.4,0.7-0.8,1.3-1.2,2
				c-1.5,0.2-2.8-0.1-3.9-1.1c-1.4-1.3-2.4-3.3-3-5c-0.5-1.2-0.9-2.4-1.2-3.4c-0.2-0.7-0.4-1.3-0.6-1.8c-0.5-1.4-0.7-2.3-0.7-2.3
				c-0.1-0.3-0.3-0.4-0.6-0.3c-0.3,0.1-0.4,0.3-0.3,0.6c0,0,0.2,0.9,0.7,2.4c0.2,0.5,0.4,1.1,0.6,1.8c0.3,1.1,0.7,2.3,1.2,3.5
				c0.7,1.8,1.8,3.9,3.3,5.3c0.8,0.7,2.1,1.5,3.7,1.5h0.2c-1,1.4-2,2.8-3.1,4.1l-0.7,0.9c-0.8,1-1.8,2-2.7,2.9
				c-0.7,0.7-1.4,1.4-2.2,2c-3.5-0.5-4.5-3.8-5-7.4c-0.3-2.5-0.5-4.3-0.5-5.6l-0.1-2.5c0-0.3-0.2-0.5-0.5-0.5
				c-0.3,0-0.5,0.2-0.5,0.5l0.1,2.5c0,1.3,0.2,3.2,0.5,5.7c0.3,2.3,1,7,5.1,8.1c-0.1,0-0.1,0.1-0.2,0.2l-0.9,0.8
				c-1.8,1.4-3.6,2.6-5.5,3.8h0c0,0,0,0,0,0c-0.5,0.3-1,0.6-1.5,0.8l-1,0.5c-0.8,0.4-1.6,0.8-2.4,1.1c-2-1.5-2.2-4.5-2.1-7.6
				c0.1-1.4,0.3-2.7,0.5-3.9c0.1-0.6,0.2-1.1,0.2-1.6c0.2-1.5,0.5-2.4,0.5-2.4c0.1-0.3-0.1-0.5-0.4-0.6c-0.2,0-0.5,0.1-0.6,0.4
				c0,0-0.2,1-0.5,2.5c-0.1,0.5-0.2,1-0.2,1.6c-0.2,1.2-0.4,2.6-0.5,4c-0.2,2.9,0,6.2,2,8.1c-1.5,0.6-2.9,1.2-4.5,1.6h0
				c-0.1,0-1.2,0.4-1.2,0.4c-2.2,0.6-4.4,1.1-6.7,1.5c-0.4-1.7-0.1-3.8,0.4-5.7c0.5-1.9,1.1-3.6,1.7-5l0.1-0.3
				c0.5-1.4,0.9-2.4,0.9-2.4c0.1-0.2,0-0.5-0.2-0.6c-0.2-0.1-0.5,0-0.6,0.2c0,0-0.4,1-0.9,2.4l-0.1,0.2c-0.6,1.4-1.2,3.2-1.7,5.2
				c-0.3,1.3-0.9,3.8-0.4,6.1c-0.3,0-0.5,0.1-0.8,0.1l-1.2,0.1c-2.2,0.2-4.4,0.4-6.6,0.4c-0.7,0-1.3,0-2,0l-0.7,0
				c0.2-0.8,0.5-1.6,0.9-2.5c0.7-1.7,1.7-3.3,2.4-4.5l0.2-0.4c0.8-1.3,1.3-2.2,1.3-2.2c0.1-0.2,0.1-0.5-0.1-0.7
				c-0.2-0.2-0.5-0.1-0.7,0.1c0,0-0.6,0.9-1.4,2.2l-0.2,0.4c-0.8,1.3-1.7,2.9-2.5,4.7c-0.4,0.9-0.7,1.8-1,2.8
				c-2.6-0.2-5.2-0.6-7.6-1.2l-1-0.3c-0.3-0.1-0.6-0.2-0.8-0.3c0.2-0.3,0.5-0.6,0.7-0.9c0.6-0.8,1.1-1.5,1.6-2.1
				c1-1.2,1.6-1.9,1.6-1.9c0.2-0.2,0.2-0.5,0-0.7c-0.2-0.2-0.5-0.2-0.7,0c0,0-0.7,0.8-1.7,2c-0.5,0.6-1,1.4-1.6,2.1
				c-0.3,0.4-0.6,0.8-0.9,1.2c-1.8-0.6-3.6-1.3-5.2-2.1l-0.8-0.4c-2-1-3.8-2.2-5.6-3.5l-0.8-0.6c-10.2-8-16.3-21.1-16.3-36.9
				c0-11.9,5.6-25,14.2-33.3c2.4-2.3,5-4.2,7.6-5.5c1.7,0.4,3.3,0.8,4.8,1.2c2.6,0.6,5,1.2,7.1,1.8c-4.7,8.7-7.3,19-7.3,29.3
				c0,4,0.4,8,1.2,11.9c0.2,1.1,0.6,2.1,1.1,3c2.3,4.1,7.6,6.5,14.3,6.5c1.9,0,3.9-0.2,6-0.6c4.7-0.9,9.7-4.4,12.8-8.8
				c2.3-3.4,3.2-7.2,2.6-10.5c-2.3-11.3,0.1-16.3,2.1-19.1c3.7-5.3,8.6-7.7,20.1-10.9c0.1,1.1,0,2.1-0.4,2.9c-0.4,0.8-1,1.4-1.8,1.9
				c-0.7,0.4-1.5,0.7-2.6,1c-0.9,0.2-6.1,0.9-6.1,0.9c-0.3,0-0.5,0.3-0.4,0.5c0,0.2,0.2,0.4,0.5,0.4c0,0,2.1-0.2,3.1-0.4
				c1.2-0.2,2.2-0.3,3.1-0.6c1.2-0.3,2.1-0.6,2.9-1.1c1-0.6,1.7-1.3,2.1-2.3c0.5-1,0.7-2.2,0.5-3.6c0.1,0,0.1,0,0.2,0
				c1.1,1.9,2.1,3.9,3,6l0.2,0.5l0.4,1.1c1,2.5,1.9,5.2,2.5,7.9c-0.7,1-1.7,1.7-3.1,1.9c-1.7,0.2-3.5-0.2-5.4-0.7l-0.4-0.1
				c-1-0.3-2-0.6-2.8-0.8l-4.6-1.3c-0.3-0.1-0.5,0.1-0.6,0.3c-0.1,0.2,0.1,0.5,0.3,0.6l2.3,0.6l2.4,0.7c0.9,0.3,1.8,0.6,2.9,0.9
				l0.4,0.1c1.6,0.4,3.1,0.8,4.6,0.8c0.4,0,0.8,0,1.2-0.1c1-0.2,2.2-0.6,3.2-1.6l0.1,0.2c0.6,2.8,1,5.7,1.3,8.6l0.1,1.1
				c0,1,0,2.4,0,3.7c-1,0.5-2,0.7-3.1,0.5c-1.8-0.3-3.6-1.6-5.1-2.7c-1.4-0.9-2.6-1.9-3.5-2.7l-0.8-0.6c-1.2-0.9-1.9-1.4-1.9-1.5
				C363.3,368.2,363,368.2,362.9,368.4z"/>
			<path d="M355.9,324.8c-0.3-0.3-0.7-0.5-1-0.7c0.1,0.2,0.2,0.4,0.3,0.6c0.7,1.2,1.9,2.5,3.4,3.8c1.9,1.5,3.9,2.8,5.2,3.5
				C361.4,329.2,358.7,326.9,355.9,324.8z M321.1,325.2L321.1,325.2c-0.3,0.4-0.7,0.7-1.1,1.1c-0.1,0.1-0.2,0.1-0.2,0.2
				c0,0.2,0,0.5-0.1,0.7c-0.6,5.8-1.2,9.3-4.7,9.3h-0.2c-3.5-0.1-7.1,0.7-10.6,2.4c0.6,0.2,1.2,0.3,1.7,0.5c0.7,0.2,1.3,0.3,1.9,0.5
				c2.1-0.7,4.2-1.1,6.2-1.1c0.2,0,0.4,0,0.6,0c6.1,0.2,6.7-6,7.2-11.4c0.1-1.5,0.3-2.8,0.5-4C322.1,324,321.6,324.6,321.1,325.2z
				 M326,316.5L326,316.5c-0.7-0.1-1.3-0.3-2-0.4c-0.1,0-0.2,0.1-0.2,0.1c0.2,0.4,0.3,0.8,0.3,1.2c0.1,0.5,0.1,1,0.1,1.5
				c0.7-0.8,1.6-1.3,3-1.3c1,0,2.1,0,3.1,0.1C328.9,317.2,327.5,316.8,326,316.5z M322.9,316.8c-1.9,1.8-2.5,4.9-2.9,8.1
				c0.5-0.5,1-1.1,1.4-1.6c1.3-1.8,1.9-3.4,1.8-5.1C323.1,317.8,323.1,317.3,322.9,316.8z M365.3,333.6c-0.1,0-0.1,0.1-0.2,0.1
				c-0.1,0-0.2,0-0.2,0c-0.1,0-0.9-0.4-2.1-1.1h0c-1.3-0.8-3.1-1.9-4.8-3.3c-0.1-0.1-0.3-0.3-0.5-0.4c-0.2-0.2-0.4-0.3-0.6-0.6h0
				c-0.9-0.8-1.9-1.9-2.6-3.2v0c-0.1-0.2-0.2-0.3-0.3-0.5c-0.2-0.4-0.4-0.9-0.5-1.4h0c-1.4-0.9-2.8-1.8-4.3-2.5
				c-0.5,0.2-0.9,0.4-1.4,0.5h0c-0.2,0.1-0.4,0.2-0.6,0.2c-0.3,0.1-0.6,0.2-0.8,0.3c1.5,0.7,3.1,1.5,4.5,2.4c0.1,0,0.2,0.1,0.3,0.2
				c1.9,1.2,3.7,2.5,5.5,4h0c0.3,0.2,0.6,0.5,0.8,0.7c3.3,2.8,6.3,6.1,8.9,9.8c0.3,0.4,0.6,0.8,0.8,1.2c0.6,0.9,1.2,1.9,1.8,2.8
				c0.4-0.1,0.7-0.2,1.1-0.3h0c0.4-0.1,0.8-0.2,1.1-0.3C369.6,339.1,367.5,336.2,365.3,333.6z"/>
		</g>
		<g>
			<g>
				<g>
					<path d="M341.6,321.3c-1.3,0.6-2.6,1.3-3.8,1.9c-0.5,0.3-1,0.6-1.5,0.9c-0.7,0.4-1.3,0.8-2,1.2c1.1-1.7,1.7-3.9,0.8-6.4
						c0.5,0.2,1,0.3,1.5,0.5c0.7,0.2,1.3,0.5,2,0.7c0.5,0.2,1,0.3,1.5,0.5C340.5,320.9,341.1,321.1,341.6,321.3z"/>
				</g>
				<g>
					<path d="M331.2,327.5C331.2,327.5,331.1,327.5,331.2,327.5C331.1,327.5,331.1,327.5,331.2,327.5
						C331.1,327.6,331.1,327.6,331.2,327.5c-0.6,0.4-1.1,0.8-1.6,1.2c-4,3.1-7.3,6.6-10.1,10.5c-0.7,1-1.3,2-1.9,3
						c-2.3-0.6-4.8-1.2-7.7-1.9c-0.6-0.2-1.2-0.3-1.9-0.5c-0.6-0.2-1.3-0.3-1.9-0.5c-0.6-0.1-1.1-0.3-1.7-0.5
						c-11.1-3-24.8-8.2-32.6-22c-2.6-4.6-4.3-9.5-5.3-14.2c-0.2-1-0.4-2-0.6-2.9c-0.4-2.4-0.6-4.7-0.7-7c-0.1-1.2-0.1-2.5-0.1-3.7
						c0-2.9,0.2-5.6,0.5-8.2c0.1-1.4,0.3-2.7,0.5-3.9c0.4-2.6,0.9-4.9,1.4-6.9c0.3,1.2,0.7,2.7,1.3,4.1c0.3,0.7,0.7,1.5,1.1,2.2
						c0.8,1.4,1.9,2.8,3.4,3.9c0.7,0.5,1.4,1,2.2,1.4c0.3,0.2,0.6,0.3,0.9,0.4c1.4,0.5,3,0.8,4.6,0.8h0.1c1.1,0,2.3-0.2,3.6-0.5
						c2.7-0.6,5.7-1.8,8.9-3.6c-1.3,3.4-2.6,7.8-3,12.2v0c-1.2,0.8-2.6,1.1-3.9,1.1c-0.2,0-0.3,0-0.5,0c-1.8-0.1-3.7-0.9-5.4-2.2
						c-0.6-0.4-1.2-0.9-1.6-1.4c-0.6-0.6-1.2-1.2-1.6-1.8c-0.3-0.4-0.6-0.7-0.7-1c-0.4-0.7-0.5-0.9-0.8-1.3
						c-0.1-0.2-0.3-0.3-0.5-0.3c-0.1,0-0.2,0-0.2,0.1c-0.2,0.1-0.3,0.4-0.2,0.7c0.3,0.5,0.4,0.7,0.8,1.4c0.2,0.3,0.5,0.7,0.9,1.2
						c0.4,0.5,1,1.2,1.6,1.8c0.5,0.5,1.1,1,1.7,1.5c1.9,1.4,4,2.2,6,2.3c0.2,0,0.4,0,0.6,0c1.3,0,2.6-0.3,3.8-1
						c-0.2,2.8,0.1,5.6,1,8.2c-1.1,1-2.5,1.8-3.9,2.1c-0.6,0.1-1.2,0.2-1.8,0.2c-1.3,0-2.6-0.3-4-0.8c-2.2-0.9-4-2.4-4.9-3.1
						c-1.2-1.1-1.9-1.9-1.9-1.9c-0.1-0.1-0.2-0.2-0.4-0.2c-0.1,0-0.2,0-0.3,0.1c-0.2,0.2-0.2,0.5-0.1,0.7c0,0,0.8,0.9,2,2.1
						c0.9,0.8,2.8,2.4,5.2,3.3c1.5,0.6,2.9,0.9,4.4,0.9c0.7,0,1.4-0.1,2-0.2c1.5-0.4,2.9-1.1,4.1-2.1c0.2,0.5,0.5,1,0.8,1.5
						c0.2,0.3,1,1.7,2.9,3.4c-0.6,1.9-1.5,3.4-2.8,4.5c-1.4,1.2-3.3,1.9-5.4,2c-0.3,0-0.6,0-0.9,0c-1.6,0-3.4-0.3-5-0.9
						c-0.8-0.3-1.5-0.6-1.9-0.8l-0.7-0.3c-0.1,0-0.1,0-0.2,0c-0.2,0-0.4,0.1-0.5,0.3c-0.1,0.2,0,0.5,0.2,0.6l0.7,0.3
						c0.4,0.2,1.1,0.5,2,0.8c1.7,0.6,3.6,0.9,5.3,0.9c0.3,0,0.6,0,0.9,0c2.3-0.2,4.4-1,6-2.3c1.4-1.1,2.4-2.7,3-4.5
						c1.3,1.1,2.9,2.2,5,3.3v0.1c0.3,2.3,0.2,4.1-0.4,5.6c-0.7,1.7-2.1,3.3-3.9,4.3c-1.6,0.9-3.6,1.6-5.7,1.7
						c-0.5,0-0.9,0.1-1.3,0.1c-0.3,0-0.6,0-0.8,0l-0.9-0.1c-0.3,0-0.5,0.2-0.5,0.5s0.2,0.5,0.5,0.5l0.9,0.1c0.3,0,0.6,0,0.9,0
						c0.4,0,0.9,0,1.4-0.1c2.2-0.2,4.5-0.8,6.1-1.9c2-1.1,3.5-2.9,4.3-4.8c0.6-1.6,0.8-3.4,0.6-5.6c2.4,1.1,5.4,2.2,9,2.9
						c1.4,2.9,0.5,6-2.9,9.5c-2.8,2.9-6.3,4.9-6.4,4.9c-0.2,0.1-0.3,0.5-0.2,0.7c0.1,0.2,0.3,0.3,0.4,0.3c0.1,0,0.2,0,0.2-0.1
						c0.2-0.1,3.7-2.1,6.6-5.1c3.4-3.5,4.5-6.8,3.4-9.9c0.4,0.1,0.8,0.1,1.2,0.2c3.1,0.5,6,1,8.8,1.5c0.2,0.4,0.4,0.7,0.5,1.1
						c0.2,0.5,0.3,0.9,0.3,1.4c0.1,1.6-0.5,3.3-1.8,5.1c-0.4,0.5-0.8,1-1.4,1.6v0c-0.2,0.2-0.4,0.4-0.6,0.6
						c-2.9,2.8-6.5,4.7-6.5,4.7c-0.2,0.1-0.3,0.4-0.2,0.7c0.1,0.2,0.3,0.3,0.4,0.3c0.1,0,0.2,0,0.2-0.1c0.2-0.1,3.5-1.9,6.5-4.6
						c0.1-0.1,0.2-0.1,0.2-0.2c0.4-0.4,0.7-0.7,1.1-1.1v0c0.5-0.6,1-1.2,1.4-1.7c1.1-1.6,1.6-3.1,1.7-4.6c0,0,0,0,0,0
						c0-0.5,0-1-0.1-1.5c-0.1-0.4-0.2-0.8-0.3-1.2c0-0.1,0-0.1-0.1-0.2c0.1,0,0.2,0,0.3,0.1c0.7,0.2,1.4,0.3,2,0.4h0
						c1.5,0.3,2.9,0.7,4.3,1.1c0.7,0.2,1.4,0.4,2,0.6c0.1,0,0.3,0.1,0.4,0.1c0.4,0.1,0.7,0.2,1.1,0.3
						C335.3,321.6,334.4,324.4,331.2,327.5z"/>
				</g>
			</g>
		</g>
		<g>
			<g>
				<path d="M423.8,288.4c0,1.2,0,2.4,0,3.7c-0.1,2.3-0.3,4.7-0.7,7.1c-0.2,1-0.3,2-0.5,3c-1,4.9-2.7,9.9-5.4,14.8
					c-8.6,15.4-24.7,20.1-36.2,23c-0.7,0.2-1.3,0.3-1.9,0.5c-2.7,0.7-5.2,1.3-7.5,1.9c-0.4,0.1-0.8,0.2-1.1,0.3h0
					c-0.4,0.1-0.8,0.2-1.1,0.3c-11.7,3.2-17.6,5.8-21.9,11.9c-2.2,3.1-4.9,8.7-2.4,20.9c0.5,2.7-0.2,5.8-2.2,8.8
					c-2.7,4-7.1,7.1-11.3,7.9c-2,0.4-3.9,0.6-5.6,0.6c-3.4,0-6.4-0.7-8.7-2c3.3-0.2,5.8-2.9,7.3-4.4c1.5-1.6,2.7-3.2,3.6-4.2
					c0.9-1.2,1.5-1.9,1.5-1.9c0.2-0.2,0.1-0.5-0.1-0.7c-0.1-0.1-0.2-0.1-0.3-0.1c-0.2,0-0.3,0.1-0.4,0.2c0,0-0.5,0.8-1.4,1.9
					c-0.8,1-2,2.6-3.5,4.2c-0.4,0.4-0.8,0.8-1.1,1.1c-0.2,0.2-0.4,0.4-0.6,0.6c-1.5,1.4-3.2,2.4-5.1,2.4c-0.4,0-0.9,0-1.3-0.2
					c0,0,0,0,0,0c-1.4-1.2-2.4-2.8-2.8-4.6c-0.5-2.5-0.8-5.1-1-7.7c1.1,0.9,2.4,1.3,3.9,1.3c0.5,0,1,0,1.5-0.2
					c2.2-0.4,4.2-1.7,5.7-2.8c3.3-2.4,6.1-5,6.1-5c0.2-0.2,0.2-0.5,0-0.7c-0.1-0.1-0.2-0.2-0.4-0.2c-0.1,0-0.2,0-0.3,0.1
					c0,0-2.8,2.5-6,4.9c-1.5,1-3.4,2.2-5.3,2.6c-0.4,0.1-0.8,0.1-1.2,0.1c-1.5,0-2.8-0.6-3.9-1.7c-0.1-3.8,0.1-7.6,0.6-11.4
					c1.2,1.4,2.9,2.1,4.8,2.1h0.1c2.1,0,4.1-0.7,6.1-1.6c1.6-0.7,3.2-1.5,4.4-2.1l2.6-1.4c0.2-0.1,0.3-0.4,0.2-0.7
					c-0.1-0.2-0.3-0.3-0.4-0.3c-0.1,0-0.2,0-0.3,0.1l-2.6,1.4c-1.2,0.6-2.7,1.4-4.3,2.1c-1.8,0.8-3.8,1.5-5.7,1.5H317
					c-1.9,0-3.4-0.8-4.5-2.3c0,0.1-0.1,0.2-0.1,0.3c0-0.1,0-0.3,0.1-0.4v0c0.7-3.9,1.7-7.6,3-11.2c0.4,0.7,0.9,1.3,1.5,1.7
					c0.7,0.6,1.6,1,2.6,1.2c0.8,0.2,1.6,0.2,2.4,0.2c1.3,0,2.7-0.2,4-0.4c0.9-0.2,1.9-0.4,2.9-0.6l4.7-1.1c0.3-0.1,0.4-0.3,0.4-0.6
					c-0.1-0.2-0.3-0.4-0.5-0.4c0,0-0.1,0-0.1,0l-4.7,1.1c-1,0.2-1.9,0.4-2.8,0.6c-1.2,0.2-2.5,0.4-3.8,0.4c-0.7,0-1.5-0.1-2.2-0.2
					c-0.9-0.2-1.6-0.5-2.3-1.1c-0.7-0.5-1.2-1.2-1.6-2.1c0.8-2.1,1.8-4.1,2.8-5.9c0.2-0.3,0.4-0.7,0.6-1c0.2-0.3,0.4-0.7,0.6-1
					c0.5-0.8,1-1.6,1.5-2.3c0-0.1,0.1-0.1,0.2-0.2c0.4,1.4,1.3,2.5,2.6,3.4h0c0.2,0.2,0.4,0.3,0.6,0.4c0.1,0.1,0.3,0.1,0.4,0.2
					c0.3,0.1,0.6,0.3,0.9,0.4c0.8,0.3,1.6,0.4,2.4,0.6c0,0,0,0,0,0c0.8,0.1,1.5,0.2,2.3,0.3l7.6,0.6c0,0,0,0,0,0
					c0.3,0,0.5-0.2,0.5-0.5c0-0.3-0.2-0.5-0.5-0.5l-7.6-0.6c-0.1,0-0.2,0-0.3,0c0,0,0,0,0,0s0,0,0,0c-0.8-0.1-1.7-0.2-2.5-0.4
					c-0.8-0.2-1.5-0.3-2.2-0.6c0,0-0.1,0-0.1,0c-0.3-0.1-0.5-0.2-0.7-0.3c-1.7-0.9-2.6-2.2-2.9-3.9c2.4-3.2,5.3-6.2,8.7-8.8
					c0,1.8,0.6,3.3,1.9,4.6c0.2,0.2,0.5,0.5,0.8,0.7c0.3,0.2,0.6,0.5,0.9,0.7c1.1,0.8,2.3,1.3,3.4,1.8c0,0,0,0,0,0
					c0.1,0,0.2,0.1,0.3,0.1c0.3,0.1,0.6,0.3,1,0.4c0.3,0.1,0.5,0.2,0.8,0.3c0.2,0.1,0.3,0.1,0.5,0.2c0.7,0.3,1.4,0.5,2,0.7h0
					c0,0,0,0,0,0c0.3,0.1,0.6,0.2,0.8,0.3c0.3,0.1,0.6,0.2,0.8,0.3c0,0,0,0,0,0c0.9,0.3,1.5,0.4,1.5,0.4c0,0,0.1,0,0.1,0
					c0.2,0,0.4-0.1,0.5-0.4c0.1-0.3-0.1-0.5-0.3-0.6c0,0,0,0,0,0c-0.1,0-0.8-0.2-1.7-0.5c0,0,0,0,0,0c-0.2-0.1-0.4-0.1-0.6-0.2
					c-0.7-0.2-1.4-0.5-2.2-0.7c-0.1,0-0.2-0.1-0.3-0.1c0,0,0,0,0,0c-0.3-0.1-0.7-0.2-1-0.4c-0.4-0.2-0.8-0.3-1.3-0.5
					c-0.1,0-0.2-0.1-0.3-0.1c-0.9-0.4-2-0.8-3-1.5c-0.3-0.2-0.7-0.4-1-0.6c-0.4-0.3-0.8-0.6-1.1-0.9c-1.3-1.4-1.8-2.9-1.5-4.8
					c3-2.3,6.4-4.3,10.1-6.1c-0.5,2.1,0,3.9,1,5.4c0,0,0,0,0,0c0.2,0.2,0.3,0.5,0.5,0.7c0.2,0.3,0.4,0.5,0.7,0.7
					c0.5,0.5,1,0.9,1.5,1.4c0.3,0.2,0.6,0.5,0.9,0.7c0.3,0.2,0.6,0.4,0.9,0.6c0,0,0,0,0.1,0c1.4,0.9,3.1,1.8,4.9,2.7
					c0.2,0.1,0.3,0.1,0.4,0.2c0.4,0.2,0.8,0.4,1.1,0.5c0.5,0.2,0.8,0.3,0.8,0.3c0.1,0,0.1,0,0.2,0c0.2,0,0.4-0.1,0.5-0.3
					c0.1-0.3,0-0.5-0.3-0.6c0,0-0.1,0-0.2-0.1c-0.2-0.1-0.6-0.2-1-0.5c-0.3-0.1-0.6-0.3-1-0.5c-1.7-0.8-3.2-1.7-4.6-2.6
					c-0.1,0-0.1-0.1-0.2-0.1c-0.3-0.2-0.5-0.3-0.8-0.5c-0.3-0.2-0.6-0.5-0.9-0.7c-0.5-0.4-1.1-0.9-1.5-1.4c-0.2-0.3-0.5-0.5-0.7-0.8
					c-0.4-0.5-0.7-1-0.9-1.5v0c-0.6-1.3-0.7-2.8-0.1-4.4c0.3-0.2,0.6-0.3,1-0.4c0.2-0.1,0.5-0.2,0.7-0.3c0.2-0.1,0.4-0.2,0.6-0.3h0
					l0.1,0h0c0.2-0.1,0.3-0.1,0.5-0.2c0.3-0.1,0.6-0.2,0.8-0.3c0.2-0.1,0.4-0.2,0.6-0.2h0c0.5-0.2,0.9-0.4,1.4-0.5
					c1.5-0.5,3-1.1,4.5-1.6c-0.6,1.5-0.6,2.9-0.3,4.1h0c0.1,0.5,0.3,0.9,0.5,1.4c0.1,0.2,0.2,0.4,0.3,0.5v0c0.7,1.3,1.7,2.4,2.6,3.2
					h0c0.2,0.2,0.4,0.4,0.6,0.6c0.2,0.2,0.3,0.3,0.5,0.4c1.7,1.4,3.4,2.5,4.8,3.3h0c1.2,0.7,2.1,1.1,2.1,1.1c0.1,0,0.2,0,0.2,0
					c0.1,0,0.2,0,0.2-0.1c0.1,0,0.2-0.1,0.2-0.2c0.1-0.3,0-0.6-0.2-0.7c0,0-0.6-0.3-1.5-0.8c0,0,0,0,0,0c-1.3-0.7-3.3-2-5.2-3.5
					c-1.6-1.3-2.7-2.6-3.4-3.8c-0.1-0.2-0.2-0.4-0.3-0.6h0c-0.9-1.8-0.8-3.6,0.1-5.4c3.2-1,6.6-1.8,10.1-2.6
					c-1.3,3.3-0.1,6.7,3.6,10.3c3,2.9,6.6,4.8,6.7,4.9c0.1,0,0.2,0.1,0.2,0.1c0.2,0,0.3-0.1,0.4-0.3c0.1-0.2,0-0.5-0.2-0.7
					c0,0-3.6-1.9-6.5-4.7c-3.7-3.5-4.7-6.7-3.1-9.8c2.8-0.6,5.8-1.1,8.8-1.5c0.4-0.1,0.8-0.1,1.2-0.2c-1.2,3.1-0.1,6.4,3.4,9.9
					c2.9,3,6.4,5,6.6,5.1c0.1,0,0.2,0.1,0.3,0.1c0.2,0,0.3-0.1,0.4-0.3c0.1-0.2,0.1-0.5-0.2-0.7c0,0-3.5-2-6.4-4.9
					c-3.3-3.5-4.3-6.6-2.9-9.5c3.6-0.7,6.5-1.7,9-2.9c-0.3,2.2-0.1,4,0.6,5.6c0.8,1.9,2.3,3.7,4.3,4.8c1.7,1,3.9,1.7,6.2,1.9
					c0.5,0.1,1,0.1,1.4,0.1c0.3,0,0.6,0,0.9,0l0.9-0.1c0.3,0,0.5-0.3,0.5-0.5s-0.2-0.5-0.5-0.5l-0.9,0.1c-0.3,0-0.5,0-0.8,0
					c-0.4,0-0.8,0-1.3-0.1c-2.1-0.2-4.2-0.8-5.7-1.7c-1.8-1-3.2-2.6-3.9-4.3c-0.6-1.6-0.8-3.4-0.4-5.6v-0.1c2.1-1.1,3.7-2.2,5-3.3
					c0.6,1.9,1.6,3.4,3,4.5c1.6,1.3,3.7,2.1,6,2.3c0.3,0,0.6,0,0.9,0c1.7,0,3.6-0.3,5.3-0.9c0.9-0.3,1.6-0.6,2-0.8l0.7-0.3
					c0.3-0.1,0.4-0.4,0.3-0.6c-0.1-0.2-0.3-0.3-0.5-0.3c-0.1,0-0.1,0-0.2,0l-0.7,0.3c-0.4,0.2-1.1,0.5-1.9,0.8
					c-1.6,0.6-3.4,0.9-5,0.9c-0.3,0-0.6,0-0.9,0c-2.1-0.1-4-0.8-5.4-2c-1.3-1.1-2.3-2.6-2.8-4.5c1.8-1.7,2.7-3.1,2.9-3.4
					c0.3-0.5,0.5-1,0.8-1.6c1.2,1,2.6,1.7,4.1,2.1c0.6,0.2,1.3,0.2,2,0.2c1.4,0,2.9-0.3,4.4-0.9c2.3-1,4.2-2.5,5.2-3.3
					c1.3-1.1,2-2,2-2.1c0.2-0.2,0.1-0.5-0.1-0.7c-0.1-0.1-0.2-0.1-0.3-0.1c-0.2,0-0.3,0.1-0.4,0.2c0,0-0.7,0.9-1.9,1.9
					c-0.9,0.8-2.7,2.2-4.9,3.1c-1.3,0.6-2.7,0.8-4,0.8c-0.6,0-1.2-0.1-1.8-0.2c-1.5-0.3-2.8-1.1-3.9-2.1c0.9-2.6,1.2-5.4,1-8.2
					c1.2,0.6,2.5,1,3.8,1c0.2,0,0.4,0,0.6,0c2-0.1,4-0.9,6-2.3c0.8-0.6,1.5-1.2,2-1.8c0.6-0.6,1.2-1.3,1.6-1.8
					c0.3-0.3,0.5-0.6,0.6-0.9c0.5-0.7,0.6-0.9,0.8-1.4c0.1-0.3,0-0.5-0.2-0.7c-0.1,0-0.2-0.1-0.2-0.1c-0.2,0-0.3,0.1-0.4,0.3
					c-0.2,0.5-0.3,0.6-0.8,1.3c-0.1,0.2-0.3,0.4-0.5,0.7c-0.4,0.5-0.9,1.2-1.6,1.8c-0.6,0.6-1.2,1.2-2,1.7c-1.8,1.3-3.7,2-5.4,2.2
					c-0.2,0-0.3,0-0.5,0c-1.4,0-2.7-0.4-3.9-1.1v0c-0.4-4.4-1.7-8.7-3-12.2c3.5,1.9,6.7,3.2,9.6,3.7c1.1,0.2,2.1,0.3,3.1,0.3h0.4
					c1.5,0,2.9-0.3,4.2-0.8c0.4-0.2,0.9-0.3,1.3-0.6c0.8-0.4,1.5-0.9,2.1-1.4c1.4-1.1,2.4-2.5,3.2-4c0.4-0.8,0.8-1.5,1.1-2.3
					c0.5-1.3,0.9-2.6,1.2-3.7c0.4,1.8,0.9,3.9,1.3,6.2c0.2,1.3,0.4,2.6,0.6,3.9C423.6,282.8,423.8,285.5,423.8,288.4z"/>
				<path d="M403.8,280c0.4,0.1,0.8,0.2,1.2,0.3C404.6,280.2,404.2,280.1,403.8,280z M405.9,280.4c-0.3,0-0.6-0.1-0.9-0.2
					c0.1,0,0.2,0,0.3,0.1C405.5,280.4,405.7,280.4,405.9,280.4z M403.8,280c-0.5-0.1-1.1-0.3-1.6-0.5
					C402.7,279.7,403.3,279.9,403.8,280z"/>
			</g>
		</g>
		<g>
			<path d="M403.8,280c-0.2,0-0.4-0.1-0.6-0.2c0.4,0.1,0.8,0.2,1.2,0.3C404.2,280.1,404,280,403.8,280z"/>
		</g>
		<g>
			<g>
				<path d="M403.8,280c-0.2,0-0.4-0.1-0.6-0.2c0.4,0.1,0.8,0.2,1.2,0.3C404.2,280.1,404,280,403.8,280z"/>
				<path d="M404.4,280.1c-0.4-0.1-0.8-0.2-1.2-0.3 M403.8,280c-0.2,0-0.4-0.1-0.6-0.2c0.4,0.1,0.8,0.2,1.2,0.3
					C404.2,280.1,404,280,403.8,280z M403.8,280c-0.2,0-0.4-0.1-0.6-0.2c0.4,0.1,0.8,0.2,1.2,0.3C404.2,280.1,404,280,403.8,280z"/>
				<path d="M433.9,273.7c-0.4-16.4-14.7-23.2-14.9-23.3l-0.6-0.3l-0.1-0.6c-1-7.8-3.2-12.6-6.4-13.7c-0.5-0.2-1.1-0.3-1.6-0.3
					c-0.6,0-1.2,0.1-1.8,0.3c-0.4,0.1-0.8,0.3-1.1,0.4c-0.3,0.2-0.7,0.3-1,0.5c-1.5,0.8-2.4,1.8-2.5,1.8l-0.8,0.7l-0.8-0.7
					c-3.5-3-4.1-4.1-5.1-6.3c-0.5-1-1.1-2.3-2.2-4.2c-0.7-1.2-0.9-2.5-1-3.7c-0.1-0.8-0.2-1.7-0.5-2c-0.1,0-0.2-0.1-0.6-0.1
					c-0.3,0-0.7,0-1.2,0.2c-2.6,0.6-4.2,1.6-4.9,2.9c-1.3,2.4,0.2,6.7,2,12c0.7,2.1,1.6,4.4,2.3,6.9c0.1,0.4,0.2,0.8,0.4,1.2
					c0.4,1.5,0.9,2.8,1.5,4c1.5,3.5,3.3,5.7,4.7,7.5c1.7,2.2,3.1,4,2.5,6.4c-0.1,0.3-0.2,0.6-0.3,0.9l-0.5,1l-0.3,0.6v0l-0.1,0.2
					l-0.4-0.7l-0.2-0.3l-0.5-0.8c-0.7-1.2-1.7-2.1-2.8-2.8h0c0,0,0,0,0,0c-2.3-1.4-5.2-2.1-8.1-2.4c-1.2-0.2-2.4-0.3-3.5-0.3
					c-0.2,0-0.3,0-0.5,0c-1.4-0.1-2.6-0.2-3.7-0.4c-4.1-0.7-10.8-7.6-13.5-10.6c-1.1,3,0.4,8.9,24.7,25.4c0.6,0.4,1.1,0.8,1.7,1.2
					c0.1,0.1,0.2,0.1,0.3,0.2c0.5,0.3,1,0.6,1.4,0.9c3,1.9,5.7,3.2,8.2,4.1l0,0c0.3,0.1,0.7,0.2,1,0.3c0,0,0,0,0.1,0
					c0.2,0,0.4,0.1,0.6,0.2c0.2,0.1,0.4,0.1,0.6,0.2c0,0,0,0,0,0c0.2,0,0.4,0.1,0.6,0.1c0.1,0,0.2,0,0.3,0.1c0.1,0,0.3,0,0.4,0.1
					c0.2,0,0.4,0.1,0.5,0.1c0.6,0.1,1.2,0.1,1.8,0.1c1.4,0,2.6-0.2,3.7-0.6c0.1,0,0.3-0.1,0.4-0.2c0.2-0.1,0.4-0.2,0.6-0.3
					c0.2-0.1,0.4-0.2,0.6-0.3c0.2-0.1,0.3-0.2,0.5-0.3c0.2-0.1,0.4-0.3,0.5-0.4c1.4-1.1,2.4-2.5,3.1-4c0.4-0.8,0.7-1.6,1-2.4
					c1-2.9,1.2-5.5,1.2-5.6l0.1-1l0.4,0l0.6,0h0c0.1,0,0.3,0,0.5,0c0.3,0.1,0.7,0.2,1.2,0.4c1.6,0.7,3.9,2.5,5.5,7.2
					c2.6,7.6,6,12.7,10,15C435.5,285,434.1,280.2,433.9,273.7z M410.5,251.3l0.2-1.9c-4.3-1.2-3.5-6.2-6-8.3
					c0.4,0.2,0.8,0.3,1.2,0.3c0.7,0,1.5-0.2,2.3-0.2c1.1,0,2.1,0.3,2.8,1.6C412.8,246,410.5,251.3,410.5,251.3z"/>
			</g>
			<g>
				<path d="M398.4,265.1l0.2,0.3l0.4,0.7l0.1-0.2v0L398.4,265.1z M398.4,265.1l0.2,0.3l0.4,0.7l0.1-0.2v0L398.4,265.1z M403.8,280
					c-0.2,0-0.4-0.1-0.6-0.2c0.4,0.1,0.8,0.2,1.2,0.3C404.2,280.1,404,280,403.8,280z"/>
			</g>
		</g>
		<g>
			<path d="M323,247.7c-2.7,3-9.4,9.9-13.5,10.6c-1,0.2-2.2,0.3-3.6,0.4c0,0-0.1,0-0.1,0c-1.1,0.1-2.2,0.2-3.4,0.3
				c-2.6,0.3-5.2,0.8-7.5,1.9c-1.6,0.8-3.1,1.9-4,3.4l-0.7,1.1l-0.4,0.7l-0.4-0.8l-0.5-1c-0.1-0.2-0.1-0.3-0.2-0.5
				c-1-2.6,0.5-4.5,2.3-6.8c1.3-1.6,2.8-3.5,4.2-6.4c0.7-1.5,1.4-3.1,1.9-5.1c0-0.1,0.1-0.3,0.1-0.4c0.8-2.8,1.7-5.4,2.5-7.7
				c1.9-5.3,3.4-9.6,2.1-12c-0.7-1.3-2.3-2.3-4.9-2.9c-1.3-0.3-1.7-0.1-1.8,0c-0.3,0.2-0.4,1.1-0.5,2c-0.1,1.2-0.3,2.5-1,3.7
				c-1.2,1.9-1.8,3.2-2.2,4.2c-1.1,2.3-1.6,3.3-5.1,6.3l-0.8,0.7l-0.7-0.7c0,0-3.1-2.9-6.4-2.9c-0.5,0-1.1,0.1-1.6,0.3
				c-3.2,1.1-5.4,5.9-6.4,13.7l-0.1,0.6l-0.6,0.3c-0.1,0.1-14.5,6.8-14.9,23.3c-0.2,6.5-1.6,11.3-4.3,14.3c4-2.3,7.4-7.4,10-15
				c1.6-4.7,3.9-6.5,5.5-7.2c0.5-0.2,0.9-0.3,1.2-0.4c0.3-0.1,0.5-0.1,0.6-0.1l0.7,0l0.4,0l0.1,1c0,0.1,0.2,2.9,1.3,6
				c0.3,0.8,0.6,1.6,1.1,2.3c0.8,1.5,1.9,2.9,3.3,3.9c0.7,0.5,1.4,1,2.3,1.3h0c1.8,0.7,3.9,0.8,6.2,0.4c1.3-0.2,2.8-0.6,4.3-1.2
				c2.3-0.9,4.7-2.1,7.4-3.8c0.5-0.3,1-0.6,1.4-0.9c0.1-0.1,0.2-0.1,0.3-0.2c0.6-0.4,1.2-0.8,1.7-1.2
				C322.6,256.7,324.1,250.7,323,247.7z M279.8,249.1l0.3,1.9c0,0-2.3-5.2-0.6-8.5c1.6-3,4.6-0.8,6.3-1.8
				C283.3,242.8,284.2,247.8,279.8,249.1z"/>
		</g>
	</g>
</g>
</svg>
