<?xml version="1.0" encoding="utf-8"?>
<!-- Generator: Adobe Illustrator 24.0.3, SVG Export Plug-In . SVG Version: 6.00 Build 0)  -->
<svg version="1.1" id="Layer_1" xmlns="http://www.w3.org/2000/svg" xmlns:xlink="http://www.w3.org/1999/xlink" x="0px" y="0px"
	 viewBox="0 0 498 498" style="enable-background:new 0 0 498 498;" xml:space="preserve">
<style type="text/css">
	.st0{fill:none;}
	.st1{enable-background:new    ;}
	.st2{fill:#2B3233;}
	.st3{fill:#FFFFFF;}
	.st4{stroke:#FFFFFF;stroke-width:2.2753;stroke-miterlimit:10;}
	.st5{fill:#FFFFFF;stroke:#000000;stroke-width:2.2753;stroke-miterlimit:10;}
	.st6{fill:#FFFFFF;stroke:#000000;stroke-width:2.7303;stroke-miterlimit:10;}
	.st7{fill:none;stroke:#000000;stroke-width:2.7303;stroke-miterlimit:10;}
</style>
<rect x="14.4" y="351.6" class="st0" width="469.2" height="90.3"/>
<g class="st1">
	<path class="st2" d="M72.1,399.4c-1.3,16.7-11,26.9-25.7,26.9c-17.7,0-27.7-13.8-27.7-37.9c0-24.3,10-38,27.9-38
		c9.2,0,16.1,3.6,20.4,10.7c2.9,4.6,4.1,9.4,4.7,17.8L57,380.1c-0.4-6.4-0.9-8.9-2.3-11.5c-1.9-3.3-4.5-5-7.9-5c-7.8,0-11,7.6-11,26
		c0,16.7,3.2,23.5,11,23.5c5.8,0,9.2-4.6,10.4-14.8L72.1,399.4z"/>
	<path class="st2" d="M124,357.6c6,6.5,8.8,16.4,8.8,30.9c0,24.9-9.2,37.9-26.7,37.9s-26.7-12.9-26.7-37.6c0-25.5,9.1-38.2,27-38.2
		C113.5,350.5,119.8,353,124,357.6z M96.4,388.3c0,18.7,2.4,24.9,9.7,24.9s9.7-6.3,9.7-24.8c0-18.3-2.5-24.7-9.6-24.7
		C99,363.6,96.4,369.8,96.4,388.3z"/>
	<path class="st2" d="M161.4,351.6l18.8,45.7v-45.7h12.6v73.6h-14.5L156,371.9v53.3h-12.6v-73.6H161.4z"/>
	<path class="st2" d="M254.3,439.5c-2.9,0.8-4.5,1-6.8,1c-9.5,0-13.9-4.3-14.7-14.2c-1.3,0.1-2.3,0.1-3.1,0.1
		c-6.8,0-13.2-2.6-17.3-7.1c-6-6.5-8.8-16.4-8.8-30.9c0-24.9,9.2-37.9,26.7-37.9s26.7,12.9,26.7,37.6c0,14.7-2.8,24.4-8.8,31.1
		c-1.1,1.3-2.2,2.2-4.6,3.9c0.2,4.2,1.5,5.5,5.3,5.5c1.8,0,3.2-0.2,5.5-0.9V439.5z M220.5,388.3c0,18.7,2.4,24.9,9.7,24.9
		s9.7-6.3,9.7-24.8c0-18.3-2.5-24.7-9.6-24.7C223,363.6,220.5,369.8,220.5,388.3z"/>
	<path class="st2" d="M284.1,351.6v42c0,8.1,0.3,11.7,1.3,14c1.5,3.6,4.6,5.5,9.2,5.5c4.4,0,7.4-1.9,8.7-5.5c1-2.4,1.1-4.4,1.1-14
		v-42h13.6V393c0,16.2-1.1,21.4-5.6,26.3c-4.3,4.6-10.8,7.1-19.2,7.1c-9.3,0-16.3-2.6-20.2-7.5c-3.8-5-5-10.9-5-25.2v-42H284.1z"/>
	<path class="st2" d="M376.5,351.6v12.7H348v17h22.3V394H348v18.1h28.6v13.1h-44.7v-73.6H376.5z"/>
	<path class="st2" d="M417.9,372.8c-2-6.4-5.2-9.2-10.4-9.2c-4.5,0-7.7,2.8-7.7,6.7c0,4.2,2.1,5.8,12.7,9.8c7.2,2.8,9.8,4.1,13,6.7
		c4.7,3.9,7.3,9.3,7.3,15.9c0,14.1-10.5,23.5-26,23.5c-13.6,0-21.9-6.5-25.6-20.2l14.1-4c2.1,7.7,5.6,11,11.8,11
		c5.6,0,9.4-3.2,9.4-7.9c0-4.2-2.5-6.5-10.2-9.3c-9.3-3.3-11.7-4.5-15.3-7.5c-4.4-3.9-6.8-9.2-6.8-15.5c0-13.5,9.4-22.5,23.6-22.5
		c6.5,0,12.1,1.8,16.3,5.2c3.5,2.8,5.3,5.7,7.3,11.9L417.9,372.8z"/>
	<path class="st2" d="M482.8,351.6v13.8h-15v59.8h-16.2v-59.8h-14.7v-13.8H482.8z"/>
</g>
<g>
	<path class="st3" d="M179.9,87.4c0,0-2.8-6.4-0.7-10.3c2.1-3.9,6.2-0.5,8.1-2.5c-3.5,2.3-2.2,8.8-7.7,10.4"/>
	<g>
		<g>
			<g>
				<path class="st4" d="M324,223.8c10.8-16.7,20.6-34.1,29.3-52.1c0.4-46.8,2.6-84.9-13.4-101.6c-13-4.2-30.1,93.1-30.1,93.1
					l11.7,64.5"/>
				<path class="st4" d="M324,223.8c-1.9-28.6-2.9-62.9,0.3-89.2c6.7-54.9,15.6-64.5,15.6-64.5L318.8,63l-24.9-8.4
					c-0.4,2.8-0.8,5.6-1.3,8.4C279,153.5,268,237.3,263.7,304h0.3c0.7-0.9,1.4-1.8,2-2.8l34-43.6c7.5-9.7,14.7-19.6,21.4-29.8
					L324,223.8z"/>
				<path class="st4" d="M293.9,52.4c0,0-10.8,79.3-21,149c0,0,37.3-66.7,39.6-77.6l-11.9-18.2c0,0,22.9-3,23.3-6.9
					c0,0-12.9-33.5-16.9-40.7L293.9,52.4z"/>
			</g>
			<g>
				<path class="st4" d="M176.6,227.9l11.7-64.5c0,0-17.1-97.3-30.1-93.1c-16,16.7-13.8,54.8-13.4,101.6c8.7,18,18.5,35.4,29.3,52.1
					"/>
				<path class="st4" d="M176.6,227.9c6.7,10.2,13.9,20.1,21.4,29.8l34,43.6c0.6,1,1.3,2,2,2.8h0.3c-4.3-66.7-15.3-150.5-28.9-241
					c-0.4-2.8-0.8-5.6-1.3-8.4l-24.9,8.4l-21.1,7.1c0,0,8.9,9.6,15.6,64.5c3.2,26.3,2.2,60.6,0.3,89.2L176.6,227.9z"/>
				<path class="st4" d="M204.1,52.6c0,0,10.8,79.3,21,149c0,0-37.3-66.7-39.6-77.6l11.9-18.2c0,0-22.9-3-23.3-6.9
					c0,0,12.9-33.5,16.9-40.7L204.1,52.6z"/>
			</g>
		</g>
		<g>
			<path class="st5" d="M263.7,86.8c14.5-8.4,28.3-17.2,36.7-28.7c-1-6.1-4.6-10.9-9.9-14.7c-8.3,11.4-23.2,18.2-40.3,23.3
				C257.2,73.1,261.3,79.8,263.7,86.8z"/>
			<path class="st5" d="M234.3,86.8c-14.5-8.4-28.3-17.2-36.7-28.7c1-6.1,4.6-10.9,9.9-14.7c8.3,11.4,23.2,18.2,40.3,23.3
				C240.8,73.1,236.7,79.8,234.3,86.8z"/>
		</g>
		<g>
			<polygon class="st6" points="249,111.6 244.5,111.6 238.8,279.5 248.9,314.6 258.7,279.5 253.5,111.6 			"/>
			<line class="st7" x1="248.9" y1="95.1" x2="248.7" y2="314.6"/>
		</g>
		<path d="M256.6,74.8c0,3.1-1.8,5.7-4.4,6.9c2.3,8.7,2.7,18.4,2,28.8h6.3c5.5,0,9.9,4.4,9.9,9.9v1.3c0,1.6-1.6,2-2,0.5
			c-0.5-0.8-1-1.4-1.6-2c-1.8-1.7-4.2-2.7-6.8-2.7h-21.9c-3.4,0-6.6,1.8-8.4,4.7c-0.1,0.3-0.2,0.5-0.3,0.6c-0.6,0.7-1.7,0.1-1.7-1.1
			v-1.3c0-5.4,4.4-9.9,9.9-9.9h6.3c-0.7-10.9-0.5-21,2-28.8c-2.6-1.2-4.4-3.8-4.4-6.9c0-4.2,3.4-7.6,7.6-7.6
			C253.2,67.2,256.6,70.6,256.6,74.8z"/>
	</g>
</g>
</svg>
