<?xml version="1.0" encoding="utf-8"?>
<!-- Generator: Adobe Illustrator 24.0.3, SVG Export Plug-In . SVG Version: 6.00 Build 0)  -->
<svg version="1.1" id="Layer_1" xmlns="http://www.w3.org/2000/svg" xmlns:xlink="http://www.w3.org/1999/xlink" x="0px" y="0px"
	 viewBox="0 0 562.5 498.5" style="enable-background:new 0 0 562.5 498.5;" xml:space="preserve">
<style type="text/css">
	.st0{fill:#FFFFFF;}
</style>
<g>
	<g>
		<path class="st0" d="M455.2,428.6c3.6-1.7,7.1-1.2,10.6-0.5c1.3,0.3,2.6,0.6,3.9,0.9c6.4,1.5,12.8,1.5,19-0.9
			c12.9-5.1,12.8-20.1,6.2-26.8c-3.9-3.9-8.4-6.6-13.4-8.8c-4.9-2.2-10-4-14.2-7.5c-4.9-4.1-3.7-11.3,2.3-13.4c2-0.7,4.5-1,6.6-0.7
			c8.5,1.4,14.1,6.5,17.3,14.3c0.6,1.3,1.1,1.8,2.2,1.4c0-5.6,0-11,0-16.3c-3-0.4-5.8-0.5-8.6-1.1c-6.3-1.4-12.7-2.4-19.2-1.5
			c-12.5,1.7-16,10.1-13.9,20.1c1,4.5,4.5,7.4,8.3,9.7c3.5,2.1,7.2,3.7,10.8,5.4c4.5,2.1,9.1,4.1,13,7.5s4.3,12.4-3,14.5
			c-3.5,1-7.1,1.5-10.6,0.6c-9-2.1-14.9-8.1-18.6-16.4c-0.6-1.3-1.2-1.8-2.4-1.3C452.9,414.7,454,421.5,455.2,428.6z M507.8,368.9
			c-0.3,6.2-0.6,12.4-0.9,18.6c0.7,0,1.4,0,2.3,0c1-4.5,2.2-9,6.2-11.9c4-3,8.7-2.8,13.4-2.9c0,0.6,0,1,0,1.4c0,14.4,0,28.8,0,43.1
			c0,1.3-0.2,2.5-0.3,3.8c-0.3,2.5-1.7,4.1-4.1,4.7c-1.7,0.4-3.5,0.7-5.4,1c0,0.5,0,1.1,0,1.6c10.7,0,21.2,0,31.9,0c0-0.5,0-1,0-1.7
			c-0.6-0.1-1.2-0.1-1.8-0.2c-6.4-0.7-7.9-2.2-8-8.6c-0.1-14.7,0-29.5,0-44.2c0-0.3,0.1-0.6,0.2-1.1c2.5,0.2,5,0.3,7.4,0.7
			c3.8,0.6,7,2.4,8.9,5.9c1.2,2.2,2,4.6,2.7,7.1c0.4,1.4,1,1.7,2.3,1.3c-0.3-6.3-0.6-12.5-0.9-18.5
			C543.6,368.9,525.7,368.9,507.8,368.9z M295.5,396.5c-0.7-12.2-6.5-21-17.8-25.9c-8-3.4-16.4-3.9-24.9-2.6
			c-6.8,1.1-13.1,3.6-18.1,8.4c-7.8,7.5-9.8,16.9-8.5,27.3c1.2,9.9,6.3,17.3,15.2,22c6,3.2,12.5,4.3,19.2,4.4
			c1.7-0.1,3.4-0.1,5.1-0.3c7.9-0.8,15.1-3.2,21-8.8C293.7,414.3,296,405.9,295.5,396.5z M277.2,418.3c-7.3,11.1-25.4,11.2-32.9,0
			c-4.4-6.6-5.5-13.9-5.3-21.6c0.2-5.1,1.1-10.1,3.5-14.7c3.8-7.6,10-11.5,18.5-11.4c8.6,0.1,14.6,4.3,18.3,12
			c2.4,5.1,3.1,10.5,3.2,16.1C282.3,405.6,281.1,412.3,277.2,418.3z M142.1,393.3c-1.4-10.6-7.2-18.1-16.9-22.5
			c-5.4-2.4-11-3.4-16.9-3.5c-6.9-0.1-13.6,1-19.8,4.2c-12.1,6.2-16.8,17.9-15.6,30.7c1.2,12.4,7.8,20.8,19.4,25.2
			c4.9,1.9,10,2.6,15.3,2.6c1.6-0.1,3.3-0.1,4.9-0.2c8-0.8,15.4-3.2,21.3-8.9C141.6,413.2,143.5,403.7,142.1,393.3z M126,415.1
			c-3.8,7.7-10,11.7-18.7,11.5c-8.4-0.1-14.5-4.1-17.9-11.6c-4.9-11-4.9-22.2,0.2-33.1c3.6-7.6,10-11.3,18.4-11.2
			c8.5,0.1,14.5,4.3,18.2,11.9c2.5,5.1,3.2,10.6,3.3,16.2C129.3,404.4,128.5,409.9,126,415.1z M195.1,368.9v1.9
			c0.8,0.2,1.5,0.3,2.2,0.5c5.5,1.2,7.6,3.2,8.3,8.8c0.7,5.7,1,11.4,1.2,17.2c0.2,5,0,10,0,15.2c-0.3-0.2-0.4-0.3-0.5-0.4
			c-11.7-14.2-23.3-28.4-35-42.5c-0.4-0.5-1.4-0.8-2.1-0.8c-3.2,0-6.5,0.3-9.8,0.3c-3.6,0.1-7.1,0-10.8,0c-0.5,1.2,0.2,1.9,1.7,2.2
			c3.4,0.8,6.6,1.9,9.4,4.2c1.1,0.8,1.6,1.8,1.5,3.2c-0.2,6.6-0.2,13.2-0.3,19.8c-0.1,6.5-0.2,12.9-0.4,19.4c-0.2,4-2.1,6.2-6,7.2
			c-2,0.5-4,0.9-6.1,1.3v1.9h27.9v-2c-1.2-0.2-2.3-0.4-3.3-0.7c-6.2-1.4-7.9-3.4-8.2-9.8c0-0.4,0-0.7,0-1.1
			c0-10.9-0.1-21.9-0.1-32.8c0-0.4,0.1-0.8,0.2-1.5c0.4,0.3,0.6,0.5,0.7,0.6c13.5,15.1,26.8,30.5,38.3,47.3c0.3,0.5,0.8,1,1.3,1
			c1.5,0.1,3.1,0,4.8,0V427c0-13.5,0-26.9,0-40.4c0-2.9,0.2-5.8,0.6-8.7c0.5-4.1,2.4-5.9,6.4-6.8c1-0.2,2.1-0.3,3.2-0.5v-1.7H195.1z
			 M441.6,408c-2.7,3.2-5,6.6-7.9,9.3c-8.5,7.8-18.8,8.9-29.7,7c-1.5-0.3-1.8-1-1.8-2.3c0.1-7.7,0-15.4,0-23c0-0.6,0.1-1.3,0.1-2
			c1.8,0,3.5-0.1,5.1,0c7.9,0.5,11,3.1,13.6,10.7c0.2,0.6,1,1,1.5,1.4c0.2-0.2,0.3-0.3,0.5-0.5V383c-1.2-0.5-1.7,0.1-2.1,1.2
			c-0.6,1.6-1.2,3.2-2.2,4.5c-4.1,5.7-10.1,5.8-16.4,5.4v-21.5c4.9,0,9.7-0.3,14.5,0.1c7.8,0.5,12.9,4.7,15.7,12
			c0.2,0.5,0.4,1,0.6,1.5c0.7-0.1,1.2-0.2,1.4-0.3v-16.6h-53.9c0,0-0.1,0.5-0.1,0.9c0,0.3,0.1,0.7,0.1,1.2c0.7,0.1,1.5,0.1,2.2,0.2
			c4.5,0.5,6.4,2.4,6.9,6.9c0.1,1.3,0.2,2.5,0.2,3.8c0,11.2,0,22.4,0,33.5c0,1.6-0.1,3.1-0.3,4.7c-0.3,2.7-1.8,4.6-4.5,5.2
			c-1.5,0.3-2.9,0.6-4.5,0.8v2c0.4,0,0.7,0.1,1,0.1c6.7-0.1,13.3-0.3,19.9-0.3c10.4,0,20.9,0.2,31.3,0.4c1.4,0,2.3-0.1,2.8-1.8
			c0.6-2.3,1.5-4.6,2.4-6.8c1.5-3.7,3.2-7.3,4.8-11C442.4,408.5,441.9,408.2,441.6,408z M59.9,409.6c-0.9,1.2-1.8,2.4-2.7,3.5
			c-5.9,7.4-13.4,11.1-22.9,10.2c-7.7-0.7-13.9-4-17.4-11c-5.3-10.6-5-21.5,0.6-31.8c5-9.4,16.2-11.8,25.1-5.9
			c4.8,3.1,7.9,7.5,9.9,12.8c0.6,1.7,1.1,3.6,1.6,5.4h1.8c-0.3-7.4-0.5-14.7-0.8-22c-6-1-11.9-2.3-18-3c-9.5-1.1-18.4,0.8-26.1,6.9
			c-11.3,8.9-13.3,24.7-8.8,36.5c4.6,12,14,17.8,26.6,18.9c13.8,1.2,26.8-5.9,33.3-18.4C61.5,410.9,60.7,410.2,59.9,409.6z
			 M349,368.9v1.8c0.4,0.1,0.8,0.3,1.1,0.3c6.3,0.1,8.7,3.4,8.9,8.9c0.3,9.9,0.5,19.8,0.3,29.7c-0.2,6.6-3.6,11.5-9.9,13.8
			c-6.2,2.2-12.5,2.2-18.5-0.9c-4.1-2.1-6.6-5.7-6.6-10.3c-0.2-11.2-0.1-22.4,0-33.5c0.1-5.4,1.8-7,7.2-7.6c0.2,0,0.5-0.1,0.7,0
			c1.7,0.2,2.2-0.6,1.8-2.1h-31.7c-0.3,1.3-0.1,2,1.5,2.1c6.3,0.5,8.5,2.8,8.6,9.2c0.1,9.7,0.1,19.5,0,29.2
			c-0.1,7.9,3.6,13.5,10.5,17c8.2,4.2,17,4.6,25.7,2.2c7-2,11.7-6.7,13.6-13.8c0.8-2.7,1.1-5.6,1.2-8.4c0.2-8.6,0-17.3,0.1-25.9
			c0-1.5,0-2.9,0.2-4.3c0.4-2.9,1.7-4.3,4.6-4.9c1.2-0.2,2.4-0.4,3.7-0.6v-1.9H349z M298.2,432.4c-0.2,0.1-0.3,0.1-0.3,0.2
			c-0.3,0.3-0.6,0.6-0.9,0.9c-3.6,4.1-8,6.6-13.4,6.6c-3.3,0-6.8-0.3-10-1.2c-6.4-1.8-12.7-4.2-19-6.4c-3.9-1.4-8-2-12.1-1.6
			c-4.4,0.3-8.6,1.1-12.3,3.8c0.3,0.6,0.6,1.2,0.9,1.9c6.8-3.4,13.3-2.6,19.7,0.9c2.5,1.4,4.8,3,7.3,4.3c4.2,2.2,8.3,4.8,12.8,6.3
			c12.3,4.2,23.3-2.7,28.9-14.3C299.3,433.3,298.8,432.9,298.2,432.4z"/>
		<path d="M295.5,396.5c-0.7-12.2-6.5-21-17.8-25.9c-8-3.4-16.4-3.9-24.9-2.6c-6.8,1.1-13.1,3.6-18.1,8.4
			c-7.8,7.5-9.8,16.9-8.5,27.3c1.2,9.9,6.3,17.3,15.2,22c6,3.2,12.5,4.3,19.2,4.4c1.7-0.1,3.4-0.1,5.1-0.3c7.9-0.8,15.1-3.2,21-8.8
			C293.7,414.3,296,405.9,295.5,396.5z M277.2,418.3c-7.3,11.1-25.4,11.2-32.9,0c-4.4-6.6-5.5-13.9-5.3-21.6
			c0.2-5.1,1.1-10.1,3.5-14.7c3.8-7.6,10-11.5,18.5-11.4c8.6,0.1,14.6,4.3,18.3,12c2.4,5.1,3.1,10.5,3.2,16.1
			C282.3,405.6,281.1,412.3,277.2,418.3z"/>
		<path d="M142.1,393.3c-1.4-10.6-7.2-18.1-16.9-22.5c-5.4-2.4-11-3.4-16.9-3.5c-6.9-0.1-13.6,1-19.8,4.2
			c-12.1,6.2-16.8,17.9-15.6,30.7c1.2,12.4,7.8,20.8,19.4,25.2c4.9,1.9,10,2.6,15.3,2.6c1.6-0.1,3.3-0.1,4.9-0.2
			c8-0.8,15.4-3.2,21.3-8.9C141.6,413.2,143.5,403.7,142.1,393.3z M126,415.1c-3.8,7.7-10,11.7-18.7,11.5
			c-8.4-0.1-14.5-4.1-17.9-11.6c-4.9-11-4.9-22.2,0.2-33.1c3.6-7.6,10-11.3,18.4-11.2c8.5,0.1,14.5,4.3,18.2,11.9
			c2.5,5.1,3.2,10.6,3.3,16.2C129.3,404.4,128.5,409.9,126,415.1z"/>
		<path d="M206.8,412.4c0-5.2,0.2-10.2,0-15.2c-0.2-5.7-0.5-11.5-1.2-17.2c-0.6-5.6-2.8-7.6-8.3-8.8c-0.7-0.2-1.4-0.3-2.2-0.5
			c0-0.7,0-1.3,0-1.9c8.3,0,16.7,0,25.2,0c0,0.5,0,1.2,0,1.9c-1.1,0.2-2.2,0.3-3.2,0.5c-4,0.8-5.9,2.7-6.4,6.7
			c-0.4,2.9-0.5,5.8-0.6,8.7c-0.1,13.5,0,27,0,40.4c0,0.7,0,1.4,0,2.3c-1.7,0-3.3,0.1-4.8,0c-0.5,0-1-0.6-1.3-1
			c-11.4-16.8-24.7-32.2-38.3-47.3c-0.2-0.2-0.3-0.3-0.7-0.7c-0.1,0.6-0.2,1-0.2,1.5c0,10.9,0.1,21.9,0.1,32.8c0,0.4,0,0.7,0,1.1
			c0.3,6.4,1.9,8.4,8.2,9.8c1.1,0.2,2.1,0.4,3.3,0.7c0,0.7,0,1.3,0,2c-9.3,0-18.5,0-27.9,0c0-0.7,0-1.3,0-2c2.1-0.4,4.1-0.8,6.1-1.3
			c3.9-1,5.8-3.1,6-7.2c0.3-6.5,0.3-12.9,0.4-19.4c0.1-6.6,0.1-13.2,0.3-19.7c0-1.4-0.5-2.4-1.6-3.2c-2.8-2.2-6-3.4-9.4-4.2
			c-1.6-0.4-2.2-1-1.7-2.2c3.7,0,7.2,0.1,10.8,0c3.3-0.1,6.5-0.3,9.8-0.3c0.7,0,1.7,0.3,2.1,0.8c11.7,14.1,23.4,28.3,35,42.5
			C206.4,412.2,206.5,412.2,206.8,412.4z"/>
		<path d="M422.6,409c-0.5-0.5-1.3-0.8-1.5-1.4c-2.6-7.6-5.7-10.2-13.6-10.7c-1.6-0.1-3.2,0-5.1,0c-0.1,0.7-0.1,1.4-0.1,2
			c0,7.7,0,15.4,0,23c0,1.4,0.3,2.1,1.8,2.3c10.9,1.9,21.2,0.9,29.7-7c2.9-2.7,5.2-6.1,7.9-9.3c0.3,0.2,0.8,0.6,1.4,1
			c-1.6,3.7-3.3,7.3-4.8,11c-0.9,2.2-1.8,4.5-2.4,6.8c-0.4,1.7-1.4,1.8-2.8,1.7c-10.4-0.2-20.9-0.3-31.3-0.4
			c-6.6,0-13.3,0.2-19.9,0.3c-0.3,0-0.6-0.1-1-0.1c0-0.7,0-1.3,0-2c1.5-0.3,3-0.5,4.5-0.8c2.7-0.6,4.2-2.5,4.5-5.2
			c0.2-1.6,0.3-3.1,0.3-4.7c0-11.2,0-22.4,0-33.5c0-1.3-0.1-2.5-0.2-3.8c-0.5-4.5-2.4-6.4-6.9-6.9c-0.7-0.1-1.4-0.1-2.2-0.2
			c-0.1-0.5-0.1-0.9-0.1-1.2c0-0.4,0.1-0.8,0.1-0.9c9,0,18,0,26.9,0s17.8,0,27.1,0c0,5.1,0,10.7,0,16.6c-0.2,0-0.8,0.1-1.4,0.3
			c-0.2-0.6-0.5-1-0.6-1.5c-2.7-7.3-7.9-11.5-15.7-12c-4.8-0.3-9.6-0.1-14.5-0.1c0,7.1,0,14.2,0,21.5c6.3,0.4,12.3,0.3,16.4-5.4
			c1-1.3,1.6-3,2.2-4.5c0.4-1.1,0.8-1.7,2.1-1.2c0,8.5,0,17.1,0,25.6C422.9,408.6,422.8,408.8,422.6,409z"/>
		<path d="M455.2,428.6c-1.2-7.1-2.4-13.9-3.5-20.7c1.2-0.5,1.8,0,2.4,1.3c3.6,8.3,9.5,14.2,18.6,16.4c3.5,0.8,7.1,0.4,10.6-0.6
			c7.2-2.2,6.9-11.2,3-14.5s-8.4-5.3-13-7.5c-3.7-1.7-7.4-3.4-10.8-5.4c-3.8-2.3-7.3-5.1-8.3-9.7c-2.2-10,1.3-18.3,13.9-20.1
			c6.5-0.9,12.9,0.1,19.2,1.5c2.7,0.6,5.6,0.7,8.6,1.1c0,5.3,0,10.7,0,16.3c-1.1,0.4-1.6-0.1-2.2-1.4c-3.2-7.8-8.8-12.9-17.3-14.3
			c-2.1-0.3-4.5,0-6.6,0.7c-6,2.1-7.1,9.3-2.3,13.4c4.2,3.5,9.3,5.3,14.2,7.5s9.5,4.9,13.4,8.8c6.6,6.7,6.8,21.7-6.2,26.8
			c-6.3,2.5-12.6,2.4-19,0.9c-1.3-0.3-2.6-0.6-3.9-0.9C462.4,427.3,458.8,426.9,455.2,428.6z"/>
		<path d="M55.9,392.7c-0.6,0-1.2,0-1.8,0c-0.5-1.8-1-3.6-1.6-5.4c-2-5.3-5.2-9.7-9.9-12.8c-9-5.9-20.1-3.5-25.1,5.9
			c-5.5,10.3-5.9,21.2-0.6,31.8c3.5,7,9.8,10.3,17.4,11c9.5,0.9,17.1-2.8,22.9-10.2c0.9-1.1,1.8-2.3,2.7-3.5c0.8,0.7,1.6,1.4,2.3,2
			C55.7,424,42.7,431,28.9,429.9C16.3,428.8,7,423,2.3,411c-4.5-11.8-2.6-27.5,8.8-36.5c7.7-6.1,16.6-8,26.1-6.9c6,0.7,12,2,18,3
			C55.4,378,55.7,385.2,55.9,392.7z"/>
		<path d="M371.7,368.9c0,0.6,0,1.2,0,1.9c-1.3,0.2-2.5,0.3-3.7,0.6c-2.8,0.6-4.2,2-4.6,4.9c-0.2,1.4-0.2,2.9-0.2,4.3
			c0,8.6,0.1,17.3-0.1,25.9c0,2.8-0.4,5.7-1.2,8.4c-2,7-6.6,11.8-13.6,13.7c-8.8,2.4-17.5,2-25.7-2.2c-6.9-3.5-10.6-9.1-10.5-17
			c0.1-9.7,0.1-19.5,0-29.2c0-6.4-2.2-8.8-8.6-9.2c-1.6-0.1-1.8-0.8-1.5-2.1c10.6,0,21.1,0,31.7,0c0.4,1.5-0.1,2.3-1.8,2.1
			c-0.2,0-0.5,0-0.7,0c-5.4,0.6-7.1,2.2-7.2,7.6c-0.1,11.2-0.2,22.4,0,33.5c0.1,4.6,2.5,8.2,6.6,10.3c6,3.1,12.3,3.2,18.4,0.9
			c6.3-2.3,9.8-7.2,9.9-13.8c0.2-9.9,0.1-19.8-0.3-29.7c-0.2-5.5-2.6-8.9-8.9-8.9c-0.3,0-0.7-0.2-1.1-0.3c0-0.6,0-1.2,0-1.8
			C356.5,368.9,364,368.9,371.7,368.9z"/>
		<path d="M507.8,368.9c18,0,35.8,0,53.8,0c0.3,6,0.6,12.3,0.9,18.5c-1.3,0.5-1.9,0.2-2.3-1.3c-0.7-2.4-1.5-4.9-2.7-7.1
			c-1.9-3.5-5.1-5.3-8.9-5.9c-2.4-0.4-4.9-0.4-7.4-0.7c-0.1,0.5-0.2,0.8-0.2,1.1c0,14.7-0.1,29.5,0,44.2c0,6.4,1.6,7.9,8,8.6
			c0.6,0.1,1.2,0.1,1.8,0.2c0,0.6,0,1.1,0,1.7c-10.6,0-21.2,0-31.9,0c0-0.5,0-1,0-1.6c1.8-0.3,3.6-0.6,5.4-1
			c2.4-0.6,3.8-2.2,4.1-4.7c0.1-1.3,0.3-2.5,0.3-3.8c0-14.4,0-28.8,0-43.1c0-0.4,0-0.8,0-1.4c-4.8,0.1-9.5-0.1-13.4,2.9
			c-4,2.9-5.1,7.4-6.2,11.9c-0.8,0-1.5,0-2.3,0C507.2,381.2,507.5,375,507.8,368.9z"/>
		<path d="M298.2,432.4c0.5,0.4,1,0.9,1.5,1.3c-5.6,11.6-16.6,18.5-28.9,14.3c-4.5-1.5-8.6-4.1-12.8-6.3c-2.5-1.3-4.9-2.9-7.3-4.3
			c-6.3-3.5-12.9-4.3-19.7-0.9c-0.3-0.7-0.6-1.2-0.9-1.9c3.7-2.7,8-3.5,12.3-3.8c4.2-0.3,8.2,0.3,12.1,1.6c6.3,2.2,12.6,4.5,19,6.4
			c3.2,0.9,6.7,1.2,10,1.2c5.4,0,9.8-2.6,13.4-6.6c0.3-0.3,0.6-0.6,0.9-0.9C298,432.6,298,432.5,298.2,432.4z"/>
	</g>
	<g>
		<g>
			<g>
				<path d="M308.3,81.3l-0.8,0.9l1.9,1.8l0.8-0.9L308.3,81.3z"/>
				<path d="M254.2,81.3L254.2,81.3l0.8,0.9l0,0L254.2,81.3z M276,115.7l-2-2.2l0,0"/>
				<path d="M407.8,246.6l-5.3-3.9l-0.3-0.2l-35.6-26.2l-5.6-6.2c0.1-0.5,0.3-1.1,0.4-1.6c0.1-0.4,0.2-0.8,0.3-1.3l6.7,7.4l25,18.3
					l-30.8-32.7c0-0.7,0.1-1.4,0.1-2.2c0-0.5,0-0.9,0-1.4l32.7,34.8l-16.9-26.5l-16.1-16.4c-0.1-0.9-0.2-1.9-0.3-2.8
					c0-0.3-0.1-0.6-0.1-0.9l18.4,18.7l0.1,0.1l23.6,37.1l0.2,0.3L407.8,246.6z"/>
				<path d="M201.1,210.6l-5.2,5.8l-0.1,0.1l-35.4,26l0,0l-0.3,0.3l-5.3,3.9l3.5-5.5l0.2-0.3l23.8-37.3l17.6-17.9
					c0,0.3-0.1,0.7-0.1,1c-0.1,0.9-0.2,1.9-0.3,2.8L184,205.2l-16.8,26.4l32.1-34.2c0,0.5,0,0.9,0.1,1.4c0,0.7,0.1,1.4,0.2,2.1
					l-30.3,32.2l25-18.4l6.2-6.9c0.1,0.5,0.2,0.9,0.3,1.3C200.8,209.6,200.9,210.1,201.1,210.6z"/>
				<polygon points="158.2,241 158.4,240.8 158.2,241.1 				"/>
				<polygon points="160.3,242.5 160.1,242.8 160,242.7 				"/>
				<polygon points="310.2,83 309.4,83.9 307.5,82.2 308.3,81.3 				"/>
			</g>
			<g>
				<path d="M254.2,81.3l-1.9,1.8l0.8,0.9l1.9-1.8L254.2,81.3z"/>
				<path d="M334.1,166.3c0,0.1,0.1,0.1,0.1,0.2c-0.1-0.1-0.2-0.2-0.3-0.2v-0.1l-0.9-0.5c0,0-0.1-0.1-0.2-0.1l-0.6-0.4l0,0
					c-1.2-0.7-2.7-1.3-4.3-1.7l-43.1-45.9l-1.6-1.7l-1.9-2l-1.8-1.9l-1.9-2l-1.6-1.7l-22.9-24.4l1.9-1.8l22.8,24.2l1.6,1.7l1.9,2
					L334.1,166.3z"/>
				<polygon points="255,82.2 253.1,83.9 252.3,83 254.2,81.3 				"/>
				<polygon points="402.2,242.5 402.5,242.7 402.5,242.8 				"/>
				<polygon points="404.3,241 404.3,241.1 404.1,240.8 				"/>
			</g>
		</g>
		<g>
			<g>
				<path d="M281.3,118l-1.9-2.1l-1.7-1.9l-1.9-2.1l-1.6-1.8l-22.4-24.8l1.4-1.3l-0.8-0.9l1.9-1.8l0,0l0.8,0.9l1.3-1.3l23.2,23.6
					l1.7,1.7l1.9,1.9l1.8,1.8l1.9,1.9l1.7,1.7l37.4,38c-0.1-0.3-0.2-0.5-0.2-0.8c-0.4-1.5-0.9-2.9-1.4-4.3l-34.2-34.7l23.3-25.8
					l0.8-0.9l-8-7.5l-24.8,25.3l-24-24.4l-0.8-0.8l-8,7.5l0.8,0.9l23.3,25.8l-35.1,35.7c-0.5,1.3-1.5,4.7-1.6,5l38.2-38.9l0,0
					l1.9,2.2l0,0l-47.6,50.6c0,0.1-0.1,0.1-0.1,0.2c0.1-0.1,0.2-0.2,0.3-0.2v-0.1l0.9-0.5c0,0,0.1-0.1,0.2-0.1l0.6-0.4l0,0
					c1.2-0.7,2.7-1.3,4.3-1.7l43.1-45.9l1.9,2.2l0,0l-38.4,42.7c0.3,0,0.7-0.1,1.1-0.1h0.4c0.7-0.1,1.3-0.1,1.9-0.2l36.6-40.7
					l36.6,40.7c0.6,0.1,1.2,0.1,1.9,0.2h0.4c0.4,0,0.7,0,1.1,0.1L283,119.9L281.3,118z M306.2,80.9l1.4,1.3l0.8-0.9l1.9,1.8
					l-0.8,0.9l1.4,1.3l-22.4,24.9l-1.8-1.9L309.5,84l-1.9-1.8l-22.8,24.2l-1.8-1.9L306.2,80.9z"/>
				<polygon points="255,82.2 255,82.2 253.1,83.9 252.3,83 254.2,81.3 254.2,81.3 				"/>
			</g>
		</g>
		<path d="M338.5,62c-2,2.1-4.9,2.7-7.5,1.8c-4.1,7.4-10.1,14.3-17.3,20.9l4.3,4.1c3.7,3.6,3.8,9.4,0.3,13.1l-0.8,0.9
			c-1,1.1-2.4,0.3-1.7-0.9c0.2-0.8,0.3-1.6,0.2-2.5c-0.1-2.3-1.1-4.6-2.9-6.3l-14.9-14.2c-2.4-2.2-5.7-3.1-8.8-2.3
			c-0.2,0.1-0.4,0.2-0.6,0.2c-0.8,0-1.2-1-0.4-1.9l0.8-0.9c3.5-3.7,9.4-3.8,13.1-0.3l4.3,4.1c6.7-7.9,13.4-14.6,20.1-18.3
			c-1-2.5-0.5-5.5,1.5-7.5c2.7-2.9,7.3-2.9,10.1-0.2C341.2,54.6,341.3,59.1,338.5,62z"/>
		<path d="M224,62c2,2.1,4.9,2.7,7.5,1.8c4.1,7.4,10.1,14.3,17.3,20.9l-4.3,4.1c-3.7,3.6-3.8,9.4-0.3,13.1l0.8,0.9
			c1,1.1,2.4,0.3,1.7-0.9c-0.2-0.8-0.3-1.6-0.2-2.5c0.1-2.3,1.1-4.6,2.9-6.3l14.9-14.3c2.4-2.2,5.7-3.1,8.8-2.3
			c0.2,0.1,0.4,0.2,0.6,0.2c0.8,0,1.2-1,0.4-1.9l-0.8-0.9c-3.5-3.7-9.4-3.8-13.1-0.3l-4.3,4.1c-6.7-7.9-13.4-14.6-20.1-18.3
			c1-2.5,0.5-5.5-1.5-7.5c-2.7-2.9-7.3-2.9-10.1-0.2C221.3,54.6,221.2,59.1,224,62z"/>
		<path d="M248.1,281.9c-0.1-3.8,0.1-7.6,0.6-11.4c1.2,1.4,2.9,2.1,4.8,2.1h0.1c2.1,0,4.1-0.7,6.1-1.6c1.6-0.7,3.2-1.5,4.4-2.1
			l2.6-1.4c0.2-0.1,0.3-0.4,0.2-0.7c-0.1-0.2-0.4-0.3-0.7-0.2l-2.6,1.4c-1.2,0.6-2.7,1.4-4.3,2.1c-1.8,0.8-3.8,1.5-5.7,1.5l0,0
			c-1.9,0-3.4-0.8-4.5-2.3c1.1-3.4,2.7-6.6,4.5-9.6c0.7,0.6,1.6,1,2.6,1.2c0.8,0.2,1.6,0.2,2.4,0.2c1.3,0,2.7-0.2,4-0.4
			c0.9-0.2,1.9-0.4,2.9-0.6l4.7-1.1c0.3-0.1,0.4-0.3,0.4-0.6c-0.1-0.3-0.3-0.4-0.6-0.4l-4.7,1.1c-1,0.2-1.9,0.4-2.8,0.6
			c-2,0.3-4,0.6-5.9,0.2c-0.9-0.2-1.6-0.5-2.3-1.1c1.7-2.6,3.6-5,5.7-7l0,0c0.4-0.4,0.8-0.8,1.3-1.1c0.2-0.2,0.4-0.4,0.6-0.5
			c0.3,0.1,0.6,0.3,0.9,0.4c0.8,0.3,1.6,0.4,2.4,0.6l0,0c0.8,0.1,1.5,0.2,2.3,0.3l7.6,0.6l0,0c0.3,0,0.5-0.2,0.5-0.5
			s-0.2-0.5-0.5-0.5l-7.6-0.6c-0.1,0-0.2,0-0.3,0l0,0c-0.8-0.1-1.7-0.2-2.5-0.4c-0.8-0.2-1.5-0.3-2.2-0.6l0.1-0.1l0,0
			c3.2-2.4,6.7-3.9,10.2-4.2l0,0l0,0c0.7-0.1,1.4-0.1,2.2-0.1h0.1c0.6,0,1,0,1.5-0.2c0.2,0.1,0.3,0.1,0.5,0.2c0.7,0.3,1.4,0.5,2,0.7
			l0,0l0,0c0.3,0.1,0.6,0.2,0.8,0.3c0.3,0.1,0.6,0.2,0.8,0.3l0,0c0.9,0.3,1.5,0.4,1.5,0.4h0.1c0.2,0,0.4-0.1,0.5-0.4
			s-0.1-0.5-0.3-0.6l0,0c-0.1,0-0.8-0.2-1.7-0.5l0,0c-0.2-0.1-0.4-0.1-0.6-0.2c-0.7-0.2-1.4-0.5-2.2-0.7c-0.1,0-0.2-0.1-0.3-0.1
			c0.6-0.5,1-1.2,1.3-2.1c0.2-0.5,0.3-1.1,0.3-1.7c0.1-1,0.1-2,0.2-3v-1.4c0-0.4,0.1-0.9,0.1-1.3c0.2,0.2,0.3,0.5,0.5,0.7
			c0.2,0.3,0.4,0.5,0.7,0.7c0.5,0.5,1,0.9,1.5,1.4c0.3,0.2,0.6,0.5,0.9,0.7s0.6,0.4,0.9,0.6c0,0,0,0,0.1,0c1.4,0.9,3.1,1.8,4.9,2.7
			c0.2,0.1,0.3,0.1,0.4,0.2c0.4,0.2,0.8,0.4,1.1,0.5c0.5,0.2,0.8,0.3,0.8,0.3c0.1,0,0.1,0,0.2,0c0.2,0,0.4-0.1,0.5-0.3
			c0.1-0.3,0-0.5-0.3-0.6c0,0-0.1,0-0.2-0.1c-0.2-0.1-0.6-0.2-1-0.5c-0.3-0.1-0.6-0.3-1-0.5c-1.7-0.8-3.2-1.7-4.6-2.6
			c-0.1,0-0.1-0.1-0.2-0.1c-0.3-0.2-0.5-0.3-0.8-0.5s-0.6-0.5-0.9-0.7c-0.5-0.4-1.1-0.9-1.5-1.4c-0.2-0.3-0.5-0.5-0.7-0.8
			c-0.4-0.5-0.7-1-0.9-1.5l0,0c0.3-1.3,1-2.4,2.2-2.9c0.3-0.1,0.6-0.2,1-0.3c0.3-0.1,0.6-0.1,0.9-0.1l0,0h0.1c0.6,0,1.3,0,1.9,0
			c0.4,0,0.8,0,1.2,0.1c0.1,0,0.2,0,0.2,0c0.7,0,1.5,0.1,2.2,0.2c0.2,0,0.5,0.1,0.7,0.1c0.1,0.2,0.2,0.4,0.3,0.5l0,0
			c0.7,1.3,1.7,2.4,2.6,3.2l0,0c0.2,0.2,0.4,0.4,0.6,0.6s0.3,0.3,0.5,0.4c1.7,1.4,3.4,2.5,4.8,3.3l0,0c1.2,0.7,2.1,1.1,2.1,1.1
			c0.1,0,0.2,0,0.2,0c0.1,0,0.2,0,0.2-0.1c0.1,0,0.2-0.1,0.2-0.2c0.1-0.3,0-0.6-0.2-0.7c0,0-0.6-0.3-1.5-0.8l0,0
			c-1.3-0.7-3.3-2-5.2-3.5c-1.6-1.3-2.7-2.6-3.4-3.8c0.2,0,0.5,0.1,0.7,0.1c9.7,1.9,18.4,7.5,24.9,15.1c-0.7,0.2-1.3,0.3-1.9,0.5
			c-2.7,0.7-5.2,1.3-7.5,1.9c-0.4,0.1-0.8,0.2-1.1,0.3l0,0c-0.4,0.1-0.8,0.2-1.1,0.3c-11.7,3.2-17.6,5.8-21.9,11.9
			c-2.2,3.1-4.9,8.7-2.4,20.9c0.5,2.7-0.2,5.8-2.2,8.8c-2.7,4-7.1,7.1-11.3,7.9c-2,0.4-3.9,0.6-5.6,0.6c-3.4,0-6.4-0.7-8.7-2
			c3.3-0.2,5.8-2.9,7.3-4.4c1.5-1.6,2.7-3.2,3.6-4.2c0.9-1.2,1.5-1.9,1.5-1.9c0.2-0.2,0.1-0.5-0.1-0.7s-0.5-0.1-0.7,0.1
			c0,0-0.5,0.8-1.4,1.9c-0.8,1-2,2.6-3.5,4.2c-2.3,2.4-5,4.8-8.2,4l0,0c-1.4-1.2-2.4-2.8-2.8-4.6c-0.5-2.5-0.8-5.1-1-7.7
			c1.1,0.9,2.4,1.3,3.9,1.3c0.5,0,1,0,1.5-0.2c2.2-0.4,4.2-1.7,5.7-2.8c3.3-2.4,6.1-5,6.1-5c0.2-0.2,0.2-0.5,0-0.7s-0.5-0.2-0.7,0
			c0,0-2.8,2.5-6,4.9c-1.5,1-3.4,2.2-5.3,2.6C251.3,283.9,249.6,283.4,248.1,281.9z"/>
		<path d="M317.1,310.8c-5.9,6.1-13.3,10.5-21.4,12.7c1.9-1.4,3.8-3,5.5-4.7c7.3-7.3,11.7-15.5,14-23.8c0.1-0.1,0.2-0.3,0.1-0.4l0,0
			c1.3-4.7,1.8-9.4,1.8-14.1c0-0.4,0-0.8,0-1.3c-0.1-5.1-0.9-10.1-2.1-14.8c0-0.2,0-0.3-0.1-0.5c-0.8-2.8-1.7-5.6-2.8-8.1
			c-0.8-1.9-1.8-3.8-2.7-5.6c2.1-0.5,4.4-1.1,6.8-1.7c1-0.2,2-0.5,3-0.7C332.5,265.1,335.6,291.7,317.1,310.8z"/>
		<path d="M314.9,264.4c0-0.2-0.1-0.3-0.1-0.5C314.9,264,314.9,264.2,314.9,264.4z"/>
		<path d="M315.1,294.9c0-0.1,0.1-0.3,0.1-0.4C315.3,294.6,315.2,294.8,315.1,294.9z"/>
		<g>
			<path d="M299.5,274.3c-0.2,0.2-0.1,0.5,0.1,0.7c0,0,0.7,0.6,1.9,1.5l0.8,0.6c1,0.8,2.2,1.8,3.6,2.8c1.6,1.2,3.5,2.4,5.5,2.8
				c0.4,0.1,0.8,0.1,1.1,0.1c0.8,0,1.5-0.2,2.1-0.5c-0.1,2.2-0.2,4.1-0.2,4.1l-0.1,1.1c-0.3,2.6-0.9,5.2-1.6,7.8
				c-1.3,0.5-2.5,0.4-3.7-0.3c-1.6-0.8-2.9-2.4-4.2-4c-1.1-1.4-2-2.8-2.8-4l-0.4-0.6c-0.8-1.2-1.3-2-1.3-2c-0.2-0.2-0.5-0.3-0.7-0.2
				c-0.2,0.1-0.3,0.4-0.2,0.6c0,0,0.5,0.8,1.4,2.1l0.3,0.5c0.7,1.2,1.7,2.6,2.8,4.1c1.3,1.7,2.7,3.4,4.5,4.3
				c0.9,0.4,1.7,0.6,2.6,0.6c0.4,0,0.9-0.1,1.3-0.2L312,297c-0.9,2.7-2.1,5.4-3.5,8.1l-0.5,1c-0.4,0.7-0.8,1.3-1.2,2
				c-1.5,0.2-2.8-0.1-3.9-1.1c-1.4-1.3-2.4-3.3-3-5c-0.5-1.2-0.9-2.4-1.2-3.4c-0.2-0.7-0.4-1.3-0.6-1.8c-0.5-1.4-0.7-2.3-0.7-2.3
				c-0.1-0.3-0.3-0.4-0.6-0.3c-0.3,0.1-0.4,0.3-0.3,0.6c0,0,0.2,0.9,0.7,2.4c0.2,0.5,0.4,1.1,0.6,1.8c0.3,1.1,0.7,2.3,1.2,3.5
				c0.7,1.8,1.8,3.9,3.3,5.3c0.8,0.7,2.1,1.5,3.7,1.5h0.2c-1,1.4-2,2.8-3.1,4.1l-0.7,0.9c-0.8,1-1.8,2-2.7,2.9
				c-0.7,0.7-1.4,1.4-2.2,2c-3.5-0.5-4.5-3.8-5-7.4c-0.3-2.5-0.5-4.3-0.5-5.6l-0.1-2.5c0-0.3-0.2-0.5-0.5-0.5s-0.5,0.2-0.5,0.5
				l0.1,2.5c0,1.3,0.2,3.2,0.5,5.7c0.3,2.3,1,7,5.1,8.1c-0.1,0-0.1,0.1-0.2,0.2l-0.9,0.8c-1.8,1.4-3.6,2.6-5.5,3.8l0,0l0,0
				c-0.5,0.3-1,0.6-1.5,0.8l-1,0.5c-0.8,0.4-1.6,0.8-2.4,1.1c-2-1.5-2.2-4.5-2.1-7.6c0.1-1.4,0.3-2.7,0.5-3.9
				c0.1-0.6,0.2-1.1,0.2-1.6c0.2-1.5,0.5-2.4,0.5-2.4c0.1-0.3-0.1-0.5-0.4-0.6c-0.2,0-0.5,0.1-0.6,0.4c0,0-0.2,1-0.5,2.5
				c-0.1,0.5-0.2,1-0.2,1.6c-0.2,1.2-0.4,2.6-0.5,4c-0.2,2.9,0,6.2,2,8.1c-1.5,0.6-2.9,1.2-4.5,1.6l0,0c-0.1,0-1.2,0.4-1.2,0.4
				c-2.2,0.6-4.4,1.1-6.7,1.5c-0.4-1.7-0.1-3.8,0.4-5.7c0.5-1.9,1.1-3.6,1.7-5l0.1-0.3c0.5-1.4,0.9-2.4,0.9-2.4
				c0.1-0.2,0-0.5-0.2-0.6s-0.5,0-0.6,0.2c0,0-0.4,1-0.9,2.4l-0.1,0.2c-0.6,1.4-1.2,3.2-1.7,5.2c-0.3,1.3-0.9,3.8-0.4,6.1
				c-0.3,0-0.5,0.1-0.8,0.1l-1.2,0.1c-2.2,0.2-4.4,0.4-6.6,0.4c-0.7,0-1.3,0-2,0h-0.7c0.2-0.8,0.5-1.6,0.9-2.5
				c0.7-1.7,1.7-3.3,2.4-4.5l0.2-0.4c0.8-1.3,1.3-2.2,1.3-2.2c0.1-0.2,0.1-0.5-0.1-0.7s-0.5-0.1-0.7,0.1c0,0-0.6,0.9-1.4,2.2
				l-0.2,0.4c-0.8,1.3-1.7,2.9-2.5,4.7c-0.4,0.9-0.7,1.8-1,2.8c-2.6-0.2-5.2-0.6-7.6-1.2l-1-0.3c-0.3-0.1-0.6-0.2-0.8-0.3
				c0.2-0.3,0.5-0.6,0.7-0.9c0.6-0.8,1.1-1.5,1.6-2.1c1-1.2,1.6-1.9,1.6-1.9c0.2-0.2,0.2-0.5,0-0.7s-0.5-0.2-0.7,0
				c0,0-0.7,0.8-1.7,2c-0.5,0.6-1,1.4-1.6,2.1c-0.3,0.4-0.6,0.8-0.9,1.2c-1.8-0.6-3.6-1.3-5.2-2.1l-0.8-0.4c-2-1-3.8-2.2-5.6-3.5
				l-0.8-0.6c-10.2-8-16.3-21.1-16.3-36.9c0-11.9,5.6-25,14.2-33.3c2.4-2.3,5-4.2,7.6-5.5c1.7,0.4,3.3,0.8,4.8,1.2
				c2.6,0.6,5,1.2,7.1,1.8c-4.7,8.7-7.3,19-7.3,29.3c0,4,0.4,8,1.2,11.9c0.2,1.1,0.6,2.1,1.1,3c2.3,4.1,7.6,6.5,14.3,6.5
				c1.9,0,3.9-0.2,6-0.6c4.7-0.9,9.7-4.4,12.8-8.8c2.3-3.4,3.2-7.2,2.6-10.5c-2.3-11.3,0.1-16.3,2.1-19.1c3.7-5.3,8.6-7.7,20.1-10.9
				c0.1,1.1,0,2.1-0.4,2.9s-1,1.4-1.8,1.9c-0.7,0.4-1.5,0.7-2.6,1c-0.9,0.2-6.1,0.9-6.1,0.9c-0.3,0-0.5,0.3-0.4,0.5
				c0,0.2,0.2,0.4,0.5,0.4c0,0,2.1-0.2,3.1-0.4c1.2-0.2,2.2-0.3,3.1-0.6c1.2-0.3,2.1-0.6,2.9-1.1c1-0.6,1.7-1.3,2.1-2.3
				c0.5-1,0.7-2.2,0.5-3.6c0.1,0,0.1,0,0.2,0c1.1,1.9,2.1,3.9,3,6l0.2,0.5l0.4,1.1c1,2.5,1.9,5.2,2.5,7.9c-0.7,1-1.7,1.7-3.1,1.9
				c-1.7,0.2-3.5-0.2-5.4-0.7l-0.4-0.1c-1-0.3-2-0.6-2.8-0.8l-4.6-1.3c-0.3-0.1-0.5,0.1-0.6,0.3c-0.1,0.2,0.1,0.5,0.3,0.6l2.3,0.6
				l2.4,0.7c0.9,0.3,1.8,0.6,2.9,0.9l0.4,0.1c1.6,0.4,3.1,0.8,4.6,0.8c0.4,0,0.8,0,1.2-0.1c1-0.2,2.2-0.6,3.2-1.6l0.1,0.2
				c0.6,2.8,1,5.7,1.3,8.6l0.1,1.1c0,1,0,2.4,0,3.7c-1,0.5-2,0.7-3.1,0.5c-1.8-0.3-3.6-1.6-5.1-2.7c-1.4-0.9-2.6-1.9-3.5-2.7
				l-0.8-0.6c-1.2-0.9-1.9-1.4-1.9-1.5C299.9,274.1,299.6,274.1,299.5,274.3z"/>
			<path d="M292.5,230.7c-0.3-0.3-0.7-0.5-1-0.7c0.1,0.2,0.2,0.4,0.3,0.6c0.7,1.2,1.9,2.5,3.4,3.8c1.9,1.5,3.9,2.8,5.2,3.5
				C298,235.1,295.3,232.8,292.5,230.7z M257.7,231.1L257.7,231.1c-0.3,0.4-0.7,0.7-1.1,1.1c-0.1,0.1-0.2,0.1-0.2,0.2
				c0,0.2,0,0.5-0.1,0.7c-0.6,5.8-1.2,9.3-4.7,9.3h-0.2c-3.5-0.1-7.1,0.7-10.6,2.4c0.6,0.2,1.2,0.3,1.7,0.5c0.7,0.2,1.3,0.3,1.9,0.5
				c2.1-0.7,4.2-1.1,6.2-1.1c0.2,0,0.4,0,0.6,0c6.1,0.2,6.7-6,7.2-11.4c0.1-1.5,0.3-2.8,0.5-4C258.7,229.9,258.2,230.5,257.7,231.1z
				 M262.6,222.4L262.6,222.4c-0.7-0.1-1.3-0.3-2-0.4c-0.1,0-0.2,0.1-0.2,0.1c0.2,0.4,0.3,0.8,0.3,1.2c0.1,0.5,0.1,1,0.1,1.5
				c0.7-0.8,1.6-1.3,3-1.3c1,0,2.1,0,3.1,0.1C265.5,223.1,264.1,222.7,262.6,222.4z M259.5,222.7c-1.9,1.8-2.5,4.9-2.9,8.1
				c0.5-0.5,1-1.1,1.4-1.6c1.3-1.8,1.9-3.4,1.8-5.1C259.7,223.7,259.7,223.2,259.5,222.7z M301.9,239.5c-0.1,0-0.1,0.1-0.2,0.1
				s-0.2,0-0.2,0c-0.1,0-0.9-0.4-2.1-1.1l0,0c-1.3-0.8-3.1-1.9-4.8-3.3c-0.1-0.1-0.3-0.3-0.5-0.4c-0.2-0.2-0.4-0.3-0.6-0.6l0,0
				c-0.9-0.8-1.9-1.9-2.6-3.2l0,0c-0.1-0.2-0.2-0.3-0.3-0.5c-0.2-0.4-0.4-0.9-0.5-1.4l0,0c-1.4-0.9-2.8-1.8-4.3-2.5
				c-0.5,0.2-0.9,0.4-1.4,0.5l0,0c-0.2,0.1-0.4,0.2-0.6,0.2c-0.3,0.1-0.6,0.2-0.8,0.3c1.5,0.7,3.1,1.5,4.5,2.4
				c0.1,0,0.2,0.1,0.3,0.2c1.9,1.2,3.7,2.5,5.5,4l0,0c0.3,0.2,0.6,0.5,0.8,0.7c3.3,2.8,6.3,6.1,8.9,9.8c0.3,0.4,0.6,0.8,0.8,1.2
				c0.6,0.9,1.2,1.9,1.8,2.8c0.4-0.1,0.7-0.2,1.1-0.3l0,0c0.4-0.1,0.8-0.2,1.1-0.3C306.2,245,304.1,242.1,301.9,239.5z"/>
		</g>
		<g>
			<g>
				<g>
					<path d="M278.2,227.2c-1.3,0.6-2.6,1.3-3.8,1.9c-0.5,0.3-1,0.6-1.5,0.9c-0.7,0.4-1.3,0.8-2,1.2c1.1-1.7,1.7-3.9,0.8-6.4
						c0.5,0.2,1,0.3,1.5,0.5c0.7,0.2,1.3,0.5,2,0.7c0.5,0.2,1,0.3,1.5,0.5C277.1,226.8,277.7,227,278.2,227.2z"/>
				</g>
				<g>
					<path d="M267.8,233.4C267.8,233.4,267.7,233.4,267.8,233.4C267.7,233.4,267.7,233.4,267.8,233.4
						C267.7,233.5,267.7,233.5,267.8,233.4c-0.6,0.4-1.1,0.8-1.6,1.2c-4,3.1-7.3,6.6-10.1,10.5c-0.7,1-1.3,2-1.9,3
						c-2.3-0.6-4.8-1.2-7.7-1.9c-0.6-0.2-1.2-0.3-1.9-0.5c-0.6-0.2-1.3-0.3-1.9-0.5c-0.6-0.1-1.1-0.3-1.7-0.5
						c-11.1-3-24.8-8.2-32.6-22c-2.6-4.6-4.3-9.5-5.3-14.2c-0.2-1-0.4-2-0.6-2.9c-0.4-2.4-0.6-4.7-0.7-7c-0.1-1.2-0.1-2.5-0.1-3.7
						c0-2.9,0.2-5.6,0.5-8.2c0.1-1.4,0.3-2.7,0.5-3.9c0.4-2.6,0.9-4.9,1.4-6.9c0.3,1.2,0.7,2.7,1.3,4.1c0.3,0.7,0.7,1.5,1.1,2.2
						c0.8,1.4,1.9,2.8,3.4,3.9c0.7,0.5,1.4,1,2.2,1.4c0.3,0.2,0.6,0.3,0.9,0.4c1.4,0.5,3,0.8,4.6,0.8h0.1c1.1,0,2.3-0.2,3.6-0.5
						c2.7-0.6,5.7-1.8,8.9-3.6c-1.3,3.4-2.6,7.8-3,12.2l0,0c-1.2,0.8-2.6,1.1-3.9,1.1c-0.2,0-0.3,0-0.5,0c-1.8-0.1-3.7-0.9-5.4-2.2
						c-0.6-0.4-1.2-0.9-1.6-1.4c-0.6-0.6-1.2-1.2-1.6-1.8c-0.3-0.4-0.6-0.7-0.7-1c-0.4-0.7-0.5-0.9-0.8-1.3
						c-0.1-0.2-0.3-0.3-0.5-0.3c-0.1,0-0.2,0-0.2,0.1c-0.2,0.1-0.3,0.4-0.2,0.7c0.3,0.5,0.4,0.7,0.8,1.4c0.2,0.3,0.5,0.7,0.9,1.2
						s1,1.2,1.6,1.8c0.5,0.5,1.1,1,1.7,1.5c1.9,1.4,4,2.2,6,2.3c0.2,0,0.4,0,0.6,0c1.3,0,2.6-0.3,3.8-1c-0.2,2.8,0.1,5.6,1,8.2
						c-1.1,1-2.5,1.8-3.9,2.1c-0.6,0.1-1.2,0.2-1.8,0.2c-1.3,0-2.6-0.3-4-0.8c-2.2-0.9-4-2.4-4.9-3.1c-1.2-1.1-1.9-1.9-1.9-1.9
						c-0.1-0.1-0.2-0.2-0.4-0.2c-0.1,0-0.2,0-0.3,0.1c-0.2,0.2-0.2,0.5-0.1,0.7c0,0,0.8,0.9,2,2.1c0.9,0.8,2.8,2.4,5.2,3.3
						c1.5,0.6,2.9,0.9,4.4,0.9c0.7,0,1.4-0.1,2-0.2c1.5-0.4,2.9-1.1,4.1-2.1c0.2,0.5,0.5,1,0.8,1.5c0.2,0.3,1,1.7,2.9,3.4
						c-0.6,1.9-1.5,3.4-2.8,4.5c-1.4,1.2-3.3,1.9-5.4,2c-0.3,0-0.6,0-0.9,0c-1.6,0-3.4-0.3-5-0.9c-0.8-0.3-1.5-0.6-1.9-0.8l-0.7-0.3
						c-0.1,0-0.1,0-0.2,0c-0.2,0-0.4,0.1-0.5,0.3c-0.1,0.2,0,0.5,0.2,0.6l0.7,0.3c0.4,0.2,1.1,0.5,2,0.8c1.7,0.6,3.6,0.9,5.3,0.9
						c0.3,0,0.6,0,0.9,0c2.3-0.2,4.4-1,6-2.3c1.4-1.1,2.4-2.7,3-4.5c1.3,1.1,2.9,2.2,5,3.3v0.1c0.3,2.3,0.2,4.1-0.4,5.6
						c-0.7,1.7-2.1,3.3-3.9,4.3c-1.6,0.9-3.6,1.6-5.7,1.7c-0.5,0-0.9,0.1-1.3,0.1c-0.3,0-0.6,0-0.8,0l-0.9-0.1
						c-0.3,0-0.5,0.2-0.5,0.5s0.2,0.5,0.5,0.5l0.9,0.1c0.3,0,0.6,0,0.9,0c0.4,0,0.9,0,1.4-0.1c2.2-0.2,4.5-0.8,6.1-1.9
						c2-1.1,3.5-2.9,4.3-4.8c0.6-1.6,0.8-3.4,0.6-5.6c2.4,1.1,5.4,2.2,9,2.9c1.4,2.9,0.5,6-2.9,9.5c-2.8,2.9-6.3,4.9-6.4,4.9
						c-0.2,0.1-0.3,0.5-0.2,0.7c0.1,0.2,0.3,0.3,0.4,0.3s0.2,0,0.2-0.1c0.2-0.1,3.7-2.1,6.6-5.1c3.4-3.5,4.5-6.8,3.4-9.9
						c0.4,0.1,0.8,0.1,1.2,0.2c3.1,0.5,6,1,8.8,1.5c0.2,0.4,0.4,0.7,0.5,1.1c0.2,0.5,0.3,0.9,0.3,1.4c0.1,1.6-0.5,3.3-1.8,5.1
						c-0.4,0.5-0.8,1-1.4,1.6l0,0c-0.2,0.2-0.4,0.4-0.6,0.6c-2.9,2.8-6.5,4.7-6.5,4.7c-0.2,0.1-0.3,0.4-0.2,0.7
						c0.1,0.2,0.3,0.3,0.4,0.3s0.2,0,0.2-0.1c0.2-0.1,3.5-1.9,6.5-4.6c0.1-0.1,0.2-0.1,0.2-0.2c0.4-0.4,0.7-0.7,1.1-1.1l0,0
						c0.5-0.6,1-1.2,1.4-1.7c1.1-1.6,1.6-3.1,1.7-4.6l0,0c0-0.5,0-1-0.1-1.5c-0.1-0.4-0.2-0.8-0.3-1.2c0-0.1,0-0.1-0.1-0.2
						c0.1,0,0.2,0,0.3,0.1c0.7,0.2,1.4,0.3,2,0.4l0,0c1.5,0.3,2.9,0.7,4.3,1.1c0.7,0.2,1.4,0.4,2,0.6c0.1,0,0.3,0.1,0.4,0.1
						c0.4,0.1,0.7,0.2,1.1,0.3C271.9,227.5,271,230.3,267.8,233.4z"/>
				</g>
			</g>
		</g>
		<g>
			<g>
				<path d="M360.4,194.3c0,1.2,0,2.4,0,3.7c-0.1,2.3-0.3,4.7-0.7,7.1c-0.2,1-0.3,2-0.5,3c-1,4.9-2.7,9.9-5.4,14.8
					c-8.6,15.4-24.7,20.1-36.2,23c-0.7,0.2-1.3,0.3-1.9,0.5c-2.7,0.7-5.2,1.3-7.5,1.9c-0.4,0.1-0.8,0.2-1.1,0.3l0,0
					c-0.4,0.1-0.8,0.2-1.1,0.3c-11.7,3.2-17.6,5.8-21.9,11.9c-2.2,3.1-4.9,8.7-2.4,20.9c0.5,2.7-0.2,5.8-2.2,8.8
					c-2.7,4-7.1,7.1-11.3,7.9c-2,0.4-3.9,0.6-5.6,0.6c-3.4,0-6.4-0.7-8.7-2c3.3-0.2,5.8-2.9,7.3-4.4c1.5-1.6,2.7-3.2,3.6-4.2
					c0.9-1.2,1.5-1.9,1.5-1.9c0.2-0.2,0.1-0.5-0.1-0.7c-0.1-0.1-0.2-0.1-0.3-0.1c-0.2,0-0.3,0.1-0.4,0.2c0,0-0.5,0.8-1.4,1.9
					c-0.8,1-2,2.6-3.5,4.2c-0.4,0.4-0.8,0.8-1.1,1.1c-0.2,0.2-0.4,0.4-0.6,0.6c-1.5,1.4-3.2,2.4-5.1,2.4c-0.4,0-0.9,0-1.3-0.2l0,0
					c-1.4-1.2-2.4-2.8-2.8-4.6c-0.5-2.5-0.8-5.1-1-7.7c1.1,0.9,2.4,1.3,3.9,1.3c0.5,0,1,0,1.5-0.2c2.2-0.4,4.2-1.7,5.7-2.8
					c3.3-2.4,6.1-5,6.1-5c0.2-0.2,0.2-0.5,0-0.7c-0.1-0.1-0.2-0.2-0.4-0.2c-0.1,0-0.2,0-0.3,0.1c0,0-2.8,2.5-6,4.9
					c-1.5,1-3.4,2.2-5.3,2.6c-0.4,0.1-0.8,0.1-1.2,0.1c-1.5,0-2.8-0.6-3.9-1.7c-0.1-3.8,0.1-7.6,0.6-11.4c1.2,1.4,2.9,2.1,4.8,2.1
					h0.1c2.1,0,4.1-0.7,6.1-1.6c1.6-0.7,3.2-1.5,4.4-2.1l2.6-1.4c0.2-0.1,0.3-0.4,0.2-0.7c-0.1-0.2-0.3-0.3-0.4-0.3s-0.2,0-0.3,0.1
					l-2.6,1.4c-1.2,0.6-2.7,1.4-4.3,2.1c-1.8,0.8-3.8,1.5-5.7,1.5h-0.7c-1.9,0-3.4-0.8-4.5-2.3c0,0.1-0.1,0.2-0.1,0.3
					c0-0.1,0-0.3,0.1-0.4l0,0c0.7-3.9,1.7-7.6,3-11.2c0.4,0.7,0.9,1.3,1.5,1.7c0.7,0.6,1.6,1,2.6,1.2c0.8,0.2,1.6,0.2,2.4,0.2
					c1.3,0,2.7-0.2,4-0.4c0.9-0.2,1.9-0.4,2.9-0.6l4.7-1.1c0.3-0.1,0.4-0.3,0.4-0.6c-0.1-0.2-0.3-0.4-0.5-0.4H270l-4.7,1.1
					c-1,0.2-1.9,0.4-2.8,0.6c-1.2,0.2-2.5,0.4-3.8,0.4c-0.7,0-1.5-0.1-2.2-0.2c-0.9-0.2-1.6-0.5-2.3-1.1c-0.7-0.5-1.2-1.2-1.6-2.1
					c0.8-2.1,1.8-4.1,2.8-5.9c0.2-0.3,0.4-0.7,0.6-1s0.4-0.7,0.6-1c0.5-0.8,1-1.6,1.5-2.3c0-0.1,0.1-0.1,0.2-0.2
					c0.4,1.4,1.3,2.5,2.6,3.4l0,0c0.2,0.2,0.4,0.3,0.6,0.4c0.1,0.1,0.3,0.1,0.4,0.2c0.3,0.1,0.6,0.3,0.9,0.4
					c0.8,0.3,1.6,0.4,2.4,0.6l0,0c0.8,0.1,1.5,0.2,2.3,0.3l7.6,0.6l0,0c0.3,0,0.5-0.2,0.5-0.5s-0.2-0.5-0.5-0.5l-7.6-0.6
					c-0.1,0-0.2,0-0.3,0l0,0l0,0c-0.8-0.1-1.7-0.2-2.5-0.4c-0.8-0.2-1.5-0.3-2.2-0.6h-0.1c-0.3-0.1-0.5-0.2-0.7-0.3
					c-1.7-0.9-2.6-2.2-2.9-3.9c2.4-3.2,5.3-6.2,8.7-8.8c0,1.8,0.6,3.3,1.9,4.6c0.2,0.2,0.5,0.5,0.8,0.7s0.6,0.5,0.9,0.7
					c1.1,0.8,2.3,1.3,3.4,1.8l0,0c0.1,0,0.2,0.1,0.3,0.1c0.3,0.1,0.6,0.3,1,0.4c0.3,0.1,0.5,0.2,0.8,0.3c0.2,0.1,0.3,0.1,0.5,0.2
					c0.7,0.3,1.4,0.5,2,0.7l0,0l0,0c0.3,0.1,0.6,0.2,0.8,0.3c0.3,0.1,0.6,0.2,0.8,0.3l0,0c0.9,0.3,1.5,0.4,1.5,0.4h0.1
					c0.2,0,0.4-0.1,0.5-0.4s-0.1-0.5-0.3-0.6l0,0c-0.1,0-0.8-0.2-1.7-0.5l0,0c-0.2-0.1-0.4-0.1-0.6-0.2c-0.7-0.2-1.4-0.5-2.2-0.7
					c-0.1,0-0.2-0.1-0.3-0.1l0,0c-0.3-0.1-0.7-0.2-1-0.4c-0.4-0.2-0.8-0.3-1.3-0.5c-0.1,0-0.2-0.1-0.3-0.1c-0.9-0.4-2-0.8-3-1.5
					c-0.3-0.2-0.7-0.4-1-0.6c-0.4-0.3-0.8-0.6-1.1-0.9c-1.3-1.4-1.8-2.9-1.5-4.8c3-2.3,6.4-4.3,10.1-6.1c-0.5,2.1,0,3.9,1,5.4l0,0
					c0.2,0.2,0.3,0.5,0.5,0.7c0.2,0.3,0.4,0.5,0.7,0.7c0.5,0.5,1,0.9,1.5,1.4c0.3,0.2,0.6,0.5,0.9,0.7s0.6,0.4,0.9,0.6
					c0,0,0,0,0.1,0c1.4,0.9,3.1,1.8,4.9,2.7c0.2,0.1,0.3,0.1,0.4,0.2c0.4,0.2,0.8,0.4,1.1,0.5c0.5,0.2,0.8,0.3,0.8,0.3
					c0.1,0,0.1,0,0.2,0c0.2,0,0.4-0.1,0.5-0.3c0.1-0.3,0-0.5-0.3-0.6c0,0-0.1,0-0.2-0.1c-0.2-0.1-0.6-0.2-1-0.5
					c-0.3-0.1-0.6-0.3-1-0.5c-1.7-0.8-3.2-1.7-4.6-2.6c-0.1,0-0.1-0.1-0.2-0.1c-0.3-0.2-0.5-0.3-0.8-0.5s-0.6-0.5-0.9-0.7
					c-0.5-0.4-1.1-0.9-1.5-1.4c-0.2-0.3-0.5-0.5-0.7-0.8c-0.4-0.5-0.7-1-0.9-1.5l0,0c-0.6-1.3-0.7-2.8-0.1-4.4
					c0.3-0.2,0.6-0.3,1-0.4c0.2-0.1,0.5-0.2,0.7-0.3c0.2-0.1,0.4-0.2,0.6-0.3l0,0h0.1l0,0c0.2-0.1,0.3-0.1,0.5-0.2
					c0.3-0.1,0.6-0.2,0.8-0.3c0.2-0.1,0.4-0.2,0.6-0.2l0,0c0.5-0.2,0.9-0.4,1.4-0.5c1.5-0.5,3-1.1,4.5-1.6c-0.6,1.5-0.6,2.9-0.3,4.1
					l0,0c0.1,0.5,0.3,0.9,0.5,1.4c0.1,0.2,0.2,0.4,0.3,0.5l0,0c0.7,1.3,1.7,2.4,2.6,3.2l0,0c0.2,0.2,0.4,0.4,0.6,0.6
					s0.3,0.3,0.5,0.4c1.7,1.4,3.4,2.5,4.8,3.3l0,0c1.2,0.7,2.1,1.1,2.1,1.1c0.1,0,0.2,0,0.2,0c0.1,0,0.2,0,0.2-0.1
					c0.1,0,0.2-0.1,0.2-0.2c0.1-0.3,0-0.6-0.2-0.7c0,0-0.6-0.3-1.5-0.8l0,0c-1.3-0.7-3.3-2-5.2-3.5c-1.6-1.3-2.7-2.6-3.4-3.8
					c-0.1-0.2-0.2-0.4-0.3-0.6l0,0c-0.9-1.8-0.8-3.6,0.1-5.4c3.2-1,6.6-1.8,10.1-2.6c-1.3,3.3-0.1,6.7,3.6,10.3
					c3,2.9,6.6,4.8,6.7,4.9c0.1,0,0.2,0.1,0.2,0.1c0.2,0,0.3-0.1,0.4-0.3c0.1-0.2,0-0.5-0.2-0.7c0,0-3.6-1.9-6.5-4.7
					c-3.7-3.5-4.7-6.7-3.1-9.8c2.8-0.6,5.8-1.1,8.8-1.5c0.4-0.1,0.8-0.1,1.2-0.2c-1.2,3.1-0.1,6.4,3.4,9.9c2.9,3,6.4,5,6.6,5.1
					c0.1,0,0.2,0.1,0.3,0.1c0.2,0,0.3-0.1,0.4-0.3c0.1-0.2,0.1-0.5-0.2-0.7c0,0-3.5-2-6.4-4.9c-3.3-3.5-4.3-6.6-2.9-9.5
					c3.6-0.7,6.5-1.7,9-2.9c-0.3,2.2-0.1,4,0.6,5.6c0.8,1.9,2.3,3.7,4.3,4.8c1.7,1,3.9,1.7,6.2,1.9c0.5,0.1,1,0.1,1.4,0.1
					c0.3,0,0.6,0,0.9,0l0.9-0.1c0.3,0,0.5-0.3,0.5-0.5s-0.2-0.5-0.5-0.5l-0.9,0.1c-0.3,0-0.5,0-0.8,0c-0.4,0-0.8,0-1.3-0.1
					c-2.1-0.2-4.2-0.8-5.7-1.7c-1.8-1-3.2-2.6-3.9-4.3c-0.6-1.6-0.8-3.4-0.4-5.6v-0.1c2.1-1.1,3.7-2.2,5-3.3c0.6,1.9,1.6,3.4,3,4.5
					c1.6,1.3,3.7,2.1,6,2.3c0.3,0,0.6,0,0.9,0c1.7,0,3.6-0.3,5.3-0.9c0.9-0.3,1.6-0.6,2-0.8l0.7-0.3c0.3-0.1,0.4-0.4,0.3-0.6
					s-0.3-0.3-0.5-0.3c-0.1,0-0.1,0-0.2,0l-0.7,0.3c-0.4,0.2-1.1,0.5-1.9,0.8c-1.6,0.6-3.4,0.9-5,0.9c-0.3,0-0.6,0-0.9,0
					c-2.1-0.1-4-0.8-5.4-2c-1.3-1.1-2.3-2.6-2.8-4.5c1.8-1.7,2.7-3.1,2.9-3.4c0.3-0.5,0.5-1,0.8-1.6c1.2,1,2.6,1.7,4.1,2.1
					c0.6,0.2,1.3,0.2,2,0.2c1.4,0,2.9-0.3,4.4-0.9c2.3-1,4.2-2.5,5.2-3.3c1.3-1.1,2-2,2-2.1c0.2-0.2,0.1-0.5-0.1-0.7
					c-0.1-0.1-0.2-0.1-0.3-0.1c-0.2,0-0.3,0.1-0.4,0.2c0,0-0.7,0.9-1.9,1.9c-0.9,0.8-2.7,2.2-4.9,3.1c-1.3,0.6-2.7,0.8-4,0.8
					c-0.6,0-1.2-0.1-1.8-0.2c-1.5-0.3-2.8-1.1-3.9-2.1c0.9-2.6,1.2-5.4,1-8.2c1.2,0.6,2.5,1,3.8,1c0.2,0,0.4,0,0.6,0
					c2-0.1,4-0.9,6-2.3c0.8-0.6,1.5-1.2,2-1.8c0.6-0.6,1.2-1.3,1.6-1.8c0.3-0.3,0.5-0.6,0.6-0.9c0.5-0.7,0.6-0.9,0.8-1.4
					c0.1-0.3,0-0.5-0.2-0.7c-0.1,0-0.2-0.1-0.2-0.1c-0.2,0-0.3,0.1-0.4,0.3c-0.2,0.5-0.3,0.6-0.8,1.3c-0.1,0.2-0.3,0.4-0.5,0.7
					c-0.4,0.5-0.9,1.2-1.6,1.8c-0.6,0.6-1.2,1.2-2,1.7c-1.8,1.3-3.7,2-5.4,2.2c-0.2,0-0.3,0-0.5,0c-1.4,0-2.7-0.4-3.9-1.1l0,0
					c-0.4-4.4-1.7-8.7-3-12.2c3.5,1.9,6.7,3.2,9.6,3.7c1.1,0.2,2.1,0.3,3.1,0.3h0.4c1.5,0,2.9-0.3,4.2-0.8c0.4-0.2,0.9-0.3,1.3-0.6
					c0.8-0.4,1.5-0.9,2.1-1.4c1.4-1.1,2.4-2.5,3.2-4c0.4-0.8,0.8-1.5,1.1-2.3c0.5-1.3,0.9-2.6,1.2-3.7c0.4,1.8,0.9,3.9,1.3,6.2
					c0.2,1.3,0.4,2.6,0.6,3.9C360.2,188.7,360.4,191.4,360.4,194.3z"/>
				<path d="M340.4,185.9c0.4,0.1,0.8,0.2,1.2,0.3C341.2,186.1,340.8,186,340.4,185.9z M342.5,186.3c-0.3,0-0.6-0.1-0.9-0.2
					c0.1,0,0.2,0,0.3,0.1C342.1,186.3,342.3,186.3,342.5,186.3z M340.4,185.9c-0.5-0.1-1.1-0.3-1.6-0.5
					C339.3,185.6,339.9,185.8,340.4,185.9z"/>
			</g>
		</g>
		<g>
			<path d="M340.4,185.9c-0.2,0-0.4-0.1-0.6-0.2c0.4,0.1,0.8,0.2,1.2,0.3C340.8,186,340.6,185.9,340.4,185.9z"/>
		</g>
		<g>
			<g>
				<path d="M340.4,185.9c-0.2,0-0.4-0.1-0.6-0.2c0.4,0.1,0.8,0.2,1.2,0.3C340.8,186,340.6,185.9,340.4,185.9z"/>
				<path d="M341,186c-0.4-0.1-0.8-0.2-1.2-0.3 M340.4,185.9c-0.2,0-0.4-0.1-0.6-0.2c0.4,0.1,0.8,0.2,1.2,0.3
					C340.8,186,340.6,185.9,340.4,185.9z M340.4,185.9c-0.2,0-0.4-0.1-0.6-0.2c0.4,0.1,0.8,0.2,1.2,0.3
					C340.8,186,340.6,185.9,340.4,185.9z"/>
				<path d="M370.5,179.6c-0.4-16.4-14.7-23.2-14.9-23.3L355,156l-0.1-0.6c-1-7.8-3.2-12.6-6.4-13.7c-0.5-0.2-1.1-0.3-1.6-0.3
					c-0.6,0-1.2,0.1-1.8,0.3c-0.4,0.1-0.8,0.3-1.1,0.4c-0.3,0.2-0.7,0.3-1,0.5c-1.5,0.8-2.4,1.8-2.5,1.8l-0.8,0.7l-0.8-0.7
					c-3.5-3-4.1-4.1-5.1-6.3c-0.5-1-1.1-2.3-2.2-4.2c-0.7-1.2-0.9-2.5-1-3.7c-0.1-0.8-0.2-1.7-0.5-2c-0.1,0-0.2-0.1-0.6-0.1
					c-0.3,0-0.7,0-1.2,0.2c-2.6,0.6-4.2,1.6-4.9,2.9c-1.3,2.4,0.2,6.7,2,12c0.7,2.1,1.6,4.4,2.3,6.9c0.1,0.4,0.2,0.8,0.4,1.2
					c0.4,1.5,0.9,2.8,1.5,4c1.5,3.5,3.3,5.7,4.7,7.5c1.7,2.2,3.1,4,2.5,6.4c-0.1,0.3-0.2,0.6-0.3,0.9l-0.5,1l-0.3,0.6l0,0l-0.1,0.2
					l-0.4-0.7l-0.2-0.3l-0.5-0.8c-0.7-1.2-1.7-2.1-2.8-2.8l0,0l0,0c-2.3-1.4-5.2-2.1-8.1-2.4c-1.2-0.2-2.4-0.3-3.5-0.3
					c-0.2,0-0.3,0-0.5,0c-1.4-0.1-2.6-0.2-3.7-0.4c-4.1-0.7-10.8-7.6-13.5-10.6c-1.1,3,0.4,8.9,24.7,25.4c0.6,0.4,1.1,0.8,1.7,1.2
					c0.1,0.1,0.2,0.1,0.3,0.2c0.5,0.3,1,0.6,1.4,0.9c3,1.9,5.7,3.2,8.2,4.1l0,0c0.3,0.1,0.7,0.2,1,0.3c0,0,0,0,0.1,0
					c0.2,0,0.4,0.1,0.6,0.2s0.4,0.1,0.6,0.2l0,0c0.2,0,0.4,0.1,0.6,0.1c0.1,0,0.2,0,0.3,0.1c0.1,0,0.3,0,0.4,0.1
					c0.2,0,0.4,0.1,0.5,0.1c0.6,0.1,1.2,0.1,1.8,0.1c1.4,0,2.6-0.2,3.7-0.6c0.1,0,0.3-0.1,0.4-0.2c0.2-0.1,0.4-0.2,0.6-0.3
					c0.2-0.1,0.4-0.2,0.6-0.3c0.2-0.1,0.3-0.2,0.5-0.3c0.2-0.1,0.4-0.3,0.5-0.4c1.4-1.1,2.4-2.5,3.1-4c0.4-0.8,0.7-1.6,1-2.4
					c1-2.9,1.2-5.5,1.2-5.6l0.1-1h0.4h0.6l0,0c0.1,0,0.3,0,0.5,0c0.3,0.1,0.7,0.2,1.2,0.4c1.6,0.7,3.9,2.5,5.5,7.2
					c2.6,7.6,6,12.7,10,15C372.1,190.9,370.7,186.1,370.5,179.6z M347.1,157.2l0.2-1.9c-4.3-1.2-3.5-6.2-6-8.3
					c0.4,0.2,0.8,0.3,1.2,0.3c0.7,0,1.5-0.2,2.3-0.2c1.1,0,2.1,0.3,2.8,1.6C349.4,151.9,347.1,157.2,347.1,157.2z"/>
			</g>
			<g>
				<path d="M335,171l0.2,0.3l0.4,0.7l0.1-0.2l0,0L335,171z M335,171l0.2,0.3l0.4,0.7l0.1-0.2l0,0L335,171z M340.4,185.9
					c-0.2,0-0.4-0.1-0.6-0.2c0.4,0.1,0.8,0.2,1.2,0.3C340.8,186,340.6,185.9,340.4,185.9z"/>
			</g>
		</g>
		<g>
			<path d="M259.6,153.6c-2.7,3-9.4,9.9-13.5,10.6c-1,0.2-2.2,0.3-3.6,0.4h-0.1c-1.1,0.1-2.2,0.2-3.4,0.3c-2.6,0.3-5.2,0.8-7.5,1.9
				c-1.6,0.8-3.1,1.9-4,3.4l-0.7,1.1l-0.4,0.7l-0.4-0.8l-0.5-1c-0.1-0.2-0.1-0.3-0.2-0.5c-1-2.6,0.5-4.5,2.3-6.8
				c1.3-1.6,2.8-3.5,4.2-6.4c0.7-1.5,1.4-3.1,1.9-5.1c0-0.1,0.1-0.3,0.1-0.4c0.8-2.8,1.7-5.4,2.5-7.7c1.9-5.3,3.4-9.6,2.1-12
				c-0.7-1.3-2.3-2.3-4.9-2.9c-1.3-0.3-1.7-0.1-1.8,0c-0.3,0.2-0.4,1.1-0.5,2c-0.1,1.2-0.3,2.5-1,3.7c-1.2,1.9-1.8,3.2-2.2,4.2
				c-1.1,2.3-1.6,3.3-5.1,6.3l-0.8,0.7l-0.7-0.7c0,0-3.1-2.9-6.4-2.9c-0.5,0-1.1,0.1-1.6,0.3c-3.2,1.1-5.4,5.9-6.4,13.7l-0.1,0.6
				l-0.6,0.3c-0.1,0.1-14.5,6.8-14.9,23.3c-0.2,6.5-1.6,11.3-4.3,14.3c4-2.3,7.4-7.4,10-15c1.6-4.7,3.9-6.5,5.5-7.2
				c0.5-0.2,0.9-0.3,1.2-0.4c0.3-0.1,0.5-0.1,0.6-0.1h0.7h0.4l0.1,1c0,0.1,0.2,2.9,1.3,6c0.3,0.8,0.6,1.6,1.1,2.3
				c0.8,1.5,1.9,2.9,3.3,3.9c0.7,0.5,1.4,1,2.3,1.3l0,0c1.8,0.7,3.9,0.8,6.2,0.4c1.3-0.2,2.8-0.6,4.3-1.2c2.3-0.9,4.7-2.1,7.4-3.8
				c0.5-0.3,1-0.6,1.4-0.9c0.1-0.1,0.2-0.1,0.3-0.2c0.6-0.4,1.2-0.8,1.7-1.2C259.2,162.6,260.7,156.6,259.6,153.6z M216.4,155
				l0.3,1.9c0,0-2.3-5.2-0.6-8.5c1.6-3,4.6-0.8,6.3-1.8C219.9,148.7,220.8,153.7,216.4,155z"/>
		</g>
	</g>
</g>
</svg>
