<?xml version="1.0" encoding="utf-8"?>
<!-- Generator: Adobe Illustrator 24.0.3, SVG Export Plug-In . SVG Version: 6.00 Build 0)  -->
<svg version="1.1" id="Layer_1" xmlns="http://www.w3.org/2000/svg" xmlns:xlink="http://www.w3.org/1999/xlink" x="0px" y="0px"
	 viewBox="0 0 700 700" style="enable-background:new 0 0 700 700;" xml:space="preserve">
<style type="text/css">
	.st0{fill:#FFFFFF;}
	.st1{stroke:#FFFFFF;stroke-width:2.2753;stroke-miterlimit:10;}
	.st2{fill:#FFFFFF;stroke:#000000;stroke-width:2.2753;stroke-miterlimit:10;}
	.st3{fill:#FFFFFF;stroke:#000000;stroke-width:2.7303;stroke-miterlimit:10;}
	.st4{fill:none;}
	.st5{fill:#2B3233;}
	.st6{font-family:'Cochin-Bold';}
	.st7{font-size:87.3105px;}
	.st8{letter-spacing:6;}
	.st9{letter-spacing:1;}
	.st10{letter-spacing:5;}
	.st11{fill:#FFFFFF;stroke:#798E93;stroke-width:2.9103;stroke-miterlimit:10;}
	.st12{fill:#502C1E;}
	.st13{fill:#C97D31;}
	.st14{fill:#5F6638;stroke:#FFFFFF;stroke-width:2.1828;stroke-miterlimit:10;}
	.st15{fill:#FFFFFF;stroke:#000000;stroke-width:2.0457;stroke-miterlimit:10;}
	.st16{fill:#FFFFFF;stroke:#4BB749;stroke-width:2.0457;stroke-miterlimit:10;}
	.st17{fill:none;stroke:#FFFFFF;stroke-width:0.9205;stroke-linecap:round;stroke-miterlimit:10;}
	.st18{fill:#C97D31;stroke:#FFFFFF;stroke-width:1.4552;stroke-miterlimit:10;}
	.st19{fill:none;stroke:#FFFFFF;stroke-width:0.9615;stroke-linecap:round;stroke-miterlimit:10;}
	.st20{fill:#FFFFFF;stroke:#000000;stroke-width:1.7209;stroke-miterlimit:10;}
	.st21{fill:none;stroke:#000000;stroke-width:2.3859;stroke-miterlimit:10;}
	.st22{fill:#FFFFFF;stroke:#000000;stroke-width:2.3859;stroke-miterlimit:10;}
	.st23{stroke:#FFFFFF;stroke-width:2.0645;stroke-miterlimit:10;}
	.st24{fill:#FFFFFF;stroke:#000000;stroke-width:2.0645;stroke-miterlimit:10;}
	.st25{fill:#FFFFFF;stroke:#000000;stroke-width:0.8605;stroke-miterlimit:10;}
</style>
<g>
	<rect x="77.9" y="457.5" class="st4" width="547.4" height="95.1"/>
	<text transform="matrix(1 0 0 1 77.9215 519.6675)"><tspan x="0" y="0" class="st5 st6 st7 st8">C</tspan><tspan x="70" y="0" class="st5 st6 st7 st9">ONQ</tspan><tspan x="293.5" y="0" class="st5 st6 st7 st10">UE</tspan><tspan x="435" y="0" class="st5 st6 st7 st9">S</tspan><tspan x="490.1" y="0" class="st5 st6 st7">T</tspan></text>
	<g>
		<g>
			<polygon class="st11" points="375.6,170.9 372.2,167.8 250.4,292.8 228.7,332.1 265.7,306.7 379.1,174 			"/>
			<line class="st11" x1="387.1" y1="158.1" x2="228.6" y2="332"/>
		</g>
		<path class="st12" d="M407.2,147.9c-2.1,2.3-5.4,3.1-8.2,2.2c-4.3,8.3-10.8,16.1-18.5,23.5l4.8,4.4c4.2,3.8,4.5,10.3,0.7,14.5
			l-0.9,1c-1.1,1.2-2.6,0.4-1.9-1c0.2-0.9,0.2-1.8,0.2-2.7c-0.2-2.6-1.4-5-3.3-6.8l-16.9-15.4c-2.7-2.4-6.4-3.3-9.8-2.3
			c-0.2,0.1-0.5,0.2-0.7,0.2c-0.9,0.1-1.4-1.1-0.5-2.1l0.9-1c3.8-4.2,10.3-4.5,14.5-0.7l4.8,4.4c7.1-8.9,14.3-16.5,21.7-20.7
			c-1.1-2.7-0.7-6,1.5-8.4c2.9-3.2,7.9-3.4,11.2-0.5C410,139.7,410.2,144.7,407.2,147.9z"/>
		<g>
			<polygon class="st11" points="311.3,170.9 314.7,167.8 436.5,292.8 458.2,332.1 421.3,306.7 307.9,174 			"/>
			<line class="st11" x1="299.8" y1="158.1" x2="458.3" y2="332"/>
		</g>
		<path class="st12" d="M279.7,147.9c2.1,2.3,5.4,3.1,8.2,2.2c4.3,8.3,10.8,16.1,18.5,23.5l-4.8,4.4c-4.2,3.8-4.5,10.3-0.7,14.5
			l0.9,1c1.1,1.2,2.6,0.4,1.9-1c-0.2-0.9-0.2-1.8-0.2-2.7c0.2-2.6,1.4-5,3.3-6.8l16.9-15.4c2.7-2.4,6.4-3.3,9.8-2.3
			c0.2,0.1,0.5,0.2,0.7,0.2c0.9,0.1,1.4-1.1,0.5-2.1l-0.9-1c-3.8-4.2-10.3-4.5-14.5-0.7l-4.8,4.4c-7.1-8.9-14.3-16.5-21.7-20.7
			c1.1-2.7,0.7-6-1.5-8.4c-2.9-3.2-7.9-3.4-11.2-0.5C277,139.7,276.7,144.7,279.7,147.9z"/>
		<path class="st13" d="M377.7,396.2c-8.4,8.6-19.8,13.7-31.6,13.7c-22.4,0-36.2-18.4-36.2-40.8c0-17.9,13.5-36.6,27.4-36.1
			c8.3,0.3,0.3-14.4,8.8-14.6C380.8,317.6,406.6,366.4,377.7,396.2z"/>
		<path class="st14" d="M361.6,403.1c-9.8,9.8-23.1,14.4-36.9,14.4c-26.2,0-42.2-19.8-42.2-45.1c0-20.2,15.8-41.4,32-40.9
			c9.7,0.3,0.3-16.3,10.3-16.5C365.3,314.1,395.4,369.3,361.6,403.1z"/>
		<path class="st14" d="M365,335.7c-10.3-13.1-17.8-21.8-46.4-27.9c-13.1-2.8-18.4-8.5-19.4-10.3c-5.4-9.6,1.7-24.2,3.4-28.1
			c3-7-8.7-4.5-15.8-7.5c-7-3-8.7-10.3-11.7-3.3c-1.3,3.2-10.7,30.7,2.1,53.4c8.9,15.8,24.4,20.2,37.5,23.1
			c29.7,2.2,28.5,33.1,28.5,33.1"/>
		<g>
			<g>
				<g>
					<g>
						<path class="st17" d="M301.7,405.1c0,0-2.1,2.4-3.8,5.6c-1.6,3.2-2.8,7.3-0.1,10.5"/>
						<path class="st17" d="M309.4,404.7c0,0-2,2.5-3.5,5.8c-1.5,3.3-2.5,7.4,0.4,10.5"/>
						<path class="st17" d="M317,403.9c0,0-0.4,0.7-1.1,1.8c-0.6,1.1-1.4,2.6-2.1,4.2c-1.3,3.3-2.1,7.5,0.9,10.5"/>
						<path class="st17" d="M324.4,402.7c0,0-1.6,2.8-2.6,6.2c-1.1,3.4-1.6,7.6,1.6,10.4"/>
						<path class="st17" d="M331.5,400.8c0,0-0.3,0.7-0.7,1.9c-0.4,1.1-1,2.7-1.3,4.5c-0.7,3.5-1,7.7,2.5,10.2"/>
						<path class="st17" d="M338.3,398.4c0,0-0.9,2.9-1.3,6.6c-0.4,3.5-0.3,7.7,3.5,9.9"/>
						<path class="st17" d="M344.5,395.1c0,0-0.1,0.8-0.2,2c-0.1,1.2-0.2,2.9-0.1,4.7c0.1,3.5,0.7,7.7,4.7,9.4"/>
						<path class="st17" d="M349.8,391.1c0,0,0,0.7,0.2,1.9c0.1,1.2,0.4,2.9,0.7,4.6c0.3,1.7,0.8,3.6,1.7,5.2
							c0.9,1.6,2.3,2.9,4.5,3.3"/>
						<path class="st17" d="M354.1,386.4c0,0,0.2,0.7,0.6,1.8c0.4,1.1,0.9,2.7,1.6,4.3c0.7,1.7,1.5,3.4,2.7,4.8
							c1.2,1.4,2.8,2.4,5,2.4"/>
						<path class="st17" d="M357.3,380.9c0,0,0.4,0.6,1,1.6c0.3,0.5,0.7,1.1,1.1,1.8c0.4,0.7,0.9,1.4,1.4,2.1c1,1.5,2.2,3,3.7,4.1
							c1.5,1.1,3.2,1.7,5.4,1.2"/>
						<path class="st17" d="M359.1,374.8c0,0,0.5,0.5,1.4,1.4c0.8,0.8,1.9,2,3.3,3.2c1.3,1.2,2.8,2.4,4.5,3.2c1.7,0.7,3.5,1,5.6,0"
							/>
						<path class="st17" d="M359.6,368.4c0,0,0.6,0.4,1.6,1.1c1,0.7,2.4,1.6,3.9,2.5c1.5,0.9,3.3,1.8,5,2.2c1.8,0.4,3.6,0.2,5.4-1.2
							"/>
						<path class="st17" d="M358.9,361.8c0,0,0.7,0.3,1.8,0.8c0.6,0.2,1.2,0.5,2,0.8c0.7,0.3,1.5,0.6,2.3,0.9
							c1.7,0.6,3.6,1.1,5.4,1.2c1.8,0,3.6-0.5,5.1-2.2"/>
						<path class="st17" d="M357,355.3c0,0,2.9,0.9,6.4,1.6c1.8,0.3,3.7,0.5,5.5,0.2c1.8-0.3,3.5-1.1,4.6-3"/>
					</g>
					<g>
						<path class="st17" d="M354.8,350.4c0,0,0.2,0,0.5,0.1c0.3,0,0.8,0.1,1.4,0.2c1.2,0.1,2.9,0.3,4.6,0.4c1.8,0.1,3.7,0,5.5-0.5
							c1.7-0.5,3.3-1.6,4.2-3.6"/>
						<path class="st17" d="M350.9,344.8c0,0,0.8,0,2,0c1.2,0,2.9-0.2,4.7-0.4c1.8-0.3,3.7-0.7,5.3-1.5c1.6-0.8,3-2.1,3.5-4.3"/>
						<path class="st17" d="M346.2,339.5c0,0,0.8-0.1,2-0.3c1.2-0.2,2.8-0.5,4.6-1c3.4-1,7.4-2.7,7.9-6.9"/>
						<path class="st17" d="M340.9,335c0,0,3-0.7,6.4-2.1c3.2-1.4,6.9-3.5,6.9-7.9"/>
						<path class="st17" d="M334.9,331.1c0,0,0.7-0.3,1.8-0.8c1.1-0.5,2.7-1.3,4.2-2.1c3-1.8,6.4-4.4,5.8-8.7"/>
						<path class="st17" d="M328.5,328c0,0,0.7-0.4,1.8-1c1.1-0.6,2.5-1.6,3.9-2.6c2.8-2.2,5.8-5.2,4.7-9.4"/>
						<path class="st17" d="M321.6,325.5c0,0,0.7-0.4,1.7-1.2c1-0.7,2.3-1.8,3.6-3c2.5-2.5,5.2-5.8,3.6-9.9"/>
						<path class="st17" d="M314.3,323.7c0,0,0.7-0.5,1.6-1.3c1-0.8,2.2-2,3.4-3.3c2.3-2.7,4.5-6.3,2.7-10.2"/>
						<path class="st17" d="M305.1,321.1c0,0,0.9-0.3,2.1-0.9c1.2-0.6,2.8-1.6,4.1-2.9c1.3-1.3,2.3-3,2.8-4.7
							c0.3-0.9,0.4-1.8,0.4-2.7c0-0.5-0.1-0.9-0.2-1.4c0-0.2-0.1-0.5-0.2-0.7l-0.1-0.3l0-0.3"/>
						<path class="st17" d="M296.6,316.5c0,0,0.9-0.1,2.2-0.5c1.3-0.4,3-1,4.5-2c1.6-1,3-2.3,3.9-3.9c0.9-1.6,1.4-3.4,1.3-5.3"/>
						<path class="st17" d="M288.5,309.2c0,0,0.2,0.1,0.6,0.2c0.4,0.1,0.9,0.2,1.5,0.4c0.6,0.2,1.3,0.3,2,0.3c0.7,0,1.3-0.1,2-0.3
							c1.3-0.3,2.7-0.9,3.9-1.7c2.4-1.5,4.1-4,4.5-6.9"/>
						<path class="st17" d="M283.8,299.5c0,0,0.2,0.1,0.5,0.3c0.3,0.2,0.9,0.5,1.5,0.7c0.6,0.3,1.4,0.6,2.2,0.8
							c0.8,0.2,1.7,0.4,2.7,0.5c1.8,0.2,3.8-0.1,5.4-0.9c1.7-0.8,3.1-2,4.2-3.4"/>
						<path class="st17" d="M281.9,290.1c0,0,0.7,0.6,1.8,1.3c1.1,0.7,2.7,1.6,4.4,2.1c1.8,0.6,3.7,0.8,5.5,0.5
							c1.8-0.3,3.5-1.1,4.9-2.4"/>
						<path class="st17" d="M281.4,281.1c0,0,2.4,2.6,5.7,4.1c3.3,1.6,7.4,2,10.5-0.4"/>
					</g>
				</g>
			</g>
		</g>
		<path class="st18" d="M311.2,377.4c-3.2-16.1,1-32.8,8.7-43.7c9.6-13.6,26.7-22.1,52.5-25.9c13.3-2,18.4-8.5,19.4-10.3
			c5.4-9.6-1.7-24.2-3.4-28.1c-3-7,7.6-5.4,14.6-8.4c7-3,9.9-9.4,12.9-2.4c1.3,3.2,10.7,30.7-2.1,53.4
			c-8.9,15.8-25.5,20.1-37.5,23.1c-18.2,4.5-25,6.5-29.8,13.4c-2,2.9-4.4,8-2.2,19.3c1.5,7.5-6.4,15.9-13.9,17.3
			C320.7,387,312.5,383.9,311.2,377.4z"/>
		<g>
			<path class="st19" d="M328,372.2c0,0-0.5,0.7-1.4,1.8c-0.8,1.1-2,2.6-3.4,4c-2.7,2.8-6.2,5.9-10.6,2.9"/>
			<path class="st19" d="M327.5,363.1c0,0-2.7,2.4-5.9,4.8c-1.6,1.1-3.5,2.2-5.3,2.6c-1.9,0.4-3.9,0-5.6-1.9"/>
			<path class="st19" d="M328.9,354.1c0,0-0.8,0.4-2,1.1c-1.2,0.6-2.9,1.5-4.7,2.3c-1.9,0.8-3.8,1.5-5.7,1.4c-1.9,0-3.8-0.8-5.2-3"
				/>
			<path class="st19" d="M332.2,345.9c0,0-0.8,0.2-2.2,0.5c-0.7,0.2-1.5,0.3-2.3,0.6c-0.9,0.2-1.8,0.4-2.8,0.6c-2,0.3-4,0.6-5.9,0.2
				c-1.8-0.4-3.5-1.6-4.4-4.1"/>
			<path class="st19" d="M337.3,339.3c0,0-0.8-0.1-2.2-0.2c-1.3-0.1-3.1-0.3-5.1-0.4c-2-0.2-4.1-0.5-5.8-1.4
				c-1.7-0.9-3.1-2.4-3.1-5.1"/>
			<path class="st19" d="M344.4,334.2c0,0-0.9-0.3-2.2-0.7c-1.3-0.4-3.1-1-4.9-1.8c-1.8-0.7-3.7-1.7-5.1-3c-1.3-1.4-2.1-3.2-1.4-5.8
				"/>
			<path class="st19" d="M353.2,330.2c0,0-0.9-0.4-2.2-1c-1.3-0.6-3-1.5-4.7-2.6c-3.3-2.2-6.7-5.2-4.6-9.9"/>
			<path class="st19" d="M362.8,327.2c0,0-3.4-1.6-6.5-4.2c-3-2.5-5.9-6-3.4-10.4"/>
			<path class="st19" d="M373,324.8c0,0-3.4-1.8-6.4-4.6c-2.9-2.8-5.4-6.5-2.7-10.6"/>
			<path class="st19" d="M383.5,322.8c0,0-3.4-1.9-6.2-4.8c-2.8-2.9-5-6.7-2.2-10.8"/>
			<path class="st19" d="M397,317c0,0-0.3,0-0.8,0.1c-0.5,0-1.3,0-2.1,0c-1.7-0.1-3.9-0.6-5.7-1.7c-1.8-1-3.2-2.6-3.9-4.4
				c-0.7-1.8-0.8-3.7-0.5-5.7"/>
			<path class="st19" d="M406.3,306.2c0,0-0.2,0.1-0.7,0.3c-0.5,0.2-1.1,0.5-1.9,0.8c-1.6,0.5-3.7,1-5.8,0.8
				c-2.1-0.1-4.1-0.9-5.5-2.1c-1.5-1.2-2.4-2.9-3-4.9"/>
			<path class="st19" d="M410.1,292.4c0,0-0.7,0.9-1.9,1.9c-1.2,1.1-2.9,2.3-4.8,3.1c-1.9,0.8-4,1.1-5.9,0.6c-1.9-0.4-3.5-1.5-4.9-3
				"/>
			<path class="st19" d="M409.8,279.3c0,0-0.1,0.3-0.3,0.8c-0.2,0.5-0.6,1.1-1,1.8c-0.9,1.4-2.3,3-4,4.2c-1.7,1.2-3.6,2-5.5,2.2
				c-1.9,0.1-3.8-0.5-5.5-1.9"/>
		</g>
		<path class="st18" d="M395.4,260.3c2-4.3-4.7-5.7-8-17.3c-3.8-13.1-9.7-20.9,1-23.5c4.9-1.2,2.7,3.1,4.4,5.9
			c3.4,5.7,1.9,5.5,6.9,9.8c0,0,12.6-12.1,15.7,11.2c0,0,14.6,6.6,14.9,23.4c0.4,16.7,9.7,15.8,9.7,15.8s-10.5,4-17.4-16.1
			c-2.3-6.8-6-6.6-6-6.6s-0.6,11.1-8.4,14c-4.2,1.6-10.4,0.7-19.6-5.4c-26.4-17.6-28.2-23.9-25.3-28.5c0,0,8.9,10.3,13.4,11
			C381.2,254.8,391.4,254.1,395.4,260.3z"/>
		<path class="st14" d="M292.6,260.3c-2-4.3,4.7-5.7,8-17.3c3.8-13.1,9.7-20.9-1-23.5c-4.9-1.2-2.7,3.1-4.4,5.9
			c-3.4,5.7-1.9,5.5-6.9,9.8c0,0-12.6-12.1-15.7,11.2c0,0-14.6,6.6-14.9,23.4c-0.4,16.7-9.7,15.8-9.7,15.8s10.5,4,17.4-16.1
			c2.3-6.8,6-6.6,6-6.6s0.6,11.1,8.4,14c4.2,1.6,10.4,0.7,19.6-5.4c26.4-17.6,28.2-23.9,25.3-28.5c0,0-8.9,10.3-13.4,11
			S296.6,254.1,292.6,260.3z"/>
		<path class="st0" d="M281,248.1c0,0-2.2-5-0.6-8.1c1.7-3.1,4.9-0.4,6.4-1.9c-2.8,1.8-1.7,7-6.1,8.2"/>
		<path class="st0" d="M406.6,248.3c0,0,2.2-5,0.6-8.1c-1.7-3.1-4.9-0.4-6.4-1.9c2.8,1.8,1.7,7,6.1,8.2"/>
	</g>
</g>
</svg>
