<?xml version="1.0" encoding="utf-8"?>
<!-- Generator: Adobe Illustrator 24.0.3, SVG Export Plug-In . SVG Version: 6.00 Build 0)  -->
<svg version="1.1" id="Layer_1" xmlns="http://www.w3.org/2000/svg" xmlns:xlink="http://www.w3.org/1999/xlink" x="0px" y="0px"
	 viewBox="0 0 700 700" style="enable-background:new 0 0 700 700;" xml:space="preserve">
<style type="text/css">
	.st0{fill:none;}
	.st1{fill:#2B3233;}
	.st2{font-family:'FranklinGothicURWCon-Dem';}
	.st3{font-size:110.3688px;}
	.st4{fill:#FFFFFF;}
	.st5{stroke:#FFFFFF;stroke-width:2.2753;stroke-miterlimit:10;}
	.st6{fill:#FFFFFF;stroke:#000000;stroke-width:2.2753;stroke-miterlimit:10;}
	.st7{fill:#FFFFFF;stroke:#000000;stroke-width:2.7303;stroke-miterlimit:10;}
	.st8{fill:#FFFFFF;stroke:#798E93;stroke-width:2.9103;stroke-miterlimit:10;}
	.st9{fill:#502C1E;}
	.st10{fill:#C97D31;}
	.st11{fill:#5F6638;stroke:#FFFFFF;stroke-width:2.1828;stroke-miterlimit:10;}
	.st12{fill:#FFFFFF;stroke:#000000;stroke-width:2.0457;stroke-miterlimit:10;}
	.st13{fill:#FFFFFF;stroke:#4BB749;stroke-width:2.0457;stroke-miterlimit:10;}
	.st14{fill:none;stroke:#FFFFFF;stroke-width:0.9205;stroke-linecap:round;stroke-miterlimit:10;}
	.st15{fill:#C97D31;stroke:#FFFFFF;stroke-width:1.4552;stroke-miterlimit:10;}
	.st16{fill:none;stroke:#FFFFFF;stroke-width:0.9615;stroke-linecap:round;stroke-miterlimit:10;}
	.st17{fill:#FFFFFF;stroke:#000000;stroke-width:1.7209;stroke-miterlimit:10;}
	.st18{fill:none;stroke:#000000;stroke-width:2.3859;stroke-miterlimit:10;}
	.st19{fill:#FFFFFF;stroke:#000000;stroke-width:2.3859;stroke-miterlimit:10;}
	.st20{stroke:#FFFFFF;stroke-width:2.0645;stroke-miterlimit:10;}
	.st21{fill:#FFFFFF;stroke:#000000;stroke-width:2.0645;stroke-miterlimit:10;}
	.st22{fill:#FFFFFF;stroke:#000000;stroke-width:0.8605;stroke-miterlimit:10;}
</style>
<g>
	<rect x="115.4" y="452.6" class="st0" width="469.2" height="90.3"/>
	<text transform="matrix(1 0 0 1 115.4246 526.2255)" class="st1 st2 st3">CONQUEST</text>
	<g>
		<path class="st4" d="M280.9,188.4c0,0-2.8-6.4-0.7-10.3c2.1-3.9,6.2-0.5,8.1-2.5c-3.5,2.3-2.2,8.8-7.7,10.4"/>
		<g>
			<g>
				<g>
					<path class="st5" d="M425,324.8c10.8-16.7,20.6-34.1,29.3-52.1c0.4-46.8,2.6-84.9-13.4-101.6c-13-4.2-30.1,93.1-30.1,93.1
						l11.7,64.5"/>
					<path class="st5" d="M425,324.8c-1.9-28.6-2.9-62.9,0.3-89.2c6.7-54.9,15.6-64.5,15.6-64.5l-21.1-7.1l-24.9-8.4
						c-0.4,2.8-0.8,5.6-1.3,8.4C380,254.5,369,338.3,364.7,405h0.3c0.7-0.9,1.4-1.8,2-2.8l34-43.6c7.5-9.7,14.7-19.6,21.4-29.8
						L425,324.8z"/>
					<path class="st5" d="M394.9,153.4c0,0-10.8,79.3-21,149c0,0,37.3-66.7,39.6-77.6l-11.9-18.2c0,0,22.9-3,23.3-6.9
						c0,0-12.9-33.5-16.9-40.7L394.9,153.4z"/>
				</g>
				<g>
					<path class="st5" d="M277.6,328.9l11.7-64.5c0,0-17.1-97.3-30.1-93.1c-16,16.7-13.8,54.8-13.4,101.6
						c8.7,18,18.5,35.4,29.3,52.1"/>
					<path class="st5" d="M277.6,328.9c6.7,10.2,13.9,20.1,21.4,29.8l34,43.6c0.6,1,1.3,2,2,2.8h0.3c-4.3-66.7-15.3-150.5-28.9-241
						c-0.4-2.8-0.8-5.6-1.3-8.4l-24.9,8.4l-21.1,7.1c0,0,8.9,9.6,15.6,64.5c3.2,26.3,2.2,60.6,0.3,89.2L277.6,328.9z"/>
					<path class="st5" d="M305.1,153.6c0,0,10.8,79.3,21,149c0,0-37.3-66.7-39.6-77.6l11.9-18.2c0,0-22.9-3-23.3-6.9
						c0,0,12.9-33.5,16.9-40.7L305.1,153.6z"/>
				</g>
			</g>
			<g>
				<path class="st6" d="M364.7,187.8c14.5-8.4,28.3-17.2,36.7-28.7c-1-6.1-4.6-10.9-9.9-14.7c-8.3,11.4-23.2,18.2-40.3,23.3
					C358.2,174.1,362.3,180.8,364.7,187.8z"/>
				<path class="st6" d="M335.3,187.8c-14.5-8.4-28.3-17.2-36.7-28.7c1-6.1,4.6-10.9,9.9-14.7c8.3,11.4,23.2,18.2,40.3,23.3
					C341.8,174.1,337.7,180.8,335.3,187.8z"/>
			</g>
			<g>
				<polygon class="st7" points="350,212.6 345.5,212.6 339.8,380.5 349.9,415.6 359.7,380.5 354.5,212.6 				"/>
				<line class="st7" x1="349.9" y1="196.1" x2="349.7" y2="415.6"/>
			</g>
			<path d="M357.6,175.8c0,3.1-1.8,5.7-4.4,6.9c2.3,8.7,2.7,18.4,2,28.8l6.3,0c5.5,0,9.9,4.4,9.9,9.9l0,1.3c0,1.6-1.6,2-2,0.5
				c-0.5-0.8-1-1.4-1.6-2c-1.8-1.7-4.2-2.7-6.8-2.7l-21.9,0c-3.4,0-6.6,1.8-8.4,4.7c-0.1,0.3-0.2,0.5-0.3,0.6
				c-0.6,0.7-1.7,0.1-1.7-1.1l0-1.3c0-5.4,4.4-9.9,9.9-9.9l6.3,0c-0.7-10.9-0.5-21,2-28.8c-2.6-1.2-4.4-3.8-4.4-6.9
				c0-4.2,3.4-7.6,7.6-7.6C354.2,168.2,357.6,171.6,357.6,175.8z"/>
		</g>
	</g>
</g>
</svg>
