<?xml version="1.0" encoding="utf-8"?>
<!-- Generator: Adobe Illustrator 24.0.3, SVG Export Plug-In . SVG Version: 6.00 Build 0)  -->
<svg version="1.1" id="Layer_1" xmlns="http://www.w3.org/2000/svg" xmlns:xlink="http://www.w3.org/1999/xlink" x="0px" y="0px"
	 viewBox="0 0 700 700" style="enable-background:new 0 0 700 700;" xml:space="preserve">
<style type="text/css">
	.st0{fill:#FFFFFF;}
	.st1{stroke:#FFFFFF;stroke-width:2.2753;stroke-miterlimit:10;}
	.st2{fill:#FFFFFF;stroke:#000000;stroke-width:2.2753;stroke-miterlimit:10;}
	.st3{fill:#FFFFFF;stroke:#000000;stroke-width:2.7303;stroke-miterlimit:10;}
	.st4{fill:#FFFFFF;stroke:#798E93;stroke-width:2.9103;stroke-miterlimit:10;}
	.st5{fill:#502C1E;}
	.st6{fill:#C97D31;}
	.st7{fill:#5F6638;stroke:#FFFFFF;stroke-width:2.1828;stroke-miterlimit:10;}
	.st8{fill:#FFFFFF;stroke:#000000;stroke-width:2.0457;stroke-miterlimit:10;}
	.st9{fill:#FFFFFF;stroke:#4BB749;stroke-width:2.0457;stroke-miterlimit:10;}
	.st10{fill:none;stroke:#FFFFFF;stroke-width:0.9205;stroke-linecap:round;stroke-miterlimit:10;}
	.st11{fill:#C97D31;stroke:#FFFFFF;stroke-width:1.4552;stroke-miterlimit:10;}
	.st12{fill:none;stroke:#FFFFFF;stroke-width:0.9615;stroke-linecap:round;stroke-miterlimit:10;}
	.st13{fill:#FFFFFF;stroke:#000000;stroke-width:1.7209;stroke-miterlimit:10;}
	.st14{fill:none;stroke:#000000;stroke-width:2.3859;stroke-miterlimit:10;}
	.st15{fill:#FFFFFF;stroke:#000000;stroke-width:2.3859;stroke-miterlimit:10;}
	.st16{stroke:#FFFFFF;stroke-width:2.0645;stroke-miterlimit:10;}
	.st17{fill:#FFFFFF;stroke:#000000;stroke-width:2.0645;stroke-miterlimit:10;}
	.st18{fill:#FFFFFF;stroke:#000000;stroke-width:0.8605;stroke-miterlimit:10;}
	.st19{fill:none;}
	.st20{font-family:'Athelas-Bold';}
	.st21{font-size:90.923px;}
</style>
<g>
	<g>
		<polygon points="256.8,390.4 252,385 277.1,358.9 285.6,368.4 		"/>
		<path d="M245.3,386.4L245,395c0,1.1,0.8,1.9,1.8,2l8.5,0.3c0.8,0,1.5-0.4,1.8-1.2l7.2-17.3l-17.8,5.9
			C245.8,385,245.3,385.6,245.3,386.4z"/>
		<g>
			<g>
				<g>
					<path class="st13" d="M473.4,248.6C473.4,248.6,473.4,248.6,473.4,248.6c0,0.1-0.1,0.4-0.2,0.9c-6.2,2.6-11.4,9.1-13.3,17.5
						c-1.1,5.1-0.9,10,0.4,14.2c-6.1,0.6-12.6,4.3-17.3,10.5c-3.6,4.9-5.5,10.4-5.5,15.5c-0.2,0.1-0.3,0.2-0.5,0.4
						c-4.8-2.2-11-2.8-17.3-1.2c-7.8,2-13.8,6.8-16.5,12.5c-0.4,0-0.8,0-1.2,0.1c-2.5-5.6-8.1-10.5-15.5-12.9
						c-8.2-2.6-16.4-1.5-21.8,2.5c-1.1-7.1-7.3-14-16.3-17.1l0.3-1c0,0,0,0,0.1,0c0.1-0.1,0.3-0.2,0.7-0.3c0.2-0.1,0.6-0.3,0.9-0.5
						c0.1-0.1,0.3-0.1,0.4-0.2c7.3-3.6,31.8-15.8,49.9-23.9C420.7,261,453.6,256.2,473.4,248.6z"/>
					<path d="M476.3,246.5c0.8-0.6,0-1.9-0.9-1.4c-37.1,17-79.1,9.3-82.1,15.6c-4.8,10.3-44.6,29.8-44.6,29.8
						c13.8-0.2,38.9-11,51-19.5c4.6-3.3,10-5.4,15.6-6.1C431,263,460.7,258.7,476.3,246.5z"/>
				</g>
				<path class="st14" d="M460.3,281.2c0,0-41.5-11.3-68.9-11.9c0,0,48.7,24,45.6,38.2"/>
				<path class="st14" d="M402,318.9c0,0,1.9-42.1-13.8-49.6"/>
			</g>
			<g>
				<g>
					<path class="st13" d="M241.9,248.6C241.9,248.6,241.9,248.6,241.9,248.6c0,0.1,0.1,0.4,0.2,0.9c6.2,2.6,11.4,9.1,13.3,17.5
						c1.1,5.1,0.9,10-0.4,14.2c6.1,0.6,12.6,4.3,17.3,10.5c3.6,4.9,5.5,10.4,5.5,15.5c0.2,0.1,0.3,0.2,0.5,0.4
						c4.8-2.2,11-2.8,17.3-1.2c7.8,2,13.8,6.8,16.5,12.5c0.4,0,0.8,0,1.2,0.1c2.5-5.6,8.1-10.5,15.5-12.9c8.2-2.6,16.4-1.5,21.8,2.5
						c1.1-7.1,7.3-14,16.3-17.1l-0.3-1c0,0,0,0-0.1,0c-0.1-0.1-0.3-0.2-0.7-0.3c-0.2-0.1-0.6-0.3-0.9-0.5c-0.1-0.1-0.3-0.1-0.4-0.2
						c-7.3-3.6-31.8-15.8-49.9-23.9C294.5,261,261.6,256.2,241.9,248.6z"/>
					<path d="M238.9,246.5c-0.8-0.6,0-1.9,0.9-1.4c37.1,17,79.1,9.3,82.1,15.6c4.8,10.3,44.6,29.8,44.6,29.8
						c-13.8-0.2-38.9-11-51-19.5c-4.6-3.3-10-5.4-15.6-6.1C284.2,263,254.5,258.7,238.9,246.5z"/>
				</g>
				<path class="st14" d="M254.9,281.2c0,0,41.5-11.3,68.9-11.9c0,0-48.7,24-45.6,38.2"/>
				<path class="st14" d="M313.3,318.9c0,0-1.9-42.1,13.8-49.6"/>
			</g>
			<path d="M268.1,349.3c-2-2.3-2.2-5.6-0.6-8c0.5-0.7,1.5-0.8,2.1-0.1l14.5,20.7l18.2,15.9c0.6,0.6,0.4,1.7-0.3,2.1
				c-2.6,1.3-5.8,0.8-7.9-1.5L268.1,349.3z"/>
			<g>
				<polygon class="st15" points="283.3,361.8 287.1,365.7 434.2,230.1 446.4,198.2 414.7,210.5 279.4,358 				"/>
				<line class="st15" x1="283.2" y1="362" x2="446.4" y2="198.2"/>
			</g>
			<g>
				<polygon class="st15" points="427.3,361.6 431.2,357.8 295.5,210.7 263.7,198.5 276,230.2 423.5,365.5 				"/>
				<line class="st15" x1="427.4" y1="361.7" x2="263.7" y2="198.5"/>
			</g>
			<g>
				<g>
				</g>
				<polygon points="453.4,390.4 458.2,385 433.1,358.9 424.6,368.4 				"/>
			</g>
			<g>
				<polygon class="st15" points="356.3,360.8 361.7,360.8 370.1,160.9 356.3,129.8 342.5,160.9 350.8,360.8 				"/>
				<line class="st15" x1="356.3" y1="361" x2="356.3" y2="129.8"/>
			</g>
			<g>
				<path d="M336.7,368.4c-3.6,0-6.5-2.9-6.5-6.5v-13c0-1.9,1.9-2.4,2.4-0.7l2.1,7.1c0.8,2.8,3.4,4.7,6.3,4.7h30.5
					c2.9,0,5.4-1.9,6.3-4.7l2.1-7.1c0.5-1.8,2.4-1.2,2.4,0.7v13c0,3.6-2.9,6.5-6.5,6.5H336.7z"/>
				<polygon points="359.9,404.2 352.6,404.2 349.9,368.1 362.6,368.1 				"/>
				<circle cx="356.3" cy="411.7" r="9.2"/>
			</g>
			<path d="M348.5,316.3c-10.2,0-25.3-9.5-25.3-23.5c0-18.2,13-27.8,23.3-30.9c0,0,1.4,16.3,2,24.3c7.2,0,16.7-4.6,17.8-12.8
				c2.7-20.4-4.3-45.7-27.1-50l6.1-30c13.8,3.8,27.7,17.5,37.5,36c9.2,17.5,10.1,41.6,7,53.6C385,301.6,372.4,316.3,348.5,316.3z"/>
			<path class="st16" d="M339,210.1c-0.6-4.8-7.1-2.4-16.1-10.5c-10.2-9.2-19.5-12.7-11.7-20.6c3.5-3.6,4,1.2,6.9,2.7
				c6,3,4.6,3.7,11.1,4.7c0,0,4.3-17.1,19.5,1.2c0,0,16-2.1,25.3,12s16.8,8.4,16.8,8.4s-6.9,9-23.5-4.5c-5.6-4.6-8.7-2.5-8.7-2.5
				s3.6,9-1.4,15.6c-2.7,3.6-6.7,7-18,6.7c-32.1-1-36.9-5.3-36.9-10.9c0,0,13.1,4,17.4,2.3C323.9,213,332.3,206.9,339,210.1z"/>
			<path class="st0" d="M342.4,193.4c0,0-0.8-5.5-3.9-7.3c-3.1-1.8-4.4,2.3-6.5,1.8c3.4,0.1,5.2,5.1,9.6,3.8"/>
			<path d="M444.6,346l-30.4,35.8c-1.7,2-4.1,2.7-5.4,1.6l0,0c-1.3-1.1-1-3.6,0.7-5.6l12-11.1c3.6-3.4,6.9-7.2,9.6-11.4l8.7-13.3
				c1.7-2,4.1-2.7,5.4-1.6l0,0C446.5,341.5,446.3,344,444.6,346z"/>
		</g>
		<path d="M449.5,383.8c-0.5-1.4,1-2.9,2.4-2.4l7.2,2.4l8.5,2.9c1.2,0.4,1.4,1.9,0.5,2.9l-5.1,5.2l-5.1,5.2c-0.9,1-2.5,0.7-2.9-0.4
			l-3-8.4L449.5,383.8z"/>
		<path class="st18" d="M509.3,270.9c0-0.1-0.1-0.2-0.1-0.3l0.3,0C509.5,270.6,509.4,270.7,509.3,270.9z"/>
	</g>
	<rect x="109.8" y="458.5" class="st19" width="494.5" height="99"/>
	<text transform="matrix(1 0 0 1 109.8496 522.1506)"><tspan x="0" y="0" class="st20 st21">CON</tspan><tspan x="194.3" y="0" class="st20 st21">-</tspan></text>
</g>
</svg>
