<?xml version="1.0" encoding="utf-8"?>
<!-- Generator: Adobe Illustrator 24.0.3, SVG Export Plug-In . SVG Version: 6.00 Build 0)  -->
<svg version="1.1" id="Layer_1" xmlns="http://www.w3.org/2000/svg" xmlns:xlink="http://www.w3.org/1999/xlink" x="0px" y="0px"
	 viewBox="0 0 302.8 318.8" style="enable-background:new 0 0 302.8 318.8;" xml:space="preserve">
<style type="text/css">
	.st0{fill:none;stroke:#000000;stroke-width:1.0456;stroke-miterlimit:10;}
	.st1{fill:#FFFFFF;stroke:#000000;stroke-miterlimit:10;}
	.st2{fill:none;stroke:#000000;stroke-width:1.2796;stroke-miterlimit:10;}
	.st3{stroke:#FFFFFF;stroke-width:0.465;stroke-miterlimit:10;}
	.st4{fill:#FFFFFF;}
	.st5{fill:#FFFFFF;stroke:#000000;stroke-width:0.465;stroke-miterlimit:10;}
	.st6{fill:#FFFFFF;stroke:#FFFFFF;stroke-width:0.465;stroke-miterlimit:10;}
	.st7{fill:#FFFFFF;stroke:#000000;stroke-width:0.8711;stroke-miterlimit:10;}
	.st8{fill:none;stroke:#000000;stroke-width:0.8711;stroke-miterlimit:10;}
	.st9{fill:#F9A134;}
	.st10{fill:#6C0E0F;}
	.st11{fill:none;}
	.st12{font-family:'Avenir-Light';}
	.st13{font-size:59.6796px;}
	.st14{font-family:'MrsEavesAllPetiteCapsOT';}
	.st15{font-size:37px;}
	.st16{fill:none;stroke:#000000;stroke-width:15;stroke-linecap:round;stroke-miterlimit:10;}
	.st17{fill:none;stroke:#000000;stroke-width:13.9073;stroke-linecap:round;stroke-miterlimit:10;}
	.st18{stroke:#FFFFFF;stroke-width:6;stroke-miterlimit:10;}
	.st19{stroke:#FFFFFF;stroke-width:0.2062;stroke-miterlimit:10;}
	.st20{stroke:#FFFFFF;stroke-width:2.1704;stroke-miterlimit:10;}
	.st21{fill:none;stroke:#FFFFFF;stroke-width:2.1704;stroke-linecap:round;stroke-miterlimit:10;}
	.st22{stroke:#FFFFFF;stroke-width:5;stroke-miterlimit:10;}
	.st23{fill:none;stroke:#000000;stroke-width:20.3102;stroke-miterlimit:10;}
	.st24{stroke:#FFFFFF;stroke-width:5;stroke-linecap:round;stroke-miterlimit:10;}
	.st25{fill:#A3ABAF;}
	.st26{fill:#FFFFFF;stroke:#000000;stroke-width:0.9051;stroke-miterlimit:10;}
	.st27{fill:#FFFFFF;stroke:#000000;stroke-width:1.8102;stroke-miterlimit:10;}
</style>
<g>
	<rect x="23.7" y="214.9" class="st11" width="255.5" height="49.2"/>
	<text transform="matrix(1 0 0 1 23.6564 259.9935)" class="st12 st13">Sootheze</text>
	<rect x="26.9" y="278.1" class="st11" width="249.1" height="14.6"/>
	<text transform="matrix(1 0 0 1 26.8681 290.4354)" class="st14 st15">Therapy Products</text>
	<g>
		<g>
			<path d="M127.3,74c0.9,2.3,1.6,4.4,2.3,6.6c0.7,2.2,1.4,4.3,2,6.5c1.3,4.4,2.4,8.7,3.3,13.2c1.9,8.8,3.3,17.8,3.9,26.9
				c0.3,4.5,0.4,9.1,0.2,13.6c-0.2,4.6-0.6,9.1-1.3,13.6c-0.8,4.5-1.8,9-3.3,13.3c-1.5,4.3-3.3,8.6-5.6,12.6
				c-0.6,1.2-2.1,1.6-3.3,0.9c-1.1-0.6-1.6-2-1-3.2l0-0.1c1.9-3.8,3.4-7.8,4.6-11.9c1.1-4.1,1.9-8.3,2.4-12.6
				c0.5-4.3,0.6-8.6,0.6-12.9c0-4.3-0.4-8.6-0.8-12.9c-1-8.6-2.7-17.1-5-25.4c-1.1-4.2-2.4-8.3-3.8-12.4c-0.7-2-1.4-4.1-2.2-6.1
				c-0.8-2-1.6-4.1-2.4-5.9l0-0.1c-1.1-2.6,0-5.6,2.6-6.7c2.6-1.1,5.6,0,6.7,2.6C127.3,73.8,127.3,73.9,127.3,74z"/>
		</g>
		<g>
			<path d="M134.8,117.4c1.7-1.2,3.5-2.2,5.3-3.1c1.8-0.9,3.7-1.7,5.7-2.3c3.9-1.3,7.8-2.4,11.9-3.2c2-0.4,4.1-0.7,6.2-0.9
				c2.1-0.2,4.3-0.3,6.6,0c0.6,0,1.2,0.2,1.7,0.3c0.6,0.2,1.2,0.2,1.8,0.5c1.2,0.4,2.5,1,3.6,2c1.2,1,2,2.5,2.3,4
				c0.3,1.5,0.1,2.8-0.2,4c-0.3,1.3-1.5,2.1-2.8,1.9c-1.2-0.2-1.9-1.3-1.9-2.4l0-0.3c0-0.8-0.1-1.5-0.2-1.9
				c-0.2-0.4-0.5-0.7-0.8-0.9c-0.4-0.2-0.9-0.5-1.7-0.6c-0.3-0.1-0.7-0.1-1.1-0.2c-0.4,0-0.8-0.1-1.2-0.1c-3.4,0-7.2,0.7-10.9,1.5
				c-3.7,0.9-7.4,2-11.1,3.2c-1.9,0.6-3.7,1.2-5.6,1.6c-1.9,0.5-3.8,1-5.8,1.3l0,0c-1.4,0.2-2.6-0.8-2.8-2.1
				C133.6,118.8,134,117.9,134.8,117.4z"/>
		</g>
		<g>
			<path d="M168,179.4c-0.9-1.7-1.8-3.5-2.1-5.5c-0.3-1-0.3-2-0.4-3.1c0-1,0-2.1,0.2-3.1c0.3-2,0.9-3.9,1.5-5.6
				c0.6-1.8,1.3-3.3,1.9-4.9c1.3-3.1,2.5-6.2,3.4-9.3l0.6-2.4c0.1-0.4,0.1-0.7,0.2-1.1c0.1-0.4,0.2-0.7,0.2-1.1
				c0.2-1.4,0.1-2.6-0.2-3.6c-0.3-1-0.8-1.7-1.6-2.4c-0.8-0.6-2.1-1.1-3.4-1.5c-1.4-0.3-2.9-0.5-4.5-0.5c-1.6,0-3.2,0-4.8,0.1
				c-1.6,0.1-3.3,0.3-5,0.5c-1.7,0.2-3.3,0.5-5,0.8c-3.4,0.6-6.7,1.3-10.2,1.9c-1.3,0.2-2.6-0.6-2.8-2c-0.2-1.2,0.5-2.4,1.7-2.7l0,0
				c3.2-0.9,6.6-2,10-2.8c3.4-0.9,6.9-1.6,10.5-2c1.8-0.2,3.6-0.4,5.5-0.4c1.9,0,3.8,0.1,5.8,0.5c2,0.4,4.1,1.1,6.1,2.5
				c2,1.3,3.6,3.6,4.3,5.9c1.4,4.7,0.2,8.9-0.6,12.3c-1,3.5-2.2,7-3.6,10.2c-1.4,3.2-2.8,6.2-3.5,9c-0.2,0.7-0.3,1.4-0.4,2.1
				c0,0.7-0.1,1.4-0.1,2.1c0,1.4,0.3,2.9,0.6,4.4l0,0.2c0.3,1.3-0.6,2.6-1.9,2.8C169.6,180.8,168.5,180.3,168,179.4z"/>
		</g>
		<g>
			<path d="M85.7,164.9c10.2,4.9,20.9,8.6,32,10.8l4.1,0.8c1.4,0.2,2.8,0.4,4.2,0.6l2.1,0.3l2.1,0.2c1.4,0.1,2.8,0.3,4.2,0.4
				c5.6,0.4,11.2,0.5,16.9,0.4c11.2-0.4,22.4-2,33.3-4.6c5.5-1.3,10.8-2.9,16.1-4.8c2.6-0.9,5.3-1.9,7.8-3c1.3-0.5,2.6-1.1,3.8-1.6
				c1.2-0.6,2.6-1.2,3.6-1.7l0.1,0c2.3-1.2,5.1-0.3,6.2,2c1.2,2.3,0.3,5.1-2,6.2c0,0-0.1,0.1-0.1,0.1c-1.5,0.7-2.8,1.3-4.2,1.8
				c-1.4,0.6-2.8,1.1-4.2,1.6c-2.8,1-5.6,2-8.4,2.8c-5.6,1.7-11.3,3.2-17.1,4.4c-11.5,2.4-23.3,3.6-35,3.6c-5.9,0-11.7-0.4-17.6-1
				c-1.5-0.2-2.9-0.4-4.4-0.6l-2.2-0.3l-2.2-0.4c-1.4-0.3-2.9-0.5-4.3-0.8l-4.3-1c-11.4-2.7-22.4-7-32.8-12.3
				c-1.1-0.6-1.5-1.9-0.9-3C83.3,164.8,84.6,164.4,85.7,164.9L85.7,164.9z"/>
		</g>
	</g>
</g>
</svg>
