<?xml version="1.0" encoding="utf-8"?>
<!-- Generator: Adobe Illustrator 24.0.3, SVG Export Plug-In . SVG Version: 6.00 Build 0)  -->
<svg version="1.1" id="Layer_1" xmlns="http://www.w3.org/2000/svg" xmlns:xlink="http://www.w3.org/1999/xlink" x="0px" y="0px"
	 viewBox="0 0 302.8 318.8" style="enable-background:new 0 0 302.8 318.8;" xml:space="preserve">
<style type="text/css">
	.st0{fill:none;stroke:#000000;stroke-width:1.0456;stroke-miterlimit:10;}
	.st1{fill:#FFFFFF;stroke:#000000;stroke-miterlimit:10;}
	.st2{fill:none;stroke:#000000;stroke-width:1.2796;stroke-miterlimit:10;}
	.st3{stroke:#FFFFFF;stroke-width:0.465;stroke-miterlimit:10;}
	.st4{fill:#FFFFFF;}
	.st5{fill:#FFFFFF;stroke:#000000;stroke-width:0.465;stroke-miterlimit:10;}
	.st6{fill:#FFFFFF;stroke:#FFFFFF;stroke-width:0.465;stroke-miterlimit:10;}
	.st7{fill:#FFFFFF;stroke:#000000;stroke-width:0.8711;stroke-miterlimit:10;}
	.st8{fill:none;stroke:#000000;stroke-width:0.8711;stroke-miterlimit:10;}
	.st9{fill:#F9A134;}
	.st10{fill:#6C0E0F;}
	.st11{fill:none;stroke:#000000;stroke-width:15;stroke-linecap:round;stroke-miterlimit:10;}
	.st12{fill:none;stroke:#000000;stroke-width:13.9073;stroke-linecap:round;stroke-miterlimit:10;}
	.st13{stroke:#FFFFFF;stroke-width:6;stroke-miterlimit:10;}
	.st14{stroke:#FFFFFF;stroke-width:0.2062;stroke-miterlimit:10;}
	.st15{stroke:#FFFFFF;stroke-width:2.1704;stroke-miterlimit:10;}
	.st16{fill:none;stroke:#FFFFFF;stroke-width:2.1704;stroke-linecap:round;stroke-miterlimit:10;}
	.st17{stroke:#FFFFFF;stroke-width:5;stroke-miterlimit:10;}
	.st18{fill:none;stroke:#000000;stroke-width:20.3102;stroke-miterlimit:10;}
	.st19{stroke:#FFFFFF;stroke-width:5;stroke-linecap:round;stroke-miterlimit:10;}
	.st20{fill:#A3ABAF;}
	.st21{fill:none;}
	.st22{font-family:'CorundumTextBook';}
	.st23{font-size:59.6796px;}
	.st24{font-family:'MrEavesModOT-Light';}
	.st25{font-size:36px;}
	.st26{fill:#FFFFFF;stroke:#000000;stroke-width:0.9051;stroke-miterlimit:10;}
	.st27{fill:#FFFFFF;stroke:#000000;stroke-width:1.8102;stroke-miterlimit:10;}
</style>
<g>
	<rect x="46.6" y="208.2" class="st21" width="210.3" height="44"/>
	<text transform="matrix(1 0 0 1 46.6124 250.3767)" class="st22 st23">Sootheze</text>
	<rect x="45.7" y="263.5" class="st21" width="212" height="29.2"/>
	<text transform="matrix(1 0 0 1 45.7257 285.1082)"><tspan x="0" y="0" class="st24 st25">Therapy Prod</tspan><tspan x="164.3" y="0" class="st24 st25">-</tspan></text>
	<g>
		<path d="M154.9,39.2L154.9,39.2c26.2,0,47.7,21.4,47.7,47.7v53.6c0,26.2-21.4,47.7-47.7,47.7h0c-26.2,0-47.7-21.4-47.7-47.7V86.8
			C107.3,60.6,128.7,39.2,154.9,39.2z"/>
		<path class="st26" d="M195.3,62.9c0,0-22.1,16.9-25.5,20.8c-3.4,4-19.1,12.2-24,15c-3.1,1.8-7.1,5.8-10.9,10.2
			c-2.3,2.6-2.4,6.3-3.1,8.6c-1.4,4.2-3,7.2-4.3,10.2c-1.3,2.9,3.8,3.9,5.9,1.2c1.6-1.9,2-6.7,4.6-7.5c13.4,9.7,25.2,6.4,34-20.3
			c4.4-5.4,28.6-8.9,30.6-12.5C202.6,88.7,202.4,74.6,195.3,62.9z"/>
		<path class="st27" d="M115,174.6c0,0,19.3-21.8,22.2-26.2c2.8-4.3,20.9-13.7,25.4-17.1c2.9-2.2,6.3-6.6,9.6-11.4
			c2-2.9,0.4-7,0.9-9.5c0.8-4.3,3.5-6.9,4.1-10.1c0.3-1.6-3-0.7-4.5,0c-2.2,1.1-4.1,4.2-5.1,7.7c-2.2,8.5-7.1,7.9-12,13.3
			c-4.6,5-9.5,4.4-7.7,0.1c1.9-4.3,11.1-8.9,7.6-13.3c-1.4-1.5-4.1,2-7.5,4.3c-2.6,1.7-5.4,3.6-5.9,3.9c-2,1.3-4,3.4-6.7,8.8
			c-2.3,4.6-0.9,5.3-1.8,8.9c-1.1,4.7-31,16.4-30.3,19.3L115,174.6z"/>
		<path class="st4" d="M199.3,60.6c-2.4,1.2-8.3,6.1-13.3,10l15.5,18.5l1-0.5l0.3,2.6l3.1-4.5L199.3,60.6z"/>
		<polygon class="st4" points="97.6,151.1 108,148.8 108.3,150 110.6,151.1 117.5,167.8 118.4,170.8 119.4,172.1 112.8,178 		"/>
	</g>
</g>
</svg>
