<?xml version="1.0" encoding="utf-8"?>
<!-- Generator: Adobe Illustrator 24.0.3, SVG Export Plug-In . SVG Version: 6.00 Build 0)  -->
<svg version="1.1" id="Layer_1" xmlns="http://www.w3.org/2000/svg" xmlns:xlink="http://www.w3.org/1999/xlink" x="0px" y="0px"
	 viewBox="0 0 302.8 318.8" style="enable-background:new 0 0 302.8 318.8;" xml:space="preserve">
<style type="text/css">
	.st0{fill:none;stroke:#000000;stroke-width:1.0456;stroke-miterlimit:10;}
	.st1{fill:#FFFFFF;stroke:#000000;stroke-miterlimit:10;}
	.st2{fill:none;stroke:#000000;stroke-width:1.2796;stroke-miterlimit:10;}
	.st3{stroke:#FFFFFF;stroke-width:0.465;stroke-miterlimit:10;}
	.st4{fill:#FFFFFF;}
	.st5{fill:#FFFFFF;stroke:#000000;stroke-width:0.465;stroke-miterlimit:10;}
	.st6{fill:#FFFFFF;stroke:#FFFFFF;stroke-width:0.465;stroke-miterlimit:10;}
	.st7{fill:#FFFFFF;stroke:#000000;stroke-width:0.8711;stroke-miterlimit:10;}
	.st8{fill:none;stroke:#000000;stroke-width:0.8711;stroke-miterlimit:10;}
	.st9{fill:#F9A134;}
	.st10{fill:#6C0E0F;}
	.st11{fill:none;}
	.st12{font-family:'Kazimir-Medium';}
	.st13{font-size:59.6796px;}
	.st14{font-family:'MuseoSans-300';}
	.st15{font-size:23.75px;}
	.st16{letter-spacing:1;}
	.st17{letter-spacing:2;}
	.st18{fill:none;stroke:#000000;stroke-width:15;stroke-linecap:round;stroke-miterlimit:10;}
	.st19{fill:none;stroke:#000000;stroke-width:13.9073;stroke-linecap:round;stroke-miterlimit:10;}
	.st20{stroke:#FFFFFF;stroke-width:6;stroke-miterlimit:10;}
	.st21{stroke:#FFFFFF;stroke-width:0.2062;stroke-miterlimit:10;}
	.st22{stroke:#FFFFFF;stroke-width:2.1704;stroke-miterlimit:10;}
	.st23{fill:none;stroke:#FFFFFF;stroke-width:2.1704;stroke-linecap:round;stroke-miterlimit:10;}
	.st24{stroke:#FFFFFF;stroke-width:5;stroke-miterlimit:10;}
	.st25{fill:none;stroke:#000000;stroke-width:20.3102;stroke-miterlimit:10;}
	.st26{stroke:#FFFFFF;stroke-width:5;stroke-linecap:round;stroke-miterlimit:10;}
	.st27{fill:#A3ABAF;}
	.st28{fill:#FFFFFF;stroke:#000000;stroke-width:0.9051;stroke-miterlimit:10;}
	.st29{fill:#FFFFFF;stroke:#000000;stroke-width:1.8102;stroke-miterlimit:10;}
</style>
<path class="st0" d="M-301-41c0,66.9-40.9,121.1-91.4,121.1S-483.8,26-483.8-41c0-53.2,40.9-96.3,91.4-96.3S-301-94.2-301-41z"/>
<ellipse class="st1" cx="-392.4" cy="251.1" rx="155.8" ry="110.1"/>
<path class="st2" d="M-193.1,254c0,77.8-89.2,107.8-199.3,107.8S-591.7,331.7-591.7,254s0-173.8,199.3-173.8S-193.1,176.2-193.1,254
	z"/>
<path d="M328.2-403.3c0,25.9-15.9,46.9-35.4,46.9c-19.6,0-35.4-21-35.4-46.9c0-20.6,15.9-37.3,35.4-37.3
	C312.4-440.6,328.2-423.9,328.2-403.3z"/>
<g>
	<path d="M338.6-412.7c-0.4,12.7-3.9,25.4-10.9,36c-3.5,5.3-7.7,10-12.8,13.8c-5.1,3.7-11,6.4-17.2,7.3c-3.1,0.5-6.3,0.5-9.5,0.1
		c-3.1-0.4-6.2-1.2-9.2-2.5c-5.8-2.5-11-6.3-15.3-11c-4.2-4.7-7.7-10.1-10.3-15.8c-2.6-5.8-4.4-11.9-5.4-18.2
		c-0.5-3.1-0.8-6.3-1-9.5c0-1.6,0-3.3,0-4.9c0.1-1.6,0.3-3.3,0.5-4.9c1-6.5,3.3-12.8,6.9-18.5c3.6-5.7,8.3-10.6,14-14.3
		c5.6-3.8,12.2-6.2,19-7.1c6.8-0.9,13.8-0.2,20.3,2.2c3.2,1.2,6.3,2.7,9.2,4.6l2.1,1.4c0.7,0.5,1.3,1.1,2,1.6
		c0.6,0.5,1.3,1.1,1.9,1.6l1.8,1.8c4.7,4.9,8.3,10.7,10.6,16.9C337.7-425.9,338.8-419.3,338.6-412.7z M332-412.7
		c-0.2-5.7-1.5-11.3-3.9-16.4c-2.4-5.1-5.7-9.6-9.8-13.2c-8.1-7.3-19-11.1-29.7-10c-10.7,1.1-20.7,7.2-27.2,16.2
		c-3.3,4.5-5.6,9.7-6.9,15.2c-0.2,1.4-0.5,2.8-0.8,4.2c-0.1,1.4-0.3,2.8-0.4,4.3c-0.1,2.9,0,5.9,0.2,8.8c0.5,5.8,1.8,11.7,3.8,17.2
		c2.1,5.5,5,10.8,8.7,15.3c3.8,4.5,8.4,8.4,13.8,10.8c5.3,2.4,11.4,3.4,17.2,2.5c5.8-0.8,11.4-3.4,16-7.2c4.6-3.7,8.3-8.5,11.1-13.7
		c2.8-5.2,4.8-10.8,6-16.5C331.7-401,332.2-406.9,332-412.7z"/>
</g>
<ellipse class="st3" cx="292.8" cy="-276.9" rx="72.4" ry="51.2"/>
<g>
	<path d="M390.2-275.6c0.1,6-0.8,12.2-3.2,18c-1.2,2.9-2.7,5.6-4.4,8.2l-1.4,1.9l-0.7,0.9l-0.8,0.9l-1.5,1.7l-1.6,1.6
		c-0.5,0.6-1.1,1.1-1.7,1.6l-1.7,1.5c-1.2,0.9-2.4,1.9-3.6,2.7c-1.2,0.9-2.5,1.7-3.8,2.4c-1.3,0.8-2.6,1.5-3.9,2.2
		c-5.2,2.8-10.6,4.9-16.1,6.6c-11,3.4-22.3,5.2-33.5,6.1c-11.2,0.8-22.4,0.8-33.6,0.1c-11.2-0.8-22.4-2.2-33.5-5.2
		c-5.5-1.5-11-3.3-16.3-5.6c-5.3-2.3-10.5-5.3-15.2-9c-4.7-3.6-8.9-8.3-12.1-13.6c-3.1-5.4-5-11.4-5.4-17.4
		c-0.1-0.8-0.1-1.5-0.2-2.2l0-2.2l0-1.1l0-1l0.1-2.1c0.1-2.7,0.2-5.5,0.4-8.3c0.3-5.5,0.8-11.1,1.8-16.7c1-5.6,2.6-11.1,4.9-16.3
		c2.3-5.2,5.4-10.2,9.3-14.4c3.9-4.2,8.5-7.7,13.4-10.5c4.9-2.8,10.1-4.9,15.4-6.6c2.6-0.9,5.3-1.5,8-2.2l4.1-0.8l2-0.4
		c0.7-0.1,1.4-0.2,2-0.3l4.1-0.6c1.4-0.2,2.7-0.3,4.1-0.5c1.4-0.1,2.7-0.3,4.1-0.4l4.1-0.3c5.5-0.4,11-0.5,16.4-0.6
		c2.7-0.1,5.5,0,8.2,0c2.7,0,5.5,0.2,8.2,0.3c10.9,0.5,21.9,1.7,32.7,4.4c2.7,0.6,5.3,1.5,8,2.3l3.9,1.4c1.3,0.5,2.6,1.1,3.9,1.7
		c5.1,2.4,10,5.3,14.4,9.1c4.4,3.7,8.1,8.3,11,13.3c2.9,5,4.9,10.5,6.3,16.1C389.7-297.8,389.9-286.5,390.2-275.6z M380.8-275.6
		c0.1-5.5,0.3-10.8,0.1-16.1c-0.2-5.3-0.5-10.5-1.5-15.6c-0.9-5.1-2.4-10-4.6-14.7c-2.2-4.6-5.3-8.8-8.9-12.4
		c-3.7-3.6-8-6.7-12.7-9.2c-1.2-0.6-2.3-1.3-3.6-1.8L346-347c-1.2-0.5-2.5-0.9-3.8-1.4c-1.3-0.5-2.5-0.8-3.8-1.2
		c-10.3-3.1-21.1-4.6-31.9-5.3c-10.8-0.6-21.7-0.5-32.5,0.4l-4,0.4c-1.3,0.1-2.7,0.3-4,0.5c-1.3,0.2-2.7,0.3-4,0.6l-4,0.7
		c-0.7,0.1-1.3,0.2-2,0.4l-2,0.5c-1.3,0.3-2.6,0.6-3.9,0.9c-2.6,0.8-5.2,1.4-7.7,2.4c-10.1,3.5-19.6,8.9-26.2,17
		c-3.3,4-5.9,8.5-7.7,13.4c-1.8,4.8-2.9,10-3.6,15.2c-0.6,5.2-0.8,10.5-0.7,15.9c0,2.7,0.1,5.4,0.2,8.1l0.1,2l0,1l0.1,0.9l0.1,1.9
		c0.1,0.6,0.2,1.2,0.3,1.8c0.7,4.9,2.5,9.4,5.1,13.3c2.7,3.9,6.1,7.4,10.2,10.1c8.1,5.6,18,9,28.1,11.3c10.2,2.2,20.7,3.3,31.3,3.8
		c5.3,0.2,10.6,0.2,15.9,0.1c5.3-0.1,10.6-0.3,15.9-0.7c10.5-0.8,21-2.2,31-4.8c5-1.3,9.8-2.9,14.4-5c4.5-2.1,8.9-4.6,12.5-7.8
		l1.3-1.2l1.2-1.3l0.6-0.6l0.6-0.7l1.1-1.4c1.4-1.9,2.7-3.9,3.7-6C379.7-265.9,380.6-270.7,380.8-275.6z"/>
</g>
<g>
	<path d="M-89.5-461.6c-0.4,12.7-3.9,25.4-10.9,36c-3.5,5.3-7.7,10-12.8,13.8c-5.1,3.7-11,6.4-17.2,7.3c-3.1,0.5-6.3,0.5-9.5,0.1
		c-3.1-0.4-6.2-1.2-9.2-2.5c-5.8-2.5-11-6.3-15.3-11c-4.2-4.7-7.7-10.1-10.3-15.8c-2.6-5.8-4.4-11.9-5.4-18.2
		c-0.5-3.1-0.8-6.3-1-9.5c0-1.6,0-3.3,0-4.9c0.1-1.6,0.3-3.3,0.5-4.9c1-6.5,3.3-12.8,6.9-18.5c3.6-5.7,8.3-10.6,14-14.3
		c5.6-3.8,12.2-6.2,19-7.1c6.8-0.9,13.8-0.2,20.3,2.2c3.2,1.2,6.3,2.7,9.2,4.6l2.1,1.4c0.7,0.5,1.3,1.1,2,1.6
		c0.6,0.5,1.3,1.1,1.9,1.6l1.8,1.8c4.7,4.9,8.3,10.7,10.6,16.9C-90.4-474.7-89.3-468.1-89.5-461.6z"/>
	<path class="st4" d="M-99.9-457.2c0,25.9-15.9,46.9-35.4,46.9s-35.4-21-35.4-46.9c0-20.6,15.9-37.3,35.4-37.3
		S-99.9-477.8-99.9-457.2z"/>
	<path d="M-37.9-324.4c0.1,6-0.8,12.2-3.2,18c-1.2,2.9-2.7,5.6-4.4,8.2l-1.4,1.9l-0.7,0.9l-0.8,0.9l-1.5,1.7l-1.6,1.6
		c-0.5,0.6-1.1,1.1-1.7,1.6l-1.7,1.5c-1.2,0.9-2.4,1.9-3.6,2.7c-1.2,0.9-2.5,1.7-3.8,2.4c-1.3,0.8-2.6,1.5-3.9,2.2
		c-5.2,2.8-10.6,4.9-16.1,6.6c-11,3.4-22.3,5.2-33.5,6.1c-11.2,0.8-22.4,0.8-33.6,0.1c-11.2-0.8-22.4-2.2-33.5-5.2
		c-5.5-1.5-11-3.3-16.3-5.6c-5.3-2.3-10.5-5.3-15.2-9c-4.7-3.6-8.9-8.3-12.1-13.6c-3.1-5.4-5-11.4-5.4-17.4
		c-0.1-0.8-0.1-1.5-0.2-2.2l0-2.2l0-1.1l0-1l0.1-2.1c0.1-2.7,0.2-5.5,0.4-8.3c0.3-5.5,0.8-11.1,1.8-16.7c1-5.6,2.6-11.1,4.9-16.3
		c2.3-5.2,5.4-10.2,9.3-14.4c3.9-4.2,8.5-7.7,13.4-10.5c4.9-2.8,10.1-4.9,15.4-6.6c2.6-0.9,5.3-1.5,8-2.2l4.1-0.8l2-0.4
		c0.7-0.1,1.4-0.2,2-0.3l4.1-0.6c1.4-0.2,2.7-0.3,4.1-0.5c1.4-0.1,2.7-0.3,4.1-0.4l4.1-0.3c5.5-0.4,11-0.5,16.4-0.6
		c2.7-0.1,5.5,0,8.2,0c2.7,0,5.5,0.2,8.2,0.3c10.9,0.5,21.9,1.7,32.7,4.4c2.7,0.6,5.3,1.5,8,2.3l3.9,1.4c1.3,0.5,2.6,1.1,3.9,1.7
		c5.1,2.4,10,5.3,14.4,9.1c4.4,3.7,8.1,8.3,11,13.3c2.9,5,4.9,10.5,6.3,16.1C-38.4-346.7-38.2-335.3-37.9-324.4z"/>
	<ellipse class="st5" cx="-135.3" cy="-332.2" rx="72.4" ry="51.2"/>
</g>
<g>
	<g>
		<path d="M582.1-413.2c0,31.1-19,56.3-42.5,56.3c-23.5,0-42.5-25.2-42.5-56.3c0-24.7,19-44.8,42.5-44.8
			C563-458,582.1-438,582.1-413.2z"/>
		<path d="M585.4-413.2c-0.4,12.7-3.9,25.4-10.9,36c-3.5,5.3-7.7,10-12.8,13.8c-5.1,3.7-11,6.4-17.2,7.3c-3.1,0.5-6.3,0.5-9.5,0.1
			c-3.1-0.4-6.2-1.2-9.2-2.5c-5.8-2.5-11-6.3-15.3-11c-4.2-4.7-7.7-10.1-10.3-15.8c-2.6-5.8-4.4-11.9-5.4-18.2
			c-0.5-3.1-0.8-6.3-1-9.5c0-1.6,0-3.3,0-4.9c0.1-1.6,0.3-3.3,0.5-4.9c1-6.5,3.3-12.8,6.9-18.5c3.6-5.7,8.3-10.6,14-14.3
			c5.6-3.8,12.2-6.2,19-7.1c6.8-0.9,13.8-0.2,20.3,2.2c3.2,1.2,6.3,2.7,9.2,4.6l2.1,1.4c0.7,0.5,1.3,1.1,2,1.6
			c0.6,0.5,1.3,1.1,1.9,1.6l1.8,1.8c4.7,4.9,8.3,10.7,10.6,16.9C584.5-426.4,585.5-419.8,585.4-413.2z M578.7-413.2
			c-0.2-5.7-1.5-11.3-3.9-16.4c-2.4-5.1-5.7-9.6-9.8-13.2c-8.1-7.3-19-11.1-29.7-10c-10.7,1.1-20.7,7.2-27.2,16.2
			c-3.3,4.5-5.6,9.7-6.9,15.2c-0.2,1.4-0.5,2.8-0.8,4.2c-0.1,1.4-0.3,2.8-0.4,4.3c-0.1,2.9,0,5.9,0.2,8.8c0.5,5.8,1.8,11.7,3.8,17.2
			c2.1,5.5,5,10.8,8.7,15.3c3.8,4.5,8.4,8.4,13.8,10.8c5.3,2.4,11.4,3.4,17.2,2.5c5.8-0.8,11.4-3.4,16-7.2
			c4.6-3.7,8.3-8.5,11.1-13.7c2.8-5.2,4.8-10.8,6-16.5C578.4-401.5,578.9-407.4,578.7-413.2z"/>
	</g>
	<path class="st4" d="M572.6-405.5c0,24.2-14.8,43.8-33,43.8s-33-19.6-33-43.8c0-19.2,14.8-34.8,33-34.8S572.6-424.7,572.6-405.5z"
		/>
	<g>
		<path class="st4" d="M562.5-396.1c0,16.8-10.3,30.3-22.9,30.3c-12.6,0-22.9-13.6-22.9-30.3c0-13.3,10.3-24.1,22.9-24.1
			C552.2-420.3,562.5-409.5,562.5-396.1z"/>
		<path d="M565.3-396.1c-0.4,7-2.3,14-6.3,19.7c-2,2.9-4.3,5.5-7.1,7.5c-2.8,2.1-6.1,3.5-9.5,4.1c-0.9,0.1-1.7,0.1-2.6,0.2
			c-0.9,0-1.8-0.1-2.6-0.1c-0.9-0.2-1.7-0.3-2.6-0.5c-0.8-0.3-1.7-0.5-2.5-0.8c-3.3-1.4-6.2-3.5-8.6-6c-2.4-2.6-4.4-5.5-5.9-8.7
			c-1.5-3.2-2.6-6.5-3.2-10c-0.1-0.9-0.3-1.7-0.4-2.6l-0.3-2.6c0-0.9,0-1.8,0-2.8c0-0.9,0.2-1.9,0.2-2.8c0.5-3.7,1.8-7.4,3.8-10.6
			c2-3.3,4.7-6.1,8-8.3c3.2-2.2,7.1-3.6,11-4.2c1-0.1,2-0.2,3-0.2c1,0,2,0.1,3,0.2c1,0.2,2,0.3,3,0.5c1,0.3,1.9,0.5,2.9,0.9
			c1.9,0.7,3.7,1.6,5.3,2.7l1.2,0.8c0.4,0.3,0.8,0.6,1.1,0.9l1.1,1l1,1.1C563.2-411.1,565.6-403.4,565.3-396.1z M559.7-396.1
			l-0.2-2.2l-0.4-2.1c-0.2-0.7-0.4-1.4-0.7-2.1c-0.3-0.7-0.6-1.3-0.9-2c-1.3-2.5-3.1-4.7-5.2-6.4c-4.2-3.4-9.4-5.1-14.6-4.6
			c-2.6,0.2-5.1,1.1-7.4,2.4c-2.3,1.3-4.4,3.2-6,5.4c-1.7,2.2-2.9,4.8-3.6,7.5c-0.1,0.7-0.3,1.4-0.4,2.1c-0.1,0.7-0.2,1.4-0.2,2.2
			l-0.1,2.3c0,0.8,0.1,1.5,0.1,2.3c0.4,6.1,2.2,12.3,6.1,17.1c1.9,2.4,4.3,4.5,7.1,5.7c2.8,1.3,5.9,1.9,8.9,1.4
			c3-0.4,5.9-1.8,8.3-3.7c2.4-2,4.3-4.5,5.8-7.2c1.4-2.8,2.4-5.7,3-8.8C559.6-390,559.8-393.1,559.7-396.1z"/>
	</g>
	<g>
		<path d="M632.2-275.1c0,36.2-41.5,50.1-92.7,50.1c-51.2,0-92.7-14-92.7-50.1s0-80.8,92.7-80.8S632.2-311.3,632.2-275.1z"/>
		<path d="M636.9-275.1c0.1,6-0.8,12.2-3.2,18c-1.2,2.9-2.7,5.6-4.4,8.2l-1.4,1.9l-0.7,0.9l-0.8,0.9l-1.5,1.7l-1.6,1.6
			c-0.5,0.6-1.1,1.1-1.7,1.6l-1.7,1.5c-1.2,0.9-2.4,1.9-3.6,2.7c-1.2,0.9-2.5,1.7-3.8,2.4c-1.3,0.8-2.6,1.5-3.9,2.2
			c-5.2,2.8-10.6,4.9-16.1,6.6c-11,3.4-22.3,5.2-33.5,6.1c-11.2,0.8-22.4,0.8-33.6,0.1c-11.2-0.8-22.4-2.2-33.5-5.2
			c-5.5-1.5-11-3.3-16.3-5.6c-5.3-2.3-10.5-5.3-15.2-9c-4.7-3.6-8.9-8.3-12.1-13.6c-3.1-5.4-5-11.4-5.4-17.4
			c-0.1-0.8-0.1-1.5-0.2-2.2l0-2.2l0-1.1l0-1l0.1-2.1c0.1-2.7,0.2-5.5,0.4-8.3c0.3-5.5,0.8-11.1,1.8-16.7c1-5.6,2.6-11.1,4.9-16.3
			c2.3-5.2,5.4-10.2,9.3-14.4c3.9-4.2,8.5-7.7,13.4-10.5c4.9-2.8,10.1-4.9,15.4-6.6c2.6-0.9,5.3-1.5,8-2.2l4.1-0.8l2-0.4
			c0.7-0.1,1.4-0.2,2-0.3l4.1-0.6c1.4-0.2,2.7-0.3,4.1-0.5c1.4-0.1,2.7-0.3,4.1-0.4l4.1-0.3c5.5-0.4,11-0.5,16.4-0.6
			c2.7-0.1,5.5,0,8.2,0c2.7,0,5.5,0.2,8.2,0.3c10.9,0.5,21.9,1.7,32.7,4.4c2.7,0.6,5.3,1.5,8,2.3l3.9,1.4c1.3,0.5,2.6,1.1,3.9,1.7
			c5.1,2.4,10,5.3,14.4,9.1c4.4,3.7,8.1,8.3,11,13.3c2.9,5,4.9,10.5,6.3,16.1C636.4-297.3,636.6-286,636.9-275.1z M627.6-275.1
			c0.1-5.5,0.3-10.8,0.1-16.1c-0.2-5.3-0.5-10.5-1.5-15.6c-0.9-5.1-2.4-10-4.6-14.7c-2.2-4.6-5.3-8.8-8.9-12.4
			c-3.7-3.6-8-6.7-12.7-9.2c-1.2-0.6-2.3-1.3-3.6-1.8l-3.7-1.6c-1.2-0.5-2.5-0.9-3.8-1.4c-1.3-0.5-2.5-0.8-3.8-1.2
			c-10.3-3.1-21.1-4.6-31.9-5.3c-10.8-0.6-21.7-0.5-32.5,0.4l-4,0.4c-1.3,0.1-2.7,0.3-4,0.5c-1.3,0.2-2.7,0.3-4,0.6l-4,0.7
			c-0.7,0.1-1.3,0.2-2,0.4l-2,0.5c-1.3,0.3-2.6,0.6-3.9,0.9c-2.6,0.8-5.2,1.4-7.7,2.4c-10.1,3.5-19.6,8.9-26.2,17
			c-3.3,4-5.9,8.5-7.7,13.4c-1.8,4.8-2.9,10-3.6,15.2c-0.6,5.2-0.8,10.5-0.7,15.9c0,2.7,0.1,5.4,0.2,8.1l0.1,2l0,1l0.1,0.9l0.1,1.9
			c0.1,0.6,0.2,1.2,0.3,1.8c0.7,4.9,2.5,9.4,5.1,13.3c2.7,3.9,6.1,7.4,10.2,10.1c8.1,5.6,18,9,28.1,11.3c10.2,2.2,20.7,3.3,31.3,3.8
			c5.3,0.2,10.6,0.2,15.9,0.1c5.3-0.1,10.6-0.3,15.9-0.7c10.5-0.8,21-2.2,31-4.8c5-1.3,9.8-2.9,14.4-5c4.5-2.1,8.9-4.6,12.5-7.8
			l1.3-1.2l1.2-1.3l0.6-0.6l0.6-0.7l1.1-1.4c1.4-1.9,2.7-3.9,3.7-6C626.4-265.4,627.4-270.2,627.6-275.1z"/>
	</g>
	<ellipse class="st6" cx="539.6" cy="-276.4" rx="72.4" ry="51.2"/>
	<g>
		<ellipse class="st4" cx="539.6" cy="-268.4" rx="52.7" ry="37.2"/>
		<path d="M596.2-268.4c-0.3,6.8-2.9,13.3-7,18.4c-4,5.1-9.1,9-14.5,11.9c-10.9,5.8-23,8.3-35.1,8.6c-12.1,0.2-24.4-2.1-35.4-8
			c-5.5-3-10.7-6.8-14.7-12c-4.1-5.1-6.9-11.7-7.3-18.7c-0.4-7,1.8-14.2,5.5-20c3.8-5.8,8.8-10.6,14.4-14.2
			c11.3-7.3,24.5-10.6,37.5-10.7c6.5,0,13.1,0.8,19.4,2.6c6.3,1.8,12.4,4.6,17.9,8.4c5.5,3.8,10.3,8.6,13.9,14.4
			C594.4-282.2,596.4-275.2,596.2-268.4z M588.3-268.4c-0.3-5.1-2.4-9.9-5.7-13.7c-3.3-3.9-7.6-6.9-12.3-9.2
			c-4.7-2.3-9.8-3.8-14.9-4.9c-5.2-1.1-10.5-1.6-15.8-1.7c-10.6-0.1-21.4,2-30.6,6.9c-4.6,2.4-8.7,5.5-11.8,9.4
			c-3.1,3.8-5.1,8.4-5.5,13.2c-0.3,4.9,0.9,10,3.8,14.5c2.8,4.5,6.8,8.5,11.5,11.6c9.4,6.3,21,9.4,32.6,9.6c2.9,0,5.8-0.1,8.7-0.4
			c2.9-0.3,5.7-0.9,8.5-1.6c2.8-0.7,5.5-1.7,8.2-2.9c2.6-1.2,5.2-2.6,7.5-4.1c4.7-3.2,8.8-7.2,11.7-11.8
			C587.1-258.2,588.5-263.4,588.3-268.4z"/>
	</g>
</g>
<g>
	<path d="M1410.4,605.4c0,31.1-19,56.3-42.5,56.3c-23.5,0-42.5-25.2-42.5-56.3c0-24.7,19-44.8,42.5-44.8
		C1391.4,560.6,1410.4,580.6,1410.4,605.4z"/>
	<path d="M1413.7,605.4c-0.4,12.7-3.9,25.4-10.9,36c-3.5,5.3-7.7,10-12.8,13.8c-5.1,3.7-11,6.4-17.2,7.3c-3.1,0.5-6.3,0.5-9.5,0.1
		c-3.1-0.4-6.2-1.2-9.2-2.5c-5.8-2.5-11-6.3-15.3-11c-4.2-4.7-7.7-10.1-10.3-15.8c-2.6-5.8-4.4-11.9-5.4-18.2
		c-0.5-3.1-0.8-6.3-1-9.5c0-1.6,0-3.3,0-4.9c0.1-1.6,0.3-3.3,0.5-4.9c1-6.5,3.3-12.8,6.9-18.5c3.6-5.7,8.3-10.6,14-14.3
		c5.6-3.8,12.2-6.2,19-7.1c6.8-0.9,13.8-0.2,20.3,2.2c3.2,1.2,6.3,2.7,9.2,4.6l2.1,1.4c0.7,0.5,1.3,1.1,2,1.6
		c0.6,0.5,1.3,1.1,1.9,1.6l1.8,1.8c4.7,4.9,8.3,10.7,10.6,16.9C1412.8,592.2,1413.9,598.8,1413.7,605.4z M1407.1,605.4
		c-0.2-5.7-1.5-11.3-3.9-16.4c-2.4-5.1-5.7-9.6-9.8-13.2c-8.1-7.3-19-11.1-29.7-10c-10.7,1.1-20.7,7.2-27.2,16.2
		c-3.3,4.5-5.6,9.7-6.9,15.2c-0.2,1.4-0.5,2.8-0.8,4.2c-0.1,1.4-0.3,2.8-0.4,4.3c-0.1,2.9,0,5.9,0.2,8.8c0.5,5.8,1.8,11.7,3.8,17.2
		c2.1,5.5,5,10.8,8.7,15.3c3.8,4.5,8.4,8.4,13.8,10.8c5.3,2.4,11.4,3.4,17.2,2.5c5.8-0.8,11.4-3.4,16-7.2c4.6-3.7,8.3-8.5,11.1-13.7
		c2.8-5.2,4.8-10.8,6-16.5C1406.8,617.1,1407.3,611.2,1407.1,605.4z"/>
</g>
<path class="st4" d="M1401,613.1c0,24.2-14.8,43.8-33,43.8s-33-19.6-33-43.8c0-19.2,14.8-34.8,33-34.8S1401,593.9,1401,613.1z"/>
<g>
	<path d="M1390.8,622.5c0,16.8-10.3,30.3-22.9,30.3s-22.9-13.6-22.9-30.3c0-13.3,10.3-24.1,22.9-24.1S1390.8,609.1,1390.8,622.5z"/>
	<path class="st4" d="M1393.6,622.5c-0.4,7-2.3,14-6.3,19.7c-2,2.9-4.3,5.5-7.1,7.5c-2.8,2.1-6.1,3.5-9.5,4.1
		c-0.9,0.1-1.7,0.1-2.6,0.2c-0.9,0-1.8-0.1-2.6-0.1c-0.9-0.2-1.7-0.3-2.6-0.5c-0.8-0.3-1.7-0.5-2.5-0.8c-3.3-1.4-6.2-3.5-8.6-6
		c-2.4-2.6-4.4-5.5-5.9-8.7c-1.5-3.2-2.6-6.5-3.2-10c-0.1-0.9-0.3-1.7-0.4-2.6l-0.3-2.6c0-0.9,0-1.8,0-2.8c0-0.9,0.2-1.9,0.2-2.8
		c0.5-3.7,1.8-7.4,3.8-10.6c2-3.3,4.7-6.1,8-8.3c3.2-2.2,7.1-3.6,11-4.2c1-0.1,2-0.2,3-0.2c1,0,2,0.1,3,0.2c1,0.2,2,0.3,3,0.5
		c1,0.3,1.9,0.5,2.9,0.9c1.9,0.7,3.7,1.6,5.3,2.7l1.2,0.8c0.4,0.3,0.8,0.6,1.1,0.9l1.1,1l1,1.1
		C1391.6,607.5,1393.9,615.2,1393.6,622.5z M1388,622.5l-0.2-2.2l-0.4-2.1c-0.2-0.7-0.4-1.4-0.7-2.1c-0.3-0.7-0.6-1.3-0.9-2
		c-1.3-2.5-3.1-4.7-5.2-6.4c-4.2-3.4-9.4-5.1-14.6-4.6c-2.6,0.2-5.1,1.1-7.4,2.4c-2.3,1.3-4.4,3.2-6,5.4c-1.7,2.2-2.9,4.8-3.6,7.5
		c-0.1,0.7-0.3,1.4-0.4,2.1c-0.1,0.7-0.2,1.4-0.2,2.2l-0.1,2.3c0,0.8,0.1,1.5,0.1,2.3c0.4,6.1,2.2,12.3,6.1,17.1
		c1.9,2.4,4.3,4.5,7.1,5.7c2.8,1.3,5.9,1.9,8.9,1.4c3-0.4,5.9-1.8,8.3-3.7c2.4-2,4.3-4.5,5.8-7.2c1.4-2.8,2.4-5.7,3-8.8
		C1388,628.6,1388.2,625.5,1388,622.5z"/>
</g>
<g>
	<path d="M1460.6,743.5c0,36.2-41.5,50.1-92.7,50.1c-51.2,0-92.7-14-92.7-50.1s0-80.8,92.7-80.8S1460.6,707.3,1460.6,743.5z"/>
	<path d="M1465.3,743.5c0.1,6-0.8,12.2-3.2,18c-1.2,2.9-2.7,5.6-4.4,8.2l-1.4,1.9l-0.7,0.9l-0.8,0.9l-1.5,1.7l-1.6,1.6
		c-0.5,0.6-1.1,1.1-1.7,1.6l-1.7,1.5c-1.2,0.9-2.4,1.9-3.6,2.7c-1.2,0.9-2.5,1.7-3.8,2.4c-1.3,0.8-2.6,1.5-3.9,2.2
		c-5.2,2.8-10.6,4.9-16.1,6.6c-11,3.4-22.3,5.2-33.5,6.1c-11.2,0.8-22.4,0.8-33.6,0.1c-11.2-0.8-22.4-2.2-33.5-5.2
		c-5.5-1.5-11-3.3-16.3-5.6c-5.3-2.3-10.5-5.3-15.2-9c-4.7-3.6-8.9-8.3-12.1-13.6c-3.1-5.4-5-11.4-5.4-17.4
		c-0.1-0.8-0.1-1.5-0.2-2.2l0-2.2l0-1.1l0-1l0.1-2.1c0.1-2.7,0.2-5.5,0.4-8.3c0.3-5.5,0.8-11.1,1.8-16.7c1-5.6,2.6-11.1,4.9-16.3
		c2.3-5.2,5.4-10.2,9.3-14.4c3.9-4.2,8.5-7.7,13.4-10.5c4.9-2.8,10.1-4.9,15.4-6.6c2.6-0.9,5.3-1.5,8-2.2l4.1-0.8l2-0.4
		c0.7-0.1,1.4-0.2,2-0.3l4.1-0.6c1.4-0.2,2.7-0.3,4.1-0.5c1.4-0.1,2.7-0.3,4.1-0.4l4.1-0.3c5.5-0.4,11-0.5,16.4-0.6
		c2.7-0.1,5.5,0,8.2,0c2.7,0,5.5,0.2,8.2,0.3c10.9,0.5,21.9,1.7,32.7,4.4c2.7,0.6,5.3,1.5,8,2.3l3.9,1.4c1.3,0.5,2.6,1.1,3.9,1.7
		c5.1,2.4,10,5.3,14.4,9.1c4.4,3.7,8.1,8.3,11,13.3c2.9,5,4.9,10.5,6.3,16.1C1464.8,721.3,1465,732.6,1465.3,743.5z M1455.9,743.5
		c0.1-5.5,0.3-10.8,0.1-16.1c-0.2-5.3-0.5-10.5-1.5-15.6c-0.9-5.1-2.4-10-4.6-14.7c-2.2-4.6-5.3-8.8-8.9-12.4
		c-3.7-3.6-8-6.7-12.7-9.2c-1.2-0.6-2.3-1.3-3.6-1.8l-3.7-1.6c-1.2-0.5-2.5-0.9-3.8-1.4c-1.3-0.5-2.5-0.8-3.8-1.2
		c-10.3-3.1-21.1-4.6-31.9-5.3c-10.8-0.6-21.7-0.5-32.5,0.4l-4,0.4c-1.3,0.1-2.7,0.3-4,0.5c-1.3,0.2-2.7,0.3-4,0.6l-4,0.7
		c-0.7,0.1-1.3,0.2-2,0.4l-2,0.5c-1.3,0.3-2.6,0.6-3.9,0.9c-2.6,0.8-5.2,1.4-7.7,2.4c-10.1,3.5-19.6,8.9-26.2,17
		c-3.3,4-5.9,8.5-7.7,13.4c-1.8,4.8-2.9,10-3.6,15.2c-0.6,5.2-0.8,10.5-0.7,15.9c0,2.7,0.1,5.4,0.2,8.1l0.1,2l0,1l0.1,0.9l0.1,1.9
		c0.1,0.6,0.2,1.2,0.3,1.8c0.7,4.9,2.5,9.4,5.1,13.3c2.7,3.9,6.1,7.4,10.2,10.1c8.1,5.6,18,9,28.1,11.3c10.2,2.2,20.7,3.3,31.3,3.8
		c5.3,0.2,10.6,0.2,15.9,0.1c5.3-0.1,10.6-0.3,15.9-0.7c10.5-0.8,21-2.2,31-4.8c5-1.3,9.8-2.9,14.4-5c4.5-2.1,8.9-4.6,12.5-7.8
		l1.3-1.2l1.2-1.3l0.6-0.6l0.6-0.7l1.1-1.4c1.4-1.9,2.7-3.9,3.7-6C1454.8,753.2,1455.7,748.4,1455.9,743.5z"/>
</g>
<ellipse class="st6" cx="1367.9" cy="742.2" rx="72.4" ry="51.2"/>
<g>
	<ellipse cx="1367.9" cy="750.2" rx="52.7" ry="37.2"/>
	<path class="st4" d="M1424.5,750.2c-0.3,6.8-2.9,13.3-7,18.4c-4,5.1-9.1,9-14.5,11.9c-10.9,5.8-23,8.3-35.1,8.6
		c-12.1,0.2-24.4-2.1-35.4-8c-5.5-3-10.7-6.8-14.7-12c-4.1-5.1-6.9-11.7-7.3-18.7c-0.4-7,1.8-14.2,5.5-20
		c3.8-5.8,8.8-10.6,14.4-14.2c11.3-7.3,24.5-10.6,37.5-10.7c6.5,0,13.1,0.8,19.4,2.6c6.3,1.8,12.4,4.6,17.9,8.4
		c5.5,3.8,10.3,8.6,13.9,14.4C1422.8,736.4,1424.8,743.4,1424.5,750.2z M1416.6,750.2c-0.3-5.1-2.4-9.9-5.7-13.7
		c-3.3-3.9-7.6-6.9-12.3-9.2c-4.7-2.3-9.8-3.8-14.9-4.9c-5.2-1.1-10.5-1.6-15.8-1.7c-10.6-0.1-21.4,2-30.6,6.9
		c-4.6,2.4-8.7,5.5-11.8,9.4c-3.1,3.8-5.1,8.4-5.5,13.2c-0.3,4.9,0.9,10,3.8,14.5c2.8,4.5,6.8,8.5,11.5,11.6
		c9.4,6.3,21,9.4,32.6,9.6c2.9,0,5.8-0.1,8.7-0.4c2.9-0.3,5.7-0.9,8.5-1.6c2.8-0.7,5.5-1.7,8.2-2.9c2.6-1.2,5.2-2.6,7.5-4.1
		c4.7-3.2,8.8-7.2,11.7-11.8C1415.5,760.4,1416.9,755.2,1416.6,750.2z"/>
</g>
<g>
	<g>
		<path d="M2060.2,709.8c2.1,3.8,3.9,7.8,5.6,11.9c1.7,4.1,3.1,8.2,4.2,12.5c2.4,8.5,3.7,17.4,3.6,26.4c-0.1,9-1.5,18.2-5.1,26.9
			c-1.8,4.3-4.1,8.5-6.9,12.4c-2.8,3.9-6.2,7.4-10.1,10.4c-3.9,3-8.2,5.3-12.9,7c-4.6,1.6-9.5,2.6-14.3,2.9
			c-9.7,0.6-19.2-1.3-27.9-4.8c-8.7-3.5-16.5-8.5-23.5-14.4c-6.9-5.9-13-12.8-18-20.2c-2.5-3.7-4.8-7.6-6.9-11.6
			c-2.1-4.1-3.8-8.4-5.1-12.8c-2.6-8.9-3.4-18.3-2.3-27.4c1.1-9.1,4-18.1,8.8-26c4.7-7.9,11.2-14.8,18.9-19.8
			c7.6-5.1,16.4-8.3,25.5-9.4c9-1.1,18.2-0.2,26.7,2.6C2037.5,681.8,2051.9,694.2,2060.2,709.8z M2055.8,712.2
			c-1.9-3.7-4.1-7.1-6.7-10.3c-2.6-3.2-5.5-6.1-8.7-8.8c-6.4-5.2-13.8-9-21.7-11.2c-7.9-2.1-16.1-2.5-24-1.1
			c-7.9,1.4-15.4,4.6-21.9,9.2c-6.5,4.6-11.8,10.6-15.7,17.5c-3.8,6.9-6.1,14.6-6.8,22.5c-0.7,7.8,0.2,15.8,2.6,23.3
			c1.2,3.7,2.8,7.3,4.7,10.8c2,3.6,4.1,7,6.5,10.3c4.7,6.6,10.2,12.5,16.4,17.5c6.2,5,13.1,9.1,20.4,11.8c7.3,2.7,15,4,22.3,3.3
			c7.4-0.6,14.3-3.3,20.4-7.4c3-2.1,5.8-4.5,8.3-7.3c2.4-2.8,4.6-6,6.4-9.4c3.6-6.9,5.8-14.6,6.7-22.7c0.5-4,0.6-8.1,0.4-12.2
			c-0.2-4.1-0.7-8.2-1.5-12.3c-0.8-4-1.9-8.1-3.3-12C2059.3,719.7,2057.6,715.9,2055.8,712.2z"/>
	</g>
	<g>
		<path d="M2117.4,1008c-2.2,1.8-4.5,3.7-6.9,5.4c-2.4,1.7-4.9,3.2-7.4,4.7c-5.1,2.8-10.5,5.3-16,7.3c-5.5,2-11.2,3.7-16.9,5
			c-2.8,0.7-5.7,1.2-8.6,1.8c-1.4,0.3-2.9,0.5-4.3,0.7c-1.4,0.2-2.9,0.5-4.3,0.6l-4.3,0.6l-4.3,0.4c-2.9,0.3-5.8,0.5-8.6,0.7
			c-5.8,0.3-11.5,0.6-17.3,0.6l-4.4,0c-1.5,0-2.9-0.1-4.4-0.1c-1.5-0.1-2.9-0.1-4.4-0.2l-4.4-0.3c-2.9-0.2-5.8-0.6-8.8-0.9
			c-2.9-0.4-5.8-0.8-8.7-1.3c-2.9-0.6-5.8-1-8.7-1.7l-4.3-1l-4.3-1.1c-2.9-0.7-5.7-1.7-8.5-2.5c-1.4-0.4-2.8-1-4.2-1.5
			c-1.4-0.5-2.8-1-4.2-1.5c-5.5-2.1-10.9-4.6-16.2-7.4c-5.2-2.8-10.4-5.8-15.2-9.4c-9.7-6.9-18.6-15.2-25.8-24.9
			c-3.5-4.9-6.7-10.1-9.3-15.6c-2.6-5.5-4.5-11.3-5.8-17.1c-0.3-1.5-0.7-2.9-0.9-4.4l-0.6-4.5c-0.2-3-0.5-6-0.5-9
			c-0.1-6,0.6-11.8,1.5-17.6c1.9-11.5,5-22.7,9.2-33.4c2.2-5.4,4.6-10.6,7.6-15.7l2.3-3.7l2.6-3.6c0.9-1.2,1.9-2.3,2.9-3.5
			c1-1.1,2-2.2,3-3.2c4.2-4.1,8.8-7.8,13.8-10.9c4.9-3.1,10.2-5.8,15.6-7.9c10.8-4.4,22.1-7,33.4-8.9c11.3-1.8,22.8-2.7,34.1-3.3
			c11.4-0.5,22.7-0.8,34.1-0.9c11.4,0,22.9,0.4,34.4,1.5c11.5,1.1,23.1,3.1,34.5,6.7c5.7,1.8,11.3,4.1,16.7,6.9
			c5.4,2.8,10.6,6.1,15.4,10.1c2.4,1.9,4.7,4.1,6.8,6.3c1.1,1.2,2.1,2.4,3.2,3.6c1,1.2,1.9,2.5,2.9,3.8c3.6,5.1,6.5,10.5,9,16
			c2.5,5.5,4.6,11.1,6.4,16.8c1.8,5.7,3.2,11.5,4.3,17.4c0.3,1.5,0.5,3,0.8,4.4c0.3,1.5,0.5,3,0.6,4.5c0.2,1.5,0.4,3,0.5,4.5
			c0.1,1.5,0.3,3,0.3,4.7c0.3,3.3-0.3,6.6-0.6,9.9c-0.6,3.2-1.1,6.4-2.1,9.5c-1.9,6.3-4.7,12.4-8.6,17.8c-3.9,5.4-8.6,10.1-13.8,14
			c-10.5,7.7-22.4,12.3-34.3,14.9l-4.5,0.9c-1.5,0.3-3,0.5-4.5,0.7l-2.2,0.3l-2.2,0.3l-4.5,0.5c-6,0.5-11.9,0.7-17.8,0.6
			c-11.9-0.2-23.6-1.4-35.1-3.6c-11.5-2.1-22.9-4.9-33.9-8.6c-5.5-1.9-11-3.8-16.4-6l-4.1-1.7l-4-1.8c-2.7-1.2-5.3-2.5-7.9-3.8
			c-10.5-5.3-20.4-11.6-29.7-18.8c-1.2-0.9-2.3-1.8-3.5-2.7l-3.4-2.8l-3.3-2.9l-1.6-1.5l-1.6-1.5l-3.2-3.1l-3.1-3.2l-1.5-1.6
			l-1.5-1.6c-1-1.1-2-2.2-2.9-3.3c-3.8-4.5-7.4-9.2-10.6-14.1c-0.8-1.2-1.6-2.5-2.4-3.7l-1.2-1.9l-1.1-1.9c-0.7-1.3-1.4-2.6-2.1-3.9
			l-1.9-4c-2.5-5.4-4.6-10.9-6.2-16.6c-1.6-5.7-2.6-11.6-3-17.4c-0.9-11.8,1-23.8,5.6-34.4c0.4-1,1.6-1.5,2.6-1
			c0.9,0.4,1.4,1.4,1.1,2.4l0,0c-3.2,10.5-3.9,21.6-2.1,32.3c0.9,5.3,2.3,10.6,4.1,15.6c1.9,5.1,4.2,10,6.8,14.7
			c2.6,4.7,5.7,9.2,8.9,13.6c3.2,4.3,6.8,8.5,10.5,12.4c7.5,7.8,15.9,14.9,24.8,21.1l3.4,2.3c1.1,0.8,2.3,1.5,3.4,2.2
			c2.3,1.5,4.6,2.8,7,4.2c2.3,1.4,4.8,2.6,7.1,3.9c2.4,1.2,4.8,2.5,7.3,3.6c9.9,4.6,20.1,8.3,30.6,11.4c10.5,3.1,21.2,5.6,31.9,7.3
			c5.4,0.9,10.8,1.5,16.2,2c5.4,0.4,10.8,0.8,16.2,0.7c1.3,0,2.7,0,4,0l4-0.2l2-0.1l2-0.1l4-0.3l3.9-0.5l2-0.2l1.9-0.3
			c1.3-0.2,2.6-0.4,3.9-0.7l3.8-0.8c10.1-2.3,19.7-6.1,27.5-11.8c3.8-2.9,7.2-6.2,10-9.9c2.8-3.7,4.8-8,6.2-12.5
			c0.8-2.2,1.2-4.6,1.7-7c0.2-2.3,0.8-4.6,0.6-6.9c0-1.1-0.1-2.5-0.2-3.8c-0.1-1.3-0.2-2.6-0.3-3.9c-0.1-1.3-0.2-2.6-0.4-3.9
			c-0.2-1.3-0.3-2.6-0.6-3.9c-0.8-5.3-2-10.5-3.4-15.7c-1.4-5.2-3-10.3-5-15.1c-2-4.9-4.3-9.6-7-13.8c-0.7-1-1.4-2.1-2.1-3.1
			c-0.8-0.9-1.5-1.9-2.3-2.9c-1.7-1.9-3.4-3.8-5.3-5.5c-7.5-7-16.8-12.1-26.8-15.9c-10-3.8-20.7-6.2-31.7-7.8
			c-10.9-1.7-22.1-2.5-33.3-3c-11.2-0.5-22.5-0.7-33.7-0.6c-11.2,0.2-22.4,0.8-33.4,2.3c-5.5,0.7-11,1.7-16.3,3
			c-5.4,1.3-10.7,2.8-15.8,4.9c-5.1,2-10,4.4-14.6,7.3c-4.6,2.9-8.9,6.3-12.7,10.1c-0.9,1-1.9,2-2.8,3c-0.8,1-1.7,2-2.5,3.1
			l-2.3,3.3l-2.1,3.5c-2.7,4.7-4.9,9.8-6.8,14.9c-1.9,5.2-3.4,10.5-4.7,15.9c-1.2,5.4-2.2,10.8-2.7,16.3
			c-1.2,10.9-0.8,21.7,2.3,31.8c1.5,5.1,3.5,9.9,6.1,14.6c2.6,4.6,5.6,8.9,9,13c6.8,8,15,14.9,24.1,20.6l3.4,2.1
			c1.2,0.7,2.3,1.3,3.5,2l1.7,1l1.8,0.9c1.2,0.6,2.4,1.2,3.6,1.8c2.5,1.1,4.9,2.3,7.4,3.2c1.2,0.5,2.5,1,3.7,1.5l3.8,1.4
			c10.1,3.7,20.7,6.2,31.3,8.1c5.3,0.9,10.7,1.6,16.1,2.1l4.1,0.4c1.4,0.1,2.7,0.2,4.1,0.3c1.4,0.1,2.7,0.2,4.1,0.2l4.1,0.1
			c1.4,0.1,2.7,0.1,4.1,0.1l4.2,0.1c2.8,0,5.5,0,8.3,0c5.5,0,11-0.2,16.5-0.5c2.8-0.1,5.5-0.4,8.2-0.5c2.7-0.3,5.5-0.5,8.2-0.8
			c5.4-0.6,10.8-1.5,16.2-2.6l4-0.9c1.3-0.3,2.6-0.7,4-1c2.7-0.6,5.2-1.6,7.8-2.4c2.6-1,5.2-1.8,7.7-3c2.6-1,5-2.3,7.5-3.5l0.1-0.1
			c1-0.4,2.1,0,2.6,1C2118.4,1006.5,2118.1,1007.5,2117.4,1008z"/>
	</g>
</g>
<path d="M1782.6,833.6c0,79.7-56.8,196-126.9,196s-126.9-116.3-126.9-196s56.8-92.5,126.9-92.5S1782.6,754,1782.6,833.6z"/>
<g>
	<g>
		<path d="M1650.6,948.3c-1,0-2.1,0-3.2-0.1c-0.5,0-1.5,0-1.5,0l-1.1,0c-1.2,0-2.4-0.1-3.5-0.2l-4.4-0.3c-2.3-0.1-4.5-0.4-6.6-0.6
			c-0.8-0.1-1.6-0.2-2.5-0.3l-0.2,0c-2.8-0.4-5.7-0.8-8.9-1.4l-0.2,0c-0.9-0.2-1.8-0.3-2.7-0.5c-2-0.4-4.1-0.8-6.2-1.3l-4.4-1
			l-4.3-1.2c-2.2-0.5-4.2-1.2-6.2-1.8c-0.9-0.3-1.7-0.5-2.6-0.8c-1.2-0.4-2.2-0.7-3.3-1.1c-0.4-0.2-2.1-0.7-2.1-0.7
			c-1.2-0.4-2.4-0.8-3.6-1.4c-5.4-2.1-10.9-4.6-16.9-7.7l-0.1-0.1c-4.5-2.4-10.4-5.8-16-9.9c-11-7.8-20.2-16.8-27.4-26.6
			c-3.9-5.4-7.3-11-10-16.8c-2.7-5.8-4.9-12.1-6.3-18.7l0-0.2c-0.1-0.5-0.2-0.9-0.3-1.4c-0.2-1-0.5-2.2-0.7-3.4l-0.7-4.7l-0.1-1.6
			c-0.2-2.6-0.4-5.4-0.4-8.2c-0.1-5.6,0.4-11.5,1.6-18.7c2-12.1,5.3-23.9,9.7-35c1.5-3.7,3-7,4.6-10.2c-0.1-1.2-0.3-2.5-0.3-3.7
			c-1-12.9,1.1-26,6.2-37.9c1.5-3.5,4.9-5.7,8.7-5.7c1.3,0,2.6,0.3,3.8,0.8c4.4,1.9,6.7,6.8,5.3,11.4l0,0.1c-0.7,2.5-1.3,5-1.8,7.4
			c2.7-2.2,5.7-4.3,8.7-6.3c5.1-3.2,10.8-6.1,16.8-8.6c10.1-4.1,21.6-7.2,35.1-9.3c3.8-0.6,7.6-1.1,11.7-1.6
			c-3.2-2.1-6.4-4.5-9.4-7.1c-7.4-6.4-13.9-13.7-19.4-21.7c-2.8-4.2-5.3-8.3-7.4-12.4c-2.3-4.6-4.2-9.3-5.6-14.2
			c-2.9-9.8-3.7-20.3-2.5-30.4c1.2-10.3,4.6-20.3,9.8-29c5.4-9,12.7-16.7,21.2-22.2c8.5-5.7,18.5-9.3,28.7-10.6
			c2.8-0.3,5.6-0.5,8.4-0.5c7.3,0,14.6,1.1,21.6,3.4c18.7,6,34.8,19.5,44.1,37.1c2.2,4.1,4.2,8.4,5.9,12.6c1.7,4.1,3.2,8.7,4.5,13.3
			c2.6,9.5,3.9,19.1,3.9,28.4c-0.1,10.8-2,20.8-5.7,29.7c-2.1,5.1-4.7,9.8-7.8,14c-2,2.7-4.2,5.3-6.6,7.6c3.2,0.2,6.3,0.4,9.3,0.7
			c13.6,1.3,25.4,3.6,36,7c6.2,1.9,12.2,4.4,17.8,7.3c6,3.1,11.7,6.8,16.7,11c2.3,1.9,4.7,4,7.4,6.8l0.2,0.2
			c0.8,0.9,1.6,1.8,2.4,2.7l1.1,1.3c0.8,1,1.5,1.9,2.2,2.8c0.3,0.4,0.6,0.8,0.9,1.2l0.2,0.2c3.5,5,6.7,10.6,9.7,17.2
			c2.4,5.2,4.6,11,6.7,17.7c1.9,6.1,3.4,12.2,4.5,18.2c0.2,1.2,0.4,2.3,0.6,3.3c0.1,0.4,0.1,0.9,0.2,1.3c0.2,1.4,0.5,3,0.7,4.8
			c0.2,1.5,0.4,3.2,0.5,4.9l0.1,1c0.1,1.1,0.2,2.4,0.2,3.8c0.2,3.2-0.1,6.2-0.4,8.9c-0.1,0.7-0.1,1.4-0.2,2.1l0,0.4
			c0,0-0.3,1.5-0.4,2.1c-0.5,2.8-1,5.6-2,8.6c-2.2,7.5-5.5,14.2-9.7,20c-4.1,5.8-9.3,11.1-15.4,15.6c-8.8,6.4-19.1,11.3-30.8,14.6
			c2.4,0.9,4.4,2.6,5.4,5c1.8,3.9,0.7,8.5-2.6,11.2l-0.5,0.4c-2.1,1.8-4.4,3.6-6.9,5.3c-2.1,1.5-4.3,2.8-6.4,4.1l-1.6,0.9l-0.1,0.1
			c-5.6,3.1-11.4,5.7-17.1,7.8c-6.4,2.3-12.2,4-17.7,5.2c-2.1,0.5-4.2,0.9-6.1,1.3c-0.9,0.2-1.8,0.3-2.7,0.5l-0.2,0
			c-1.1,0.2-2.2,0.4-3.3,0.5l-1.2,0.2c-1.2,0.2-2.9,0.5-4.6,0.7l-4.3,0.6l-4.4,0.4c-2.4,0.3-4.8,0.4-7.1,0.6l-1.9,0.1l-0.3,0
			c-5.6,0.3-11.3,0.6-17.1,0.6L1650.6,948.3z M1647.5,917.1c0.5,0,1,0.1,1.5,0.1c0.8,0.1,1.5,0.1,2.3,0.1l4.1,0.1
			c1.2,0,2.5,0.1,3.9,0.1l4.3,0.1c1.4,0,2.9,0,4.4,0c1.2,0,2.4,0,3.7,0c5.6,0,11-0.2,16.2-0.5l0.1,0c1.5-0.1,3-0.2,4.6-0.3
			c1.1-0.1,2.2-0.2,3.3-0.2c0.9-0.1,1.7-0.2,2.6-0.2c1.8-0.2,3.5-0.3,5.1-0.6l0.3,0c5.6-0.6,11.1-1.7,15.4-2.5l3.9-0.9
			c0.7-0.2,1.4-0.3,2.1-0.6c0.5-0.1,1.1-0.3,1.6-0.4c1.6-0.4,3.2-0.9,4.8-1.5c0.8-0.3,1.6-0.5,2.5-0.8c0.5-0.2,1-0.4,1.5-0.6
			c1.9-0.7,3.7-1.4,5.4-2.1l0.2-0.1l0.2-0.1c0.7-0.3,1.4-0.6,2.1-0.9c-0.7,0.1-1.4,0.2-2.1,0.3l-3.8,0.6l-2.4,0.3l-4.7,0.5l-0.1,0
			c-5.8,0.4-10.5,0.6-14.9,0.6c-1.2,0-2.5,0-3.7-0.1c-11.8-0.2-24-1.4-36.2-3.7c-12.4-2.3-24.1-5.3-34.9-8.9
			c-5.1-1.7-11-3.8-16.9-6.2l-4.2-1.7l-4.1-1.9c-2.2-1-4.2-2-6.2-3c-0.6-0.3-1.3-0.6-1.9-1c-10.6-5.4-21-11.9-30.9-19.5
			c-1.2-0.8-2.2-1.7-3.2-2.5l-4-3.3l-5.2-4.6l-5-4.8l-3.2-3.3l-1.6-1.7c0,0-2.3-2.5-2.6-2.9c-0.7-0.7-1.3-1.5-2-2.2
			c-4.3-5.1-7.9-10-11.2-14.8c-0.7-1.1-1.4-2.2-2-3.2l-1.7-2.8l-1.2-2.2c-0.2-0.4-0.5-0.8-0.7-1.3c-0.5-0.9-1-1.8-1.5-2.8l-0.9-1.8
			c-1,4.5-1.6,8.8-2,12.9c-1.2,11.3-0.5,20.7,2,28.9c1.4,4.8,3.3,9.2,5.5,13.1c2.3,4,5,8,8.2,11.8c6.1,7.2,13.7,13.6,22.3,19l3.3,2
			c0.6,0.3,1.1,0.6,1.7,1c0.6,0.3,1.1,0.6,1.7,0.9l1.6,0.9c0,0,2.7,1.3,3.2,1.6c0.6,0.3,1.2,0.6,1.9,0.9c0.7,0.3,1.4,0.6,2.1,1
			c1.7,0.8,3.2,1.5,4.8,2.1c0.6,0.2,1.1,0.5,1.6,0.7c0.7,0.3,1.3,0.6,2,0.8l3.8,1.4c8.9,3.2,18.7,5.8,30,7.8
			c5.6,0.9,10.7,1.6,15.6,2.1l4,0.4c0.7,0.1,1.4,0.1,2.1,0.1C1646.3,917.1,1646.9,917.1,1647.5,917.1z M1714.7,874.9
			c0.5,0,1,0,1.5,0l5.8-0.2l5.7-0.4l3.8-0.4l1.8-0.2l1.8-0.3c0.5-0.1,1-0.2,1.5-0.2c0.7-0.1,1.4-0.2,2.1-0.4l3.7-0.8
			c9.8-2.3,18.1-5.8,24.6-10.5c3.3-2.5,6.2-5.4,8.4-8.4c2.2-2.9,3.9-6.3,5.1-10.3l0.1-0.2l0.1-0.2c0.4-1,0.7-2.4,1-3.9
			c0.1-0.6,0.2-1.1,0.4-1.7c0.1-0.6,0.2-1.2,0.2-1.9c0.2-1.3,0.3-2.4,0.3-3.2l0-0.3l0-0.3c0-0.6,0-1.6-0.1-2.4l-0.1-1
			c0-1.1-0.2-2.3-0.3-3.5l0-0.1c-0.1-1.4-0.2-2.5-0.4-3.5c-0.1-0.5-0.1-1-0.2-1.5c-0.1-0.8-0.2-1.5-0.3-2.2l0-0.2
			c-0.7-4.5-1.7-9.4-3.2-14.8c-1.5-5.4-3-10.1-4.7-14.2c-2-4.9-4.1-9-6.3-12.5c-0.3-0.4-0.5-0.8-0.8-1.1c-0.4-0.5-0.7-1.1-1-1.5
			c-0.3-0.4-0.7-0.8-1-1.2c-0.3-0.4-0.7-0.9-1.1-1.3c-1.5-1.6-3-3.3-4.7-4.8l-0.1-0.1c-6.3-5.8-14.5-10.7-24.4-14.4
			c-8.7-3.2-18.5-5.7-30.1-7.4c-9.3-1.4-19.3-2.3-32.5-2.9c-9.6-0.4-18.1-0.6-26-0.6c-2.4,0-4.8,0-7.2,0.1
			c-12.1,0.2-22.8,0.9-32.5,2.2c-5.2,0.7-10.5,1.7-15.6,2.9c-5.6,1.3-10.4,2.8-14.7,4.6c-4.9,2-9.5,4.2-13.5,6.7
			c-4.1,2.6-7.9,5.6-11.4,9.1c-0.8,0.8-1.6,1.7-2.4,2.5c-0.3,0.4-0.6,0.8-1,1.2c-0.4,0.5-0.8,1-1.2,1.5l-2,2.9l-0.4,0.6
			c0.6,2.1,1.2,4.2,2,6.5c1.6,4.4,3.7,9,6.3,13.6c2.6,4.6,5.7,9,8.3,12.7c2.9,3.9,6.1,7.7,9.9,11.7c7,7.2,14.9,14,23.6,20l3.3,2.3
			c0.7,0.5,1.4,0.9,2.1,1.3c0.4,0.2,0.8,0.5,1.2,0.7c2,1.3,4,2.5,6.1,3.7l0.6,0.3c1.4,0.8,2.8,1.6,4.3,2.4c0.9,0.5,1.7,0.9,2.6,1.4
			c0.8,0.4,1.6,0.8,2.4,1.2c1.6,0.8,3,1.5,4.5,2.2c9.2,4.2,19.1,8,29.7,11.1c10.3,3,20.7,5.4,31,7.1c5.3,0.9,10.6,1.5,15.6,2
			c4.4,0.3,9.7,0.7,14.8,0.7l0.6,0L1714.7,874.9z M1640.9,592.5c-2.8,0-5.6,0.2-8.3,0.7c-6.7,1.2-13.2,3.9-18.8,7.9
			c-5.5,3.9-10.2,9.1-13.4,15.1c-3.3,5.8-5.3,12.6-5.9,19.5c-0.6,6.8,0.2,13.8,2.3,20.3c1.1,3.2,2.4,6.4,4.1,9.5
			c1.7,3.2,3.8,6.4,6,9.5c4.3,6,9.3,11.4,15.1,16.1c5.7,4.7,11.9,8.2,18.2,10.6c5.4,2,10.7,3,15.8,3c1.1,0,2.2,0,3.3-0.1
			c5.9-0.5,11.7-2.6,16.9-6.1c2.5-1.7,4.8-3.8,6.8-6.1c2-2.4,3.9-5.1,5.4-8c3.1-5.8,5.1-12.8,5.9-20c0.4-3.5,0.5-7.2,0.4-11
			c-0.2-3.7-0.7-7.5-1.4-11.2c-0.9-4.1-1.8-7.7-3-10.9c-1.3-3.6-2.8-7.2-4.5-10.6c-1.7-3.2-3.6-6.3-5.9-9.1
			c-2.1-2.7-4.7-5.2-7.6-7.6c-5.5-4.5-12-7.9-18.8-9.7C1649.3,593.1,1645.2,592.5,1640.9,592.5z"/>
		<path class="st4" d="M1637.7,578.3c6.6,0,13.1,1,19.3,3c17.1,5.5,31.5,17.9,39.8,33.5c2.1,3.9,3.9,7.8,5.6,11.9
			c1.7,4.1,3.1,8.2,4.2,12.5c2.3,8.5,3.7,17.4,3.6,26.4c-0.1,9-1.5,18.2-5.1,26.9c-1.8,4.3-4.1,8.5-6.9,12.4
			c-2.8,3.9-6.2,7.4-10.1,10.4c-3.9,3-8.2,5.4-12.9,7c-1.5,0.5-3.1,1-4.7,1.4c0.4,0,0.9,0,1.3,0c11.4,0,22.9,0.4,34.4,1.5
			c11.5,1.1,23.1,3,34.5,6.6c5.7,1.8,11.3,4.1,16.7,6.9c5.4,2.8,10.6,6.1,15.4,10.1c2.4,1.9,4.7,4.1,6.8,6.3
			c1.1,1.2,2.1,2.4,3.2,3.6c1,1.2,1.9,2.5,2.9,3.8c3.6,5.1,6.5,10.5,9,16c2.5,5.5,4.6,11.1,6.4,16.8c1.8,5.7,3.2,11.5,4.3,17.4
			c0.3,1.5,0.5,3,0.8,4.4c0.3,1.5,0.5,3,0.6,4.5c0.2,1.5,0.4,3,0.5,4.5c0.1,1.5,0.3,3,0.3,4.7c0.3,3.3-0.3,6.6-0.6,9.9
			c-0.6,3.2-1.1,6.4-2.1,9.5c-1.9,6.3-4.7,12.4-8.6,17.8c-3.9,5.4-8.6,10.1-13.8,14c-10.5,7.7-22.4,12.3-34.3,14.9l-4.5,0.9
			c-1.5,0.3-3,0.5-4.5,0.7l-2.2,0.4l-2.2,0.3l-4.5,0.5c-4.8,0.4-9.6,0.6-14.3,0.6c-1.2,0-2.3,0-3.5,0c-11.8-0.2-23.6-1.5-35.1-3.6
			c-11.5-2.1-22.9-4.9-33.9-8.6c-5.5-1.9-11-3.8-16.4-6.1l-4.1-1.7l-4-1.8c-2.7-1.2-5.3-2.5-7.9-3.8c-10.5-5.3-20.4-11.6-29.7-18.8
			c-1.2-0.9-2.3-1.8-3.5-2.7l-3.4-2.8l-3.3-2.9l-1.6-1.5l-1.6-1.5l-3.2-3l-3.1-3.2l-1.5-1.6l-1.5-1.6c-1-1.1-2-2.2-2.9-3.3
			c-3.8-4.5-7.4-9.2-10.6-14.1c-0.8-1.2-1.6-2.5-2.3-3.7l-1.2-1.9l-1.1-1.9c-0.7-1.3-1.4-2.6-2.1-3.9l-2-4
			c-2.5-5.4-4.6-10.9-6.2-16.6c-0.1-0.4-0.2-0.8-0.3-1.1c-0.4,1.1-0.8,2.2-1.2,3.2c-1.9,5.2-3.4,10.5-4.7,15.9
			c-1.2,5.4-2.2,10.8-2.7,16.3c-1.2,10.9-0.9,21.7,2.3,31.8c1.5,5.1,3.5,10,6.1,14.6c2.6,4.6,5.6,8.9,9,13c6.9,8,15,14.9,24.1,20.6
			l3.4,2.1c1.2,0.7,2.3,1.3,3.5,1.9l1.7,1l1.8,0.9c1.2,0.6,2.4,1.2,3.6,1.8c2.4,1.1,4.9,2.3,7.4,3.2c1.2,0.5,2.5,1,3.7,1.5l3.8,1.4
			c10.1,3.7,20.7,6.2,31.3,8.2c5.3,0.9,10.7,1.6,16.1,2.1l4.1,0.4c1.3,0.1,2.7,0.2,4.1,0.3c1.4,0.1,2.7,0.2,4.1,0.2l4.1,0.1
			c1.4,0,2.7,0.1,4.1,0.1l4.2,0.1c1.5,0,3,0,4.6,0c1.3,0,2.5,0,3.7,0c5.5,0,11.1-0.2,16.5-0.5c2.8-0.1,5.5-0.4,8.2-0.5
			c2.7-0.3,5.5-0.5,8.2-0.9c5.5-0.6,10.8-1.5,16.2-2.6l4-0.9c1.3-0.3,2.6-0.7,3.9-1c2.7-0.7,5.2-1.6,7.8-2.4c2.6-1,5.2-1.8,7.7-3
			c2.6-1,5-2.3,7.6-3.5l0.1-0.1c0.3-0.1,0.5-0.2,0.8-0.2c0.7,0,1.5,0.4,1.8,1.1c0.4,0.8,0.1,1.8-0.5,2.3c-2.2,1.8-4.5,3.7-6.9,5.4
			c-2.4,1.7-4.9,3.2-7.4,4.7c-5.1,2.8-10.5,5.3-16,7.3c-5.5,2-11.2,3.7-16.9,5c-2.9,0.7-5.7,1.2-8.6,1.8c-1.4,0.3-2.9,0.5-4.3,0.7
			c-1.4,0.2-2.9,0.5-4.3,0.6l-4.3,0.6l-4.3,0.4c-2.9,0.3-5.8,0.5-8.6,0.7c-5.7,0.3-11.3,0.6-17,0.6c-0.1,0-0.2,0-0.3,0l-4.4,0
			c-1.5,0-2.9-0.1-4.4-0.1c-1.5-0.1-2.9-0.1-4.4-0.2l-4.4-0.3c-2.9-0.2-5.8-0.6-8.8-0.9c-2.9-0.4-5.8-0.9-8.7-1.3
			c-2.9-0.6-5.8-1-8.7-1.7l-4.3-1l-4.3-1.1c-2.9-0.7-5.7-1.7-8.5-2.5c-1.4-0.4-2.8-1-4.2-1.5c-1.4-0.5-2.8-1-4.2-1.6
			c-5.5-2.1-10.9-4.6-16.2-7.4c-5.2-2.8-10.4-5.8-15.2-9.4c-9.7-6.9-18.6-15.2-25.8-24.9c-3.5-4.9-6.7-10.1-9.2-15.6
			c-2.6-5.5-4.5-11.2-5.8-17.1c-0.3-1.5-0.7-2.9-0.9-4.4l-0.6-4.5c-0.2-3-0.5-6-0.5-9c-0.1-6,0.6-11.8,1.5-17.6
			c1.9-11.5,5-22.7,9.2-33.4c1.6-3.9,3.3-7.8,5.3-11.6c-0.3-1.9-0.5-3.8-0.6-5.7c-1-11.8,1-23.8,5.6-34.4c0.3-0.7,1-1.2,1.8-1.2
			c0.3,0,0.5,0.1,0.8,0.2c0.9,0.4,1.4,1.4,1.1,2.4l0,0c-2.8,9.4-3.7,19.2-2.6,28.8l1.1-1.6c0.9-1.2,1.9-2.3,2.8-3.4
			c1-1.1,2-2.2,3.1-3.2c4.2-4.1,8.8-7.8,13.8-10.9c5-3.1,10.2-5.8,15.6-7.9c10.8-4.4,22.1-7.1,33.4-8.9c11.3-1.8,22.8-2.7,34.1-3.3
			c2.7-0.1,5.5-0.2,8.2-0.3c-4.4-0.8-8.8-2.1-12.9-3.8c-8.7-3.5-16.5-8.4-23.5-14.4c-6.9-5.9-13-12.8-18.1-20.2
			c-2.5-3.7-4.8-7.6-6.9-11.6c-2.1-4.1-3.8-8.4-5.1-12.9c-2.6-8.9-3.4-18.3-2.3-27.4c1.1-9.1,4-18.1,8.8-26
			c4.7-7.9,11.2-14.8,18.9-19.8c7.6-5.1,16.4-8.3,25.5-9.4C1632.7,578.4,1635.2,578.3,1637.7,578.3 M1655.9,712.2
			c1.3,0,2.6-0.1,3.9-0.2c7.4-0.6,14.3-3.3,20.4-7.4c3-2.1,5.8-4.5,8.3-7.3c2.4-2.8,4.6-6,6.4-9.4c3.6-6.9,5.8-14.6,6.7-22.7
			c0.5-4,0.6-8.1,0.4-12.2c-0.2-4.1-0.7-8.2-1.5-12.3c-0.8-4-1.9-8.1-3.3-12c-1.4-3.9-3.1-7.7-4.9-11.5c-1.9-3.7-4.1-7.1-6.7-10.4
			c-2.6-3.2-5.5-6.1-8.7-8.8c-6.3-5.2-13.8-9.1-21.7-11.2c-4.7-1.3-9.6-1.9-14.4-1.9c-3.2,0-6.5,0.3-9.6,0.8
			c-7.9,1.4-15.4,4.6-21.9,9.2c-6.4,4.6-11.8,10.6-15.7,17.5c-3.8,6.9-6.1,14.6-6.8,22.5c-0.7,7.9,0.2,15.8,2.6,23.3
			c1.2,3.7,2.8,7.3,4.7,10.8c1.9,3.5,4.1,7,6.5,10.3c4.7,6.6,10.2,12.5,16.4,17.5c6.2,5,13.1,9.1,20.4,11.8
			C1643.5,710.9,1649.8,712.2,1655.9,712.2 M1711.7,882.4c0.2,0,0.5,0,0.7,0c0.8,0,1.5,0,2.3,0c0.6,0,1.2,0,1.7,0l4-0.2l2-0.1l2-0.2
			l4-0.3l3.9-0.5l2-0.2l1.9-0.3c1.3-0.2,2.6-0.4,3.9-0.6l3.8-0.8c10.1-2.3,19.7-6.1,27.5-11.8c3.8-2.9,7.2-6.2,10-9.9
			c2.8-3.7,4.8-8,6.2-12.5c0.8-2.2,1.2-4.6,1.7-7c0.2-2.3,0.8-4.6,0.6-6.9c0-1.1-0.1-2.5-0.2-3.8c-0.1-1.3-0.2-2.6-0.3-3.9
			c-0.1-1.3-0.2-2.6-0.4-3.9c-0.2-1.3-0.3-2.6-0.6-3.9c-0.8-5.3-2-10.5-3.3-15.7c-1.4-5.2-3-10.3-5-15.1c-2-4.9-4.3-9.6-7-13.8
			c-0.7-1-1.4-2.1-2.1-3.1c-0.8-0.9-1.5-1.9-2.3-2.8c-1.7-1.9-3.4-3.8-5.3-5.5c-7.5-7-16.8-12.1-26.8-15.9
			c-10-3.8-20.8-6.2-31.7-7.8c-10.9-1.7-22.1-2.5-33.3-3c-8.8-0.4-17.6-0.6-26.4-0.6c-2.4,0-4.9,0-7.3,0.1
			c-11.2,0.2-22.4,0.8-33.4,2.3c-5.5,0.7-11,1.7-16.4,3c-5.4,1.3-10.7,2.8-15.8,4.9c-5.1,2-10,4.4-14.6,7.3
			c-4.6,2.9-8.9,6.3-12.7,10.1c-0.9,1-1.9,2-2.8,3c-0.8,1-1.7,2-2.5,3.1l-2.3,3.3l-2.1,3.5c0,0,0,0,0,0.1c0.8,3.4,1.8,6.8,3,10.2
			c1.9,5.1,4.2,10,6.8,14.7c2.6,4.7,5.7,9.2,8.9,13.6c3.2,4.3,6.8,8.4,10.5,12.4c7.5,7.8,15.9,14.8,24.8,21.1l3.4,2.3
			c1.1,0.8,2.3,1.5,3.4,2.2c2.3,1.5,4.6,2.8,7,4.2c2.3,1.4,4.8,2.6,7.1,3.9c2.4,1.2,4.8,2.5,7.3,3.6c9.9,4.6,20.1,8.3,30.6,11.5
			c10.5,3.1,21.2,5.6,31.9,7.3c5.4,0.9,10.8,1.5,16.2,2C1701.4,882.1,1706.6,882.4,1711.7,882.4 M1637.7,563.3L1637.7,563.3
			c-3.1,0-6.2,0.2-9.3,0.6c-11.4,1.4-22.4,5.5-31.9,11.8c-9.4,6.2-17.5,14.7-23.5,24.6c-5.7,9.5-9.4,20.5-10.8,31.9
			c-1.3,11.1-0.4,22.7,2.8,33.4c1.5,5.3,3.6,10.5,6.2,15.5c2.2,4.3,4.8,8.7,7.8,13.1c4.9,7.2,10.5,13.8,16.9,19.8
			c-11.8,2.2-22.1,5.1-31.4,8.9c-4.9,2-9.5,4.2-13.8,6.6c-1.4-4.6-4.8-8.6-9.5-10.6c-2.1-0.9-4.4-1.4-6.8-1.4
			c-6.8,0-12.9,4-15.6,10.3c-5.6,13-7.9,27.4-6.8,41.5c0,0.6,0.1,1.2,0.1,1.8c-1.3,2.7-2.6,5.6-3.8,8.7l0,0.1l0,0.1
			c-4.6,11.6-8,23.9-10.1,36.5l0,0.1l0,0.1c-1.2,7.6-1.7,13.9-1.7,19.9c0,3.2,0.2,6.2,0.4,8.8l0.1,1.3l0,0.5l0.1,0.5l0.6,4.5
			c0.2,1.6,0.5,2.9,0.8,4c0.1,0.4,0.2,0.8,0.3,1.2l0,0.2l0,0.2c1.6,7.1,3.9,13.9,6.8,20.2l0,0l0,0c2.9,6.2,6.5,12.2,10.7,17.9l0,0
			l0,0c7.7,10.4,17.5,20,29.1,28.3c6,4.4,12.1,7.8,16.8,10.4l0.1,0.1l0.1,0.1c6.2,3.2,11.9,5.8,17.5,8c1.4,0.6,2.7,1,3.9,1.5
			l0.7,0.3l0.1,0l0.1,0c0.4,0.1,0.8,0.3,1.2,0.4c1,0.4,2.2,0.8,3.5,1.2l0.1,0l0.1,0c0.8,0.3,1.7,0.5,2.5,0.8
			c2.1,0.6,4.2,1.3,6.5,1.9l4.2,1.1l0.3,0.1l0.3,0.1l4.2,1c2.3,0.6,4.5,1,6.6,1.3c0.9,0.2,1.7,0.3,2.6,0.5l0.2,0l0.2,0
			c3.3,0.5,6.3,1,9.1,1.4l0.2,0l0.2,0c0.8,0.1,1.6,0.2,2.4,0.3c2.2,0.3,4.5,0.5,6.9,0.7l4.3,0.3l0,0l0,0c1.3,0.1,2.6,0.1,3.7,0.2
			l1.1,0l0.1,0l0.1,0c0.4,0,0.9,0,1.3,0c1,0,2.2,0.1,3.5,0.1l4.4,0l0.3,0c6.1,0,11.9-0.3,17.6-0.6l0.3,0l0.2,0l0.2,0l1.7-0.1
			c2.4-0.2,4.8-0.4,7.3-0.6l4.3-0.4l0.2,0l0.2,0l4.2-0.6c1.5-0.2,3-0.4,4.9-0.7l1.1-0.2c1.1-0.2,2.3-0.4,3.5-0.6l0.2,0l0.2,0
			c0.9-0.2,1.7-0.3,2.6-0.5c2.1-0.4,4.2-0.8,6.4-1.4c5.8-1.3,11.9-3.1,18.5-5.4l0,0l0,0c6-2.2,12.1-5,18.1-8.3l0.3-0.2l0.3-0.2
			c0.5-0.3,0.9-0.6,1.4-0.8c2.1-1.3,4.5-2.7,6.8-4.4c2.8-1.9,5.2-3.9,7.4-5.7l0.5-0.4c5.4-4.4,7.5-11.8,5.3-18.4
			c8.2-3.2,15.6-7.3,22.3-12.1l0.1,0l0.1,0c6.6-5,12.3-10.8,17-17.3c4.7-6.4,8.3-13.8,10.8-22.1c1.1-3.5,1.7-6.7,2.2-9.5
			c0.1-0.6,0.2-1.1,0.3-1.7l0.1-0.7l0.1-0.7c0.1-0.7,0.1-1.3,0.2-2c0.3-2.8,0.7-6.3,0.4-10.1c0-1.5-0.1-2.9-0.2-4
			c0-0.3-0.1-0.6-0.1-1c-0.1-1.9-0.3-3.7-0.5-5.3c-0.2-1.9-0.5-3.7-0.7-5.2c-0.1-0.4-0.1-0.8-0.2-1.2c-0.2-1.1-0.4-2.3-0.6-3.6
			c-1.2-6.2-2.7-12.6-4.7-18.9l0,0l0,0c-2.2-7-4.5-13-7.1-18.6c-3.2-6.9-6.6-12.9-10.4-18.3l-0.2-0.2l-0.2-0.2
			c-0.3-0.4-0.6-0.7-0.8-1.1c-0.7-0.9-1.5-2-2.4-3.2l-0.1-0.2l-0.2-0.2c-0.3-0.4-0.6-0.7-0.9-1.1c-0.8-0.9-1.6-1.9-2.5-2.8l-0.2-0.2
			l-0.2-0.2c-2.9-3-5.5-5.3-8-7.4c-5.5-4.5-11.5-8.5-18-11.8c-6-3.1-12.4-5.7-19-7.8c-9.8-3.1-20.6-5.3-32.7-6.8
			c2.6-3.9,4.8-8.1,6.6-12.6c4-9.8,6.1-20.7,6.2-32.4c0.1-10-1.3-20.2-4.1-30.5c-1.3-4.9-2.9-9.7-4.8-14.2c-1.8-4.5-3.9-9-6.3-13.3
			c-10.3-19.3-28-34.1-48.5-40.7C1653.9,564.5,1645.8,563.3,1637.7,563.3L1637.7,563.3z M1626.7,685.2c-5.2-4.2-9.8-9.2-13.7-14.6
			c-2.1-2.9-3.9-5.9-5.5-8.8c-1.5-2.7-2.7-5.4-3.6-8.2c-1.8-5.5-2.5-11.5-2-17.4c0.5-5.9,2.2-11.6,5-16.5c2.8-5,6.7-9.3,11.3-12.6
			c4.7-3.3,10.1-5.6,15.8-6.6c2.3-0.4,4.7-0.6,7-0.6c3.6,0,7.1,0.5,10.5,1.4c5.8,1.6,11.4,4.4,16.1,8.3c2.5,2.1,4.7,4.3,6.5,6.5
			c1.9,2.4,3.6,5,5.1,7.8c1.6,3.2,3,6.5,4.2,9.8c1,2.9,1.9,6.1,2.7,9.9c0.6,3.3,1.1,6.7,1.2,10c0.1,3.5,0,6.8-0.3,9.8l0,0l0,0
			c-0.7,6.3-2.5,12.3-5.1,17.4c-1.3,2.4-2.8,4.7-4.5,6.6c-1.6,1.8-3.4,3.4-5.4,4.8c-4.1,2.8-8.6,4.4-13.2,4.8l0,0l0,0
			c-0.8,0.1-1.7,0.1-2.6,0.1c-4.1,0-8.7-0.9-13.2-2.5C1637.2,692.5,1631.8,689.4,1626.7,685.2L1626.7,685.2z M1555.7,770.5
			c3.1-3,6.5-5.7,10.1-8c3.6-2.2,7.7-4.3,12.2-6.1c4-1.6,8.5-3,13.7-4.2c4.8-1.2,9.8-2.1,14.8-2.7c9.5-1.3,19.8-2,31.6-2.1
			c2.3,0,4.7-0.1,7.1-0.1c7.8,0,16.2,0.2,25.7,0.6c12.9,0.6,22.7,1.5,31.7,2.8c11.1,1.7,20.5,4,28.7,7c8.9,3.4,16.3,7.7,21.9,12.9
			l0.1,0.1l0.1,0.1c1.3,1.2,2.7,2.6,4,4.1c0.2,0.3,0.5,0.6,0.8,1c0.3,0.4,0.6,0.8,0.9,1.2c0.2,0.3,0.5,0.7,0.7,1.1
			c0.3,0.4,0.5,0.8,0.8,1.1c2,3.1,3.8,6.8,5.6,11.2c1.6,3.9,3,8.2,4.4,13.3c1.4,5.1,2.4,9.7,3,14l0,0.2l0,0.2
			c0.1,0.5,0.2,1.1,0.2,1.8c0.1,0.5,0.1,1.1,0.2,1.6c0.1,0.8,0.2,1.8,0.3,3l0,0.1l0,0.1c0.1,1.1,0.2,2.2,0.2,3l0,0.1l0,0.1l0.1,0.9
			c0,0.7,0.1,1.5,0.1,1.9l0,0.7l0,0.6c0,0.3-0.1,1.1-0.2,1.7c-0.1,0.5-0.1,1.1-0.2,1.7c-0.1,0.5-0.2,0.9-0.3,1.4
			c-0.2,1-0.5,2.3-0.7,2.8l-0.1,0.4l-0.1,0.4c-1,3.1-2.3,5.8-3.9,7.9l-0.1,0.1l0,0.1c-1.8,2.4-4.1,4.7-6.8,6.8
			c-5.6,4.1-12.9,7.2-21.8,9.2l-3.5,0.8c-0.6,0.1-1.2,0.2-1.8,0.3c-0.5,0.1-1,0.2-1.6,0.3l-1.6,0.3l-1.6,0.2l-3.6,0.4l-3.7,0.3
			l-1.7,0.1l-1.7,0.1l-3.9,0.1c-0.4,0-0.9,0-1.3,0l-1.1,0c-0.4,0-0.8,0-1.2,0h0l0,0l-0.6,0c-4.9,0-9.9-0.3-14.2-0.7
			c-4.9-0.5-10-1.1-15-1.9l0,0l0,0c-10-1.6-20.1-3.9-30-6.9c-10.2-3-19.8-6.6-28.6-10.7l-0.1,0l-0.1,0c-1.3-0.6-2.8-1.3-4.3-2.1
			c-0.8-0.4-1.5-0.8-2.3-1.2c-0.8-0.5-1.7-0.9-2.5-1.3c-1.4-0.8-2.7-1.5-3.9-2.2l-0.1,0l-0.1,0l-0.6-0.3c-2-1.2-4-2.3-5.7-3.5
			l-0.1,0l-0.1,0c-0.4-0.3-0.8-0.5-1.2-0.8c-0.7-0.4-1.3-0.8-1.8-1.1l-3.3-2.3c-8.2-5.7-15.8-12.2-22.5-19.1
			c-3.6-3.8-6.6-7.4-9.3-11c-2.6-3.5-5.5-7.6-7.8-11.9c-2.3-4.3-4.3-8.5-5.8-12.5c-0.3-0.9-0.6-1.8-0.9-2.7l0.3-0.4
			c0.3-0.4,0.6-0.8,1-1.2c0.3-0.3,0.6-0.7,0.9-1C1554.3,772,1555,771.2,1555.7,770.5L1555.7,770.5z M1550,869.6
			c-2.8-3.4-5.3-7-7.3-10.6c-1.9-3.5-3.5-7.4-4.8-11.5l0-0.1l0-0.1c-1.5-5-2.3-10.5-2.2-16.9c2.6,3.6,5.4,7.2,8.5,10.9l0.1,0.1
			l0.1,0.1c0.7,0.8,1.4,1.6,2.1,2.3c0.3,0.4,0.7,0.7,1,1.1l0,0l0,0l1.5,1.6l0.2,0.2l0.2,0.2l1.5,1.6l0,0l0,0l3.1,3.2l0.2,0.2
			l0.2,0.2l3.2,3l1.6,1.5l0.2,0.2l0.2,0.2l1.6,1.5l3.3,2.9l0.2,0.2l0.3,0.2l3.4,2.8l0.4,0.3c1,0.8,2.2,1.8,3.5,2.8
			c10.3,7.8,21,14.6,31.9,20.2l0.1,0l0.1,0c0.6,0.3,1.3,0.6,1.9,0.9c2.1,1,4.2,2.1,6.5,3.1l3.9,1.8l0.3,0.1l0.3,0.1l4.1,1.7
			c6.1,2.5,12.2,4.6,17.3,6.4l0,0l0,0c9.3,3.1,19.3,5.8,29.7,7.9c-0.1,0-0.1,0-0.2,0c-1.5,0-2.9,0-4.4,0l-4.1-0.1l-0.1,0h-0.1
			c-1.2,0-2.4,0-3.6-0.1l-4.1-0.1l0,0l0,0c-0.6,0-1.3-0.1-2-0.1c-0.5,0-1-0.1-1.5-0.1c-0.6,0-1.3-0.1-1.9-0.1
			c-0.7,0-1.3-0.1-1.8-0.1l-4-0.4c-4.7-0.4-9.6-1.1-15-2c-10.8-1.9-20.2-4.4-28.7-7.5l-3.7-1.4c-0.5-0.2-1.1-0.4-1.7-0.7
			c-0.6-0.2-1.1-0.5-1.7-0.7l0,0l0,0c-1.4-0.5-2.9-1.2-4.4-1.9c-0.7-0.3-1.4-0.6-2-0.9c-0.6-0.3-1.1-0.6-1.7-0.8
			c-0.5-0.3-1.1-0.5-1.6-0.8l-1.4-0.7l-1.4-0.8c-0.6-0.3-1.2-0.6-1.7-1c-0.5-0.3-1-0.5-1.5-0.8l-3.2-2
			C1562.5,882.1,1555.6,876.2,1550,869.6L1550,869.6z"/>
	</g>
</g>
<path class="st7" d="M1273.7-691c25.9,49.4,16.7,105.2-20.5,124.7c-37.2,19.6-88.4-4.5-114.3-53.9c-20.6-39.2-7.1-86.9,30.1-106.4
	C1206.3-746.2,1253.1-730.2,1273.7-691z"/>
<path class="st8" d="M1348.4-312.8c-32.2,22.1-75.1,27.5-122.3,27.5c-99.9,0-180.9-52.5-180.9-127.1c0-28,11.4-72,30.9-93.5
	c32.5-35.9,87.6-41.6,150-41.6c62.2,0,117.1,5.5,149.7,41.2c19.7,21.6,31.2,65.8,31.2,93.9c-5.5,82.2-119,88.8-212.6,53.9
	c-93.6-34.9-149.8-115.9-125.6-181"/>
<rect x="948.3" y="527.9" class="st11" width="337" height="72"/>
<text transform="matrix(1 0 0 1 948.3208 585.7839)" style="font-family:'LatiennePro-Medium'; font-size:77px;">Sootheze</text>
<g>
	<g>
		<path d="M1197.5,112.7c0,11-14.9,27-33.3,27c-18.4,0-33.3-16-33.3-27s14.9-12.7,33.3-12.7C1182.6,99.9,1197.5,101.7,1197.5,112.7z
			"/>
		<g>
			<path d="M1227.9,134.8c0-0.7-0.1-1.3-0.1-2c0-0.6-0.1-1.3-0.2-1.9c-0.1-0.6-0.2-1.3-0.3-1.9c-0.1-0.6-0.2-1.2-0.3-1.9
				c-0.5-2.5-1.1-4.9-1.8-7.3c-0.8-2.4-1.6-4.7-2.7-7c-1.1-2.3-2.3-4.6-3.8-6.7c-0.4-0.5-0.8-1.1-1.2-1.6c-0.4-0.5-0.9-1-1.3-1.5
				c-0.9-0.9-1.9-1.8-2.9-2.6c-2-1.7-4.2-3.1-6.4-4.2c-2.3-1.2-4.6-2.1-7-2.9c-4.8-1.5-9.6-2.3-14.4-2.8c-4.8-0.5-9.6-0.6-14.4-0.6
				c-0.2,0-0.4,0-0.5,0c0.7-0.2,1.3-0.4,2-0.6c1.9-0.7,3.8-1.7,5.4-2.9c1.6-1.2,3.1-2.7,4.2-4.4c1.2-1.6,2.2-3.4,2.9-5.2
				c1.5-3.6,2.1-7.5,2.1-11.3c0-3.8-0.5-7.5-1.5-11.1c-0.5-1.8-1.1-3.5-1.8-5.2c-0.7-1.7-1.5-3.4-2.3-5c-3.5-6.6-9.5-11.7-16.7-14
				c-3.6-1.2-7.4-1.6-11.2-1.1c-3.8,0.5-7.5,1.8-10.7,3.9c-3.2,2.1-5.9,5-7.9,8.3c-2,3.3-3.2,7.1-3.7,10.9c-0.5,3.8-0.1,7.8,1,11.5
				c0.5,1.9,1.3,3.7,2.1,5.4c0.9,1.7,1.8,3.3,2.9,4.9c2.1,3.1,4.7,6,7.6,8.5c2.9,2.5,6.2,4.6,9.8,6c1.7,0.7,3.5,1.2,5.4,1.6
				c-1.1,0-2.3,0.1-3.4,0.1c-4.8,0.3-9.6,0.6-14.3,1.4c-4.7,0.8-9.5,1.9-14,3.7c-2.3,0.9-4.5,2-6.5,3.3c-2.1,1.3-4,2.9-5.8,4.6
				c-0.4,0.4-0.9,0.9-1.3,1.3c-0.4,0.5-0.8,1-1.2,1.4l-0.5,0.7c-0.5-4-0.1-8.1,1.1-12.1l0,0c0.1-0.4-0.1-0.8-0.5-1
				c-0.4-0.2-0.9,0-1.1,0.4c-1.9,4.5-2.8,9.5-2.4,14.4c0.1,0.8,0.1,1.6,0.3,2.4c-0.8,1.6-1.6,3.2-2.2,4.8c-1.8,4.5-3.1,9.2-3.9,14
				c-0.4,2.4-0.6,4.9-0.6,7.4c0,1.3,0.1,2.5,0.2,3.8l0.3,1.9c0.1,0.6,0.2,1.2,0.4,1.9c0.6,2.5,1.4,4.9,2.4,7.2
				c1.1,2.3,2.4,4.5,3.9,6.5c3,4.1,6.7,7.6,10.8,10.5c2,1.5,4.2,2.7,6.4,3.9c2.2,1.1,4.5,2.2,6.8,3.1c0.6,0.2,1.2,0.4,1.7,0.6
				c0.6,0.2,1.2,0.4,1.8,0.6c1.2,0.4,2.4,0.8,3.6,1.1l1.8,0.5l1.8,0.4c1.2,0.3,2.4,0.5,3.6,0.7c1.2,0.2,2.4,0.4,3.7,0.6
				c1.2,0.1,2.4,0.3,3.7,0.4l1.8,0.1c0.6,0,1.2,0.1,1.8,0.1c0.6,0,1.2,0.1,1.8,0.1l1.8,0c2.4,0,4.8-0.1,7.3-0.3
				c1.2-0.1,2.4-0.2,3.6-0.3l1.8-0.2l1.8-0.2c0.6-0.1,1.2-0.2,1.8-0.3c0.6-0.1,1.2-0.2,1.8-0.3c1.2-0.2,2.4-0.4,3.6-0.7
				c2.4-0.5,4.7-1.3,7.1-2.1c2.3-0.8,4.6-1.9,6.7-3.1c1.1-0.6,2.1-1.2,3.1-2c1-0.7,2-1.5,2.9-2.2c0.3-0.2,0.4-0.6,0.2-1
				c-0.2-0.4-0.7-0.6-1.1-0.4l-0.1,0c-1.1,0.5-2.1,1-3.2,1.5c-1,0.5-2.1,0.9-3.2,1.3c-1.1,0.3-2.2,0.7-3.3,1
				c-0.6,0.1-1.1,0.3-1.7,0.4l-1.7,0.4c-2.2,0.5-4.5,0.9-6.8,1.1c-1.1,0.2-2.3,0.2-3.4,0.4c-1.2,0.1-2.3,0.2-3.4,0.2
				c-2.3,0.1-4.6,0.2-6.9,0.2c-1.2,0-2.3,0-3.5,0l-1.7,0c-0.6,0-1.2,0-1.7,0l-1.7-0.1c-0.6,0-1.1-0.1-1.7-0.1
				c-0.6,0-1.1-0.1-1.7-0.1l-1.7-0.2c-2.3-0.2-4.5-0.5-6.8-0.9c-4.5-0.8-8.9-1.9-13.1-3.4l-1.6-0.6c-0.5-0.2-1-0.4-1.6-0.6
				c-1-0.4-2.1-0.9-3.1-1.4c-0.5-0.2-1-0.5-1.5-0.8l-0.8-0.4l-0.7-0.4c-0.5-0.3-1-0.5-1.5-0.8l-1.4-0.9c-3.8-2.4-7.2-5.3-10.1-8.6
				c-1.4-1.7-2.7-3.5-3.8-5.4c-1.1-1.9-1.9-4-2.5-6.1c-1.3-4.2-1.4-8.8-1-13.3c0.2-2.3,0.6-4.6,1.1-6.8c0.5-2.3,1.1-4.5,2-6.7
				c0.2-0.5,0.3-0.9,0.5-1.4c0,0.2,0.1,0.3,0.1,0.5c0.7,2.4,1.6,4.7,2.6,6.9l0.8,1.7c0.3,0.6,0.6,1.1,0.9,1.6l0.5,0.8l0.5,0.8
				c0.3,0.5,0.6,1.1,1,1.6c1.4,2.1,2.9,4,4.4,5.9c0.4,0.5,0.8,0.9,1.2,1.4l0.6,0.7l0.6,0.7l1.3,1.3l1.3,1.3l0.7,0.6l0.7,0.6l1.4,1.2
				l1.4,1.2c0.5,0.4,1,0.8,1.4,1.1c3.9,3,8.1,5.6,12.5,7.9c1.1,0.5,2.2,1.1,3.3,1.6l1.7,0.8l1.7,0.7c2.3,0.9,4.6,1.8,6.9,2.5
				c4.6,1.5,9.4,2.7,14.2,3.6s9.7,1.4,14.7,1.5c2.5,0.1,5-0.1,7.5-0.2l1.9-0.2l0.9-0.1l0.9-0.1c0.6-0.1,1.2-0.2,1.9-0.3l1.9-0.4
				c5-1.1,10-3,14.4-6.2c2.2-1.6,4.2-3.6,5.8-5.9c1.6-2.3,2.8-4.8,3.6-7.5c0.4-1.3,0.6-2.6,0.9-4
				C1227.7,137.6,1228,136.2,1227.9,134.8z M1156.7,83.6c-3.1-1.1-5.9-2.8-8.5-4.9c-2.6-2.1-4.9-4.6-6.9-7.3c-1-1.4-1.9-2.8-2.7-4.3
				c-0.8-1.5-1.5-3-2-4.5c-1-3.1-1.4-6.5-1.1-9.8c0.3-3.3,1.2-6.5,2.9-9.4c1.6-2.9,3.9-5.4,6.6-7.3c2.7-1.9,5.9-3.3,9.2-3.8
				c3.3-0.6,6.8-0.4,10.1,0.4c3.3,0.9,6.4,2.5,9.1,4.7c1.3,1.1,2.6,2.3,3.6,3.7c1.1,1.3,2,2.8,2.8,4.3c0.8,1.6,1.5,3.2,2.1,4.8
				c0.6,1.6,1,3.3,1.4,5c0.3,1.7,0.5,3.4,0.6,5.1c0.1,1.7,0,3.4-0.2,5.1c-0.4,3.4-1.3,6.6-2.8,9.5c-0.8,1.4-1.7,2.8-2.7,3.9
				c-1,1.2-2.2,2.2-3.5,3.1c-2.5,1.7-5.5,2.8-8.5,3.1C1162.9,85.3,1159.7,84.8,1156.7,83.6z M1220.3,137.8c-0.2,1-0.4,2-0.7,2.9
				c-0.6,1.9-1.4,3.7-2.6,5.2c-1.2,1.6-2.6,3-4.2,4.2c-3.3,2.4-7.3,4-11.5,4.9l-1.6,0.3c-0.5,0.1-1.1,0.2-1.6,0.3l-0.8,0.1l-0.8,0.1
				l-1.7,0.2l-1.7,0.1l-0.8,0.1l-0.8,0l-1.7,0.1c-0.6,0-1.1,0-1.7,0c-2.3,0-4.5-0.1-6.8-0.3c-2.3-0.2-4.5-0.5-6.8-0.9
				c-4.5-0.7-9-1.7-13.4-3.1c-4.4-1.3-8.7-2.9-12.8-4.8c-1-0.5-2-1-3.1-1.5c-1-0.6-2-1.1-3-1.6c-1-0.6-2-1.1-2.9-1.8
				c-0.5-0.3-1-0.6-1.4-0.9l-1.4-1c-3.7-2.6-7.2-5.5-10.4-8.8c-1.6-1.7-3-3.4-4.4-5.2c-1.3-1.8-2.6-3.7-3.7-5.7
				c-1.1-2-2.1-4-2.8-6.2c-0.5-1.4-0.9-2.8-1.3-4.3c0,0,0,0,0,0l0.9-1.5l1-1.4c0.3-0.4,0.7-0.9,1.1-1.3c0.4-0.4,0.8-0.8,1.2-1.2
				c1.6-1.6,3.4-3,5.3-4.2c1.9-1.2,4-2.2,6.1-3.1c2.1-0.9,4.4-1.5,6.6-2c2.3-0.5,4.5-1,6.9-1.3c4.6-0.6,9.3-0.9,14-1
				c4.7-0.1,9.4,0,14.1,0.2c4.7,0.2,9.4,0.6,13.9,1.2c4.6,0.7,9.1,1.7,13.3,3.3c4.2,1.6,8.1,3.8,11.2,6.7c0.8,0.7,1.5,1.5,2.2,2.3
				c0.3,0.4,0.6,0.8,1,1.2c0.3,0.4,0.6,0.9,0.9,1.3c1.1,1.8,2.1,3.7,2.9,5.8c0.8,2,1.5,4.2,2.1,6.3c0.6,2.2,1.1,4.4,1.4,6.6
				c0.1,0.5,0.2,1.1,0.2,1.7c0.1,0.6,0.1,1.1,0.2,1.6c0.1,0.5,0.1,1.1,0.1,1.6c0,0.5,0.1,1.1,0.1,1.6
				C1220.6,135.9,1220.4,136.9,1220.3,137.8z"/>
			<path d="M1156.7,28c-1.1,0-2.2,0.1-3.3,0.2c-4,0.5-7.8,1.9-11.1,4.1c-3.3,2.2-6.1,5.2-8.2,8.6c-2,3.4-3.3,7.3-3.8,11.3
				c-0.5,4-0.1,8.1,1,11.9c0.5,1.9,1.3,3.8,2.2,5.6c0.8,1.6,1.8,3.3,2.9,5c2.2,3.2,4.8,6.1,7.7,8.7c3.1,2.6,6.4,4.7,10,6.1
				c-4.7,0.3-8.4,0.7-12,1.3c-5.5,0.9-10.1,2.1-14.2,3.8c-2.4,1-4.7,2.1-6.7,3.4c-2.2,1.4-4.2,3-5.9,4.7c-0.5,0.5-0.9,0.9-1.3,1.4
				l-0.1,0.1c-0.1-3.1,0.3-6.1,1.2-9.1c0.3-0.9-0.2-1.8-1-2.2c-0.2-0.1-0.5-0.2-0.7-0.2c-0.7,0-1.4,0.4-1.7,1.1
				c-2,4.7-2.8,9.8-2.4,14.9c0.1,0.7,0.1,1.4,0.2,2.1c-0.7,1.4-1.4,3-2.1,4.6c-1.8,4.5-3.1,9.3-3.9,14.2c-0.5,2.9-0.7,5.3-0.6,7.5
				c0,1.1,0.1,2.2,0.2,3.3l0,0.6l0,0l0,0l0.3,1.9c0.1,0.4,0.2,0.9,0.2,1.3c0,0.2,0.1,0.4,0.1,0.6c0.6,2.6,1.4,5.1,2.5,7.4
				c1.1,2.3,2.4,4.5,4,6.7c2.9,3.9,6.6,7.5,11,10.7c2.3,1.6,4.7,3,6.5,4c2.5,1.3,4.7,2.3,6.9,3.1c0.5,0.2,1,0.4,1.4,0.5l0.3,0.1
				c0.2,0.1,0.4,0.1,0.6,0.2c0.4,0.1,0.8,0.3,1.2,0.4c0.4,0.1,0.7,0.2,1.1,0.3c0.8,0.3,1.6,0.5,2.5,0.7l1.8,0.5l1.8,0.4
				c0.8,0.2,1.7,0.4,2.5,0.5c0.4,0.1,0.8,0.1,1.2,0.2c1.4,0.2,2.6,0.4,3.7,0.6c0.4,0,0.7,0.1,1.1,0.1c0.9,0.1,1.8,0.2,2.7,0.3
				l1.8,0.1c0.5,0,0.9,0.1,1.4,0.1l0.5,0c0.2,0,0.4,0,0.6,0c0.4,0,0.8,0,1.3,0l1.8,0l0.1,0c2.4,0,4.8-0.1,7.1-0.3l0.1,0l0.7-0.1
				c1-0.1,1.9-0.1,2.9-0.2l1.8-0.2l1.8-0.2c0.5-0.1,1.1-0.1,1.8-0.3l0.5-0.1c0.4-0.1,0.9-0.1,1.3-0.2c0.4-0.1,0.8-0.2,1.2-0.2
				c0.8-0.2,1.7-0.3,2.5-0.5c2.2-0.5,4.6-1.2,7.2-2.1c2.3-0.8,4.6-1.9,6.9-3.1l0.6-0.4c0.9-0.5,1.7-1,2.6-1.6
				c0.9-0.6,1.9-1.4,2.7-2.1l0.2-0.2c0.6-0.5,0.8-1.4,0.5-2.2c-0.3-0.7-0.9-1.1-1.7-1.1c-0.3,0-0.5,0.1-0.8,0.2l-0.1,0
				c-0.4,0.2-0.8,0.4-1.2,0.6c-0.7,0.3-1.3,0.6-1.9,0.9l0,0l0,0c-0.8,0.4-1.6,0.7-2.4,1c-0.2,0.1-0.5,0.2-0.7,0.3
				c-0.4,0.1-0.7,0.2-1.1,0.3c-0.7,0.2-1.4,0.5-2.1,0.6c-0.2,0.1-0.4,0.1-0.6,0.2c-0.3,0.1-0.7,0.2-1,0.3l-1.7,0.4
				c-1.8,0.4-4.2,0.8-6.7,1.1c-0.8,0.1-1.5,0.2-2.3,0.2c-0.4,0-0.8,0.1-1.1,0.1c-0.4,0-0.9,0.1-1.4,0.1c-0.7,0.1-1.4,0.1-2,0.1
				c-2.2,0.1-4.5,0.2-6.9,0.2c-0.5,0-1,0-1.6,0c-0.6,0-1.3,0-1.9,0l-1.7,0c-0.6,0-1.1,0-1.7,0l-1.7-0.1c-0.4,0-0.7,0-1.1-0.1
				c-0.2,0-0.4,0-0.6,0c-0.2,0-0.5,0-0.7,0c-0.3,0-0.6,0-0.9-0.1l-1.7-0.2c-2.1-0.2-4.3-0.5-6.7-0.9c-4.8-0.9-9.1-2-12.9-3.4
				l-1.6-0.6c-0.3-0.1-0.6-0.2-0.9-0.4c-0.2-0.1-0.4-0.2-0.6-0.3c-0.7-0.3-1.4-0.6-2.1-0.9c-0.3-0.1-0.6-0.3-0.9-0.4
				c-0.3-0.1-0.5-0.3-0.8-0.4l-0.6-0.3l-0.7-0.4l-0.7-0.4c-0.2-0.1-0.4-0.2-0.7-0.4c-0.3-0.1-0.5-0.3-0.8-0.4l-1.4-0.9
				c-3.8-2.4-7.1-5.2-9.8-8.4c-1.4-1.7-2.6-3.5-3.6-5.3c-1-1.8-1.8-3.8-2.5-5.9c-1.2-3.7-1.5-8-0.9-13c0.2-2.1,0.6-4.4,1.1-6.7
				c0.4-1.9,0.9-3.5,1.4-5.1c0.5,1.6,1.2,3.1,1.9,4.7l0.8,1.7c0.2,0.4,0.4,0.7,0.6,1.1c0.1,0.2,0.2,0.4,0.3,0.5l0.5,0.8l0.5,0.8
				l0.2,0.3c0.3,0.4,0.5,0.9,0.8,1.3c1.3,2,2.8,3.9,4.5,6c0.3,0.3,0.5,0.6,0.8,0.9l0.4,0.5l0.6,0.7l0.7,0.7l1.3,1.3l1.4,1.3l0.7,0.6
				l0.7,0.6l1.4,1.2l1.5,1.2l0.2,0.2c0.4,0.3,0.9,0.7,1.3,1c4,3.1,8.3,5.8,12.6,8c0.3,0.1,0.6,0.3,0.8,0.4c0.8,0.4,1.7,0.8,2.5,1.2
				l1.7,0.8l1.7,0.7c2.4,1,4.9,1.9,6.9,2.6c4.4,1.5,9.3,2.7,14.4,3.7c5,0.9,10,1.4,14.9,1.5c0.5,0,1,0,1.5,0c1.8,0,3.7-0.1,6.1-0.3
				l1.9-0.2l0.9-0.1l1-0.2l0.6-0.1c0.4-0.1,0.8-0.1,1.3-0.2l1.9-0.4c5.7-1.3,10.7-3.4,14.8-6.4c2.4-1.8,4.4-3.8,6-6.1
				c1.6-2.2,2.9-4.8,3.8-7.7c0.4-1.1,0.6-2.2,0.8-3.3c0-0.3,0.1-0.5,0.1-0.8l0,0l0,0c0-0.3,0.1-0.6,0.1-0.9c0.1-1.1,0.2-2.3,0.1-3.4
				c0-0.6-0.1-1.1-0.1-1.5l0-0.5c0-0.7-0.1-1.3-0.2-2c-0.1-0.7-0.2-1.3-0.3-1.9c0-0.2-0.1-0.4-0.1-0.6c-0.1-0.4-0.1-0.9-0.2-1.3
				c-0.4-2.4-1.1-4.9-1.8-7.4c-0.9-2.7-1.7-5-2.7-7.2c-1.2-2.6-2.5-4.9-3.9-6.9c-0.2-0.2-0.3-0.4-0.4-0.6c-0.3-0.4-0.5-0.7-0.8-1.1
				l-0.4-0.5c-0.3-0.4-0.6-0.7-0.9-1.1c-1.1-1.1-2-2-3-2.7c-2-1.7-4.2-3.1-6.6-4.3c-2.3-1.2-4.7-2.2-7.1-2.9
				c-4.3-1.4-9.1-2.3-14.6-2.8c-3-0.3-6.3-0.5-9.8-0.6c1-0.5,1.9-1.1,2.7-1.8c1.6-1.2,3.1-2.8,4.4-4.6c1.2-1.6,2.2-3.4,3-5.4
				c1.4-3.5,2.2-7.4,2.2-11.6c0-3.7-0.5-7.5-1.5-11.3c-0.5-1.9-1.1-3.7-1.8-5.4c-0.7-1.7-1.5-3.4-2.4-5.1
				c-3.7-6.9-10-12.2-17.3-14.5C1162.4,28.4,1159.6,28,1156.7,28L1156.7,28z M1164.4,84.1c-2.4,0-4.9-0.5-7.4-1.4
				c-2.9-1.1-5.7-2.7-8.3-4.8c-2.5-2.1-4.8-4.5-6.7-7.1c-1-1.4-1.9-2.8-2.6-4.2c-0.8-1.4-1.4-2.9-1.9-4.4c-1-3-1.3-6.2-1.1-9.4
				c0.3-3.2,1.2-6.3,2.7-9c1.5-2.8,3.7-5.2,6.3-7c2.6-1.8,5.6-3.1,8.8-3.7c1.3-0.2,2.6-0.3,3.9-0.3c2,0,3.9,0.3,5.8,0.8
				c3.2,0.8,6.2,2.4,8.7,4.5c1.3,1.1,2.5,2.3,3.5,3.5c1,1.3,1.9,2.7,2.7,4.2c0.8,1.5,1.4,3.1,2,4.7c0.5,1.4,0.9,3,1.3,4.9
				c0.3,1.6,0.5,3.3,0.6,5c0.1,1.7,0,3.4-0.2,5c-0.4,3.3-1.3,6.5-2.7,9.2c-0.7,1.4-1.6,2.6-2.6,3.8c-0.9,1.1-2.1,2.1-3.3,2.9
				c-2.5,1.7-5.2,2.7-8.1,2.9C1165.4,84.1,1164.9,84.1,1164.4,84.1L1164.4,84.1z M1117.5,107c0.3-0.4,0.7-0.8,1.1-1.2
				c1.6-1.6,3.3-2.9,5.2-4.1c1.8-1.1,3.8-2.1,6-3c1.9-0.8,4-1.4,6.5-2c2.2-0.5,4.5-0.9,6.7-1.2c4.2-0.6,8.7-0.9,13.9-0.9
				c1,0,2,0,3,0c3.3,0,6.9,0.1,11,0.3c5.6,0.3,9.9,0.6,13.8,1.2c5,0.8,9.3,1.8,13.1,3.2c4.4,1.7,8.1,3.8,10.9,6.5
				c0.8,0.7,1.5,1.5,2.2,2.2c0.2,0.2,0.3,0.4,0.5,0.6c0.1,0.2,0.3,0.4,0.4,0.5c0.2,0.2,0.3,0.5,0.5,0.7c0.1,0.2,0.2,0.3,0.3,0.5
				c1,1.6,1.9,3.4,2.8,5.6c0.8,1.8,1.4,3.8,2.1,6.2c0.6,2.4,1.1,4.5,1.4,6.4c0.1,0.4,0.1,0.7,0.2,1c0,0.2,0.1,0.4,0.1,0.6
				c0.1,0.5,0.1,0.9,0.2,1.6c0.1,0.5,0.1,1.1,0.1,1.6l0,0.4c0,0.4,0,0.8,0,1.2l0,0l0,0c0,0.6,0,1.2-0.1,1.8c0,0.3-0.1,0.6-0.1,0.8
				c-0.1,0.3-0.1,0.5-0.2,0.8c-0.1,0.7-0.3,1.4-0.5,1.9l0,0l0,0c-0.6,1.9-1.4,3.6-2.5,4.9c-1.1,1.4-2.4,2.8-4,4
				c-2.9,2.1-6.7,3.7-11.1,4.8l-1.6,0.3c-0.3,0.1-0.6,0.1-1,0.2c-0.2,0-0.4,0.1-0.6,0.1l-0.8,0.1l-0.8,0.1l-1.6,0.2l-1.6,0.1
				l-0.8,0.1l-0.8,0l-1.7,0.1c-0.2,0-0.5,0-0.7,0l-0.5,0l-0.5,0l-0.3,0c-2.3,0-4.5-0.2-6.4-0.3c-2.1-0.2-4.4-0.5-6.7-0.8
				c-4.4-0.7-8.9-1.7-13.3-3c-4.5-1.3-8.8-2.9-12.7-4.7c-0.7-0.3-1.3-0.6-2-1c-0.3-0.2-0.7-0.3-1-0.5c-0.4-0.2-0.7-0.4-1.1-0.6
				c-0.6-0.3-1.3-0.7-1.9-1l-0.2-0.1c-0.9-0.5-1.8-1-2.7-1.6c-0.2-0.1-0.3-0.2-0.5-0.3c-0.3-0.2-0.6-0.4-0.9-0.6l-1.4-1
				c-3.8-2.6-7.2-5.5-10.2-8.7c-1.6-1.7-3.1-3.4-4.3-5.1c-1.2-1.6-2.5-3.5-3.6-5.6c-1.1-2-2.1-4.1-2.8-6c-0.5-1.3-0.8-2.6-1.1-3.8
				l0.7-1.1l0.9-1.3c0.2-0.2,0.4-0.5,0.6-0.7C1117.2,107.3,1117.4,107.2,1117.5,107L1117.5,107z"/>
		</g>
	</g>
	<g>
		<rect x="1035.3" y="208.3" class="st11" width="261.2" height="55.8"/>
		<text transform="matrix(1 0 0 1 1035.303 253.7893)" class="st12 st13">Sootheze</text>
	</g>
	<g>
		<rect x="1037.6" y="275.3" class="st11" width="256.5" height="17.4"/>
		<text transform="matrix(1 0 0 1 1037.6228 291.9775)"><tspan x="0" y="0" class="st14 st15 st16">T</tspan><tspan x="15.4" y="0" class="st14 st15">H</tspan><tspan x="33.2" y="0" class="st14 st15">E</tspan><tspan x="47.7" y="0" class="st14 st15 st17">R</tspan><tspan x="65.3" y="0" class="st14 st15 st16">A</tspan><tspan x="81.8" y="0" class="st14 st15 st16">P</tspan><tspan x="98" y="0" class="st14 st15">Y</tspan><tspan x="112.2" y="0" class="st14 st15 st16"> </tspan><tspan x="120" y="0" class="st14 st15">P</tspan><tspan x="135.1" y="0" class="st14 st15">R</tspan><tspan x="150.9" y="0" class="st14 st15">O</tspan><tspan x="171.4" y="0" class="st14 st15 st16">D</tspan><tspan x="190.4" y="0" class="st14 st15">U</tspan><tspan x="208.6" y="0" class="st14 st15 st16">C</tspan><tspan x="227.6" y="0" class="st14 st15">T</tspan><tspan x="242.3" y="0" class="st14 st15">S</tspan></text>
	</g>
</g>
<g>
	<g>
		<path class="st9" d="M180.1,112.7c0,11-14.9,27-33.3,27s-33.3-16-33.3-27s14.9-12.7,33.3-12.7S180.1,101.7,180.1,112.7z"/>
		<g>
			<path class="st10" d="M210.5,134.8c0-0.7-0.1-1.3-0.1-2c0-0.6-0.1-1.3-0.2-1.9c-0.1-0.6-0.2-1.3-0.3-1.9
				c-0.1-0.6-0.2-1.2-0.3-1.9c-0.5-2.5-1.1-4.9-1.8-7.3c-0.8-2.4-1.6-4.7-2.7-7c-1.1-2.3-2.3-4.6-3.8-6.7c-0.4-0.5-0.8-1.1-1.2-1.6
				c-0.4-0.5-0.9-1-1.3-1.5c-0.9-0.9-1.9-1.8-2.9-2.6c-2-1.7-4.2-3.1-6.4-4.2c-2.3-1.2-4.6-2.1-7-2.9c-4.8-1.5-9.6-2.3-14.4-2.8
				c-4.8-0.5-9.6-0.6-14.4-0.6c-0.2,0-0.4,0-0.5,0c0.7-0.2,1.3-0.4,2-0.6c1.9-0.7,3.8-1.7,5.4-2.9c1.6-1.2,3.1-2.7,4.2-4.4
				c1.2-1.6,2.2-3.4,2.9-5.2c1.5-3.6,2.1-7.5,2.1-11.3c0-3.8-0.5-7.5-1.5-11.1c-0.5-1.8-1.1-3.5-1.8-5.2c-0.7-1.7-1.5-3.4-2.3-5
				c-3.5-6.6-9.5-11.7-16.7-14c-3.6-1.2-7.4-1.6-11.2-1.1c-3.8,0.5-7.5,1.8-10.7,3.9c-3.2,2.1-5.9,5-7.9,8.3
				c-2,3.3-3.2,7.1-3.7,10.9c-0.5,3.8-0.1,7.8,1,11.5c0.5,1.9,1.3,3.7,2.1,5.4c0.9,1.7,1.8,3.3,2.9,4.9c2.1,3.1,4.7,6,7.6,8.5
				c2.9,2.5,6.2,4.6,9.8,6c1.7,0.7,3.5,1.2,5.4,1.6c-1.1,0-2.3,0.1-3.4,0.1c-4.8,0.3-9.6,0.6-14.3,1.4c-4.7,0.8-9.5,1.9-14,3.7
				c-2.3,0.9-4.5,2-6.5,3.3c-2.1,1.3-4,2.9-5.8,4.6c-0.4,0.4-0.9,0.9-1.3,1.3c-0.4,0.5-0.8,1-1.2,1.4l-0.5,0.7
				c-0.5-4-0.1-8.1,1.1-12.1l0,0c0.1-0.4-0.1-0.8-0.5-1c-0.4-0.2-0.9,0-1.1,0.4c-1.9,4.5-2.8,9.5-2.4,14.4c0.1,0.8,0.1,1.6,0.3,2.4
				c-0.8,1.6-1.6,3.2-2.2,4.8c-1.8,4.5-3.1,9.2-3.9,14c-0.4,2.4-0.6,4.9-0.6,7.4c0,1.3,0.1,2.5,0.2,3.8l0.3,1.9
				c0.1,0.6,0.2,1.2,0.4,1.9c0.6,2.5,1.4,4.9,2.4,7.2c1.1,2.3,2.4,4.5,3.9,6.5c3,4.1,6.7,7.6,10.8,10.5c2,1.5,4.2,2.7,6.4,3.9
				c2.2,1.1,4.5,2.2,6.8,3.1c0.6,0.2,1.2,0.4,1.7,0.6c0.6,0.2,1.2,0.4,1.8,0.6c1.2,0.4,2.4,0.8,3.6,1.1l1.8,0.5l1.8,0.4
				c1.2,0.3,2.4,0.5,3.6,0.7c1.2,0.2,2.4,0.4,3.7,0.6c1.2,0.1,2.4,0.3,3.7,0.4l1.8,0.1c0.6,0,1.2,0.1,1.8,0.1c0.6,0,1.2,0.1,1.8,0.1
				l1.8,0c2.4,0,4.8-0.1,7.3-0.3c1.2-0.1,2.4-0.2,3.6-0.3l1.8-0.2l1.8-0.2c0.6-0.1,1.2-0.2,1.8-0.3c0.6-0.1,1.2-0.2,1.8-0.3
				c1.2-0.2,2.4-0.4,3.6-0.7c2.4-0.5,4.7-1.3,7.1-2.1c2.3-0.8,4.6-1.9,6.7-3.1c1.1-0.6,2.1-1.2,3.1-2c1-0.7,2-1.5,2.9-2.2
				c0.3-0.2,0.4-0.6,0.2-1c-0.2-0.4-0.7-0.6-1.1-0.4l-0.1,0c-1.1,0.5-2.1,1-3.2,1.5c-1,0.5-2.1,0.9-3.2,1.3c-1.1,0.3-2.2,0.7-3.3,1
				c-0.6,0.1-1.1,0.3-1.7,0.4l-1.7,0.4c-2.2,0.5-4.5,0.9-6.8,1.1c-1.1,0.2-2.3,0.2-3.4,0.4c-1.2,0.1-2.3,0.2-3.4,0.2
				c-2.3,0.1-4.6,0.2-6.9,0.2c-1.2,0-2.3,0-3.5,0l-1.7,0c-0.6,0-1.2,0-1.7,0l-1.7-0.1c-0.6,0-1.1-0.1-1.7-0.1
				c-0.6,0-1.1-0.1-1.7-0.1l-1.7-0.2c-2.3-0.2-4.5-0.5-6.8-0.9c-4.5-0.8-8.9-1.9-13.1-3.4l-1.6-0.6c-0.5-0.2-1-0.4-1.6-0.6
				c-1-0.4-2.1-0.9-3.1-1.4c-0.5-0.2-1-0.5-1.5-0.8l-0.8-0.4l-0.7-0.4c-0.5-0.3-1-0.5-1.5-0.8l-1.4-0.9c-3.8-2.4-7.2-5.3-10.1-8.6
				c-1.4-1.7-2.7-3.5-3.8-5.4c-1.1-1.9-1.9-4-2.5-6.1c-1.3-4.2-1.5-8.8-1-13.3c0.2-2.3,0.6-4.6,1.1-6.8c0.5-2.3,1.1-4.5,2-6.7
				c0.2-0.5,0.3-0.9,0.5-1.4c0,0.2,0.1,0.3,0.1,0.5c0.7,2.4,1.6,4.7,2.6,6.9l0.8,1.7c0.3,0.6,0.6,1.1,0.9,1.6l0.5,0.8l0.5,0.8
				c0.3,0.5,0.6,1.1,1,1.6c1.4,2.1,2.9,4,4.4,5.9c0.4,0.5,0.8,0.9,1.2,1.4l0.6,0.7l0.6,0.7l1.3,1.3l1.3,1.3l0.7,0.6l0.7,0.6l1.4,1.2
				l1.4,1.2c0.5,0.4,1,0.8,1.4,1.1c3.9,3,8.1,5.6,12.5,7.9c1.1,0.5,2.2,1.1,3.3,1.6l1.7,0.8l1.7,0.7c2.3,0.9,4.6,1.8,6.9,2.5
				c4.6,1.5,9.4,2.7,14.2,3.6s9.7,1.4,14.7,1.5c2.5,0.1,5-0.1,7.5-0.2l1.9-0.2l0.9-0.1l0.9-0.1c0.6-0.1,1.2-0.2,1.9-0.3l1.9-0.4
				c5-1.1,10-3,14.4-6.2c2.2-1.6,4.2-3.6,5.8-5.9c1.6-2.3,2.8-4.8,3.6-7.5c0.4-1.3,0.6-2.6,0.9-4
				C210.3,137.6,210.6,136.2,210.5,134.8z M139.3,83.6c-3.1-1.1-5.9-2.8-8.5-4.9c-2.6-2.1-4.9-4.6-6.9-7.3c-1-1.4-1.9-2.8-2.7-4.3
				c-0.8-1.5-1.5-3-2-4.5c-1-3.1-1.4-6.5-1.1-9.8c0.3-3.3,1.2-6.5,2.9-9.4c1.6-2.9,3.9-5.4,6.6-7.3c2.7-1.9,5.9-3.3,9.2-3.8
				c3.3-0.6,6.8-0.4,10.1,0.4c3.3,0.9,6.4,2.5,9.1,4.7c1.3,1.1,2.6,2.3,3.6,3.7c1.1,1.3,2,2.8,2.8,4.3c0.8,1.6,1.5,3.2,2.1,4.8
				c0.6,1.6,1,3.3,1.4,5c0.3,1.7,0.5,3.4,0.6,5.1c0.1,1.7,0,3.4-0.2,5.1c-0.4,3.4-1.3,6.6-2.8,9.5c-0.8,1.4-1.7,2.8-2.7,3.9
				c-1,1.2-2.2,2.2-3.5,3.1c-2.5,1.7-5.5,2.8-8.5,3.1C145.5,85.3,142.3,84.8,139.3,83.6z M202.9,137.8c-0.2,1-0.4,2-0.7,2.9
				c-0.6,1.9-1.4,3.7-2.6,5.2c-1.2,1.6-2.6,3-4.2,4.2c-3.3,2.4-7.3,4-11.5,4.9l-1.6,0.3c-0.5,0.1-1.1,0.2-1.6,0.3l-0.8,0.1l-0.8,0.1
				l-1.7,0.2l-1.7,0.1l-0.8,0.1l-0.8,0l-1.7,0.1c-0.6,0-1.1,0-1.7,0c-2.3,0-4.5-0.1-6.8-0.3c-2.3-0.2-4.5-0.5-6.8-0.9
				c-4.5-0.7-9-1.7-13.4-3.1c-4.4-1.3-8.7-2.9-12.8-4.8c-1-0.5-2-1-3.1-1.5c-1-0.6-2-1.1-3-1.6c-1-0.6-2-1.1-2.9-1.8
				c-0.5-0.3-1-0.6-1.4-0.9l-1.4-1c-3.7-2.6-7.2-5.5-10.4-8.8c-1.6-1.7-3-3.4-4.4-5.2c-1.3-1.8-2.6-3.7-3.7-5.7
				c-1.1-2-2.1-4-2.8-6.2c-0.5-1.4-0.9-2.8-1.3-4.3c0,0,0,0,0,0l0.9-1.5l1-1.4c0.3-0.4,0.7-0.9,1.1-1.3c0.4-0.4,0.8-0.8,1.2-1.2
				c1.6-1.6,3.4-3,5.3-4.2c1.9-1.2,4-2.2,6.1-3.1c2.1-0.9,4.4-1.5,6.6-2c2.3-0.5,4.5-1,6.9-1.3c4.6-0.6,9.3-0.9,14-1
				c4.7-0.1,9.4,0,14.1,0.2c4.7,0.2,9.4,0.6,13.9,1.2c4.6,0.7,9.1,1.7,13.3,3.3c4.2,1.6,8.1,3.8,11.2,6.7c0.8,0.7,1.5,1.5,2.2,2.3
				c0.3,0.4,0.6,0.8,1,1.2c0.3,0.4,0.6,0.9,0.9,1.3c1.1,1.8,2.1,3.7,2.9,5.8c0.8,2,1.5,4.2,2.1,6.3c0.6,2.2,1.1,4.4,1.4,6.6
				c0.1,0.5,0.2,1.1,0.2,1.7c0.1,0.6,0.1,1.1,0.2,1.6c0.1,0.5,0.1,1.1,0.1,1.6c0,0.5,0.1,1.1,0.1,1.6
				C203.2,135.9,203,136.9,202.9,137.8z"/>
			<path class="st10" d="M139.3,28c-1.1,0-2.2,0.1-3.3,0.2c-4,0.5-7.8,1.9-11.1,4.1c-3.3,2.2-6.1,5.2-8.2,8.6
				c-2,3.4-3.3,7.3-3.8,11.3c-0.5,4-0.1,8.1,1,11.9c0.5,1.9,1.3,3.8,2.2,5.6c0.8,1.6,1.8,3.3,2.9,5c2.2,3.2,4.8,6.1,7.7,8.7
				c3.1,2.6,6.4,4.7,10,6.1c-4.7,0.3-8.4,0.7-12,1.3c-5.5,0.9-10.1,2.1-14.2,3.8c-2.4,1-4.7,2.1-6.7,3.4c-2.2,1.4-4.2,3-5.9,4.7
				c-0.5,0.5-0.9,0.9-1.3,1.4l-0.1,0.1c-0.1-3.1,0.3-6.1,1.2-9.1c0.3-0.9-0.2-1.8-1-2.2c-0.2-0.1-0.5-0.2-0.7-0.2
				c-0.7,0-1.4,0.4-1.7,1.1c-2,4.7-2.8,9.8-2.4,14.9c0.1,0.7,0.1,1.4,0.2,2.1c-0.7,1.4-1.4,3-2.1,4.6c-1.8,4.5-3.1,9.3-3.9,14.2
				c-0.5,2.9-0.7,5.3-0.6,7.5c0,1.1,0.1,2.2,0.2,3.3l0,0.6l0,0l0,0l0.3,1.9c0.1,0.4,0.2,0.9,0.2,1.3c0,0.2,0.1,0.4,0.1,0.6
				c0.6,2.6,1.4,5.1,2.5,7.4c1.1,2.3,2.4,4.5,4,6.7c2.9,3.9,6.6,7.5,11,10.7c2.3,1.6,4.7,3,6.5,4c2.5,1.3,4.7,2.3,6.9,3.1
				c0.5,0.2,1,0.4,1.4,0.5l0.3,0.1c0.2,0.1,0.4,0.1,0.6,0.2c0.4,0.1,0.8,0.3,1.2,0.4c0.4,0.1,0.7,0.2,1.1,0.3
				c0.8,0.3,1.6,0.5,2.5,0.7l1.8,0.5l1.8,0.4c0.8,0.2,1.7,0.4,2.5,0.5c0.4,0.1,0.8,0.1,1.2,0.2c1.4,0.2,2.6,0.4,3.7,0.6
				c0.4,0,0.7,0.1,1.1,0.1c0.9,0.1,1.8,0.2,2.7,0.3l1.8,0.1c0.5,0,0.9,0.1,1.4,0.1l0.5,0c0.2,0,0.4,0,0.6,0c0.4,0,0.8,0,1.3,0l1.8,0
				l0.1,0c2.4,0,4.8-0.1,7.1-0.3l0.1,0l0.7-0.1c1-0.1,1.9-0.1,2.9-0.2l1.8-0.2l1.8-0.2c0.5-0.1,1.1-0.1,1.8-0.3l0.5-0.1
				c0.4-0.1,0.9-0.1,1.3-0.2c0.4-0.1,0.8-0.2,1.2-0.2c0.8-0.2,1.7-0.3,2.5-0.5c2.2-0.5,4.6-1.2,7.2-2.1c2.3-0.8,4.6-1.9,6.9-3.1
				l0.6-0.4c0.9-0.5,1.7-1,2.6-1.6c0.9-0.6,1.9-1.4,2.7-2.1l0.2-0.2c0.6-0.5,0.8-1.4,0.5-2.2c-0.3-0.7-0.9-1.1-1.7-1.1
				c-0.3,0-0.5,0.1-0.8,0.2l-0.1,0c-0.4,0.2-0.8,0.4-1.2,0.6c-0.7,0.3-1.3,0.6-1.9,0.9l0,0l0,0c-0.8,0.4-1.6,0.7-2.4,1
				c-0.2,0.1-0.5,0.2-0.7,0.3c-0.4,0.1-0.7,0.2-1.1,0.3c-0.7,0.2-1.4,0.5-2.1,0.6c-0.2,0.1-0.4,0.1-0.6,0.2c-0.3,0.1-0.7,0.2-1,0.3
				l-1.7,0.4c-1.8,0.4-4.2,0.8-6.7,1.1c-0.8,0.1-1.5,0.2-2.3,0.2c-0.4,0-0.8,0.1-1.1,0.1c-0.4,0-0.9,0.1-1.4,0.1
				c-0.7,0.1-1.4,0.1-2,0.1c-2.2,0.1-4.5,0.2-6.9,0.2c-0.5,0-1,0-1.6,0c-0.6,0-1.3,0-1.9,0l-1.7,0c-0.6,0-1.1,0-1.7,0l-1.7-0.1
				c-0.4,0-0.7,0-1.1-0.1c-0.2,0-0.4,0-0.6,0c-0.2,0-0.5,0-0.7,0c-0.3,0-0.6,0-0.9-0.1l-1.7-0.2c-2.1-0.2-4.3-0.5-6.7-0.9
				c-4.8-0.9-9.1-2-12.9-3.4l-1.6-0.6c-0.3-0.1-0.6-0.2-0.9-0.4c-0.2-0.1-0.4-0.2-0.6-0.3c-0.7-0.3-1.4-0.6-2.1-0.9
				c-0.3-0.1-0.6-0.3-0.9-0.4c-0.3-0.1-0.5-0.3-0.8-0.4l-0.6-0.3l-0.7-0.4l-0.7-0.4c-0.2-0.1-0.4-0.2-0.7-0.4
				c-0.3-0.1-0.5-0.3-0.8-0.4l-1.4-0.9c-3.8-2.4-7.1-5.2-9.8-8.4c-1.4-1.7-2.6-3.5-3.6-5.3c-1-1.8-1.8-3.8-2.5-5.9
				c-1.2-3.7-1.5-8-0.9-13c0.2-2.1,0.6-4.4,1.1-6.7c0.4-1.9,0.9-3.5,1.4-5.1c0.5,1.6,1.2,3.1,1.9,4.7l0.8,1.7
				c0.2,0.4,0.4,0.7,0.6,1.1c0.1,0.2,0.2,0.4,0.3,0.5l0.5,0.8l0.5,0.8l0.2,0.3c0.3,0.4,0.5,0.9,0.8,1.3c1.3,2,2.8,3.9,4.5,6
				c0.3,0.3,0.5,0.6,0.8,0.9l0.4,0.5l0.6,0.7l0.7,0.7l1.3,1.3l1.4,1.3l0.7,0.6l0.7,0.6l1.4,1.2l1.5,1.2l0.2,0.2
				c0.4,0.3,0.9,0.7,1.3,1c4,3.1,8.3,5.8,12.6,8c0.3,0.1,0.6,0.3,0.8,0.4c0.8,0.4,1.7,0.8,2.5,1.2l1.7,0.8l1.7,0.7
				c2.4,1,4.9,1.9,6.9,2.6c4.4,1.5,9.3,2.7,14.4,3.7c5,0.9,10,1.4,14.9,1.5c0.5,0,1,0,1.5,0c1.8,0,3.7-0.1,6.1-0.3l1.9-0.2l0.9-0.1
				l1-0.2l0.6-0.1c0.4-0.1,0.8-0.1,1.3-0.2l1.9-0.4c5.7-1.3,10.7-3.4,14.8-6.4c2.4-1.8,4.4-3.8,6-6.1c1.6-2.2,2.9-4.8,3.8-7.7
				c0.4-1.1,0.6-2.2,0.8-3.3c0-0.3,0.1-0.5,0.1-0.8l0,0l0,0c0-0.3,0.1-0.6,0.1-0.9c0.1-1.1,0.2-2.3,0.1-3.4c0-0.6-0.1-1.1-0.1-1.5
				l0-0.5c0-0.7-0.1-1.3-0.2-2c-0.1-0.7-0.2-1.3-0.3-1.9c0-0.2-0.1-0.4-0.1-0.6c-0.1-0.4-0.1-0.9-0.2-1.3c-0.4-2.4-1.1-4.9-1.8-7.4
				c-0.9-2.7-1.7-5-2.7-7.2c-1.2-2.6-2.5-4.9-3.9-6.9c-0.2-0.2-0.3-0.4-0.4-0.6c-0.3-0.4-0.5-0.7-0.8-1.1l-0.4-0.5
				c-0.3-0.4-0.6-0.7-0.9-1.1c-1.1-1.1-2-2-3-2.7c-2-1.7-4.2-3.1-6.6-4.3c-2.3-1.2-4.7-2.2-7.1-2.9c-4.3-1.4-9.1-2.3-14.6-2.8
				c-3-0.3-6.3-0.5-9.8-0.6c1-0.5,1.9-1.1,2.7-1.8c1.6-1.2,3.1-2.8,4.4-4.6c1.2-1.6,2.2-3.4,3-5.4c1.4-3.5,2.2-7.4,2.2-11.6
				c0-3.7-0.5-7.5-1.5-11.3c-0.5-1.9-1.1-3.7-1.8-5.4c-0.7-1.7-1.5-3.4-2.4-5.1c-3.7-6.9-10-12.2-17.3-14.5
				C145,28.4,142.2,28,139.3,28L139.3,28z M147,84.1c-2.4,0-4.9-0.5-7.4-1.4c-2.9-1.1-5.7-2.7-8.3-4.8c-2.5-2.1-4.8-4.5-6.7-7.1
				c-1-1.4-1.9-2.8-2.6-4.2c-0.8-1.4-1.4-2.9-1.9-4.4c-1-3-1.3-6.2-1.1-9.4c0.3-3.2,1.2-6.3,2.7-9c1.5-2.8,3.7-5.2,6.3-7
				c2.6-1.8,5.6-3.1,8.8-3.7c1.3-0.2,2.6-0.3,3.9-0.3c2,0,3.9,0.3,5.8,0.8c3.2,0.8,6.2,2.4,8.7,4.5c1.3,1.1,2.5,2.3,3.5,3.5
				c1,1.3,1.9,2.7,2.7,4.2c0.8,1.5,1.4,3.1,2,4.7c0.5,1.4,0.9,3,1.3,4.9c0.3,1.6,0.5,3.3,0.6,5c0.1,1.7,0,3.4-0.2,5
				c-0.4,3.3-1.3,6.5-2.7,9.2c-0.7,1.4-1.6,2.6-2.6,3.8c-1,1.1-2.1,2.1-3.3,2.9c-2.5,1.7-5.2,2.7-8.1,2.9
				C148,84.1,147.5,84.1,147,84.1L147,84.1z M100.1,107c0.3-0.4,0.7-0.8,1.1-1.2c1.6-1.6,3.3-2.9,5.2-4.1c1.8-1.1,3.8-2.1,6-3
				c1.9-0.8,4-1.4,6.5-2c2.2-0.5,4.5-0.9,6.7-1.2c4.2-0.6,8.7-0.9,13.9-0.9c1,0,2,0,3,0c3.3,0,6.9,0.1,11,0.3
				c5.6,0.3,9.9,0.6,13.8,1.2c5,0.8,9.3,1.8,13.1,3.2c4.4,1.7,8.1,3.8,10.9,6.5c0.8,0.7,1.5,1.5,2.2,2.2c0.2,0.2,0.3,0.4,0.5,0.6
				c0.1,0.2,0.3,0.4,0.4,0.5c0.2,0.2,0.3,0.5,0.5,0.7c0.1,0.2,0.2,0.3,0.3,0.5c1,1.6,1.9,3.4,2.8,5.6c0.8,1.8,1.4,3.8,2.1,6.2
				c0.6,2.4,1.1,4.5,1.4,6.4c0.1,0.4,0.1,0.7,0.2,1c0,0.2,0.1,0.4,0.1,0.6c0.1,0.5,0.1,0.9,0.2,1.6c0.1,0.5,0.1,1.1,0.1,1.6l0,0.4
				c0,0.4,0,0.8,0,1.2l0,0l0,0c0,0.6,0,1.2-0.1,1.8c0,0.3-0.1,0.6-0.1,0.8c-0.1,0.3-0.1,0.5-0.2,0.8c-0.1,0.7-0.3,1.4-0.5,1.9l0,0
				l0,0c-0.6,1.9-1.4,3.6-2.5,4.9c-1.1,1.4-2.4,2.8-4,4c-2.9,2.1-6.7,3.7-11.1,4.8l-1.6,0.3c-0.3,0.1-0.6,0.1-1,0.2
				c-0.2,0-0.4,0.1-0.6,0.1l-0.8,0.1l-0.8,0.1l-1.6,0.2l-1.6,0.1l-0.8,0.1l-0.8,0l-1.7,0.1c-0.2,0-0.5,0-0.7,0l-0.5,0l-0.5,0l-0.3,0
				c-2.3,0-4.5-0.2-6.4-0.3c-2.1-0.2-4.4-0.5-6.7-0.8c-4.4-0.7-8.9-1.7-13.3-3c-4.5-1.3-8.8-2.9-12.7-4.7c-0.7-0.3-1.3-0.6-2-1
				c-0.3-0.2-0.7-0.3-1-0.5c-0.4-0.2-0.7-0.4-1.1-0.6c-0.6-0.3-1.3-0.7-1.9-1l-0.2-0.1c-0.9-0.5-1.8-1-2.7-1.6
				c-0.2-0.1-0.3-0.2-0.5-0.3c-0.3-0.2-0.6-0.4-0.9-0.6l-1.4-1c-3.8-2.6-7.2-5.5-10.2-8.7c-1.6-1.7-3.1-3.4-4.3-5.1
				c-1.2-1.6-2.5-3.5-3.6-5.6c-1.1-2-2.1-4.1-2.8-6c-0.5-1.3-0.8-2.6-1.1-3.8l0.7-1.1l0.9-1.3c0.2-0.2,0.4-0.5,0.6-0.7
				C99.8,107.3,100,107.2,100.1,107L100.1,107z"/>
		</g>
	</g>
	<g>
		<rect x="17.9" y="208.3" class="st11" width="261.2" height="55.8"/>
		<text transform="matrix(1 0 0 1 17.9046 253.7893)" class="st12 st13">Sootheze</text>
	</g>
	<g>
		<rect x="20.2" y="275.3" class="st11" width="256.5" height="17.4"/>
		<text transform="matrix(1 0 0 1 20.2244 291.9775)"><tspan x="0" y="0" class="st14 st15 st16">T</tspan><tspan x="15.4" y="0" class="st14 st15">H</tspan><tspan x="33.2" y="0" class="st14 st15">E</tspan><tspan x="47.7" y="0" class="st14 st15 st17">R</tspan><tspan x="65.3" y="0" class="st14 st15 st16">A</tspan><tspan x="81.8" y="0" class="st14 st15 st16">P</tspan><tspan x="98" y="0" class="st14 st15">Y</tspan><tspan x="112.2" y="0" class="st14 st15 st16"> </tspan><tspan x="120" y="0" class="st14 st15">P</tspan><tspan x="135.1" y="0" class="st14 st15">R</tspan><tspan x="150.9" y="0" class="st14 st15">O</tspan><tspan x="171.4" y="0" class="st14 st15 st16">D</tspan><tspan x="190.4" y="0" class="st14 st15">U</tspan><tspan x="208.6" y="0" class="st14 st15 st16">C</tspan><tspan x="227.6" y="0" class="st14 st15">T</tspan><tspan x="242.3" y="0" class="st14 st15">S</tspan></text>
	</g>
</g>
<rect x="728.9" y="-371.7" class="st11" width="81.1" height="30.6"/>
<g>
	<rect x="699.6" y="214.9" class="st11" width="255.5" height="49.2"/>
	<text transform="matrix(1 0 0 1 699.5956 259.9935)" class="st13" style="font-family:'Avenir-Light';">Sootheze</text>
	<rect x="702.8" y="278.1" class="st11" width="249.1" height="14.6"/>
	<text transform="matrix(1 0 0 1 702.8073 290.4354)" style="font-family:'MrsEavesAllPetiteCapsOT'; font-size:37px;">Therapy Products</text>
	<g>
		<g>
			<path d="M803.3,74c0.9,2.3,1.6,4.4,2.3,6.6c0.7,2.2,1.4,4.3,2,6.5c1.3,4.4,2.4,8.7,3.3,13.2c1.9,8.8,3.3,17.8,3.9,26.9
				c0.3,4.5,0.4,9.1,0.2,13.6c-0.2,4.6-0.6,9.1-1.3,13.6c-0.8,4.5-1.8,9-3.3,13.3c-1.5,4.3-3.3,8.6-5.6,12.6
				c-0.6,1.2-2.1,1.6-3.3,0.9c-1.1-0.6-1.6-2-1-3.2l0-0.1c1.9-3.8,3.4-7.8,4.6-11.9c1.1-4.1,1.9-8.3,2.4-12.6
				c0.5-4.3,0.6-8.6,0.6-12.9c0-4.3-0.4-8.6-0.8-12.9c-1-8.6-2.7-17.1-5-25.4c-1.1-4.2-2.4-8.3-3.8-12.4c-0.7-2-1.4-4.1-2.2-6.1
				c-0.8-2-1.6-4.1-2.4-5.9l0-0.1c-1.1-2.6,0-5.6,2.6-6.7c2.6-1.1,5.6,0,6.7,2.6C803.2,73.8,803.2,73.9,803.3,74z"/>
		</g>
		<g>
			<path d="M810.7,117.4c1.7-1.2,3.5-2.2,5.3-3.1c1.8-0.9,3.7-1.7,5.7-2.3c3.9-1.3,7.8-2.4,11.9-3.2c2-0.4,4.1-0.7,6.2-0.9
				c2.1-0.2,4.3-0.3,6.6,0c0.6,0,1.2,0.2,1.7,0.3c0.6,0.2,1.2,0.2,1.8,0.5c1.2,0.4,2.5,1,3.6,2c1.2,1,2,2.5,2.3,4
				c0.3,1.5,0.1,2.8-0.2,4c-0.3,1.3-1.5,2.1-2.8,1.9c-1.2-0.2-1.9-1.3-1.9-2.4l0-0.3c0-0.8-0.1-1.5-0.2-1.9
				c-0.2-0.4-0.5-0.7-0.8-0.9c-0.4-0.2-0.9-0.5-1.7-0.6c-0.3-0.1-0.7-0.1-1.1-0.2c-0.4,0-0.8-0.1-1.2-0.1c-3.4,0-7.2,0.7-10.9,1.5
				c-3.7,0.9-7.4,2-11.1,3.2c-1.9,0.6-3.7,1.2-5.6,1.6c-1.9,0.5-3.8,1-5.8,1.3l0,0c-1.4,0.2-2.6-0.8-2.8-2.1
				C809.6,118.8,810,117.9,810.7,117.4z"/>
		</g>
		<g>
			<path d="M844,179.4c-0.9-1.7-1.8-3.5-2.1-5.5c-0.3-1-0.3-2-0.4-3.1c0-1,0-2.1,0.2-3.1c0.3-2,0.9-3.9,1.5-5.6
				c0.6-1.8,1.3-3.3,1.9-4.9c1.3-3.1,2.5-6.2,3.4-9.3l0.6-2.4c0.1-0.4,0.1-0.7,0.2-1.1c0.1-0.4,0.2-0.7,0.2-1.1
				c0.2-1.4,0.1-2.6-0.2-3.6c-0.3-1-0.8-1.7-1.6-2.4c-0.8-0.6-2.1-1.1-3.4-1.5c-1.4-0.3-2.9-0.5-4.5-0.5c-1.6,0-3.2,0-4.8,0.1
				c-1.6,0.1-3.3,0.3-5,0.5c-1.7,0.2-3.3,0.5-5,0.8c-3.4,0.6-6.7,1.3-10.2,1.9c-1.3,0.2-2.6-0.6-2.8-2c-0.2-1.2,0.5-2.4,1.7-2.7l0,0
				c3.2-0.9,6.6-2,10-2.8c3.4-0.9,6.9-1.6,10.5-2c1.8-0.2,3.6-0.4,5.5-0.4c1.9,0,3.8,0.1,5.8,0.5c2,0.4,4.1,1.1,6.1,2.5
				c2,1.3,3.6,3.6,4.3,5.9c1.4,4.7,0.2,8.9-0.6,12.3c-1,3.5-2.2,7-3.6,10.2c-1.4,3.2-2.8,6.2-3.5,9c-0.2,0.7-0.3,1.4-0.4,2.1
				c0,0.7-0.1,1.4-0.1,2.1c0,1.4,0.3,2.9,0.6,4.4l0,0.2c0.3,1.3-0.6,2.6-1.9,2.8C845.5,180.8,844.5,180.3,844,179.4z"/>
		</g>
		<g>
			<path d="M761.6,164.9c10.2,4.9,20.9,8.6,32,10.8l4.1,0.8c1.4,0.2,2.8,0.4,4.2,0.6l2.1,0.3l2.1,0.2c1.4,0.1,2.8,0.3,4.2,0.4
				c5.6,0.4,11.2,0.5,16.9,0.4c11.2-0.4,22.4-2,33.3-4.6c5.5-1.3,10.8-2.9,16.1-4.8c2.6-0.9,5.3-1.9,7.8-3c1.3-0.5,2.6-1.1,3.8-1.6
				c1.2-0.6,2.6-1.2,3.6-1.7l0.1,0c2.3-1.2,5.1-0.3,6.2,2c1.2,2.3,0.3,5.1-2,6.2c0,0-0.1,0.1-0.1,0.1c-1.5,0.7-2.8,1.3-4.2,1.8
				c-1.4,0.6-2.8,1.1-4.2,1.6c-2.8,1-5.6,2-8.4,2.8c-5.6,1.7-11.3,3.2-17.1,4.4c-11.5,2.4-23.3,3.6-35,3.6c-5.9,0-11.7-0.4-17.6-1
				c-1.5-0.2-2.9-0.4-4.4-0.6l-2.2-0.3L801,183c-1.4-0.3-2.9-0.5-4.3-0.8l-4.3-1c-11.4-2.7-22.4-7-32.8-12.3c-1.1-0.6-1.5-1.9-0.9-3
				C759.2,164.8,760.5,164.4,761.6,164.9L761.6,164.9z"/>
		</g>
	</g>
</g>
<path class="st18" d="M2492.4,40.5c0,0,82,193.1,12.8,321.7"/>
<path class="st18" d="M2640.8,359.9c-15-35.4,8.9-52.3,20.2-101.1c15.9-69.1-88.5-37.6-119.7-30.6c-1,0.2-2.1,0.5-3.1,0.7
	c-41.9,9-60.2-50.7-20.6-67c63.5-26.1,145.1-45.9,138.4-7.4"/>
<path class="st19" d="M2374,323.8c208,105.5,416,0,416,0"/>
<path class="st20" d="M2215,823.9c0,0,45.5-52.6,53.6-63c8.1-10.4,71.8-45,74.1-48.9c1.4-2.4,14.6-9.9,24-21.4
	c5.6-6.9,2-17.9,4.3-23.9c1.7-4.5,7.2-20.1,9.5-27.9c1.1-3.9-2.7-7.4-6.5-5.8c-5.8,2.3-15.2,14.4-16.1,26.6
	c-0.1,1.4-0.7,2.7-1.8,3.5c-3.4,2.7-10.8,8.5-16.7,16.7c-0.6,0.8-1.4,1.4-2.4,1.6c-5.6,1.5-11.8,8.4-12.4,9.2
	c-4.4,5.7-25.2,9.1-19.5-1.3c5.6-10.4,32.1-24.5,24.2-36.6c-7.8-12.1-34.8,18.1-37.2,20.5c-2.4,2.3-28.1,23.8-30.5,44.5
	c-1.4,12.2-91.7,42.4-90.6,49.9"/>
<path class="st21" d="M1142.5-175.6L1142.5-175.6c-29,0-52.7-23.7-52.7-52.7v-59.2c0-29,23.7-52.7,52.7-52.7h0
	c29,0,52.7,23.7,52.7,52.7v59.2C1195.1-199.3,1171.4-175.6,1142.5-175.6z"/>
<g>
	<path class="st22" d="M1122.6-244.3c-5.3,4-34.3,12.3-34,15.6"/>
	<path class="st4" d="M1186.5-325.3c0,0-21.4,24.1-24.5,28.9c-3.1,4.8-23.1,15.1-28,18.9c-3.2,2.4-6.9,7.3-10.6,12.7
		c-2.2,3.2-0.4,7.8-1,10.5c-0.9,4.8-3.9,7.7-4.6,11.2c-0.3,1.7,3.4,0.8,4.9,0c2.4-1.2,4.6-4.6,5.6-8.5c2.5-9.4,7.9-8.8,13.3-14.7
		c5.1-5.6,10.5-4.9,8.5-0.2s-12.2,9.8-8.4,14.7c1.6,1.6,4.6-2.2,8.3-4.7c2.9-1.9,6-4,6.5-4.3c2.2-1.5,4.4-3.7,7.4-9.8
		c2.5-5.1,1-5.9,1.9-9.9c1.2-5.2,34.2-18.2,33.5-21.3"/>
	<path class="st23" d="M1093.9-199.9c0,0,28.5-20.6,32.2-25s21.1-13.4,26.5-16.6c3.5-2,7.8-6.4,12.1-11.2c2.6-2.9,1.4-7.7,2.3-10.3
		c1.5-4.6,4.5-7.3,5.9-10.5c1.4-3.2-4.2-4.3-6.6-1.4c-1.7,2.1-4,5.9-6.3,8.8"/>
</g>
<path class="st24" d="M1543.9,153.9"/>
<g>
	<path d="M1594.1-233.2L1594.1-233.2c-51,0-92.7-41.7-92.7-92.7V-451c0-51,41.7-92.7,92.7-92.7h0c51,0,92.7,41.7,92.7,92.7v125.1
		C1686.8-274.9,1645.1-233.2,1594.1-233.2z"/>
	<polygon points="1507.8,-338.5 1483.5,-332.2 1502.9,-267.8 1525,-285.4 	"/>
	<path class="st25" d="M1594.1-213.6L1594.1-213.6c-61.6,0-112-50.4-112-112v-125.8c0-61.6,50.4-112,112-112h0
		c61.6,0,112,50.4,112,112v125.8C1706.1-263.9,1655.7-213.6,1594.1-213.6z"/>
	<path class="st26" d="M1490.3-257.8c0,0,57.4-44.6,66-54.6s48.6-30.9,61-38.2c8-4.7,18-14.7,27.8-25.9c5.9-6.7,3.2-17.6,5.2-23.7
		c3.5-10.6,10.3-16.7,13.7-24.2c3.3-7.4-9.6-9.8-15.1-3.2c-4,4.8-9.1,13.7-14.6,20.2"/>
	<path class="st26" d="M1548.4-357.3c-12.2,9.3-74.3,26.2-78.7,31.6"/>
	<path class="st4" d="M1695.6-543.8c0,0-49.2,55.6-56.4,66.6s-53.2,34.9-64.5,43.6c-7.3,5.6-16,16.8-24.4,29.1
		c-5,7.4-1,17.9-2.2,24.2c-2.1,11-8.9,17.7-10.5,25.7c-0.8,4,7.8,1.8,11.4,0c5.6-2.8,10.5-10.6,12.9-19.7
		c5.7-21.7,18.2-20.2,30.6-33.8c11.7-12.8,24.3-11.2,19.6-0.4s-28.2,22.5-19.4,33.9c3.6,3.8,10.5-5.1,19-10.8
		c6.7-4.5,13.8-9.2,15-10c5.1-3.4,10.2-8.5,17-22.5c5.8-11.8,2.4-13.6,4.5-22.8c2.7-12,78.8-41.8,77.1-49.2"/>
</g>
<path class="st27" d="M3608,301.2l-44.7-8.6l-90.8-17.5l1.9-7.3l90,17.7l-89.7-20.1l-46-10.3l2.2-5.7l136,29.6l40.5-161.8
	c7.9-9,12.2,2.4,12.2,2.4l-1.6,4.6c9,0.8,35.9-7.1,35.9-7.1l3-10.6c0,0,10.1-10.9,14.1,3.3l-90.8,357.9c0,0,62-18.2,77-30.7
	c0,0,11.1,0.3,17.9,6c-44.3,36.4-190.8,90.1-252.4,45.4l-5.4-7.1c0,0,1.4-8.2,6-7.6c4.6,0.5,7.1,0.5,7.1,0.5s61.2,23.3,139.8-4.4
	l23.4-107.1c0,0-140.9-23.9-153.7-15.8c-12.8,8.2-16.6-30.2-13.6-29.4c3,0.8,12.5-5.4,17.4-4.9c4.9,0.5,100.3,16,108,12.2l10.9-28.8
	L3608,301.2z"/>
<g>
	<rect x="385.9" y="208.2" class="st11" width="210.3" height="44"/>
	<text transform="matrix(1 0 0 1 385.897 250.3767)" class="st13" style="font-family:'CorundumTextBook';">Sootheze</text>
	<rect x="385" y="263.5" class="st11" width="212" height="29.2"/>
	<text transform="matrix(1 0 0 1 385.0103 285.1082)"><tspan x="0" y="0" style="font-family:'MrEavesModOT-Light'; font-size:36px;">Therapy Prod</tspan><tspan x="164.3" y="0" style="font-family:'MrEavesModOT-Light'; font-size:36px;">-</tspan></text>
	<g>
		<path d="M494.2,39.2L494.2,39.2c26.2,0,47.7,21.4,47.7,47.7v53.6c0,26.2-21.4,47.7-47.7,47.7h0c-26.2,0-47.7-21.4-47.7-47.7V86.8
			C446.6,60.6,468,39.2,494.2,39.2z"/>
		<path class="st28" d="M534.6,62.9c0,0-22.1,16.9-25.5,20.8s-19.1,12.2-24,15c-3.1,1.8-7.1,5.8-10.9,10.2c-2.3,2.6-2.4,6.3-3.1,8.6
			c-1.4,4.2-3,7.2-4.3,10.2c-1.3,2.9,3.8,3.9,5.9,1.2c1.6-1.9,2-6.7,4.6-7.5c13.4,9.7,25.2,6.4,34-20.3c4.4-5.4,28.6-8.9,30.6-12.5
			C541.9,88.7,541.7,74.6,534.6,62.9z"/>
		<path class="st29" d="M454.3,174.6c0,0,19.3-21.8,22.2-26.2c2.8-4.3,20.9-13.7,25.4-17.1c2.9-2.2,6.3-6.6,9.6-11.4
			c2-2.9,0.4-7,0.9-9.5c0.8-4.3,3.5-6.9,4.1-10.1c0.3-1.6-3-0.7-4.5,0c-2.2,1.1-4.1,4.2-5.1,7.7c-2.2,8.5-7.1,7.9-12,13.3
			c-4.6,5-9.5,4.4-7.7,0.1s11.1-8.9,7.6-13.3c-1.4-1.5-4.1,2-7.5,4.3c-2.6,1.7-5.4,3.6-5.9,3.9c-2,1.3-4,3.4-6.7,8.8
			c-2.3,4.6-0.9,5.3-1.8,8.9c-1.1,4.7-31,16.4-30.3,19.3L454.3,174.6z"/>
		<path class="st28" d="M511.9,100.3"/>
		<path class="st28" d="M477.4,120.4"/>
		<path class="st28" d="M511.9,100.3"/>
		<path class="st4" d="M538.6,60.6c-2.4,1.2-8.3,6.1-13.3,10l15.5,18.5l1-0.5l0.3,2.6l3.1-4.5L538.6,60.6z"/>
		<polygon class="st4" points="436.9,151.1 447.3,148.8 447.5,150 449.9,151.1 456.8,167.8 457.6,170.8 458.7,172.1 452.1,178 		"/>
	</g>
</g>
<rect x="-207.7" y="-52.1" class="st9" width="59.2" height="59.2"/>
<rect x="-148.5" y="-52.1" class="st10" width="59.2" height="59.2"/>
<rect x="-178.1" y="53.8" width="59.2" height="59.2"/>
</svg>
