<svg id="Layer_1" data-name="Layer 1" xmlns="http://www.w3.org/2000/svg" viewBox="0 0 139.58 55.9"><defs><style>.cls-1,.cls-2{fill:none;stroke:#cc1f3d;stroke-linecap:round;stroke-width:0.95px;}.cls-1,.cls-2,.cls-3{stroke-miterlimit:10;}.cls-2{stroke-dasharray:1.9 1.9;}.cls-3{fill:#fff;stroke:#fec412;stroke-width:1.22px;}.cls-4{fill:#cc1f3d;}.cls-5{font-size:28.07px;fill:#045563;font-family:Nobel-Regular, Nobel;}.cls-6{letter-spacing:-0.02em;}.cls-7{letter-spacing:-0.01em;}.cls-8{letter-spacing:0em;}</style></defs><title>Artboard 11</title><path class="cls-1" d="M14.93,5.54a3.23,3.23,0,0,1-.64.7"/><path class="cls-2" d="M12.57,7a6.27,6.27,0,0,1-1,.08c-3.72,0-6.35,4.71-2.22,6.64,1.4.65,3,.38,4.53.18,2.57-.34,5.1-1.22,7.9-.36,2.59.79,6.43,3.15,5.92,9.21A8.6,8.6,0,0,1,22,29.84a16.06,16.06,0,0,1-10.25.44,4.1,4.1,0,0,1-2.2-1.22,1.4,1.4,0,0,1-.17-1.66,1.29,1.29,0,0,1,2,.29A2,2,0,0,1,11,29.91c-1.66,1.9-4.23,1.84-6.44,2.56C1.77,33.37.62,36.27,1.1,39A5.92,5.92,0,0,0,6,43.45c3.47.62,6-1.63,9.15-2.6s8.48-.53,8.48,3.84c0,2.6-2.3,4.15-4.7,4.43a7.41,7.41,0,0,0-2.47.56"/><path class="cls-1" d="M15.72,50.24a2.43,2.43,0,0,0-.48.82"/><circle class="cls-3" cx="15.22" cy="2.4" r="1.23"/><polygon class="cls-4" points="14.81 52.29 15.52 53.51 16.23 54.73 14.81 54.73 13.4 54.73 14.11 53.51 14.81 52.29"/><text class="cls-5" transform="translate(36.55 22.84)">tomy <tspan x="0" y="28.77">ta</tspan><tspan class="cls-6" x="21.08" y="28.77">k</tspan><tspan x="33.71" y="28.77">emu</tspan><tspan class="cls-7" x="81.32" y="28.77">r</tspan><tspan class="cls-8" x="90.98" y="28.77">a</tspan></text></svg>