<?xml version="1.0" encoding="utf-8"?>
<!-- Generator: Adobe Illustrator 24.0.3, SVG Export Plug-In . SVG Version: 6.00 Build 0)  -->
<svg version="1.1" id="Layer_1" xmlns="http://www.w3.org/2000/svg" xmlns:xlink="http://www.w3.org/1999/xlink" x="0px" y="0px"
	 viewBox="0 0 1920 1080" style="enable-background:new 0 0 1920 1080;" xml:space="preserve">
<style type="text/css">
	.st0{fill:#015563;}
	.st1{fill:#CC1F3D;}
	.st2{fill:none;stroke:#CC1F3D;stroke-width:4.1386;stroke-linecap:round;stroke-miterlimit:10;}
	.st3{fill:none;stroke:#CC1F3D;stroke-width:4.1386;stroke-linecap:round;stroke-miterlimit:10;stroke-dasharray:8.3445,8.3445;}
	.st4{fill:#FFFFFF;stroke:#FFC310;stroke-width:8.3551;stroke-miterlimit:10;}
</style>
<g>
	<path class="st0" d="M571.8,789.6c-13.9,0-22.7-2.8-22.7-20.7v-28.3h-8.4v-12.9h8.4v-28.6H563v28.6h11v12.9h-11v27.9
		c0,6.5,2.3,7.9,8.7,7.9c0.7,0,2.5-0.1,2.5-0.1v13.2C574.2,789.5,572.4,789.6,571.8,789.6z"/>
	<path class="st0" d="M616.1,790.5c-18,0-31.1-12.8-31.1-32.7c0-16.4,11.7-31.8,30.8-31.8c19.1,0,31.7,14.7,31.7,31.3
		C647.5,775.7,634.8,790.5,616.1,790.5z M615.9,738.8c-10.4,0-16.6,8.5-16.6,18.9c0,12.2,6.2,19.8,16.4,19.8
		c12.5,0,17.6-8.5,17.6-19.5C633.3,746.2,626.6,738.8,615.9,738.8z"/>
	<path class="st0" d="M737.8,788.7v-39c0-7.5-4.6-10.9-10.7-10.9c-7.5,0-13.5,5.9-13.5,13.5v36.4h-13.9v-39c0-7.5-4.8-10.9-11-10.9
		c-7.5,0-13.2,5.9-13.2,13.6v36.2h-13.9v-61h13.9v5.9c3.5-4.4,9.7-7.6,16.1-7.6c9.7,0,15.3,3.4,19.2,9.4c4.7-6.5,13.4-9.4,19.7-9.4
		c16,0,21.3,10.1,21.3,22.5v40.4H737.8z"/>
	<path class="st0" d="M793.2,799.6c-2.8,8.1-7,15.4-19.4,15.4c-3.5,0-6.2-0.1-9.8-1.3v-12.6c1.9,0.7,4.1,1.3,6,1.3
		c9,0,9.8-6.2,12-12.5l-21.3-62.2h15.1l13.5,39.9l0.9,3.5c0-0.3,0.6-2.3,1-3.7l13.4-39.8h14.8L793.2,799.6z"/>
	<path class="st0" d="M877.8,789.6c-13.9,0-22.7-2.8-22.7-20.7v-28.3h-8.4v-12.9h8.4v-28.6h13.9v28.6h11v12.9h-11v27.9
		c0,6.5,2.3,7.9,8.7,7.9c0.7,0,2.5-0.1,2.5-0.1v13.2C880.1,789.5,878.3,789.6,877.8,789.6z"/>
	<path class="st0" d="M932.2,788.7v-4.4c-5.6,4.3-11.7,6.2-19.1,6.2c-15.4,0-22.9-9.2-22.9-20.5c0-14.4,14.4-22.3,33.2-22.3h9.1
		c0-7.3-3.1-10-12.2-10c-7.6,0-13.5,1-18.8,3.4l-4.8-10.4c5.7-3.4,15.3-4.7,22-4.7c17,0,27.4,5,27.4,18.2v44.6H932.2z M932.2,758.9
		h-4c-15.8,0-23.8,3.2-23.8,11c0,5.9,6.6,8.2,12.5,8.2c6.2,0,9.7-1,15.3-4.8V758.9z"/>
	<path class="st0" d="M1001.7,788.7l-18.9-26.4l-6.6,5.7v20.7h-13.9V681.6h13.9V751l24.2-23.3h19.2l-26.6,24.9l26.7,36.1H1001.7z"/>
	<path class="st0" d="M1038.6,760c0.4,9.8,7.3,17.6,18,17.6c9.5,0,14.8-3.1,20.4-7.3l8.5,8.8c-7.6,6.6-16.1,11.4-29.1,11.4
		c-17.9,0-31.8-12.3-31.8-32.9c0-17.9,12.9-31.7,31.3-31.7c18.3,0,30.7,14.2,30.7,34H1038.6z M1055.3,738.4c-7.9,0-14.5,4.3-16.1,11
		h32.3C1069.2,742.4,1063.1,738.4,1055.3,738.4z"/>
	<path class="st0" d="M1176.5,788.7v-39c0-7.5-4.6-10.9-10.7-10.9c-7.5,0-13.5,5.9-13.5,13.5v36.4h-13.9v-39c0-7.5-4.8-10.9-11-10.9
		c-7.5,0-13.2,5.9-13.2,13.6v36.2h-13.9v-61h13.9v5.9c3.5-4.4,9.7-7.6,16.1-7.6c9.7,0,15.3,3.4,19.2,9.4c4.7-6.5,13.4-9.4,19.7-9.4
		c16,0,21.3,10.1,21.3,22.5v40.4H1176.5z"/>
	<path class="st0" d="M1245.6,788.7v-7.3c-3.4,5.1-9.5,9.1-17.3,9.1c-14.5,0-22.5-7.9-22.5-23v-39.8h13.9v37.1
		c0,6.9,4,12.8,11.6,12.8c9.7,0,14.2-9.5,14.2-17v-32.9h13.9v61H1245.6z"/>
	<path class="st0" d="M1313.2,742.2c-3.2-2.3-6.2-3.1-8.8-3.1c-7.8,0-13.4,6.9-13.4,18.6v31h-13.9v-61h13.9v7.3
		c4.4-6,10-9.1,16.4-9.1c4.8,0,8.2,1.5,12,4.5L1313.2,742.2z"/>
	<path class="st0" d="M1365.2,788.7v-4.4c-5.6,4.3-11.7,6.2-19.1,6.2c-15.4,0-22.9-9.2-22.9-20.5c0-14.4,14.4-22.3,33.2-22.3h9.1
		c0-7.3-3.1-10-12.2-10c-7.6,0-13.5,1-18.8,3.4l-4.8-10.4c5.7-3.4,15.3-4.7,22-4.7c17,0,27.4,5,27.4,18.2v44.6H1365.2z
		 M1365.2,758.9h-4c-15.8,0-23.8,3.2-23.8,11c0,5.9,6.6,8.2,12.5,8.2c6.2,0,9.7-1,15.3-4.8V758.9z"/>
</g>
<polygon class="st1" points="970.6,613.1 975.4,621.5 980.2,629.9 970.6,629.9 960.9,629.9 965.7,621.5 "/>
<g>
	<g>
		<path class="st2" d="M968.6,294.9c-0.8,1.1-1.6,2.2-2.6,3.2"/>
		<path class="st3" d="M959.1,302.9c-3.6,1.6-8.1,2.7-13.7,2.7c-25.5,0-43.5,32.2-15.2,45.4c9.6,4.5,20.6,2.6,31,1.2
			c17.6-2.3,34.9-8.3,54-2.4c17.8,5.4,44,21.6,40.6,63.1c-1.8,21.6-17.1,39.7-39.1,48.5c-22.2,8.9-47.2,9.5-70.2,3
			c-5.6-1.6-11.5-3.8-15.1-8.3c-2.5-3.2-3.6-8.1-1.1-11.4c3.3-4.4,11.2-2.8,13.8,2c2.6,4.8,0.8,11.1-2.8,15.2
			c-11.4,13-28.9,12.5-44.1,17.5c-18.9,6.2-26.8,26-23.5,44.6c2.9,16.4,18,27.7,33.8,30.6c23.7,4.3,41.2-11.1,62.6-17.8
			c21.9-6.8,58.1-3.7,58.1,26.3c0,17.8-15.7,28.4-32.2,30.3c-7.2,0.8-15.5,1.8-20.9,6.5"/>
		<path class="st2" d="M972.5,602.9c-0.7,1.1-1.3,2.3-1.8,3.7"/>
	</g>
</g>
<circle class="st4" cx="970.6" cy="275.4" r="8.4"/>
</svg>
