<?xml version="1.0" encoding="utf-8"?>
<!-- Generator: Adobe Illustrator 24.0.3, SVG Export Plug-In . SVG Version: 6.00 Build 0)  -->
<svg version="1.1" id="Layer_1" xmlns="http://www.w3.org/2000/svg" xmlns:xlink="http://www.w3.org/1999/xlink" x="0px" y="0px"
	 viewBox="0 0 139.6 55.9" style="enable-background:new 0 0 139.6 55.9;" xml:space="preserve">
<style type="text/css">
	.st0{fill:none;stroke:#CC1F3D;stroke-width:0.95;stroke-linecap:round;stroke-miterlimit:10;}
	.st1{fill:none;stroke:#CC1F3D;stroke-width:0.95;stroke-linecap:round;stroke-miterlimit:10;stroke-dasharray:1.9,1.9;}
	.st2{fill:#FFFFFF;stroke:#FEC412;stroke-width:1.22;stroke-miterlimit:10;}
	.st3{fill:#CC1F3D;}
	.st4{enable-background:new    ;}
	.st5{fill:#045563;}
</style>
<title>Artboard 11</title>
<path class="st0" d="M14.9,5.5c-0.2,0.3-0.4,0.5-0.6,0.7"/>
<path class="st1" d="M12.6,7c-0.3,0.1-0.7,0.1-1,0.1c-3.7,0-6.3,4.7-2.2,6.6c1.4,0.6,3,0.4,4.5,0.2c2.6-0.3,5.1-1.2,7.9-0.4
	c2.6,0.8,6.4,3.2,5.9,9.2c-0.4,3.3-2.6,6-5.7,7.1c-3.3,1.3-6.9,1.4-10.2,0.4c-0.8-0.2-1.6-0.6-2.2-1.2c-0.4-0.5-0.5-1.1-0.2-1.7
	c0.5-0.5,1.3-0.5,1.8,0.1c0.1,0.1,0.1,0.2,0.2,0.2c0.3,0.7,0.2,1.6-0.4,2.2c-1.7,1.9-4.2,1.8-6.4,2.6c-2.8,0.9-3.9,3.8-3.5,6.5
	c0.6,2.3,2.5,4.1,4.9,4.5c3.5,0.6,6-1.6,9.1-2.6s8.5-0.5,8.5,3.8c0,2.6-2.3,4.2-4.7,4.4c-0.8,0-1.7,0.2-2.5,0.6"/>
<path class="st0" d="M15.7,50.2c-0.2,0.2-0.4,0.5-0.5,0.8"/>
<circle class="st2" cx="15.2" cy="2.4" r="1.2"/>
<polygon class="st3" points="14.8,52.3 15.5,53.5 16.2,54.7 14.8,54.7 13.4,54.7 14.1,53.5 "/>
<g class="st4">
	<path class="st5" d="M43.1,23c-2.7,0-4.4-0.5-4.4-4v-5.4h-1.6v-2.5h1.6V5.7h2.7v5.5h2.1v2.5h-2.1V19c0,1.2,0.4,1.5,1.7,1.5
		c0.1,0,0.5,0,0.5,0V23C43.6,23,43.3,23,43.1,23z"/>
	<path class="st5" d="M51.6,23.2c-3.5,0-6-2.4-6-6.3c0-3.1,2.2-6.1,5.9-6.1c3.7,0,6.1,2.8,6.1,6C57.6,20.3,55.2,23.2,51.6,23.2z
		 M51.6,13.3c-2,0-3.2,1.6-3.2,3.6c0,2.3,1.2,3.8,3.1,3.8c2.4,0,3.4-1.6,3.4-3.7C54.9,14.7,53.6,13.3,51.6,13.3z"/>
	<path class="st5" d="M74.9,22.8v-7.5c0-1.4-0.9-2.1-2-2.1c-1.4,0-2.6,1.1-2.6,2.6v7h-2.7v-7.5c0-1.4-0.9-2.1-2.1-2.1
		c-1.4,0-2.5,1.1-2.5,2.6v6.9h-2.7V11.2H63v1.1c0.7-0.8,1.9-1.5,3.1-1.5c1.9,0,2.9,0.6,3.7,1.8c0.9-1.2,2.6-1.8,3.8-1.8
		c3.1,0,4.1,1.9,4.1,4.3v7.7H74.9z"/>
	<path class="st5" d="M85.5,24.9c-0.5,1.5-1.3,2.9-3.7,2.9c-0.7,0-1.2,0-1.9-0.3v-2.4c0.4,0.1,0.8,0.3,1.2,0.3
		c1.7,0,1.9-1.2,2.3-2.4l-4.1-11.9h2.9l2.6,7.6l0.2,0.7c0-0.1,0.1-0.4,0.2-0.7l2.6-7.6h2.8L85.5,24.9z"/>
</g>
<g class="st4">
	<path class="st5" d="M43.1,51.8c-2.7,0-4.4-0.5-4.4-4v-5.4h-1.6v-2.5h1.6v-5.5h2.7v5.5h2.1v2.5h-2.1v5.3c0,1.2,0.4,1.5,1.7,1.5
		c0.1,0,0.5,0,0.5,0v2.5C43.6,51.8,43.3,51.8,43.1,51.8z"/>
	<path class="st5" d="M53.6,51.6v-0.8c-1.1,0.8-2.2,1.2-3.6,1.2c-2.9,0-4.4-1.8-4.4-3.9c0-2.8,2.8-4.3,6.3-4.3h1.7
		c0-1.4-0.6-1.9-2.3-1.9c-1.5,0-2.6,0.2-3.6,0.6l-0.9-2c1.1-0.6,2.9-0.9,4.2-0.9c3.3,0,5.3,1,5.3,3.5v8.5H53.6z M53.6,45.9h-0.8
		c-3,0-4.5,0.6-4.5,2.1c0,1.1,1.3,1.6,2.4,1.6c1.2,0,1.9-0.2,2.9-0.9V45.9z"/>
</g>
<g class="st4">
	<path class="st5" d="M66.9,51.6l-3.6-5.1L62,47.7v4h-2.7V31.1H62v13.3l4.6-4.5h3.7l-5.1,4.8l5.1,6.9H66.9z"/>
</g>
<g class="st4">
	<path class="st5" d="M73.9,46.1c0.1,1.9,1.4,3.4,3.5,3.4c1.8,0,2.8-0.6,3.9-1.4l1.6,1.7c-1.5,1.3-3.1,2.2-5.6,2.2
		c-3.4,0-6.1-2.4-6.1-6.3c0-3.4,2.5-6.1,6-6.1s5.9,2.7,5.9,6.5H73.9z M77.1,42c-1.5,0-2.8,0.8-3.1,2.1h6.2
		C79.8,42.7,78.6,42,77.1,42z"/>
	<path class="st5" d="M100.3,51.6v-7.5c0-1.4-0.9-2.1-2-2.1c-1.4,0-2.6,1.1-2.6,2.6v7H93v-7.5c0-1.4-0.9-2.1-2.1-2.1
		c-1.4,0-2.5,1.1-2.5,2.6v6.9h-2.7V39.9h2.7v1.1c0.7-0.8,1.9-1.5,3.1-1.5c1.9,0,2.9,0.6,3.7,1.8c0.9-1.2,2.6-1.8,3.8-1.8
		c3.1,0,4.1,1.9,4.1,4.3v7.7H100.3z"/>
	<path class="st5" d="M113.5,51.6v-1.4c-0.6,1-1.8,1.7-3.3,1.7c-2.8,0-4.3-1.5-4.3-4.4v-7.6h2.7V47c0,1.3,0.8,2.4,2.2,2.4
		c1.9,0,2.7-1.8,2.7-3.3v-6.3h2.7v11.7H113.5z"/>
</g>
<g class="st4">
	<path class="st5" d="M126.5,42.7c-0.6-0.4-1.2-0.6-1.7-0.6c-1.5,0-2.6,1.3-2.6,3.6v5.9h-2.7V39.9h2.7v1.4c0.8-1.2,1.9-1.7,3.1-1.7
		c0.9,0,1.6,0.3,2.3,0.9L126.5,42.7z"/>
</g>
<g class="st4">
	<path class="st5" d="M136.4,51.6v-0.8c-1.1,0.8-2.2,1.2-3.7,1.2c-2.9,0-4.4-1.8-4.4-3.9c0-2.8,2.8-4.3,6.3-4.3h1.7
		c0-1.4-0.6-1.9-2.3-1.9c-1.5,0-2.6,0.2-3.6,0.6l-0.9-2c1.1-0.6,2.9-0.9,4.2-0.9c3.3,0,5.2,1,5.2,3.5v8.5H136.4z M136.4,45.9h-0.8
		c-3,0-4.5,0.6-4.5,2.1c0,1.1,1.3,1.6,2.4,1.6c1.2,0,1.9-0.2,2.9-0.9V45.9z"/>
</g>
</svg>
